<?xml version="1.0" standalone="no"?>
<!DOCTYPE svg PUBLIC "-//W3C//DTD SVG 1.1//EN" "http://www.w3.org/Graphics/SVG/1.1/DTD/svg11.dtd" >
<svg xmlns="http://www.w3.org/2000/svg" xmlns:xlink="http://www.w3.org/1999/xlink" version="1.1">
<metadata>
Created by FontForge 20161116 at Tue Jun 16 13:36:57 2015
 By Jimmy Wärting
Copyright 1994-2015 Luc\(as\) de Groot, published by LucasFonts, www.lucasfonts.com  All rights reserved.
</metadata>
<defs>
<font id="TheSansC4s-Black" horiz-adv-x="600" >
  <font-face 
    font-family="TheSans C4s Black"
    font-weight="550"
    font-stretch="normal"
    units-per-em="1000"
    panose-1="2 11 9 2 5 3 2 2 2 3"
    ascent="740"
    descent="-260"
    x-height="497"
    cap-height="675"
    bbox="-477 -320 2970 980"
    underline-thickness="148"
    underline-position="-168"
    stemh="148"
    stemv="182"
    unicode-range="U+000D-FB06"
  />
<missing-glyph horiz-adv-x="550" 
d="M300 150h-150v250h50v-200h100v-50zM500 50h-450v450h450v-450zM350 350h-100v50h150v-250h-50v100h-100v50h100v50zM100 100h350v350h-350v-350z" />
    <glyph glyph-name="f_b" unicode="fb" horiz-adv-x="886" 
d="M328 357h-73v-357h-182v357h-63v140h63v28c0 121 59 216 266 216c101 0 217 -17 217 -17v-168c0 -33 -3 -76 -7 -103h1c22 33 68 56 129 56c121 0 182 -92 182 -232c0 -158 -95 -290 -282 -290c-112 0 -205 28 -205 28v574s-24 4 -51 4c-48 0 -68 -25 -68 -64v-32h73
v-140zM556 242v-103s15 -6 35 -6c42 0 78 29 78 125c0 72 -16 99 -49 99s-64 -38 -64 -115z" />
    <glyph glyph-name="f_f" unicode="ff" horiz-adv-x="662" 
d="M556 0h-182v357h-119v-357h-182v357h-63v140h63v22c0 147 89 213 257 213c49 0 102 -8 137 -16c33 17 74 25 125 25c36 0 72 -6 72 -6l-11 -150s-25 8 -50 8c-31 0 -47 -13 -47 -55v-41h85v-140h-85v-357zM374 497v26c0 18 1 37 3 53c-15 4 -38 7 -55 7
c-49 0 -67 -23 -67 -60v-26h119z" />
    <glyph glyph-name="f_f_b" unicode="ffb" horiz-adv-x="1187" 
d="M629 357h-73v-357h-182v357h-119v-357h-182v357h-63v140h63v22c0 147 89 212 257 212c49 0 109 -8 151 -18c39 17 87 28 159 28c101 0 217 -17 217 -17v-168c0 -33 -3 -76 -7 -103h1c22 33 68 56 129 56c121 0 182 -92 182 -232c0 -158 -95 -290 -282 -290
c-112 0 -205 28 -205 28v574s-24 4 -51 4c-48 0 -68 -25 -68 -64v-32h73v-140zM374 497v28c0 17 2 36 4 51c-16 4 -39 7 -56 7c-49 0 -67 -23 -67 -60v-26h119zM857 242v-103s15 -6 35 -6c42 0 78 29 78 125c0 72 -16 99 -49 99s-64 -38 -64 -115z" />
    <glyph glyph-name="f_f_f" unicode="fff" horiz-adv-x="963" 
d="M857 0h-182v357h-119v-357h-182v357h-119v-357h-182v357h-63v140h63v19c0 147 89 213 257 213c49 0 102 -8 137 -16c33 17 74 25 125 25c36 0 72 -6 72 -6l-11 -150s-25 8 -50 8c-31 0 -47 -13 -47 -55v-38h119v26c0 152 73 218 218 218c36 0 72 -6 72 -6l-11 -150
s-25 8 -50 8c-31 0 -47 -13 -47 -55v-41h85v-140h-85v-357zM374 497v23c0 18 1 37 3 53c-15 4 -38 7 -55 7c-49 0 -67 -23 -67 -60v-23h119z" />
    <glyph glyph-name="f_f_h" unicode="ffh" horiz-adv-x="1192" 
d="M1145 0h-182v314c0 25 -7 41 -28 41c-40 0 -78 -58 -78 -114v-241h-182v589s-24 4 -51 4c-48 0 -68 -25 -68 -64v-32h73v-140h-73v-357h-182v357h-119v-357h-182v357h-63v140h63v22c0 147 89 212 257 212c49 0 109 -8 151 -18c39 17 87 28 159 28c101 0 217 -17 217 -17
v-176c0 -27 -2 -70 -9 -103h1c29 37 80 64 149 64c110 0 147 -72 147 -157v-352zM374 497v28c0 17 2 36 4 51c-16 4 -39 7 -56 7c-49 0 -67 -23 -67 -60v-26h119z" />
    <glyph glyph-name="f_f_i" unicode="ffi" horiz-adv-x="900" 
d="M857 0h-182v357h-119v-357h-182v357h-119v-357h-182v357h-63v140h63v22c0 147 89 213 257 213c49 0 119 -10 158 -21c40 20 97 32 169 32c59 0 116 -8 169 -19l-31 -151c-51 12 -100 19 -147 19c-65 0 -92 -27 -92 -77v-18h301v-497zM374 497v8c0 28 3 50 7 70
c-19 5 -41 8 -59 8c-49 0 -67 -23 -67 -60v-26h119z" />
    <glyph glyph-name="f_f_igrave" unicode="ff&#xec;" horiz-adv-x="904" 
d="M857 0h-182v357h-119v-357h-182v357h-119v-357h-182v357h-63v140h63v21c0 152 73 218 216 218c36 0 66 -5 66 -5l-11 -149s-20 6 -44 6c-29 0 -45 -13 -45 -55v-36h119v26c0 152 73 218 194 218c31 0 57 -5 57 -5l-11 -149s-14 6 -27 6c-22 0 -31 -18 -31 -55v-41h301
v-497zM867 597l-104 -57l-127 179l126 68z" />
    <glyph glyph-name="f_f_iacute" unicode="ff&#xed;" horiz-adv-x="904" 
d="M857 0h-182v357h-119v-357h-182v357h-119v-357h-182v357h-63v140h63v21c0 152 73 218 216 218c36 0 66 -5 66 -5l-11 -149s-20 6 -44 6c-29 0 -45 -13 -45 -55v-36h119v26c0 152 73 218 216 218c36 0 66 -5 66 -5l-11 -149s-20 6 -44 6c-29 0 -45 -13 -45 -55v-41h301
v-497zM912 706l-148 -164l-96 68l127 177z" />
    <glyph glyph-name="f_f_icircumflex" unicode="ff&#xee;" horiz-adv-x="904" 
d="M857 0h-182v357h-119v-357h-182v357h-119v-357h-182v357h-63v140h63v21c0 152 73 218 216 218c36 0 66 -5 66 -5l-11 -149s-20 6 -44 6c-29 0 -45 -13 -45 -55v-36h119v26c0 152 73 218 194 218c31 0 57 -5 57 -5l-11 -149s-14 6 -27 6c-22 0 -31 -18 -31 -55v-41h301
v-497zM927 627l-61 -83l-93 77l-95 -77l-59 81l155 143z" />
    <glyph glyph-name="f_f_itilde" unicode="ff&#x129;" horiz-adv-x="904" 
d="M869 717l83 -62c-27 -66 -72 -107 -119 -107c-52 0 -59 40 -85 40c-15 0 -28 -9 -39 -37l-83 62c27 66 72 107 119 107c52 0 59 -40 85 -40c15 0 28 9 39 37zM857 0h-182v357h-119v-357h-182v357h-119v-357h-182v357h-63v140h63v26c0 146 69 213 204 213
c34 0 61 -5 61 -5l-9 -149s-16 6 -34 6c-24 0 -40 -11 -40 -49v-42h119v26c0 152 73 218 194 218c31 0 57 -5 57 -5l-11 -149s-14 6 -27 6c-22 0 -31 -18 -31 -55v-41h301v-497z" />
    <glyph glyph-name="f_f_idieresis" unicode="ff&#xef;" horiz-adv-x="934" 
d="M994 640c0 -50 -41 -91 -91 -91s-91 41 -91 91s41 91 91 91s91 -41 91 -91zM802 640c0 -50 -41 -91 -91 -91s-91 41 -91 91s41 91 91 91s91 -41 91 -91zM887 0h-182v357h-149v-357h-182v357h-119v-357h-182v357h-63v140h63v26c0 146 69 213 204 213c34 0 61 -5 61 -5
l-9 -149s-16 6 -34 6c-24 0 -40 -11 -40 -49v-42h119v26c0 145 66 218 196 218c23 0 45 -3 45 -3l-11 -147s-11 3 -23 3c-17 0 -25 -16 -25 -56v-41h331v-497z" />
    <glyph glyph-name="f_f_imacron" unicode="ff&#x12b;" horiz-adv-x="904" 
d="M904 575h-265v130h265v-130zM857 0h-182v357h-119v-357h-182v357h-119v-357h-182v357h-63v140h63v26c0 146 69 213 204 213c34 0 61 -5 61 -5l-9 -149s-16 6 -34 6c-24 0 -40 -11 -40 -49v-42h119v26c0 145 66 218 196 218c19 0 45 -3 45 -3l-11 -147s-11 3 -23 3
c-17 0 -25 -16 -25 -56v-41h301v-497z" />
    <glyph glyph-name="f_f_ibreve" unicode="ff&#x12d;" horiz-adv-x="904" 
d="M857 0h-182v357h-119v-357h-182v357h-119v-357h-182v357h-63v140h63v21c0 152 73 218 216 218c36 0 66 -5 66 -5l-11 -149s-20 6 -44 6c-29 0 -45 -13 -45 -55v-36h119v26c0 152 73 218 194 218c31 0 57 -5 57 -5l-11 -149s-14 6 -27 6c-22 0 -31 -18 -31 -55v-41h301
v-497zM811 724h114c0 -114 -51 -180 -147 -180c-97 0 -144 67 -144 180h113c0 -30 12 -53 32 -53s32 20 32 53z" />
    <glyph glyph-name="f_f_iogonek" unicode="ff&#x12f;" horiz-adv-x="904" 
d="M374 497v8c0 28 3 50 7 70c-19 5 -41 8 -59 8c-49 0 -67 -23 -67 -60v-26h119zM875 -87l46 -96c-46 -41 -100 -58 -157 -58c-87 0 -149 40 -149 117c0 52 27 92 60 124v357h-119v-357h-182v357h-119v-357h-182v357h-63v140h63v22c0 147 89 213 257 213
c49 0 119 -10 158 -21c40 20 97 32 169 32c59 0 116 -8 169 -19l-31 -151c-51 12 -100 19 -147 19c-65 0 -92 -27 -92 -77v-18h301v-497c-58 -31 -75 -60 -75 -84c0 -15 10 -25 29 -25c21 0 42 8 64 22z" />
    <glyph glyph-name="f_f_dotlessi" unicode="ff&#x131;" horiz-adv-x="904" 
d="M857 0h-182v357h-119v-357h-182v357h-119v-357h-182v357h-63v140h63v21c0 152 73 218 216 218c36 0 66 -5 66 -5l-11 -149s-20 6 -44 6c-29 0 -45 -13 -45 -55v-36h119v26c0 152 73 218 216 218c36 0 66 -5 66 -5l-11 -149s-20 6 -44 6c-29 0 -45 -13 -45 -55v-41h301
v-497z" />
    <glyph glyph-name="f_f_j" unicode="ffj" horiz-adv-x="904" 
d="M857 497v-508c0 -135 -58 -228 -224 -228c-24 0 -52 4 -74 10l9 153c18 -7 41 -11 55 -11c37 0 52 19 52 55v389h-119v-357h-182v357h-119v-357h-182v357h-63v140h63v22c0 147 89 213 257 213c49 0 119 -10 158 -21c40 20 97 32 169 32c59 0 116 -8 169 -19l-31 -151
c-51 12 -100 19 -147 19c-65 0 -92 -27 -92 -77v-18h301zM374 497v8c0 28 3 50 7 70c-19 5 -41 8 -59 8c-49 0 -67 -23 -67 -60v-26h119z" />
    <glyph glyph-name="f_f_dotlessj" unicode="ff&#x237;" horiz-adv-x="904" 
d="M857 497v-508c0 -135 -63 -228 -220 -228c-37 0 -78 8 -78 8l9 153s30 -9 61 -9c30 0 46 17 46 55v389h-119v-357h-182v357h-119v-357h-182v357h-63v140h63v21c0 152 73 218 216 218c36 0 66 -5 66 -5l-11 -149s-20 6 -44 6c-29 0 -45 -13 -45 -55v-36h119v26
c0 152 73 218 194 218c31 0 57 -5 57 -5l-11 -149s-14 6 -27 6c-22 0 -31 -18 -31 -55v-41h301z" />
    <glyph glyph-name="f_f_jcircumflex" unicode="ff&#x135;" horiz-adv-x="904" 
d="M857 497v-508c0 -135 -63 -228 -220 -228c-37 0 -78 8 -78 8l9 153s30 -9 61 -9c30 0 46 17 46 55v389h-119v-357h-182v357h-119v-357h-182v357h-63v140h63v21c0 152 73 218 216 218c36 0 66 -5 66 -5l-11 -149s-20 6 -44 6c-29 0 -45 -13 -45 -55v-36h119v26
c0 152 73 218 194 218c31 0 57 -5 57 -5l-11 -149s-14 6 -27 6c-22 0 -31 -18 -31 -55v-41h301zM927 627l-61 -83l-93 77l-95 -77l-59 81l155 143z" />
    <glyph glyph-name="f_f_k" unicode="ffk" horiz-adv-x="1193" 
d="M374 497v28c0 17 2 36 4 51c-16 4 -39 7 -56 7c-49 0 -67 -23 -67 -60v-26h119zM1193 0h-225l-111 230v-230h-182v589s-24 4 -51 4c-48 0 -68 -25 -68 -64v-32h73v-140h-73v-357h-182v357h-119v-357h-182v357h-63v140h63v22c0 147 89 212 257 212c49 0 109 -8 151 -18
c39 17 87 28 159 28c101 0 217 -17 217 -17v-418l102 191h224l-151 -228z" />
    <glyph glyph-name="f_f_l" unicode="ffl" horiz-adv-x="900" 
d="M857 0h-182v589s-24 4 -51 4c-48 0 -68 -25 -68 -64v-32h73v-140h-73v-357h-182v357h-119v-357h-182v357h-63v140h63v22c0 147 89 212 257 212c49 0 109 -8 151 -18c39 17 87 28 159 28c101 0 217 -17 217 -17v-724zM374 497v28c0 17 2 36 4 51c-16 4 -39 7 -56 7
c-49 0 -67 -23 -67 -60v-26h119z" />
    <glyph glyph-name="f_h" unicode="fh" horiz-adv-x="887" 
d="M844 0h-182v314c0 25 -7 41 -28 41c-40 0 -78 -58 -78 -114v-241h-182v589s-24 4 -51 4c-48 0 -68 -25 -68 -64v-32h73v-140h-73v-357h-182v357h-63v140h63v28c0 121 59 216 266 216c101 0 217 -17 217 -17v-176c0 -27 -2 -70 -9 -103h1c29 37 80 64 149 64
c110 0 147 -72 147 -157v-352z" />
    <glyph glyph-name="f_i" unicode="fi" horiz-adv-x="603" 
d="M556 0h-182v357h-119v-357h-182v357h-63v140h63v8c0 143 76 238 283 238c59 0 116 -8 169 -19l-31 -151c-51 12 -100 19 -147 19c-65 0 -92 -27 -92 -77v-18h301v-497z" />
    <glyph glyph-name="f_igrave" unicode="f&#xec;" horiz-adv-x="603" 
d="M556 0h-182v357h-119v-357h-182v357h-63v140h63v26c0 152 73 218 194 218c31 0 57 -5 57 -5l-11 -149s-14 6 -27 6c-22 0 -31 -18 -31 -55v-41h301v-497zM566 597l-104 -57l-127 179l126 68z" />
    <glyph glyph-name="f_iacute" unicode="f&#xed;" horiz-adv-x="603" 
d="M556 0h-182v357h-119v-357h-182v357h-63v140h63v26c0 152 73 218 216 218c36 0 66 -5 66 -5l-11 -149s-20 6 -44 6c-29 0 -45 -13 -45 -55v-41h301v-497zM611 706l-148 -164l-96 68l127 177z" />
    <glyph glyph-name="f_icircumflex" unicode="f&#xee;" horiz-adv-x="603" 
d="M556 0h-182v357h-119v-357h-182v357h-63v140h63v26c0 152 73 218 194 218c31 0 57 -5 57 -5l-11 -149s-14 6 -27 6c-22 0 -31 -18 -31 -55v-41h301v-497zM626 627l-61 -83l-93 77l-95 -77l-59 81l155 143z" />
    <glyph glyph-name="f_itilde" unicode="f&#x129;" horiz-adv-x="603" 
d="M556 0h-182v357h-119v-357h-182v357h-63v140h63v26c0 152 73 218 194 218c31 0 57 -5 57 -5l-11 -149s-14 6 -27 6c-22 0 -31 -18 -31 -56v-40h301v-497zM408 551l-83 62c27 66 72 107 119 107c52 0 59 -40 85 -40c15 0 28 9 39 37l83 -62c-27 -66 -72 -107 -119 -107
c-52 0 -59 40 -85 40c-15 0 -28 -9 -39 -37z" />
    <glyph glyph-name="f_idieresis" unicode="f&#xef;" horiz-adv-x="633" 
d="M586 0h-182v357h-149v-357h-182v357h-63v140h63v26c0 145 66 218 196 218c19 0 45 -3 45 -3l-11 -147s-11 3 -23 3c-17 0 -25 -16 -25 -56v-41h331v-497zM693 640c0 -50 -41 -91 -91 -91s-91 41 -91 91s41 91 91 91s91 -41 91 -91zM501 640c0 -50 -41 -91 -91 -91
s-91 41 -91 91s41 91 91 91s91 -41 91 -91z" />
    <glyph glyph-name="f_imacron" unicode="f&#x12b;" horiz-adv-x="603" 
d="M603 575h-265v130h265v-130zM556 0h-182v357h-119v-357h-182v357h-63v140h63v26c0 145 66 218 196 218c19 0 45 -3 45 -3l-11 -147s-11 3 -23 3c-17 0 -25 -16 -25 -56v-41h301v-497z" />
    <glyph glyph-name="f_ibreve" unicode="f&#x12d;" horiz-adv-x="603" 
d="M556 0h-182v357h-119v-357h-182v357h-63v140h63v26c0 152 73 218 194 218c31 0 57 -5 57 -5l-11 -149s-14 6 -27 6c-22 0 -31 -18 -31 -55v-41h301v-497zM510 724h114c0 -114 -51 -180 -147 -180c-97 0 -144 67 -144 180h113c0 -30 12 -53 32 -53s32 20 32 53z" />
    <glyph glyph-name="f_iogonek" unicode="f&#x12f;" horiz-adv-x="603" 
d="M574 -87l46 -96c-46 -41 -100 -58 -157 -58c-87 0 -149 40 -149 117c0 52 27 92 60 124v357h-119v-357h-182v357h-63v140h63v8c0 143 76 238 283 238c59 0 116 -8 169 -19l-31 -151c-51 12 -100 19 -147 19c-65 0 -92 -27 -92 -77v-18h301v-497c-58 -31 -75 -60 -75 -84
c0 -15 10 -25 29 -25c21 0 42 8 64 22z" />
    <glyph glyph-name="f_dotlessi" unicode="f&#x131;" horiz-adv-x="603" 
d="M556 0h-182v357h-119v-357h-182v357h-63v140h63v26c0 152 73 218 216 218c36 0 66 -5 66 -5l-11 -149s-20 6 -44 6c-29 0 -45 -13 -45 -55v-41h301v-497z" />
    <glyph glyph-name="f_j" unicode="fj" horiz-adv-x="599" 
d="M556 497v-508c0 -135 -58 -228 -224 -228c-24 0 -52 4 -74 10l9 153c18 -7 41 -11 55 -11c37 0 52 19 52 55v389h-119v-357h-182v357h-63v140h63v8c0 143 76 238 283 238c59 0 116 -8 169 -19l-31 -151c-51 12 -100 19 -147 19c-65 0 -92 -27 -92 -77v-18h301z" />
    <glyph glyph-name="f_dotlessj" unicode="f&#x237;" horiz-adv-x="603" 
d="M556 497v-508c0 -135 -58 -228 -224 -228c-24 0 -52 4 -74 10l9 153c18 -7 41 -11 55 -11c37 0 52 19 52 55v389h-119v-357h-182v357h-63v140h63v26c0 152 73 218 216 218c36 0 66 -5 66 -5l-11 -149s-20 6 -44 6c-29 0 -45 -13 -45 -55v-41h301z" />
    <glyph glyph-name="f_jcircumflex" unicode="f&#x135;" horiz-adv-x="603" 
d="M556 497v-508c0 -135 -58 -228 -224 -228c-24 0 -52 4 -74 10l9 153c18 -7 41 -11 55 -11c37 0 52 19 52 55v389h-119v-357h-182v357h-63v140h63v26c0 152 73 218 194 218c31 0 57 -5 57 -5l-11 -149s-14 6 -27 6c-22 0 -31 -18 -31 -55v-41h301zM626 627l-61 -83l-93 77
l-95 -77l-59 81l155 143z" />
    <glyph glyph-name="f_k" unicode="fk" horiz-adv-x="892" 
d="M892 0h-225l-111 230v-230h-182v589s-24 4 -51 4c-48 0 -68 -25 -68 -64v-32h73v-140h-73v-357h-182v357h-63v140h63v28c0 121 59 216 266 216c101 0 217 -17 217 -17v-418l102 191h224l-151 -228z" />
    <glyph glyph-name="f_l" unicode="fl" horiz-adv-x="603" 
d="M556 0h-182v589s-24 4 -51 4c-48 0 -68 -25 -68 -64v-32h73v-140h-73v-357h-182v357h-63v140h63v28c0 121 59 216 266 216c101 0 217 -17 217 -17v-724z" />
    <glyph glyph-name="f_lacute" unicode="f&#x13a;" horiz-adv-x="603" 
d="M556 0h-182v589s-24 4 -51 4c-48 0 -68 -25 -68 -64v-32h73v-140h-73v-357h-182v357h-63v140h63v28c0 121 59 216 266 216c101 0 217 -17 217 -17v-724zM655 812l-253 -49l-26 96l244 76z" />
    <glyph glyph-name="f_lcaron" unicode="f&#x13e;" horiz-adv-x="687" 
d="M556 0h-182v589s-24 4 -51 4c-48 0 -68 -25 -68 -64v-32h73v-140h-73v-357h-182v357h-63v140h63v28c0 121 59 216 266 216c101 0 217 -17 217 -17v-724zM756 772l-69 -236l-115 21l43 240z" />
    <glyph glyph-name="f_lcommaaccent" unicode="f&#x13c;" horiz-adv-x="603" 
d="M556 0h-182v589s-24 4 -51 4c-48 0 -68 -25 -68 -64v-32h73v-140h-73v-357h-182v357h-63v140h63v28c0 121 59 216 266 216c101 0 217 -17 217 -17v-724zM361 -245l-18 65c43 9 55 17 55 35c0 10 -3 19 -3 31c0 37 26 70 76 70c47 0 74 -33 74 -78
c0 -59 -53 -123 -184 -123z" />
    <glyph glyph-name="ellipsis" unicode="&#x2e;&#x2e;&#x2e;" horiz-adv-x="808" 
d="M768 90c0 -57 -47 -104 -104 -104s-104 47 -104 104s47 104 104 104s104 -47 104 -104zM508 90c0 -57 -47 -104 -104 -104s-104 47 -104 104s47 104 104 104s104 -47 104 -104zM248 90c0 -57 -47 -104 -104 -104s-104 47 -104 104s47 104 104 104s104 -47 104 -104z" />
    <glyph glyph-name="exclamdbl" unicode="&#x21;&#x21;" horiz-adv-x="631" 
d="M276 715l-25 -499h-160l-28 499h213zM272 86c0 -56 -45 -100 -104 -100s-104 44 -104 100s45 100 104 100s104 -44 104 -100zM576 715l-25 -499h-160l-28 499h213zM572 86c0 -56 -45 -100 -104 -100s-104 44 -104 100s45 100 104 100s104 -44 104 -100z" />
    <glyph glyph-name=".notdef" horiz-adv-x="550" 
d="M300 150h-150v250h50v-200h100v-50zM500 50h-450v450h450v-450zM350 350h-100v50h150v-250h-50v100h-100v50h100v50zM100 100h350v350h-350v-350z" />
    <glyph glyph-name=".null" horiz-adv-x="0" 
 />
    <glyph glyph-name=".null" horiz-adv-x="0" 
 />
    <glyph glyph-name="CR" unicode="&#xd;" horiz-adv-x="500" 
 />
    <glyph glyph-name="space" unicode=" " horiz-adv-x="218" 
 />
    <glyph glyph-name="uni00A0" unicode="&#xa0;" horiz-adv-x="218" 
 />
    <glyph glyph-name="LatinCapitals" unicode="&#xe021;" horiz-adv-x="1255" 
d="M1231 333h-171l-54 191c-7 27 -12 53 -15 84h-2c2 -46 4 -80 4 -118v-157h-110v402h183l42 -148c8 -27 14 -61 16 -84h2c-3 47 -4 93 -4 118v114h109v-402zM663 -180h-132l-13 62h-97l-12 -62h-121l92 402h191zM624 333h-132l-13 62h-97l-12 -62h-121l92 402h191z
M811 -180h-125v401c35 2 86 4 139 4c106 0 154 -46 154 -139c0 -96 -69 -148 -159 -148h-9v-118zM258 -74l25 -95c-24 -10 -54 -17 -90 -17c-138 0 -175 79 -175 199c0 132 64 215 183 215c30 0 60 -6 79 -12l-25 -98c-12 4 -26 7 -41 7c-39 0 -59 -28 -59 -104
c0 -74 17 -104 55 -104c19 0 33 3 48 9zM847 636h-66v-303h-125v303h-65v99h256v-99zM235 333h-211v402h125v-302h86v-100zM460 487l-21 103c-3 18 -6 37 -8 59h-1c-1 -22 -4 -41 -8 -59l-21 -103h59zM499 -26l-21 103c-3 18 -6 37 -8 59h-1c-1 -22 -4 -41 -8 -59l-21 -103
h59zM811 133v-102c3 -1 7 -2 12 -2c18 0 28 19 28 51c0 31 -8 53 -29 53h-11z" />
    <glyph glyph-name="A" unicode="A" horiz-adv-x="641" 
d="M651 0h-203l-33 120h-207l-33 -120h-184l202 675h251zM376 266l-39 143c-10 35 -18 73 -24 108h-2c-6 -35 -15 -74 -24 -108l-39 -143h128z" />
    <glyph glyph-name="Agrave" unicode="&#xc0;" horiz-adv-x="641" 
d="M651 0h-203l-33 120h-207l-33 -120h-184l202 675h251zM376 266l-39 143c-10 35 -18 73 -24 108h-2c-6 -35 -15 -74 -24 -108l-39 -143h128zM425 799l-26 -96l-253 49l35 123z" />
    <glyph glyph-name="Aacute" unicode="&#xc1;" horiz-adv-x="641" 
d="M651 0h-203l-33 120h-207l-33 -120h-184l202 675h251zM376 266l-39 143c-10 35 -18 73 -24 108h-2c-6 -35 -15 -74 -24 -108l-39 -143h128zM483 752l-253 -49l-26 96l244 76z" />
    <glyph glyph-name="Acircumflex" unicode="&#xc2;" horiz-adv-x="641" 
d="M651 0h-203l-33 120h-207l-33 -120h-184l202 675h251zM376 266l-39 143c-10 35 -18 73 -24 108h-2c-6 -35 -15 -74 -24 -108l-39 -143h128zM492 792l-38 -89l-138 48l-140 -48l-36 87l179 86z" />
    <glyph glyph-name="Atilde" unicode="&#xc3;" horiz-adv-x="641" 
d="M651 0h-203l-33 120h-207l-33 -120h-184l202 675h251zM376 266l-39 143c-10 35 -18 73 -24 108h-2c-6 -35 -15 -74 -24 -108l-39 -143h128zM431 870l88 -58c-35 -62 -83 -95 -145 -95c-70 0 -87 40 -121 40c-24 0 -37 -13 -51 -39l-88 58c35 62 83 95 145 95
c70 0 87 -40 121 -40c24 0 37 13 51 39z" />
    <glyph glyph-name="Adieresis" unicode="&#xc4;" horiz-adv-x="641" 
d="M651 0h-203l-33 120h-207l-33 -120h-184l202 675h251zM376 266l-39 143c-10 35 -18 73 -24 108h-2c-6 -35 -15 -74 -24 -108l-39 -143h128zM515 796c0 -50 -41 -91 -91 -91s-91 41 -91 91s41 91 91 91s91 -41 91 -91zM297 796c0 -50 -41 -91 -91 -91s-91 41 -91 91
s41 91 91 91s91 -41 91 -91z" />
    <glyph glyph-name="Amacron" unicode="&#x100;" horiz-adv-x="641" 
d="M651 0h-203l-33 120h-207l-33 -120h-184l202 675h251zM376 266l-39 143c-10 35 -18 73 -24 108h-2c-6 -35 -15 -74 -24 -108l-39 -143h128zM471 731h-318v109h318v-109z" />
    <glyph glyph-name="Abreve" unicode="&#x102;" horiz-adv-x="641" 
d="M651 0h-203l-33 120h-207l-33 -120h-184l202 675h251zM376 266l-39 143c-10 35 -18 73 -24 108h-2c-6 -35 -15 -74 -24 -108l-39 -143h128zM373 869h103c0 -83 -52 -157 -161 -157c-105 0 -159 74 -159 157h102c0 -29 24 -51 58 -51c36 0 57 22 57 51z" />
    <glyph glyph-name="Aring" unicode="&#xc5;" horiz-adv-x="641" 
d="M651 0h-203l-33 120h-207l-33 -120h-184l202 675h251zM376 266l-39 143c-10 35 -18 73 -24 108h-2c-6 -35 -15 -74 -24 -108l-39 -143h128zM476 838c0 -85 -72 -134 -163 -134c-96 0 -151 38 -151 122c0 85 72 134 163 134c96 0 151 -38 151 -122zM361 831
c0 36 -13 48 -41 48c-27 0 -43 -18 -43 -46c0 -36 13 -48 41 -48c27 0 43 18 43 46z" />
    <glyph glyph-name="Aring.alt" horiz-adv-x="641" 
d="M478 766c0 -38 -11 -69 -34 -91l207 -675h-203l-33 120h-207l-33 -120h-184l202 675c-18 19 -29 45 -29 79c0 85 72 134 163 134c96 0 151 -38 151 -122zM376 266l-39 143c-10 35 -18 73 -24 108h-2c-6 -35 -15 -74 -24 -108l-39 -143h128zM363 759c0 36 -13 48 -41 48
c-27 0 -43 -18 -43 -46c0 -36 13 -48 41 -48c27 0 43 18 43 46z" />
    <glyph glyph-name="Aringacute" unicode="&#x1fa;" horiz-adv-x="641" 
d="M651 0h-203l-33 120h-207l-33 -120h-184l202 675h251zM376 266l-39 143c-10 35 -18 73 -24 108h-2c-6 -35 -15 -74 -24 -108l-39 -143h128zM457 902l-203 -31l-19 61l195 48zM429 780c0 -58 -52 -91 -117 -91c-71 0 -108 25 -108 82c0 58 52 91 117 91
c70 0 108 -25 108 -82zM347 775c0 25 -10 33 -30 33c-19 0 -31 -11 -31 -32c0 -25 9 -32 29 -32c21 0 32 11 32 31z" />
    <glyph glyph-name="Aogonek" unicode="&#x104;" horiz-adv-x="641" 
d="M646 -87l46 -96c-46 -41 -100 -58 -157 -58c-87 0 -149 40 -149 117c0 45 20 87 62 124l-33 120h-207l-33 -120h-184l202 675h251l207 -675c-75 -20 -98 -55 -98 -84c0 -15 10 -25 29 -25c21 0 42 8 64 22zM376 266l-39 143c-10 35 -18 73 -24 108h-2
c-6 -35 -15 -74 -24 -108l-39 -143h128z" />
    <glyph glyph-name="uni01CD" unicode="&#x1cd;" horiz-adv-x="641" 
d="M651 0h-203l-33 120h-207l-33 -120h-184l202 675h251zM376 266l-39 143c-10 35 -18 73 -24 108h-2c-6 -35 -15 -74 -24 -108l-39 -143h128zM496 789l-179 -86l-173 84l38 89l138 -48l140 48z" />
    <glyph glyph-name="uni1EA0" unicode="&#x1ea0;" horiz-adv-x="641" 
d="M651 0h-203l-33 120h-207l-33 -120h-184l202 675h251zM376 266l-39 143c-10 35 -18 73 -24 108h-2c-6 -35 -15 -74 -24 -108l-39 -143h128zM412 -141c0 -57 -46 -103 -103 -103s-103 46 -103 103s46 103 103 103s103 -46 103 -103z" />
    <glyph glyph-name="uni1EA2" unicode="&#x1ea2;" horiz-adv-x="641" 
d="M651 0h-203l-33 120h-207l-33 -120h-184l202 675h251zM376 266l-39 143c-10 35 -18 73 -24 108h-2c-6 -35 -15 -74 -24 -108l-39 -143h128zM319 710l-22 78c15 4 36 15 36 31c0 12 -6 20 -34 20s-57 -9 -75 -17l-26 90c31 14 82 29 142 29c80 0 125 -32 125 -94
c0 -87 -103 -126 -146 -137z" />
    <glyph glyph-name="uni1EA4" unicode="&#x1ea4;" horiz-adv-x="641" 
d="M651 0h-203l-33 120h-207l-33 -120h-184l202 675h251zM376 266l-39 143c-10 35 -18 73 -24 108h-2c-6 -35 -15 -74 -24 -108l-39 -143h128zM431 885l-202 -51l-25 68l192 78zM479 771l-32 -78l-135 41l-130 -40l-29 74l163 75z" />
    <glyph glyph-name="uni1EA6" unicode="&#x1ea6;" horiz-adv-x="641" 
d="M651 0h-203l-33 120h-207l-33 -120h-184l202 675h251zM376 266l-39 143c-10 35 -18 73 -24 108h-2c-6 -35 -15 -74 -24 -108l-39 -143h128zM479 771l-32 -78l-135 41l-130 -40l-29 74l163 75zM424 910l-20 -68l-204 45l30 93z" />
    <glyph glyph-name="uni1EA8" unicode="&#x1ea8;" horiz-adv-x="641" 
d="M651 0h-203l-33 120h-207l-33 -120h-184l202 675h251zM376 266l-39 143c-10 35 -18 73 -24 108h-2c-6 -35 -15 -74 -24 -108l-39 -143h128zM412 821l-75 32c11 4 25 11 25 23c0 13 -10 20 -36 20c-21 0 -54 -10 -63 -14l-19 73c21 10 64 25 122 25c69 0 109 -27 109 -80
c0 -43 -46 -70 -63 -79zM479 771l-32 -78l-135 41l-130 -40l-29 74l163 75z" />
    <glyph glyph-name="uni1EAA" unicode="&#x1eaa;" horiz-adv-x="641" 
d="M651 0h-203l-33 120h-207l-33 -120h-184l202 675h251zM376 266l-39 143c-10 35 -18 73 -24 108h-2c-6 -35 -15 -74 -24 -108l-39 -143h128zM479 771l-32 -78l-135 41l-130 -40l-29 74l163 75zM411 977l75 -46c-27 -51 -66 -77 -111 -77c-53 0 -59 32 -85 32
c-15 0 -27 -7 -39 -29l-75 46c27 51 66 77 111 77c53 0 58 -32 85 -32c15 0 27 7 39 29z" />
    <glyph glyph-name="uni1EAC" unicode="&#x1eac;" horiz-adv-x="641" 
d="M651 0h-203l-33 120h-207l-33 -120h-184l202 675h251zM376 266l-39 143c-10 35 -18 73 -24 108h-2c-6 -35 -15 -74 -24 -108l-39 -143h128zM412 -141c0 -57 -46 -103 -103 -103s-103 46 -103 103s46 103 103 103s103 -46 103 -103zM492 792l-38 -89l-138 48l-140 -48
l-36 87l179 86z" />
    <glyph glyph-name="uni1EAE" unicode="&#x1eae;" horiz-adv-x="641" 
d="M651 0h-203l-33 120h-207l-33 -120h-184l202 675h251zM376 266l-39 143c-10 35 -18 73 -24 108h-2c-6 -35 -15 -74 -24 -108l-39 -143h128zM363 819h102c0 -67 -41 -121 -151 -121c-107 0 -149 55 -149 121h101c0 -20 17 -42 49 -42c33 0 48 22 48 42zM465 885l-202 -51
l-25 68l192 78z" />
    <glyph glyph-name="uni1EB0" unicode="&#x1eb0;" horiz-adv-x="641" 
d="M651 0h-203l-33 120h-207l-33 -120h-184l202 675h251zM376 266l-39 143c-10 35 -18 73 -24 108h-2c-6 -35 -15 -74 -24 -108l-39 -143h128zM363 819h102c0 -67 -41 -121 -151 -121c-107 0 -149 55 -149 121h101c0 -20 17 -42 49 -42c33 0 48 22 48 42zM389 903l-21 -67
l-203 52l33 92z" />
    <glyph glyph-name="uni1EB2" unicode="&#x1eb2;" horiz-adv-x="641" 
d="M651 0h-203l-33 120h-207l-33 -120h-184l202 675h251zM376 266l-39 143c-10 35 -18 73 -24 108h-2c-6 -35 -15 -74 -24 -108l-39 -143h128zM364 815h102c0 -67 -41 -121 -151 -121c-107 0 -149 55 -149 121h101c0 -20 17 -42 49 -42c33 0 48 22 48 42zM303 813l-15 54
c10 3 28 13 28 26c0 11 -11 16 -32 16c-20 0 -52 -9 -60 -12l-18 62c18 8 60 21 116 21c65 0 100 -22 100 -65c0 -62 -84 -94 -119 -102z" />
    <glyph glyph-name="uni1EB4" unicode="&#x1eb4;" horiz-adv-x="641" 
d="M651 0h-203l-33 120h-207l-33 -120h-184l202 675h251zM376 266l-39 143c-10 35 -18 73 -24 108h-2c-6 -35 -15 -74 -24 -108l-39 -143h128zM396 977l75 -46c-27 -51 -66 -77 -111 -77c-53 0 -59 32 -85 32c-15 0 -27 -7 -39 -29l-75 46c27 51 66 77 111 77
c53 0 58 -32 85 -32c15 0 27 7 39 29zM363 819h102c0 -67 -41 -121 -151 -121c-107 0 -149 55 -149 121h101c0 -20 17 -42 49 -42c33 0 48 22 48 42z" />
    <glyph glyph-name="uni1EB6" unicode="&#x1eb6;" horiz-adv-x="641" 
d="M651 0h-203l-33 120h-207l-33 -120h-184l202 675h251zM376 266l-39 143c-10 35 -18 73 -24 108h-2c-6 -35 -15 -74 -24 -108l-39 -143h128zM412 -141c0 -57 -46 -103 -103 -103s-103 46 -103 103s46 103 103 103s103 -46 103 -103zM373 869h103c0 -83 -52 -157 -161 -157
c-105 0 -159 74 -159 157h102c0 -29 24 -51 58 -51c36 0 57 22 57 51z" />
    <glyph glyph-name="AE" unicode="&#xc6;" horiz-adv-x="821" 
d="M778 0h-402v129h-168l-52 -129h-188l299 675h511v-158h-221v-95h200v-152h-200v-109h221v-161zM376 273v246h-11c-21 -57 -39 -103 -57 -147l-41 -99h109z" />
    <glyph glyph-name="AEacute" unicode="&#x1fc;" horiz-adv-x="821" 
d="M778 0h-402v129h-168l-52 -129h-188l299 675h511v-158h-221v-95h200v-152h-200v-109h221v-161zM376 273v246h-11c-21 -57 -39 -103 -57 -147l-41 -99h109zM706 752l-253 -49l-26 96l244 76z" />
    <glyph glyph-name="B" unicode="B" horiz-adv-x="597" 
d="M48 0v674s125 6 240 6c170 0 265 -57 265 -180c0 -55 -27 -110 -79 -137v-1c62 -23 101 -79 101 -144c0 -122 -102 -220 -290 -220c-41 0 -123 2 -237 2zM234 531v-118c11 -1 26 -1 42 -1c58 0 80 26 80 62c0 38 -28 59 -77 59c-18 0 -32 -1 -45 -2zM234 274v-126
c12 -1 37 -2 53 -2c56 0 86 24 86 66c0 35 -26 63 -89 63c-7 0 -39 0 -50 -1z" />
    <glyph glyph-name="uni1E02" unicode="&#x1e02;" horiz-adv-x="597" 
d="M48 0v674s125 6 240 6c170 0 265 -57 265 -180c0 -55 -27 -110 -79 -137v-1c62 -23 101 -79 101 -144c0 -122 -102 -220 -290 -220c-41 0 -123 2 -237 2zM234 531v-118c11 -1 26 -1 42 -1c58 0 80 26 80 62c0 38 -28 59 -77 59c-18 0 -32 -1 -45 -2zM234 274v-126
c12 -1 37 -2 53 -2c56 0 86 24 86 66c0 35 -26 63 -89 63c-7 0 -39 0 -50 -1zM385 806c0 -57 -46 -103 -103 -103s-103 46 -103 103s46 103 103 103s103 -46 103 -103z" />
    <glyph glyph-name="uni1E06" unicode="&#x1e06;" horiz-adv-x="597" 
d="M147 -208v130h300v-130h-300zM48 0v674s125 6 240 6c170 0 265 -57 265 -180c0 -55 -27 -110 -79 -137v-1c62 -23 101 -79 101 -144c0 -122 -102 -220 -290 -220c-41 0 -123 2 -237 2zM234 531v-118c11 -1 26 -1 42 -1c58 0 80 26 80 62c0 38 -28 59 -77 59
c-18 0 -32 -1 -45 -2zM234 274v-126c12 -1 37 -2 53 -2c56 0 86 24 86 66c0 35 -26 63 -89 63c-7 0 -39 0 -50 -1z" />
    <glyph glyph-name="C" unicode="C" horiz-adv-x="541" 
d="M482 185l25 -167c-47 -17 -106 -27 -160 -27c-265 0 -321 183 -321 324c0 229 134 369 349 369c44 0 91 -6 130 -18l-26 -174c-32 13 -69 21 -106 21c-92 0 -142 -69 -142 -176c0 -113 46 -173 146 -173c34 0 74 9 105 21z" />
    <glyph glyph-name="Cacute" unicode="&#x106;" horiz-adv-x="541" 
d="M482 185l25 -167c-47 -17 -106 -27 -160 -27c-265 0 -321 183 -321 324c0 229 134 369 349 369c44 0 91 -6 130 -18l-26 -174c-32 13 -69 21 -106 21c-92 0 -142 -69 -142 -176c0 -113 46 -173 146 -173c34 0 74 9 105 21zM502 752l-253 -49l-26 96l244 76z" />
    <glyph glyph-name="Ccircumflex" unicode="&#x108;" horiz-adv-x="541" 
d="M482 185l25 -167c-47 -17 -106 -27 -160 -27c-265 0 -321 183 -321 324c0 229 134 369 349 369c44 0 91 -6 130 -18l-26 -174c-32 13 -69 21 -106 21c-92 0 -142 -69 -142 -176c0 -113 46 -173 146 -173c34 0 74 9 105 21zM505 792l-38 -89l-138 48l-140 -48l-36 87
l179 86z" />
    <glyph glyph-name="Ccaron" unicode="&#x10c;" horiz-adv-x="541" 
d="M482 185l25 -167c-47 -17 -106 -27 -160 -27c-265 0 -321 183 -321 324c0 229 134 369 349 369c44 0 91 -6 130 -18l-26 -174c-32 13 -69 21 -106 21c-92 0 -142 -69 -142 -176c0 -113 46 -173 146 -173c34 0 74 9 105 21zM506 789l-179 -86l-173 84l38 89l138 -48
l140 48z" />
    <glyph glyph-name="Cdotaccent" unicode="&#x10a;" horiz-adv-x="541" 
d="M482 185l25 -167c-47 -17 -106 -27 -160 -27c-265 0 -321 183 -321 324c0 229 134 369 349 369c44 0 91 -6 130 -18l-26 -174c-32 13 -69 21 -106 21c-92 0 -142 -69 -142 -176c0 -113 46 -173 146 -173c34 0 74 9 105 21zM441 806c0 -57 -46 -103 -103 -103
s-103 46 -103 103s46 103 103 103s103 -46 103 -103z" />
    <glyph glyph-name="Ccedilla" unicode="&#xc7;" horiz-adv-x="541" 
d="M482 185l25 -167c-47 -17 -106 -27 -160 -27c-265 0 -321 183 -321 324c0 229 134 369 349 369c44 0 91 -6 130 -18l-26 -174c-32 13 -69 21 -106 21c-92 0 -142 -69 -142 -176c0 -113 46 -173 146 -173c34 0 74 9 105 21zM223 -77l146 38c53 -77 38 -146 -18 -194h-130
c43 48 50 93 2 156z" />
    <glyph glyph-name="D" unicode="D" horiz-adv-x="651" 
d="M48 1v672c53 3 145 6 243 6c197 0 335 -81 335 -325c0 -231 -145 -359 -364 -359c-73 0 -146 2 -214 6zM234 520v-361c8 -2 21 -3 43 -3c83 0 148 57 148 183c0 105 -20 183 -144 183c-22 0 -33 0 -47 -2z" />
    <glyph glyph-name="Dcaron" unicode="&#x10e;" horiz-adv-x="651" 
d="M48 1v672c53 3 145 6 243 6c197 0 335 -81 335 -325c0 -231 -145 -359 -364 -359c-73 0 -146 2 -214 6zM234 520v-361c8 -2 21 -3 43 -3c83 0 148 57 148 183c0 105 -20 183 -144 183c-22 0 -33 0 -47 -2zM460 789l-179 -86l-173 84l38 89l138 -48l140 48z" />
    <glyph glyph-name="uni1E0A" unicode="&#x1e0a;" horiz-adv-x="651" 
d="M48 1v672c53 3 145 6 243 6c197 0 335 -81 335 -325c0 -231 -145 -359 -364 -359c-73 0 -146 2 -214 6zM234 520v-361c8 -2 21 -3 43 -3c83 0 148 57 148 183c0 105 -20 183 -144 183c-22 0 -33 0 -47 -2zM388 806c0 -57 -46 -103 -103 -103s-103 46 -103 103
s46 103 103 103s103 -46 103 -103z" />
    <glyph glyph-name="uni1E0C" unicode="&#x1e0c;" horiz-adv-x="651" 
d="M48 1v672c53 3 145 6 243 6c197 0 335 -81 335 -325c0 -231 -145 -359 -364 -359c-73 0 -146 2 -214 6zM234 520v-361c8 -2 21 -3 43 -3c83 0 148 57 148 183c0 105 -20 183 -144 183c-22 0 -33 0 -47 -2zM408 -141c0 -57 -46 -103 -103 -103s-103 46 -103 103
s46 103 103 103s103 -46 103 -103z" />
    <glyph glyph-name="uni1E0E" unicode="&#x1e0e;" horiz-adv-x="651" 
d="M166 -208v130h300v-130h-300zM48 1v672c53 3 145 6 243 6c197 0 335 -81 335 -325c0 -231 -145 -359 -364 -359c-73 0 -146 2 -214 6zM234 520v-361c8 -2 21 -3 43 -3c83 0 148 57 148 183c0 105 -20 183 -144 183c-22 0 -33 0 -47 -2z" />
    <glyph glyph-name="Eth" unicode="&#xd0;" horiz-adv-x="661" 
d="M6 276v140h52v257c53 3 145 6 243 6c197 0 335 -81 335 -325c0 -221 -134 -358 -364 -359c-71 0 -146 2 -214 6v275h-52zM332 276h-91v-117c9 -2 22 -3 44 -3c85 0 150 57 150 183c0 106 -20 183 -146 183c-22 0 -33 0 -48 -2v-104h91v-140z" />
    <glyph glyph-name="Dcroat" unicode="&#x110;" horiz-adv-x="661" 
d="M6 276v140h52v257c53 3 145 6 243 6c197 0 335 -81 335 -325c0 -221 -134 -358 -364 -359c-71 0 -146 2 -214 6v275h-52zM332 276h-91v-117c9 -2 22 -3 44 -3c85 0 150 57 150 183c0 106 -20 183 -146 183c-22 0 -33 0 -48 -2v-104h91v-140z" />
    <glyph glyph-name="E" unicode="E" horiz-adv-x="506" 
d="M463 0h-415v675h415v-158h-229v-95h208v-152h-208v-109h229v-161z" />
    <glyph glyph-name="Egrave" unicode="&#xc8;" horiz-adv-x="506" 
d="M463 0h-415v675h415v-158h-229v-95h208v-152h-208v-109h229v-161zM361 799l-26 -96l-253 49l35 123z" />
    <glyph glyph-name="Eacute" unicode="&#xc9;" horiz-adv-x="506" 
d="M463 0h-415v675h415v-158h-229v-95h208v-152h-208v-109h229v-161zM421 752l-253 -49l-26 96l244 76z" />
    <glyph glyph-name="Ecircumflex" unicode="&#xca;" horiz-adv-x="506" 
d="M463 0h-415v675h415v-158h-229v-95h208v-152h-208v-109h229v-161zM431 792l-38 -89l-138 48l-140 -48l-36 87l179 86z" />
    <glyph glyph-name="Ecaron" unicode="&#x11a;" horiz-adv-x="506" 
d="M463 0h-415v675h415v-158h-229v-95h208v-152h-208v-109h229v-161zM431 789l-179 -86l-173 84l38 89l138 -48l140 48z" />
    <glyph glyph-name="Edieresis" unicode="&#xcb;" horiz-adv-x="506" 
d="M463 0h-415v675h415v-158h-229v-95h208v-152h-208v-109h229v-161zM454 796c0 -50 -41 -91 -91 -91s-91 41 -91 91s41 91 91 91s91 -41 91 -91zM236 796c0 -50 -41 -91 -91 -91s-91 41 -91 91s41 91 91 91s91 -41 91 -91z" />
    <glyph glyph-name="Emacron" unicode="&#x112;" horiz-adv-x="506" 
d="M463 0h-415v675h415v-158h-229v-95h208v-152h-208v-109h229v-161zM411 731h-318v109h318v-109z" />
    <glyph glyph-name="Ebreve" unicode="&#x114;" horiz-adv-x="506" 
d="M463 0h-415v675h415v-158h-229v-95h208v-152h-208v-109h229v-161zM314 869h103c0 -83 -52 -157 -161 -157c-105 0 -159 74 -159 157h102c0 -29 24 -51 58 -51c36 0 57 22 57 51z" />
    <glyph glyph-name="Edotaccent" unicode="&#x116;" horiz-adv-x="506" 
d="M463 0h-415v675h415v-158h-229v-95h208v-152h-208v-109h229v-161zM357 806c0 -57 -46 -103 -103 -103s-103 46 -103 103s46 103 103 103s103 -46 103 -103z" />
    <glyph glyph-name="Eogonek" unicode="&#x118;" horiz-adv-x="506" 
d="M450 -87l46 -96c-46 -41 -100 -58 -158 -58c-86 0 -148 40 -148 117c0 42 18 90 69 124h-211v675h415v-158h-229v-95h208v-152h-208v-109h229v-159c-82 -16 -106 -60 -106 -86c0 -15 10 -25 29 -25c21 0 42 8 64 22z" />
    <glyph glyph-name="uni1EB8" unicode="&#x1eb8;" horiz-adv-x="506" 
d="M463 0h-415v675h415v-158h-229v-95h208v-152h-208v-109h229v-161zM360 -141c0 -57 -46 -103 -103 -103s-103 46 -103 103s46 103 103 103s103 -46 103 -103z" />
    <glyph glyph-name="uni1EBA" unicode="&#x1eba;" horiz-adv-x="506" 
d="M463 0h-415v675h415v-158h-229v-95h208v-152h-208v-109h229v-161zM242 710l-22 78c15 4 36 15 36 31c0 12 -6 20 -34 20s-57 -9 -75 -17l-26 90c31 14 82 29 142 29c80 0 125 -32 125 -94c0 -87 -103 -126 -146 -137z" />
    <glyph glyph-name="uni1EBC" unicode="&#x1ebc;" horiz-adv-x="506" 
d="M463 0h-415v675h415v-158h-229v-95h208v-152h-208v-109h229v-161zM371 870l88 -58c-35 -62 -83 -95 -145 -95c-70 0 -87 40 -121 40c-24 0 -37 -13 -51 -39l-88 58c35 62 83 95 145 95c70 0 87 -40 121 -40c24 0 37 13 51 39z" />
    <glyph glyph-name="uni1EBE" unicode="&#x1ebe;" horiz-adv-x="506" 
d="M463 0h-415v675h415v-158h-229v-95h208v-152h-208v-109h229v-161zM370 885l-202 -51l-25 68l192 78zM418 771l-32 -78l-135 41l-130 -40l-29 74l163 75z" />
    <glyph glyph-name="uni1EC0" unicode="&#x1ec0;" horiz-adv-x="506" 
d="M463 0h-415v675h415v-158h-229v-95h208v-152h-208v-109h229v-161zM416 771l-32 -78l-135 41l-130 -40l-29 74l163 75zM361 910l-20 -68l-204 45l30 93z" />
    <glyph glyph-name="uni1EC2" unicode="&#x1ec2;" horiz-adv-x="506" 
d="M463 0h-415v675h415v-158h-229v-95h208v-152h-208v-109h229v-161zM351 821l-75 32c11 4 25 11 25 23c0 13 -10 20 -36 20c-21 0 -54 -10 -63 -14l-19 73c21 10 64 25 122 25c69 0 109 -27 109 -80c0 -43 -46 -70 -63 -79zM418 771l-32 -78l-135 41l-130 -40l-29 74
l163 75z" />
    <glyph glyph-name="uni1EC4" unicode="&#x1ec4;" horiz-adv-x="506" 
d="M463 0h-415v675h415v-158h-229v-95h208v-152h-208v-109h229v-161zM417 771l-32 -78l-135 41l-130 -40l-29 74l163 75zM349 977l75 -46c-27 -51 -66 -77 -111 -77c-53 0 -59 32 -85 32c-15 0 -27 -7 -39 -29l-75 46c27 51 66 77 111 77c53 0 58 -32 85 -32
c15 0 27 7 39 29z" />
    <glyph glyph-name="uni1EC6" unicode="&#x1ec6;" horiz-adv-x="506" 
d="M463 0h-415v675h415v-158h-229v-95h208v-152h-208v-109h229v-161zM356 -141c0 -57 -46 -103 -103 -103s-103 46 -103 103s46 103 103 103s103 -46 103 -103zM431 792l-38 -89l-138 48l-140 -48l-36 87l179 86z" />
    <glyph glyph-name="uni018F" unicode="&#x18f;" horiz-adv-x="609" 
d="M31 414h351c-12 65 -50 105 -124 105c-77 0 -130 -13 -181 -36l-35 158c72 32 157 47 231 47c180 0 315 -96 315 -340c0 -229 -119 -361 -312 -361c-172 0 -259 114 -259 288c0 47 6 99 14 139zM382 259h-163v-3c0 -72 34 -100 74 -100c47 0 85 41 89 103z" />
    <glyph glyph-name="F" unicode="F" horiz-adv-x="470" 
d="M445 515h-211v-113h197v-153h-197v-249h-186v675h397v-160z" />
    <glyph glyph-name="uni1E1E" unicode="&#x1e1e;" horiz-adv-x="470" 
d="M445 515h-211v-113h197v-153h-197v-249h-186v675h397v-160zM337 806c0 -57 -46 -103 -103 -103s-103 46 -103 103s46 103 103 103s103 -46 103 -103z" />
    <glyph glyph-name="G" unicode="G" horiz-adv-x="664" 
d="M617 368v-333c-65 -29 -151 -47 -243 -47c-236 0 -348 129 -348 322c0 232 142 376 392 376c76 0 149 -13 198 -28l-36 -170c-46 18 -102 30 -169 30c-128 0 -183 -77 -183 -186c0 -105 50 -174 165 -174c14 0 28 2 38 5v205h186z" />
    <glyph glyph-name="Gcircumflex" unicode="&#x11c;" horiz-adv-x="664" 
d="M617 368v-333c-65 -29 -151 -47 -243 -47c-236 0 -348 129 -348 322c0 232 142 376 392 376c76 0 149 -13 198 -28l-36 -170c-46 18 -102 30 -169 30c-128 0 -183 -77 -183 -186c0 -105 50 -174 165 -174c14 0 28 2 38 5v205h186zM558 792l-38 -89l-138 48l-140 -48
l-36 87l179 86z" />
    <glyph glyph-name="Gbreve" unicode="&#x11e;" horiz-adv-x="664" 
d="M617 368v-333c-65 -29 -151 -47 -243 -47c-236 0 -348 129 -348 322c0 232 142 376 392 376c76 0 149 -13 198 -28l-36 -170c-46 18 -102 30 -169 30c-128 0 -183 -77 -183 -186c0 -105 50 -174 165 -174c14 0 28 2 38 5v205h186zM453 869h103c0 -83 -52 -157 -161 -157
c-105 0 -159 74 -159 157h102c0 -29 24 -51 58 -51c36 0 57 22 57 51z" />
    <glyph glyph-name="Gdotaccent" unicode="&#x120;" horiz-adv-x="664" 
d="M617 368v-333c-65 -29 -151 -47 -243 -47c-236 0 -348 129 -348 322c0 232 142 376 392 376c76 0 149 -13 198 -28l-36 -170c-46 18 -102 30 -169 30c-128 0 -183 -77 -183 -186c0 -105 50 -174 165 -174c14 0 28 2 38 5v205h186zM491 816c0 -57 -46 -103 -103 -103
s-103 46 -103 103s46 103 103 103s103 -46 103 -103z" />
    <glyph glyph-name="Gcommaaccent" unicode="&#x122;" horiz-adv-x="664" 
d="M617 368v-333c-65 -29 -151 -47 -243 -47c-236 0 -348 129 -348 322c0 232 142 376 392 376c76 0 149 -13 198 -28l-36 -170c-46 18 -102 30 -169 30c-128 0 -183 -77 -183 -186c0 -105 50 -174 165 -174c14 0 28 2 38 5v205h186zM291 -245l-18 65c43 9 55 17 55 35
c0 10 -3 19 -3 31c0 37 26 70 76 70c47 0 74 -33 74 -78c0 -59 -53 -123 -184 -123z" />
    <glyph glyph-name="Gcaron" unicode="&#x1e6;" horiz-adv-x="664" 
d="M617 368v-333c-65 -29 -151 -47 -243 -47c-236 0 -348 129 -348 322c0 232 142 376 392 376c76 0 149 -13 198 -28l-36 -170c-46 18 -102 30 -169 30c-128 0 -183 -77 -183 -186c0 -105 50 -174 165 -174c14 0 28 2 38 5v205h186zM553 789l-179 -86l-173 84l38 89
l138 -48l140 48z" />
    <glyph glyph-name="uni1E20" unicode="&#x1e20;" horiz-adv-x="664" 
d="M617 368v-333c-65 -29 -151 -47 -243 -47c-236 0 -348 129 -348 322c0 232 142 376 392 376c76 0 149 -13 198 -28l-36 -170c-46 18 -102 30 -169 30c-128 0 -183 -77 -183 -186c0 -105 50 -174 165 -174c14 0 28 2 38 5v205h186zM537 731h-318v109h318v-109z" />
    <glyph glyph-name="G.alt1" horiz-adv-x="666" 
d="M617 412v-377c-65 -29 -153 -47 -245 -47c-234 0 -346 129 -346 322c0 232 142 376 392 376c67 0 139 -11 198 -28l-36 -170c-46 18 -102 30 -169 30c-128 0 -183 -77 -183 -186c0 -105 50 -174 165 -174c14 0 28 2 38 5v97h-101v152h287z" />
    <glyph glyph-name="Gcircumflex.alt1" horiz-adv-x="666" 
d="M617 412v-377c-65 -29 -153 -47 -245 -47c-234 0 -346 129 -346 322c0 232 142 376 392 376c67 0 139 -11 198 -28l-36 -170c-46 18 -102 30 -169 30c-128 0 -183 -77 -183 -186c0 -105 50 -174 165 -174c14 0 28 2 38 5v97h-101v152h287zM558 792l-38 -89l-138 48
l-140 -48l-36 87l179 86z" />
    <glyph glyph-name="Gbreve.alt1" horiz-adv-x="666" 
d="M617 412v-377c-65 -29 -153 -47 -245 -47c-234 0 -346 129 -346 322c0 232 142 376 392 376c67 0 139 -11 198 -28l-36 -170c-46 18 -102 30 -169 30c-128 0 -183 -77 -183 -186c0 -105 50 -174 165 -174c14 0 28 2 38 5v97h-101v152h287zM453 869h103
c0 -83 -52 -157 -161 -157c-105 0 -159 74 -159 157h102c0 -29 24 -51 58 -51c36 0 57 22 57 51z" />
    <glyph glyph-name="Gdotaccent.alt1" horiz-adv-x="666" 
d="M617 412v-377c-65 -29 -153 -47 -245 -47c-234 0 -346 129 -346 322c0 232 142 376 392 376c67 0 139 -11 198 -28l-36 -170c-46 18 -102 30 -169 30c-128 0 -183 -77 -183 -186c0 -105 50 -174 165 -174c14 0 28 2 38 5v97h-101v152h287zM491 806
c0 -57 -46 -103 -103 -103s-103 46 -103 103s46 103 103 103s103 -46 103 -103z" />
    <glyph glyph-name="Gcommaaccent.alt1" horiz-adv-x="666" 
d="M617 412v-377c-65 -29 -153 -47 -245 -47c-234 0 -346 129 -346 322c0 232 142 376 392 376c67 0 139 -11 198 -28l-36 -170c-46 18 -102 30 -169 30c-128 0 -183 -77 -183 -186c0 -105 50 -174 165 -174c14 0 28 2 38 5v97h-101v152h287zM291 -245l-18 65
c43 9 55 17 55 35c0 10 -3 19 -3 31c0 37 26 70 76 70c47 0 74 -33 74 -78c0 -59 -53 -123 -184 -123z" />
    <glyph glyph-name="Gcaron.alt1" horiz-adv-x="666" 
d="M617 412v-377c-65 -29 -153 -47 -245 -47c-234 0 -346 129 -346 322c0 232 142 376 392 376c67 0 139 -11 198 -28l-36 -170c-46 18 -102 30 -169 30c-128 0 -183 -77 -183 -186c0 -105 50 -174 165 -174c14 0 28 2 38 5v97h-101v152h287zM553 789l-179 -86l-173 84
l38 89l138 -48l140 48z" />
    <glyph glyph-name="uni1E20.alt1" horiz-adv-x="666" 
d="M617 412v-377c-65 -29 -153 -47 -245 -47c-234 0 -346 129 -346 322c0 232 142 376 392 376c67 0 139 -11 198 -28l-36 -170c-46 18 -102 30 -169 30c-128 0 -183 -77 -183 -186c0 -105 50 -174 165 -174c14 0 28 2 38 5v97h-101v152h287zM537 731h-318v109h318v-109z
" />
    <glyph glyph-name="H" unicode="H" horiz-adv-x="670" 
d="M622 0h-186v266h-202v-266h-186v675h186v-246h202v246h186v-675z" />
    <glyph glyph-name="Hcircumflex" unicode="&#x124;" horiz-adv-x="670" 
d="M622 0h-186v266h-202v-266h-186v675h186v-246h202v246h186v-675zM512 792l-38 -89l-138 48l-140 -48l-36 87l179 86z" />
    <glyph glyph-name="uni1E24" unicode="&#x1e24;" horiz-adv-x="670" 
d="M622 0h-186v266h-202v-266h-186v675h186v-246h202v246h186v-675zM436 -141c0 -57 -46 -103 -103 -103s-103 46 -103 103s46 103 103 103s103 -46 103 -103z" />
    <glyph glyph-name="Hbar" unicode="&#x126;" horiz-adv-x="690" 
d="M632 617h50v-152h-50v-465h-186v239h-202v-239h-186v465h-50v152h50v58h186v-58h202v58h186v-58zM446 465h-202v-74h202v74z" />
    <glyph glyph-name="I" unicode="I" horiz-adv-x="282" 
d="M234 0h-186v675h186v-675z" />
    <glyph glyph-name="Igrave" unicode="&#xcc;" horiz-adv-x="282" 
d="M234 0h-186v675h186v-675zM251 799l-26 -96l-253 49l35 123z" />
    <glyph glyph-name="Iacute" unicode="&#xcd;" horiz-adv-x="282" 
d="M234 0h-186v675h186v-675zM310 752l-253 -49l-26 96l244 76z" />
    <glyph glyph-name="Icircumflex" unicode="&#xce;" horiz-adv-x="282" 
d="M234 0h-186v675h186v-675zM317 792l-38 -89l-138 48l-140 -48l-36 87l179 86z" />
    <glyph glyph-name="Itilde" unicode="&#x128;" horiz-adv-x="282" 
d="M234 0h-186v675h186v-675zM256 870l88 -58c-35 -62 -83 -95 -145 -95c-70 0 -87 40 -121 40c-24 0 -37 -13 -51 -39l-88 58c35 62 83 95 145 95c70 0 87 -40 121 -40c24 0 37 13 51 39z" />
    <glyph glyph-name="Idieresis" unicode="&#xcf;" horiz-adv-x="282" 
d="M234 0h-186v675h186v-675zM336 796c0 -50 -41 -91 -91 -91s-91 41 -91 91s41 91 91 91s91 -41 91 -91zM128 796c0 -50 -41 -91 -91 -91s-91 41 -91 91s41 91 91 91s91 -41 91 -91z" />
    <glyph glyph-name="Imacron" unicode="&#x12a;" horiz-adv-x="282" 
d="M234 0h-186v675h186v-675zM300 731h-318v109h318v-109z" />
    <glyph glyph-name="Ibreve" unicode="&#x12c;" horiz-adv-x="282" 
d="M234 0h-186v675h186v-675zM197 869h103c0 -83 -52 -157 -161 -157c-105 0 -159 74 -159 157h102c0 -29 24 -51 58 -51c36 0 57 22 57 51z" />
    <glyph glyph-name="Idotaccent" unicode="&#x130;" horiz-adv-x="282" 
d="M234 0h-186v675h186v-675zM245 806c0 -57 -46 -103 -103 -103s-103 46 -103 103s46 103 103 103s103 -46 103 -103z" />
    <glyph glyph-name="Iogonek" unicode="&#x12e;" horiz-adv-x="282" 
d="M250 -87l46 -96c-46 -41 -100 -58 -157 -58c-87 0 -149 40 -149 117c0 52 27 92 58 124v675h186v-675c-60 -31 -77 -60 -77 -84c0 -15 10 -25 29 -25c21 0 42 8 64 22z" />
    <glyph glyph-name="uni01CF" unicode="&#x1cf;" horiz-adv-x="282" 
d="M234 0h-186v675h186v-675zM317 789l-179 -86l-173 84l38 89l138 -48l140 48z" />
    <glyph glyph-name="uni1EC8" unicode="&#x1ec8;" horiz-adv-x="282" 
d="M234 0h-186v675h186v-675zM135 710l-22 78c15 4 36 15 36 31c0 12 -6 20 -34 20s-57 -9 -75 -17l-26 90c31 14 82 29 142 29c80 0 125 -32 125 -94c0 -87 -103 -126 -146 -137z" />
    <glyph glyph-name="uni1ECA" unicode="&#x1eca;" horiz-adv-x="282" 
d="M234 0h-186v675h186v-675zM244 -141c0 -57 -46 -103 -103 -103s-103 46 -103 103s46 103 103 103s103 -46 103 -103z" />
    <glyph glyph-name="I.barred" horiz-adv-x="440" 
d="M406 0h-372v161h93v356h-93v158h372v-158h-93v-356h93v-161z" />
    <glyph glyph-name="Igrave.barred" horiz-adv-x="440" 
d="M406 0h-372v161h93v356h-93v158h372v-158h-93v-356h93v-161zM340 799l-26 -96l-253 49l35 123z" />
    <glyph glyph-name="Iacute.barred" horiz-adv-x="440" 
d="M406 0h-372v161h93v356h-93v158h372v-158h-93v-356h93v-161zM380 752l-253 -49l-26 96l244 76z" />
    <glyph glyph-name="Icircumflex.barred" horiz-adv-x="440" 
d="M406 0h-372v161h93v356h-93v158h372v-158h-93v-356h93v-161zM396 792l-38 -89l-138 48l-140 -48l-36 87l179 86z" />
    <glyph glyph-name="Itilde.barred" horiz-adv-x="440" 
d="M406 0h-372v161h93v356h-93v158h372v-158h-93v-356h93v-161zM335 870l88 -58c-35 -62 -83 -95 -145 -95c-70 0 -87 40 -121 40c-24 0 -37 -13 -51 -39l-88 58c35 62 83 95 145 95c70 0 87 -40 121 -40c24 0 37 13 51 39z" />
    <glyph glyph-name="Idieresis.barred" horiz-adv-x="440" 
d="M406 0h-372v161h93v356h-93v158h372v-158h-93v-356h93v-161zM420 796c0 -50 -41 -91 -91 -91s-91 41 -91 91s41 91 91 91s91 -41 91 -91zM202 796c0 -50 -41 -91 -91 -91s-91 41 -91 91s41 91 91 91s91 -41 91 -91z" />
    <glyph glyph-name="Imacron.barred" horiz-adv-x="440" 
d="M406 0h-372v161h93v356h-93v158h372v-158h-93v-356h93v-161zM379 731h-318v109h318v-109z" />
    <glyph glyph-name="Ibreve.barred" horiz-adv-x="440" 
d="M406 0h-372v161h93v356h-93v158h372v-158h-93v-356h93v-161zM277 869h103c0 -83 -52 -157 -161 -157c-105 0 -159 74 -159 157h102c0 -29 24 -51 58 -51c36 0 57 22 57 51z" />
    <glyph glyph-name="Idotaccent.barred" horiz-adv-x="440" 
d="M406 0h-372v161h93v356h-93v158h372v-158h-93v-356h93v-161zM323 806c0 -57 -46 -103 -103 -103s-103 46 -103 103s46 103 103 103s103 -46 103 -103z" />
    <glyph glyph-name="Iogonek.barred" horiz-adv-x="440" 
d="M393 -87l46 -96c-46 -41 -100 -58 -158 -58c-86 0 -148 40 -148 117c0 42 18 90 69 124h-168v161h93v356h-93v158h372v-158h-93v-356h93v-159c-82 -16 -106 -60 -106 -86c0 -15 10 -25 29 -25c21 0 42 8 64 22z" />
    <glyph glyph-name="uni01CF.barred" horiz-adv-x="440" 
d="M406 0h-372v161h93v356h-93v158h372v-158h-93v-356h93v-161zM396 789l-179 -86l-173 84l38 89l138 -48l140 48z" />
    <glyph glyph-name="uni1EC8.barred" horiz-adv-x="440" 
d="M406 0h-372v161h93v356h-93v158h372v-158h-93v-356h93v-161zM207 710l-22 78c15 4 36 15 36 31c0 12 -6 20 -34 20s-57 -9 -75 -17l-26 90c31 14 82 29 142 29c80 0 125 -32 125 -94c0 -87 -103 -126 -146 -137z" />
    <glyph glyph-name="uni1ECA.barred" horiz-adv-x="440" 
d="M406 0h-372v161h93v356h-93v158h372v-158h-93v-356h93v-161zM323 -141c0 -57 -46 -103 -103 -103s-103 46 -103 103s46 103 103 103s103 -46 103 -103z" />
    <glyph glyph-name="IJ" unicode="&#x132;" horiz-adv-x="624" 
d="M234 0h-186v675h186v-675zM578 675v-463c0 -113 -49 -223 -209 -223c-44 0 -69 3 -95 8v156c12 -4 33 -8 57 -8c41 0 61 21 61 66v464h186z" />
    <glyph glyph-name="IJ.alt1" horiz-adv-x="582" 
d="M234 0h-186v675h186v-675zM365 -228l-93 112c55 37 76 74 76 145v646h186v-635c0 -110 -34 -189 -169 -268z" />
    <glyph glyph-name="IJ.barred" horiz-adv-x="805" 
d="M406 0h-372v161h93v356h-93v158h372v-158h-93v-356h93v-161zM759 675v-463c0 -113 -49 -223 -209 -223c-44 0 -69 3 -95 8v156c12 -4 33 -8 57 -8c41 0 61 21 61 66v306h-118v158h304z" />
    <glyph glyph-name="J" unicode="J" horiz-adv-x="350" 
d="M304 675v-463c0 -113 -49 -223 -209 -223c-44 0 -69 3 -95 8v156c12 -4 33 -8 57 -8c41 0 61 21 61 66v464h186z" />
    <glyph glyph-name="Jcircumflex" unicode="&#x134;" horiz-adv-x="350" 
d="M304 675v-463c0 -113 -49 -223 -209 -223c-44 0 -69 3 -95 8v156c12 -4 33 -8 57 -8c41 0 61 21 61 66v464h186zM388 792l-38 -89l-138 48l-140 -48l-36 87l179 86z" />
    <glyph glyph-name="J.alt1" horiz-adv-x="282" 
d="M65 -228l-93 112c55 37 76 74 76 145v646h186v-635c0 -110 -34 -189 -169 -268z" />
    <glyph glyph-name="Jcircumflex.alt1" horiz-adv-x="282" 
d="M65 -228l-93 112c55 37 76 74 76 145v646h186v-635c0 -110 -34 -189 -169 -268zM317 792l-38 -89l-138 48l-140 -48l-36 87l179 86z" />
    <glyph glyph-name="J.barred" horiz-adv-x="388" 
d="M342 675v-463c0 -113 -49 -223 -209 -223c-44 0 -69 3 -95 8v156c12 -4 33 -8 57 -8c41 0 61 21 61 66v306h-118v158h304z" />
    <glyph glyph-name="Jcircumflex.barred" horiz-adv-x="388" 
d="M342 675v-463c0 -113 -49 -223 -209 -223c-44 0 -69 3 -95 8v156c12 -4 33 -8 57 -8c41 0 61 21 61 66v306h-118v158h304zM370 792l-38 -89l-138 48l-140 -48l-36 87l179 86z" />
    <glyph glyph-name="K" unicode="K" horiz-adv-x="615" 
d="M616 0h-239l-143 308v-308h-186v675h186v-289l146 289h223l-192 -323z" />
    <glyph glyph-name="Kcommaaccent" unicode="&#x136;" horiz-adv-x="615" 
d="M616 0h-239l-143 308v-308h-186v675h186v-289l146 289h223l-192 -323zM196 -245l-18 65c43 9 55 17 55 35c0 10 -3 19 -3 31c0 37 26 70 76 70c47 0 74 -33 74 -78c0 -59 -53 -123 -184 -123z" />
    <glyph glyph-name="uni01E8" unicode="&#x1e8;" horiz-adv-x="615" 
d="M616 0h-239l-143 308v-308h-186v675h186v-289l146 289h223l-192 -323zM483 789l-179 -86l-173 84l38 89l138 -48l140 48z" />
    <glyph glyph-name="uni1E32" unicode="&#x1e32;" horiz-adv-x="615" 
d="M616 0h-239l-143 308v-308h-186v675h186v-289l146 289h223l-192 -323zM392 -141c0 -57 -46 -103 -103 -103s-103 46 -103 103s46 103 103 103s103 -46 103 -103z" />
    <glyph glyph-name="uni1E34" unicode="&#x1e34;" horiz-adv-x="615" 
d="M158 -208v130h300v-130h-300zM616 0h-239l-143 308v-308h-186v675h186v-289l146 289h223l-192 -323z" />
    <glyph glyph-name="L" unicode="L" horiz-adv-x="432" 
d="M420 0h-372v675h186v-512h186v-163z" />
    <glyph glyph-name="Lacute" unicode="&#x139;" horiz-adv-x="432" 
d="M420 0h-372v675h186v-512h186v-163zM340 752l-253 -49l-26 96l244 76z" />
    <glyph glyph-name="Lcaron" unicode="&#x13d;" horiz-adv-x="442" 
d="M420 0h-372v675h186v-512h186v-163zM439 772l-69 -236l-115 21l43 240z" />
    <glyph glyph-name="Lcommaaccent" unicode="&#x13b;" horiz-adv-x="432" 
d="M420 0h-372v675h186v-512h186v-163zM136 -245l-18 65c43 9 55 17 55 35c0 10 -3 19 -3 31c0 37 26 70 76 70c47 0 74 -33 74 -78c0 -59 -53 -123 -184 -123z" />
    <glyph glyph-name="uni1E36" unicode="&#x1e36;" horiz-adv-x="432" 
d="M420 0h-372v675h186v-512h186v-163zM327 -141c0 -57 -46 -103 -103 -103s-103 46 -103 103s46 103 103 103s103 -46 103 -103z" />
    <glyph glyph-name="uni1E38" unicode="&#x1e38;" horiz-adv-x="432" 
d="M420 0h-372v675h186v-512h186v-163zM381 731h-318v109h318v-109zM334 -141c0 -57 -46 -103 -103 -103s-103 46 -103 103s46 103 103 103s103 -46 103 -103z" />
    <glyph glyph-name="Lslash" unicode="&#x141;" horiz-adv-x="442" 
d="M430 0h-372v266l-48 -23l-30 145l78 37v250h186v-163l79 36l30 -145l-109 -50v-190h186v-163z" />
    <glyph glyph-name="Ldot" unicode="&#x13f;" horiz-adv-x="592" 
d="M420 0h-372v675h186v-512h186v-163zM562 348c0 -60 -50 -110 -110 -110s-110 50 -110 110s50 110 110 110s110 -50 110 -110z" />
    <glyph glyph-name="M" unicode="M" horiz-adv-x="900" 
d="M891 0h-189l-22 241c-7 71 -13 172 -12 256h-3c-16 -84 -35 -167 -61 -253l-74 -244h-174l-74 244c-17 57 -51 182 -62 253h-3c1 -72 -4 -175 -11 -256l-21 -241h-176l72 675h260l73 -239c14 -47 28 -107 37 -162h2c9 55 20 115 34 162l73 239h259z" />
    <glyph glyph-name="uni1E40" unicode="&#x1e40;" horiz-adv-x="900" 
d="M891 0h-189l-22 241c-7 71 -13 172 -12 256h-3c-16 -84 -35 -167 -61 -253l-74 -244h-174l-74 244c-17 57 -51 182 -62 253h-3c1 -72 -4 -175 -11 -256l-21 -241h-176l72 675h260l73 -239c14 -47 28 -107 37 -162h2c9 55 20 115 34 162l73 239h259zM555 806
c0 -57 -46 -103 -103 -103s-103 46 -103 103s46 103 103 103s103 -46 103 -103z" />
    <glyph glyph-name="uni1E42" unicode="&#x1e42;" horiz-adv-x="900" 
d="M891 0h-189l-22 241c-7 71 -13 172 -12 256h-3c-16 -84 -35 -167 -61 -253l-74 -244h-174l-74 244c-17 57 -51 182 -62 253h-3c1 -72 -4 -175 -11 -256l-21 -241h-176l72 675h260l73 -239c14 -47 28 -107 37 -162h2c9 55 20 115 34 162l73 239h259zM552 -141
c0 -57 -46 -103 -103 -103s-103 46 -103 103s46 103 103 103s103 -46 103 -103z" />
    <glyph glyph-name="N" unicode="N" horiz-adv-x="686" 
d="M638 0h-198l-158 265c-23 38 -47 86 -64 131h-3c6 -56 12 -127 12 -218v-178h-179v675h211l145 -243c23 -38 47 -86 64 -131h3c-6 56 -12 127 -12 218v156h179v-675z" />
    <glyph glyph-name="Nacute" unicode="&#x143;" horiz-adv-x="686" 
d="M638 0h-198l-158 265c-23 38 -47 86 -64 131h-3c6 -56 12 -127 12 -218v-178h-179v675h211l145 -243c23 -38 47 -86 64 -131h3c-6 56 -12 127 -12 218v156h179v-675zM554 752l-253 -49l-26 96l244 76z" />
    <glyph glyph-name="Ncaron" unicode="&#x147;" horiz-adv-x="686" 
d="M638 0h-198l-158 265c-23 38 -47 86 -64 131h-3c6 -56 12 -127 12 -218v-178h-179v675h211l145 -243c23 -38 47 -86 64 -131h3c-6 56 -12 127 -12 218v156h179v-675zM518 789l-179 -86l-173 84l38 89l138 -48l140 48z" />
    <glyph glyph-name="Ntilde" unicode="&#xd1;" horiz-adv-x="686" 
d="M638 0h-198l-158 265c-23 38 -47 86 -64 131h-3c6 -56 12 -127 12 -218v-178h-179v675h211l145 -243c23 -38 47 -86 64 -131h3c-6 56 -12 127 -12 218v156h179v-675zM460 870l88 -58c-35 -62 -83 -95 -145 -95c-70 0 -87 40 -121 40c-24 0 -37 -13 -51 -39l-88 58
c35 62 83 95 145 95c70 0 87 -40 121 -40c24 0 37 13 51 39z" />
    <glyph glyph-name="uni1E44" unicode="&#x1e44;" horiz-adv-x="686" 
d="M638 0h-198l-158 265c-23 38 -47 86 -64 131h-3c6 -56 12 -127 12 -218v-178h-179v675h211l145 -243c23 -38 47 -86 64 -131h3c-6 56 -12 127 -12 218v156h179v-675zM446 806c0 -57 -46 -103 -103 -103s-103 46 -103 103s46 103 103 103s103 -46 103 -103z" />
    <glyph glyph-name="uni1E46" unicode="&#x1e46;" horiz-adv-x="686" 
d="M638 0h-198l-158 265c-23 38 -47 86 -64 131h-3c6 -56 12 -127 12 -218v-178h-179v675h211l145 -243c23 -38 47 -86 64 -131h3c-6 56 -12 127 -12 218v156h179v-675zM446 -141c0 -57 -46 -103 -103 -103s-103 46 -103 103s46 103 103 103s103 -46 103 -103z" />
    <glyph glyph-name="Ncommaaccent" unicode="&#x145;" horiz-adv-x="686" 
d="M638 0h-198l-158 265c-23 38 -47 86 -64 131h-3c6 -56 12 -127 12 -218v-178h-179v675h211l145 -243c23 -38 47 -86 64 -131h3c-6 56 -12 127 -12 218v156h179v-675zM238 -245l-18 65c43 9 55 17 55 35c0 10 -3 19 -3 31c0 37 26 70 76 70c47 0 74 -33 74 -78
c0 -59 -53 -123 -184 -123z" />
    <glyph glyph-name="Eng" unicode="&#x14a;" horiz-adv-x="686" 
d="M638 675v-685c0 -136 -65 -213 -225 -235l-41 148c57 5 84 31 84 61l-185 312c-21 36 -39 75 -53 113c4 -40 9 -140 9 -214v-175h-179v675h203l160 -265c23 -38 46 -81 57 -112c-5 46 -9 149 -9 211v166h179z" />
    <glyph glyph-name="O" unicode="O" horiz-adv-x="718" 
d="M693 355c0 -239 -161 -369 -346 -369c-213 0 -322 115 -322 334c0 239 161 369 346 369c213 0 322 -115 322 -334zM493 337c0 118 -44 182 -134 182c-84 0 -134 -63 -134 -181s44 -181 134 -181c84 0 134 62 134 180z" />
    <glyph glyph-name="Ograve" unicode="&#xd2;" horiz-adv-x="718" 
d="M693 355c0 -239 -161 -369 -346 -369c-213 0 -322 115 -322 334c0 239 161 369 346 369c213 0 322 -115 322 -334zM493 337c0 118 -44 182 -134 182c-84 0 -134 -63 -134 -181s44 -181 134 -181c84 0 134 62 134 180zM473 799l-26 -96l-253 49l35 123z" />
    <glyph glyph-name="Oacute" unicode="&#xd3;" horiz-adv-x="718" 
d="M693 355c0 -239 -161 -369 -346 -369c-213 0 -322 115 -322 334c0 239 161 369 346 369c213 0 322 -115 322 -334zM493 337c0 118 -44 182 -134 182c-84 0 -134 -63 -134 -181s44 -181 134 -181c84 0 134 62 134 180zM533 752l-253 -49l-26 96l244 76z" />
    <glyph glyph-name="Ocircumflex" unicode="&#xd4;" horiz-adv-x="718" 
d="M693 355c0 -239 -161 -369 -346 -369c-213 0 -322 115 -322 334c0 239 161 369 346 369c213 0 322 -115 322 -334zM493 337c0 118 -44 182 -134 182c-84 0 -134 -63 -134 -181s44 -181 134 -181c84 0 134 62 134 180zM545 792l-38 -89l-138 48l-140 -48l-36 87l179 86z
" />
    <glyph glyph-name="Otilde" unicode="&#xd5;" horiz-adv-x="718" 
d="M693 355c0 -239 -161 -369 -346 -369c-213 0 -322 115 -322 334c0 239 161 369 346 369c213 0 322 -115 322 -334zM493 337c0 118 -44 182 -134 182c-84 0 -134 -63 -134 -181s44 -181 134 -181c84 0 134 62 134 180zM476 870l88 -58c-35 -62 -83 -95 -145 -95
c-70 0 -87 40 -121 40c-24 0 -37 -13 -51 -39l-88 58c35 62 83 95 145 95c70 0 87 -40 121 -40c24 0 37 13 51 39z" />
    <glyph glyph-name="Odieresis" unicode="&#xd6;" horiz-adv-x="718" 
d="M693 355c0 -239 -161 -369 -346 -369c-213 0 -322 115 -322 334c0 239 161 369 346 369c213 0 322 -115 322 -334zM493 337c0 118 -44 182 -134 182c-84 0 -134 -63 -134 -181s44 -181 134 -181c84 0 134 62 134 180zM562 796c0 -50 -41 -91 -91 -91s-91 41 -91 91
s41 91 91 91s91 -41 91 -91zM344 796c0 -50 -41 -91 -91 -91s-91 41 -91 91s41 91 91 91s91 -41 91 -91z" />
    <glyph glyph-name="Omacron" unicode="&#x14c;" horiz-adv-x="718" 
d="M693 355c0 -239 -161 -369 -346 -369c-213 0 -322 115 -322 334c0 239 161 369 346 369c213 0 322 -115 322 -334zM493 337c0 118 -44 182 -134 182c-84 0 -134 -63 -134 -181s44 -181 134 -181c84 0 134 62 134 180zM521 731h-318v109h318v-109z" />
    <glyph glyph-name="Obreve" unicode="&#x14e;" horiz-adv-x="718" 
d="M693 355c0 -239 -161 -369 -346 -369c-213 0 -322 115 -322 334c0 239 161 369 346 369c213 0 322 -115 322 -334zM493 337c0 118 -44 182 -134 182c-84 0 -134 -63 -134 -181s44 -181 134 -181c84 0 134 62 134 180zM418 869h103c0 -83 -52 -157 -161 -157
c-105 0 -159 74 -159 157h102c0 -29 24 -51 58 -51c36 0 57 22 57 51z" />
    <glyph glyph-name="Ohungarumlaut" unicode="&#x150;" horiz-adv-x="718" 
d="M693 355c0 -239 -161 -369 -346 -369c-213 0 -322 115 -322 334c0 239 161 369 346 369c213 0 322 -115 322 -334zM493 337c0 118 -44 182 -134 182c-84 0 -134 -63 -134 -181s44 -181 134 -181c84 0 134 62 134 180zM663 842l-179 -144l-76 70l164 164zM433 861
l-163 -163l-81 69l145 177z" />
    <glyph glyph-name="Ohorn" unicode="&#x1a0;" horiz-adv-x="718" 
d="M584 815l148 30c12 -27 20 -70 20 -107c0 -87 -41 -143 -121 -156c45 -62 62 -139 62 -227c0 -239 -161 -369 -346 -369c-213 0 -322 115 -322 334c0 239 161 369 346 369c92 0 123 -21 175 -21c44 0 59 24 59 58c0 31 -9 64 -21 89zM493 337c0 118 -44 182 -134 182
c-84 0 -134 -63 -134 -181s44 -181 134 -181c84 0 134 62 134 180z" />
    <glyph glyph-name="uni01D1" unicode="&#x1d1;" horiz-adv-x="718" 
d="M693 355c0 -239 -161 -369 -346 -369c-213 0 -322 115 -322 334c0 239 161 369 346 369c213 0 322 -115 322 -334zM493 337c0 118 -44 182 -134 182c-84 0 -134 -63 -134 -181s44 -181 134 -181c84 0 134 62 134 180zM535 789l-179 -86l-173 84l38 89l138 -48l140 48z
" />
    <glyph glyph-name="uni1ECC" unicode="&#x1ecc;" horiz-adv-x="718" 
d="M693 355c0 -239 -161 -369 -346 -369c-213 0 -322 115 -322 334c0 239 161 369 346 369c213 0 322 -115 322 -334zM493 337c0 118 -44 182 -134 182c-84 0 -134 -63 -134 -181s44 -181 134 -181c84 0 134 62 134 180zM461 -151c0 -57 -46 -103 -103 -103
s-103 46 -103 103s46 103 103 103s103 -46 103 -103z" />
    <glyph glyph-name="uni1ECE" unicode="&#x1ece;" horiz-adv-x="718" 
d="M693 355c0 -239 -161 -369 -346 -369c-213 0 -322 115 -322 334c0 239 161 369 346 369c213 0 322 -115 322 -334zM493 337c0 118 -44 182 -134 182c-84 0 -134 -63 -134 -181s44 -181 134 -181c84 0 134 62 134 180zM364 710l-22 78c15 4 36 15 36 31c0 12 -6 20 -34 20
s-57 -9 -75 -17l-26 90c31 14 82 29 142 29c80 0 125 -32 125 -94c0 -87 -103 -126 -146 -137z" />
    <glyph glyph-name="uni1ED0" unicode="&#x1ed0;" horiz-adv-x="718" 
d="M693 355c0 -239 -161 -369 -346 -369c-213 0 -322 115 -322 334c0 239 161 369 346 369c213 0 322 -115 322 -334zM493 337c0 118 -44 182 -134 182c-84 0 -134 -63 -134 -181s44 -181 134 -181c84 0 134 62 134 180zM480 885l-202 -51l-25 68l192 78zM528 771l-32 -78
l-135 41l-130 -40l-29 74l163 75z" />
    <glyph glyph-name="uni1ED2" unicode="&#x1ed2;" horiz-adv-x="718" 
d="M693 355c0 -239 -161 -369 -346 -369c-213 0 -322 115 -322 334c0 239 161 369 346 369c213 0 322 -115 322 -334zM493 337c0 118 -44 182 -134 182c-84 0 -134 -63 -134 -181s44 -181 134 -181c84 0 134 62 134 180zM528 771l-32 -78l-135 41l-130 -40l-29 74l163 75z
M473 910l-20 -68l-204 45l30 93z" />
    <glyph glyph-name="uni1ED4" unicode="&#x1ed4;" horiz-adv-x="718" 
d="M693 355c0 -239 -161 -369 -346 -369c-213 0 -322 115 -322 334c0 239 161 369 346 369c213 0 322 -115 322 -334zM493 337c0 118 -44 182 -134 182c-84 0 -134 -63 -134 -181s44 -181 134 -181c84 0 134 62 134 180zM460 821l-75 32c11 4 25 11 25 23
c0 13 -10 20 -36 20c-21 0 -54 -10 -63 -14l-19 73c21 10 64 25 122 25c69 0 109 -27 109 -80c0 -43 -46 -70 -63 -79zM527 771l-32 -78l-135 41l-130 -40l-29 74l163 75z" />
    <glyph glyph-name="uni1ED6" unicode="&#x1ed6;" horiz-adv-x="718" 
d="M693 355c0 -239 -161 -369 -346 -369c-213 0 -322 115 -322 334c0 239 161 369 346 369c213 0 322 -115 322 -334zM493 337c0 118 -44 182 -134 182c-84 0 -134 -63 -134 -181s44 -181 134 -181c84 0 134 62 134 180zM528 771l-32 -78l-135 41l-130 -40l-29 74l163 75z
M460 977l75 -46c-27 -51 -66 -77 -111 -77c-53 0 -59 32 -85 32c-15 0 -27 -7 -39 -29l-75 46c27 51 66 77 111 77c53 0 58 -32 85 -32c15 0 27 7 39 29z" />
    <glyph glyph-name="uni1ED8" unicode="&#x1ed8;" horiz-adv-x="718" 
d="M693 355c0 -239 -161 -369 -346 -369c-213 0 -322 115 -322 334c0 239 161 369 346 369c213 0 322 -115 322 -334zM493 337c0 118 -44 182 -134 182c-84 0 -134 -63 -134 -181s44 -181 134 -181c84 0 134 62 134 180zM461 -151c0 -57 -46 -103 -103 -103
s-103 46 -103 103s46 103 103 103s103 -46 103 -103zM541 792l-38 -89l-138 48l-140 -48l-36 87l179 86z" />
    <glyph glyph-name="uni1EDA" unicode="&#x1eda;" horiz-adv-x="718" 
d="M584 815l148 30c12 -27 20 -70 20 -107c0 -87 -41 -143 -121 -156c45 -62 62 -139 62 -227c0 -239 -161 -369 -346 -369c-213 0 -322 115 -322 334c0 239 161 369 346 369c92 0 123 -21 175 -21c44 0 59 24 59 58c0 31 -9 64 -21 89zM493 337c0 118 -44 182 -134 182
c-84 0 -134 -63 -134 -181s44 -181 134 -181c84 0 134 62 134 180zM533 752l-253 -49l-26 96l244 76z" />
    <glyph glyph-name="uni1EDC" unicode="&#x1edc;" horiz-adv-x="718" 
d="M584 815l148 30c12 -27 20 -70 20 -107c0 -87 -41 -143 -121 -156c45 -62 62 -139 62 -227c0 -239 -161 -369 -346 -369c-213 0 -322 115 -322 334c0 239 161 369 346 369c92 0 123 -21 175 -21c44 0 59 24 59 58c0 31 -9 64 -21 89zM493 337c0 118 -44 182 -134 182
c-84 0 -134 -63 -134 -181s44 -181 134 -181c84 0 134 62 134 180zM473 799l-26 -96l-253 49l35 123z" />
    <glyph glyph-name="uni1EDE" unicode="&#x1ede;" horiz-adv-x="718" 
d="M584 815l148 30c12 -27 20 -70 20 -107c0 -87 -41 -143 -121 -156c45 -62 62 -139 62 -227c0 -239 -161 -369 -346 -369c-213 0 -322 115 -322 334c0 239 161 369 346 369c92 0 123 -21 175 -21c44 0 59 24 59 58c0 31 -9 64 -21 89zM493 337c0 118 -44 182 -134 182
c-84 0 -134 -63 -134 -181s44 -181 134 -181c84 0 134 62 134 180zM364 710l-22 78c15 4 36 15 36 31c0 12 -6 20 -34 20s-57 -9 -75 -17l-26 90c31 14 82 29 142 29c80 0 125 -32 125 -94c0 -87 -103 -126 -146 -137z" />
    <glyph glyph-name="uni1EE0" unicode="&#x1ee0;" horiz-adv-x="718" 
d="M584 815l148 30c12 -27 20 -70 20 -107c0 -87 -41 -143 -121 -156c45 -62 62 -139 62 -227c0 -239 -161 -369 -346 -369c-213 0 -322 115 -322 334c0 239 161 369 346 369c92 0 123 -21 175 -21c44 0 59 24 59 58c0 31 -9 64 -21 89zM493 337c0 118 -44 182 -134 182
c-84 0 -134 -63 -134 -181s44 -181 134 -181c84 0 134 62 134 180zM476 870l88 -58c-35 -62 -83 -95 -145 -95c-70 0 -87 40 -121 40c-24 0 -37 -13 -51 -39l-88 58c35 62 83 95 145 95c70 0 87 -40 121 -40c24 0 37 13 51 39z" />
    <glyph glyph-name="uni1EE2" unicode="&#x1ee2;" horiz-adv-x="718" 
d="M584 815l148 30c12 -27 20 -70 20 -107c0 -87 -41 -143 -121 -156c45 -62 62 -139 62 -227c0 -239 -161 -369 -346 -369c-213 0 -322 115 -322 334c0 239 161 369 346 369c92 0 123 -21 175 -21c44 0 59 24 59 58c0 31 -9 64 -21 89zM493 337c0 118 -44 182 -134 182
c-84 0 -134 -63 -134 -181s44 -181 134 -181c84 0 134 62 134 180zM460 -151c0 -57 -46 -103 -103 -103s-103 46 -103 103s46 103 103 103s103 -46 103 -103z" />
    <glyph glyph-name="Oslash" unicode="&#xd8;" horiz-adv-x="718" 
d="M637 720l-49 -94c67 -53 105 -141 105 -271c0 -239 -161 -369 -346 -369c-30 0 -63 3 -89 8l-51 -97l-126 58l49 94c-67 53 -105 141 -105 271c0 239 161 369 346 369c30 0 63 -3 89 -8l51 97zM496 454l-158 -303c5 0 16 -1 21 -1c90 0 144 64 144 187
c0 63 -15 94 -7 117zM222 221l158 304c-6 1 -17 1 -21 1c-90 0 -144 -65 -144 -188c0 -63 15 -94 7 -117z" />
    <glyph glyph-name="Oslashacute" unicode="&#x1fe;" horiz-adv-x="718" 
d="M637 720l-49 -94c67 -53 105 -141 105 -271c0 -239 -161 -369 -346 -369c-30 0 -63 3 -89 8l-51 -97l-126 58l49 94c-67 53 -105 141 -105 271c0 239 161 369 346 369c30 0 63 -3 89 -8l51 97zM496 454l-158 -303c5 0 16 -1 21 -1c90 0 144 64 144 187
c0 63 -15 94 -7 117zM222 221l158 304c-6 1 -17 1 -21 1c-90 0 -144 -65 -144 -188c0 -63 15 -94 7 -117zM475 792l-253 -49l-26 96l244 76z" />
    <glyph glyph-name="OE" unicode="&#x152;" horiz-adv-x="868" 
d="M831 0h-369c-34 -9 -79 -14 -115 -14c-213 0 -322 115 -322 334c0 239 161 369 346 369c39 0 82 -5 121 -14h339v-158h-209v-95h198v-152h-198v-109h209v-161zM436 168v340c-21 7 -54 11 -77 11c-84 0 -135 -63 -135 -181s45 -181 135 -181c26 0 54 5 77 11z" />
    <glyph glyph-name="P" unicode="P" horiz-adv-x="558" 
d="M234 0h-186v675s102 5 219 5c180 0 281 -76 281 -227c0 -139 -94 -258 -287 -258c-14 0 -27 1 -27 1v-196zM234 526v-175s16 -3 35 -3c54 0 87 32 87 89c0 53 -27 90 -94 90c-11 0 -28 -1 -28 -1z" />
    <glyph glyph-name="uni1E56" unicode="&#x1e56;" horiz-adv-x="558" 
d="M234 0h-186v675s102 5 219 5c180 0 281 -76 281 -227c0 -139 -94 -258 -287 -258c-14 0 -27 1 -27 1v-196zM234 526v-175s16 -3 35 -3c54 0 87 32 87 89c0 53 -27 90 -94 90c-11 0 -28 -1 -28 -1zM380 806c0 -57 -46 -103 -103 -103s-103 46 -103 103s46 103 103 103
s103 -46 103 -103z" />
    <glyph glyph-name="Thorn" unicode="&#xde;" horiz-adv-x="558" 
d="M234 0h-186v675h186v-81h33c180 0 281 -76 281 -227c0 -139 -94 -258 -287 -258c-14 0 -27 1 -27 1v-110zM234 440v-175s16 -3 35 -3c54 0 87 32 87 89c0 53 -27 90 -94 90c-11 0 -28 -1 -28 -1z" />
    <glyph glyph-name="Q" unicode="Q" horiz-adv-x="718" 
d="M706 89v-155c-179 -30 -207 52 -328 52h-31c-213 0 -322 115 -322 334c0 239 161 369 346 369c213 0 322 -115 322 -334c0 -133 -50 -231 -112 -264c43 6 55 -13 125 -2zM494 337c0 118 -45 182 -135 182c-84 0 -135 -63 -135 -181s45 -181 135 -181c84 0 135 62 135 180
z" />
    <glyph glyph-name="Q.alt0" horiz-adv-x="718" 
d="M711 -67v-162c-200 -34 -254 39 -422 19v162c196 22 239 -48 422 -19zM693 355c0 -239 -161 -369 -346 -369c-213 0 -322 115 -322 334c0 239 161 369 346 369c213 0 322 -115 322 -334zM494 337c0 118 -45 182 -135 182c-84 0 -135 -63 -135 -181s45 -181 135 -181
c84 0 135 62 135 180z" />
    <glyph glyph-name="Q.alt1" horiz-adv-x="718" 
d="M586 -107l-102 119c-42 -17 -89 -26 -137 -26c-213 0 -322 115 -322 334c0 239 161 369 346 369c213 0 322 -115 322 -334c0 -102 -30 -185 -78 -245l97 -111zM410 347l77 -89c5 24 7 50 7 79c0 118 -45 182 -135 182c-84 0 -135 -63 -135 -181s45 -181 135 -181h2
l-74 87z" />
    <glyph glyph-name="Q.alt2" horiz-adv-x="718" 
d="M494 337c0 118 -45 182 -135 182c-84 0 -135 -63 -135 -181s45 -181 135 -181c84 0 135 62 135 180zM707 47l-125 -113l-78 87c-48 -23 -102 -35 -157 -35c-213 0 -322 115 -322 334c0 239 161 369 346 369c213 0 322 -115 322 -334c0 -91 -23 -167 -63 -225z" />
    <glyph glyph-name="R" unicode="R" horiz-adv-x="586" 
d="M594 0h-224l-120 243h-16v-243h-186v675s100 5 231 5c172 0 268 -61 268 -211c0 -95 -46 -157 -115 -189c0 0 27 -40 46 -74zM234 525v-144s15 -1 31 -1c51 0 86 25 86 75c0 40 -21 72 -82 72c-16 0 -35 -2 -35 -2z" />
    <glyph glyph-name="Racute" unicode="&#x154;" horiz-adv-x="586" 
d="M594 0h-224l-120 243h-16v-243h-186v675s100 5 231 5c172 0 268 -61 268 -211c0 -95 -46 -157 -115 -189c0 0 27 -40 46 -74zM234 525v-144s15 -1 31 -1c51 0 86 25 86 75c0 40 -21 72 -82 72c-16 0 -35 -2 -35 -2zM469 752l-253 -49l-26 96l244 76z" />
    <glyph glyph-name="Rcaron" unicode="&#x158;" horiz-adv-x="586" 
d="M594 0h-224l-120 243h-16v-243h-186v675s100 5 231 5c172 0 268 -61 268 -211c0 -95 -46 -157 -115 -189c0 0 27 -40 46 -74zM234 525v-144s15 -1 31 -1c51 0 86 25 86 75c0 40 -21 72 -82 72c-16 0 -35 -2 -35 -2zM452 789l-179 -86l-173 84l38 89l138 -48l140 48z" />
    <glyph glyph-name="uni1E5A" unicode="&#x1e5a;" horiz-adv-x="586" 
d="M594 0h-224l-120 243h-16v-243h-186v675s100 5 231 5c172 0 268 -61 268 -211c0 -95 -46 -157 -115 -189c0 0 27 -40 46 -74zM234 525v-144s15 -1 31 -1c51 0 86 25 86 75c0 40 -21 72 -82 72c-16 0 -35 -2 -35 -2zM396 -141c0 -57 -46 -103 -103 -103s-103 46 -103 103
s46 103 103 103s103 -46 103 -103z" />
    <glyph glyph-name="uni1E5C" unicode="&#x1e5c;" horiz-adv-x="586" 
d="M594 0h-224l-120 243h-16v-243h-186v675s100 5 231 5c172 0 268 -61 268 -211c0 -95 -46 -157 -115 -189c0 0 27 -40 46 -74zM234 525v-144s15 -1 31 -1c51 0 86 25 86 75c0 40 -21 72 -82 72c-16 0 -35 -2 -35 -2zM440 731h-318v109h318v-109zM396 -141
c0 -57 -46 -103 -103 -103s-103 46 -103 103s46 103 103 103s103 -46 103 -103z" />
    <glyph glyph-name="Rcommaaccent" unicode="&#x156;" horiz-adv-x="586" 
d="M594 0h-224l-120 243h-16v-243h-186v675s100 5 231 5c172 0 268 -61 268 -211c0 -95 -46 -157 -115 -189c0 0 27 -40 46 -74zM234 525v-144s15 -1 31 -1c51 0 86 25 86 75c0 40 -21 72 -82 72c-16 0 -35 -2 -35 -2zM186 -245l-18 65c43 9 55 17 55 35c0 10 -3 19 -3 31
c0 37 26 70 76 70c47 0 74 -33 74 -78c0 -59 -53 -123 -184 -123z" />
    <glyph glyph-name="R.swash" horiz-adv-x="586" 
d="M1092 -38l88 -128c-76 -64 -160 -94 -277 -94c-230 0 -381 120 -662 506h-7v-246h-186v675c63 4 146 5 231 5c172 0 268 -61 268 -211c0 -80 -47 -158 -121 -186c244 -299 372 -380 494 -380c68 0 137 23 172 59zM234 525v-145c7 -1 21 -2 31 -2c51 0 86 27 86 77
c0 40 -21 72 -82 72c-12 0 -29 -1 -35 -2z" />
    <glyph glyph-name="S" unicode="S" horiz-adv-x="502" 
d="M430 675l-16 -161c-37 13 -78 20 -119 20c-52 0 -74 -19 -74 -45c0 -85 264 -55 264 -277c0 -132 -101 -225 -279 -225c-65 0 -118 6 -165 17l16 177c45 -19 104 -32 157 -32c40 0 70 14 70 44c0 93 -259 54 -259 278c0 131 103 217 281 217c34 0 84 -4 124 -13z" />
    <glyph glyph-name="Sacute" unicode="&#x15a;" horiz-adv-x="502" 
d="M430 675l-16 -161c-37 13 -78 20 -119 20c-52 0 -74 -19 -74 -45c0 -85 264 -55 264 -277c0 -132 -101 -225 -279 -225c-65 0 -118 6 -165 17l16 177c45 -19 104 -32 157 -32c40 0 70 14 70 44c0 93 -259 54 -259 278c0 131 103 217 281 217c34 0 84 -4 124 -13zM446 752
l-253 -49l-26 96l244 76z" />
    <glyph glyph-name="Scircumflex" unicode="&#x15c;" horiz-adv-x="502" 
d="M430 675l-16 -161c-37 13 -78 20 -119 20c-52 0 -74 -19 -74 -45c0 -85 264 -55 264 -277c0 -132 -101 -225 -279 -225c-65 0 -118 6 -165 17l16 177c45 -19 104 -32 157 -32c40 0 70 14 70 44c0 93 -259 54 -259 278c0 131 103 217 281 217c34 0 84 -4 124 -13zM440 792
l-38 -89l-138 48l-140 -48l-36 87l179 86z" />
    <glyph glyph-name="Scaron" unicode="&#x160;" horiz-adv-x="502" 
d="M430 675l-16 -161c-37 13 -78 20 -119 20c-52 0 -74 -19 -74 -45c0 -85 264 -55 264 -277c0 -132 -101 -225 -279 -225c-65 0 -118 6 -165 17l16 177c45 -19 104 -32 157 -32c40 0 70 14 70 44c0 93 -259 54 -259 278c0 131 103 217 281 217c34 0 84 -4 124 -13zM432 789
l-179 -86l-173 84l38 89l138 -48l140 48z" />
    <glyph glyph-name="Scedilla" unicode="&#x15e;" horiz-adv-x="502" 
d="M430 675l-16 -161c-37 13 -78 20 -119 20c-52 0 -74 -19 -74 -45c0 -85 264 -55 264 -277c0 -132 -101 -225 -279 -225c-65 0 -118 6 -165 17l16 177c45 -19 104 -32 157 -32c40 0 70 14 70 44c0 93 -259 54 -259 278c0 131 103 217 281 217c34 0 84 -4 124 -13zM162 -77
l146 38c53 -77 38 -146 -18 -194h-130c43 48 50 93 2 156z" />
    <glyph glyph-name="Scedilla" unicode="&#xf6c1;" horiz-adv-x="502" 
d="M430 675l-16 -161c-37 13 -78 20 -119 20c-52 0 -74 -19 -74 -45c0 -85 264 -55 264 -277c0 -132 -101 -225 -279 -225c-65 0 -118 6 -165 17l16 177c45 -19 104 -32 157 -32c40 0 70 14 70 44c0 93 -259 54 -259 278c0 131 103 217 281 217c34 0 84 -4 124 -13zM162 -77
l146 38c53 -77 38 -146 -18 -194h-130c43 48 50 93 2 156z" />
    <glyph glyph-name="Scommaaccent" unicode="&#x218;" horiz-adv-x="502" 
d="M430 675l-16 -161c-37 13 -78 20 -119 20c-52 0 -74 -19 -74 -45c0 -85 264 -55 264 -277c0 -132 -101 -225 -279 -225c-65 0 -118 6 -165 17l16 177c45 -19 104 -32 157 -32c40 0 70 14 70 44c0 93 -259 54 -259 278c0 131 103 217 281 217c34 0 84 -4 124 -13z
M149 -245l-18 65c43 9 55 17 55 35c0 10 -3 19 -3 31c0 37 26 70 76 70c47 0 74 -33 74 -78c0 -59 -53 -123 -184 -123z" />
    <glyph glyph-name="uni1E60" unicode="&#x1e60;" horiz-adv-x="502" 
d="M430 675l-16 -161c-37 13 -78 20 -119 20c-52 0 -74 -19 -74 -45c0 -85 264 -55 264 -277c0 -132 -101 -225 -279 -225c-65 0 -118 6 -165 17l16 177c45 -19 104 -32 157 -32c40 0 70 14 70 44c0 93 -259 54 -259 278c0 131 103 217 281 217c34 0 84 -4 124 -13zM354 816
c0 -57 -46 -103 -103 -103s-103 46 -103 103s46 103 103 103s103 -46 103 -103z" />
    <glyph glyph-name="uni1E62" unicode="&#x1e62;" horiz-adv-x="502" 
d="M430 675l-16 -161c-37 13 -78 20 -119 20c-52 0 -74 -19 -74 -45c0 -85 264 -55 264 -277c0 -132 -101 -225 -279 -225c-65 0 -118 6 -165 17l16 177c45 -19 104 -32 157 -32c40 0 70 14 70 44c0 93 -259 54 -259 278c0 131 103 217 281 217c34 0 84 -4 124 -13z
M346 -151c0 -57 -46 -103 -103 -103s-103 46 -103 103s46 103 103 103s103 -46 103 -103z" />
    <glyph glyph-name="uni1E9E" unicode="&#x1e9e;" horiz-adv-x="700" 
d="M636 532l-100 -124c93 -22 145 -91 145 -189c0 -124 -91 -232 -268 -232c-32 0 -77 4 -118 14l12 166c32 -12 67 -20 103 -20c46 0 70 24 70 53c0 35 -27 61 -106 61h-54v128l107 135c-23 5 -53 6 -75 6c-86 0 -118 -38 -118 -113v-417h-186v411c0 184 99 279 314 279
c81 0 191 -11 274 -30v-128z" />
    <glyph glyph-name="T" unicode="T" horiz-adv-x="502" 
d="M490 515h-146v-515h-186v515h-146v160h478v-160z" />
    <glyph glyph-name="Tcaron" unicode="&#x164;" horiz-adv-x="502" 
d="M490 515h-146v-515h-186v515h-146v160h478v-160zM427 789l-179 -86l-173 84l38 89l138 -48l140 48z" />
    <glyph glyph-name="Tcommaaccent" unicode="&#x21a;" horiz-adv-x="502" 
d="M490 515h-146v-515h-186v515h-146v160h478v-160zM150 -245l-18 65c43 9 55 17 55 35c0 10 -3 19 -3 31c0 37 26 70 76 70c47 0 74 -33 74 -78c0 -59 -53 -123 -184 -123z" />
    <glyph glyph-name="uni0162" unicode="&#x162;" horiz-adv-x="502" 
d="M490 515h-146v-515h-186v515h-146v160h478v-160zM166 -77l146 38c53 -77 38 -146 -18 -194h-130c43 48 50 93 2 156z" />
    <glyph glyph-name="uni1E6A" unicode="&#x1e6a;" horiz-adv-x="502" 
d="M490 515h-146v-515h-186v515h-146v160h478v-160zM354 806c0 -57 -46 -103 -103 -103s-103 46 -103 103s46 103 103 103s103 -46 103 -103z" />
    <glyph glyph-name="uni1E6C" unicode="&#x1e6c;" horiz-adv-x="502" 
d="M490 515h-146v-515h-186v515h-146v160h478v-160zM354 -141c0 -57 -46 -103 -103 -103s-103 46 -103 103s46 103 103 103s103 -46 103 -103z" />
    <glyph glyph-name="uni1E6E" unicode="&#x1e6e;" horiz-adv-x="502" 
d="M102 -208v130h300v-130h-300zM490 515h-146v-515h-186v515h-146v160h478v-160z" />
    <glyph glyph-name="Tbar" unicode="&#x166;" horiz-adv-x="502" 
d="M158 402v113h-146v160h478v-160h-146v-113h88v-152h-88v-250h-186v250h-88v152h88z" />
    <glyph glyph-name="U" unicode="U" horiz-adv-x="664" 
d="M616 675v-407c0 -196 -113 -282 -294 -282c-217 0 -274 115 -274 258v431h186v-422c0 -72 22 -111 99 -111c75 0 99 32 99 116v417h184z" />
    <glyph glyph-name="Ugrave" unicode="&#xd9;" horiz-adv-x="664" 
d="M616 675v-407c0 -196 -113 -282 -294 -282c-217 0 -274 115 -274 258v431h186v-422c0 -72 22 -111 99 -111c75 0 99 32 99 116v417h184zM411 799l-26 -96l-253 49l35 123z" />
    <glyph glyph-name="Uacute" unicode="&#xda;" horiz-adv-x="664" 
d="M616 675v-407c0 -196 -113 -282 -294 -282c-217 0 -274 115 -274 258v431h186v-422c0 -72 22 -111 99 -111c75 0 99 32 99 116v417h184zM554 752l-253 -49l-26 96l244 76z" />
    <glyph glyph-name="Ucircumflex" unicode="&#xdb;" horiz-adv-x="664" 
d="M616 675v-407c0 -196 -113 -282 -294 -282c-217 0 -274 115 -274 258v431h186v-422c0 -72 22 -111 99 -111c75 0 99 32 99 116v417h184zM510 792l-38 -89l-138 48l-140 -48l-36 87l179 86z" />
    <glyph glyph-name="Utilde" unicode="&#x168;" horiz-adv-x="664" 
d="M616 675v-407c0 -196 -113 -282 -294 -282c-217 0 -274 115 -274 258v431h186v-422c0 -72 22 -111 99 -111c75 0 99 32 99 116v417h184zM447 870l88 -58c-35 -62 -83 -95 -145 -95c-70 0 -87 40 -121 40c-24 0 -37 -13 -51 -39l-88 58c35 62 83 95 145 95
c70 0 87 -40 121 -40c24 0 37 13 51 39z" />
    <glyph glyph-name="Udieresis" unicode="&#xdc;" horiz-adv-x="664" 
d="M616 675v-407c0 -196 -113 -282 -294 -282c-217 0 -274 115 -274 258v431h186v-422c0 -72 22 -111 99 -111c75 0 99 32 99 116v417h184zM532 796c0 -50 -41 -91 -91 -91s-91 41 -91 91s41 91 91 91s91 -41 91 -91zM314 796c0 -50 -41 -91 -91 -91s-91 41 -91 91
s41 91 91 91s91 -41 91 -91z" />
    <glyph glyph-name="Umacron" unicode="&#x16a;" horiz-adv-x="664" 
d="M616 675v-407c0 -196 -113 -282 -294 -282c-217 0 -274 115 -274 258v431h186v-422c0 -72 22 -111 99 -111c75 0 99 32 99 116v417h184zM493 731h-318v109h318v-109z" />
    <glyph glyph-name="Ubreve" unicode="&#x16c;" horiz-adv-x="664" 
d="M616 675v-407c0 -196 -113 -282 -294 -282c-217 0 -274 115 -274 258v431h186v-422c0 -72 22 -111 99 -111c75 0 99 32 99 116v417h184zM390 869h103c0 -83 -52 -157 -161 -157c-105 0 -159 74 -159 157h102c0 -29 24 -51 58 -51c36 0 57 22 57 51z" />
    <glyph glyph-name="Uring" unicode="&#x16e;" horiz-adv-x="664" 
d="M616 675v-407c0 -196 -113 -282 -294 -282c-217 0 -274 115 -274 258v431h186v-422c0 -72 22 -111 99 -111c75 0 99 32 99 116v417h184zM491 828c0 -85 -72 -134 -163 -134c-96 0 -151 38 -151 122c0 85 72 134 163 134c96 0 151 -38 151 -122zM376 821
c0 36 -13 48 -41 48c-27 0 -43 -18 -43 -46c0 -36 13 -48 41 -48c27 0 43 18 43 46z" />
    <glyph glyph-name="Uhungarumlaut" unicode="&#x170;" horiz-adv-x="664" 
d="M616 675v-407c0 -196 -113 -282 -294 -282c-217 0 -274 115 -274 258v431h186v-422c0 -72 22 -111 99 -111c75 0 99 32 99 116v417h184zM625 842l-179 -144l-76 70l164 164zM395 861l-163 -163l-81 69l145 177z" />
    <glyph glyph-name="Uogonek" unicode="&#x172;" horiz-adv-x="664" 
d="M616 675v-407c0 -93 -24 -160 -75 -211c-28 -28 -65 -56 -97 -88c-18 -18 -27 -35 -27 -53c0 -16 10 -25 29 -25c21 0 42 8 64 22l46 -96c-46 -41 -100 -58 -157 -58c-87 0 -149 40 -149 117c0 43 20 84 61 112h-6c-194 0 -257 110 -257 256v431h186v-422
c0 -72 22 -111 99 -111c75 0 99 32 99 116v417h184z" />
    <glyph glyph-name="Uhorn" unicode="&#x1af;" horiz-adv-x="664" 
d="M540 815l148 30c12 -27 20 -70 20 -107c0 -84 -37 -130 -92 -152v-318c0 -196 -113 -282 -294 -282c-217 0 -274 115 -274 258v431h186v-422c0 -72 22 -111 99 -111c75 0 99 32 99 116v417h74c42 0 54 15 55 51c0 31 -9 64 -21 89z" />
    <glyph glyph-name="uni01D3" unicode="&#x1d3;" horiz-adv-x="664" 
d="M616 675v-407c0 -196 -113 -282 -294 -282c-217 0 -274 115 -274 258v431h186v-422c0 -72 22 -111 99 -111c75 0 99 32 99 116v417h184zM508 789l-179 -86l-173 84l38 89l138 -48l140 48z" />
    <glyph glyph-name="uni01D5" unicode="&#x1d5;" horiz-adv-x="664" 
d="M616 675v-407c0 -196 -113 -282 -294 -282c-217 0 -274 115 -274 258v431h186v-422c0 -72 22 -111 99 -111c75 0 99 32 99 116v417h184zM514 772c0 -41 -32 -72 -72 -72s-72 31 -72 72s32 72 72 72s72 -31 72 -72zM294 772c0 -41 -32 -72 -72 -72s-72 31 -72 72
s32 72 72 72s72 -31 72 -72zM484 875h-304v96h304v-96z" />
    <glyph glyph-name="uni01D7" unicode="&#x1d7;" horiz-adv-x="664" 
d="M616 675v-407c0 -196 -113 -282 -294 -282c-217 0 -274 115 -274 258v431h186v-422c0 -72 22 -111 99 -111c75 0 99 32 99 116v417h184zM506 885l-209 -55l-26 74l200 76zM514 772c0 -41 -32 -72 -72 -72s-72 31 -72 72s32 72 72 72s72 -31 72 -72zM294 772
c0 -41 -32 -72 -72 -72s-72 31 -72 72s32 72 72 72s72 -31 72 -72z" />
    <glyph glyph-name="uni01D9" unicode="&#x1d9;" horiz-adv-x="664" 
d="M616 675v-407c0 -196 -113 -282 -294 -282c-217 0 -274 115 -274 258v431h186v-422c0 -72 22 -111 99 -111c75 0 99 32 99 116v417h184zM169 904l31 76l135 -41l131 41l29 -73l-163 -75zM514 772c0 -41 -32 -72 -72 -72s-72 31 -72 72s32 72 72 72s72 -31 72 -72z
M294 772c0 -41 -32 -72 -72 -72s-72 31 -72 72s32 72 72 72s72 -31 72 -72z" />
    <glyph glyph-name="uni01DB" unicode="&#x1db;" horiz-adv-x="664" 
d="M616 675v-407c0 -196 -113 -282 -294 -282c-217 0 -274 115 -274 258v431h186v-422c0 -72 22 -111 99 -111c75 0 99 32 99 116v417h184zM393 906l-26 -76l-209 54l36 96zM514 772c0 -41 -32 -72 -72 -72s-72 31 -72 72s32 72 72 72s72 -31 72 -72zM294 772
c0 -41 -32 -72 -72 -72s-72 31 -72 72s32 72 72 72s72 -31 72 -72z" />
    <glyph glyph-name="uni1EE4" unicode="&#x1ee4;" horiz-adv-x="664" 
d="M616 675v-407c0 -196 -113 -282 -294 -282c-217 0 -274 115 -274 258v431h186v-422c0 -72 22 -111 99 -111c75 0 99 32 99 116v417h184zM435 -151c0 -57 -46 -103 -103 -103s-103 46 -103 103s46 103 103 103s103 -46 103 -103z" />
    <glyph glyph-name="uni1EE6" unicode="&#x1ee6;" horiz-adv-x="664" 
d="M616 675v-407c0 -196 -113 -282 -294 -282c-217 0 -274 115 -274 258v431h186v-422c0 -72 22 -111 99 -111c75 0 99 32 99 116v417h184zM340 710l-22 78c15 4 36 15 36 31c0 12 -6 20 -34 20s-57 -9 -75 -17l-26 90c31 14 82 29 142 29c80 0 125 -32 125 -94
c0 -87 -103 -126 -146 -137z" />
    <glyph glyph-name="uni1EE8" unicode="&#x1ee8;" horiz-adv-x="664" 
d="M540 815l148 30c12 -27 20 -70 20 -107c0 -84 -37 -130 -92 -152v-318c0 -196 -113 -282 -294 -282c-217 0 -274 115 -274 258v431h186v-422c0 -72 22 -111 99 -111c75 0 99 32 99 116v417h74c42 0 54 15 55 51c0 31 -9 64 -21 89zM514 752l-253 -49l-26 96l244 76z" />
    <glyph glyph-name="uni1EEA" unicode="&#x1eea;" horiz-adv-x="664" 
d="M540 815l148 30c12 -27 20 -70 20 -107c0 -84 -37 -130 -92 -152v-318c0 -196 -113 -282 -294 -282c-217 0 -274 115 -274 258v431h186v-422c0 -72 22 -111 99 -111c75 0 99 32 99 116v417h74c42 0 54 15 55 51c0 31 -9 64 -21 89zM411 799l-26 -96l-253 49l35 123z" />
    <glyph glyph-name="uni1EEC" unicode="&#x1eec;" horiz-adv-x="664" 
d="M540 815l148 30c12 -27 20 -70 20 -107c0 -84 -37 -130 -92 -152v-318c0 -196 -113 -282 -294 -282c-217 0 -274 115 -274 258v431h186v-422c0 -72 22 -111 99 -111c75 0 99 32 99 116v417h74c42 0 54 15 55 51c0 31 -9 64 -21 89zM340 710l-22 78c15 4 36 15 36 31
c0 12 -6 20 -34 20s-57 -9 -75 -17l-26 90c31 14 82 29 142 29c80 0 125 -32 125 -94c0 -87 -103 -126 -146 -137z" />
    <glyph glyph-name="uni1EEE" unicode="&#x1eee;" horiz-adv-x="664" 
d="M540 815l148 30c12 -27 20 -70 20 -107c0 -84 -37 -130 -92 -152v-318c0 -196 -113 -282 -294 -282c-217 0 -274 115 -274 258v431h186v-422c0 -72 22 -111 99 -111c75 0 99 32 99 116v417h74c42 0 54 15 55 51c0 31 -9 64 -21 89zM447 870l88 -58
c-35 -62 -83 -95 -145 -95c-70 0 -87 40 -121 40c-24 0 -37 -13 -51 -39l-88 58c35 62 83 95 145 95c70 0 87 -40 121 -40c24 0 37 13 51 39z" />
    <glyph glyph-name="uni1EF0" unicode="&#x1ef0;" horiz-adv-x="664" 
d="M540 815l148 30c12 -27 20 -70 20 -107c0 -84 -37 -130 -92 -152v-318c0 -196 -113 -282 -294 -282c-217 0 -274 115 -274 258v431h186v-422c0 -72 22 -111 99 -111c75 0 99 32 99 116v417h74c42 0 54 15 55 51c0 31 -9 64 -21 89zM435 -151c0 -57 -46 -103 -103 -103
s-103 46 -103 103s46 103 103 103s103 -46 103 -103z" />
    <glyph glyph-name="V" unicode="V" horiz-adv-x="644" 
d="M652 675l-202 -675h-251l-207 675h204l97 -355c13 -47 27 -108 35 -152h2c8 44 20 105 33 152l100 355h189z" />
    <glyph glyph-name="uni1E7E" unicode="&#x1e7e;" horiz-adv-x="644" 
d="M652 675l-202 -675h-251l-207 675h204l97 -355c13 -47 27 -108 35 -152h2c8 44 20 105 33 152l100 355h189zM429 -141c0 -57 -46 -103 -103 -103s-103 46 -103 103s46 103 103 103s103 -46 103 -103z" />
    <glyph glyph-name="W" unicode="W" horiz-adv-x="961" 
d="M951 675l-152 -675h-229l-66 261c-10 41 -17 99 -22 151h-3c-5 -52 -12 -110 -22 -151l-66 -261h-229l-152 675h198l51 -269c14 -75 24 -143 29 -201h3c7 58 17 126 36 201l68 269h186l68 -269c16 -62 32 -134 40 -201h3c8 67 18 141 30 210l46 260h183z" />
    <glyph glyph-name="Wgrave" unicode="&#x1e80;" horiz-adv-x="961" 
d="M951 675l-152 -675h-229l-66 261c-10 41 -17 99 -22 151h-3c-5 -52 -12 -110 -22 -151l-66 -261h-229l-152 675h198l51 -269c14 -75 24 -143 29 -201h3c7 58 17 126 36 201l68 269h186l68 -269c16 -62 32 -134 40 -201h3c8 67 18 141 30 210l46 260h183zM605 799l-26 -96
l-253 49l35 123z" />
    <glyph glyph-name="Wacute" unicode="&#x1e82;" horiz-adv-x="961" 
d="M951 675l-152 -675h-229l-66 261c-10 41 -17 99 -22 151h-3c-5 -52 -12 -110 -22 -151l-66 -261h-229l-152 675h198l51 -269c14 -75 24 -143 29 -201h3c7 58 17 126 36 201l68 269h186l68 -269c16 -62 32 -134 40 -201h3c8 67 18 141 30 210l46 260h183zM654 752
l-253 -49l-26 96l244 76z" />
    <glyph glyph-name="Wcircumflex" unicode="&#x174;" horiz-adv-x="961" 
d="M951 675l-152 -675h-229l-66 261c-10 41 -17 99 -22 151h-3c-5 -52 -12 -110 -22 -151l-66 -261h-229l-152 675h198l51 -269c14 -75 24 -143 29 -201h3c7 58 17 126 36 201l68 269h186l68 -269c16 -62 32 -134 40 -201h3c8 67 18 141 30 210l46 260h183zM662 792l-38 -89
l-138 48l-140 -48l-36 87l179 86z" />
    <glyph glyph-name="Wdieresis" unicode="&#x1e84;" horiz-adv-x="961" 
d="M951 675l-152 -675h-229l-66 261c-10 41 -17 99 -22 151h-3c-5 -52 -12 -110 -22 -151l-66 -261h-229l-152 675h198l51 -269c14 -75 24 -143 29 -201h3c7 58 17 126 36 201l68 269h186l68 -269c16 -62 32 -134 40 -201h3c8 67 18 141 30 210l46 260h183zM691 796
c0 -50 -41 -91 -91 -91s-91 41 -91 91s41 91 91 91s91 -41 91 -91zM473 796c0 -50 -41 -91 -91 -91s-91 41 -91 91s41 91 91 91s91 -41 91 -91z" />
    <glyph glyph-name="X" unicode="X" horiz-adv-x="671" 
d="M671 0h-235l-107 204l-107 -204h-222l206 342l-194 333h215l106 -200l103 200h212l-191 -336z" />
    <glyph glyph-name="Y" unicode="Y" horiz-adv-x="597" 
d="M604 675l-214 -442v-233h-186v232l-211 443h202l63 -146c17 -39 30 -73 40 -103h2c12 36 30 76 49 118l58 131h197z" />
    <glyph glyph-name="Yacute" unicode="&#xdd;" horiz-adv-x="597" 
d="M604 675l-214 -442v-233h-186v232l-211 443h202l63 -146c17 -39 30 -73 40 -103h2c12 36 30 76 49 118l58 131h197zM509 752l-253 -49l-26 96l244 76z" />
    <glyph glyph-name="Ycircumflex" unicode="&#x176;" horiz-adv-x="597" 
d="M604 675l-214 -442v-233h-186v232l-211 443h202l63 -146c17 -39 30 -73 40 -103h2c12 36 30 76 49 118l58 131h197zM474 792l-38 -89l-138 48l-140 -48l-36 87l179 86z" />
    <glyph glyph-name="Ydieresis" unicode="&#x178;" horiz-adv-x="597" 
d="M604 675l-214 -442v-233h-186v232l-211 443h202l63 -146c17 -39 30 -73 40 -103h2c12 36 30 76 49 118l58 131h197zM502 796c0 -50 -41 -91 -91 -91s-91 41 -91 91s41 91 91 91s91 -41 91 -91zM284 796c0 -50 -41 -91 -91 -91s-91 41 -91 91s41 91 91 91s91 -41 91 -91z
" />
    <glyph glyph-name="Ygrave" unicode="&#x1ef2;" horiz-adv-x="597" 
d="M604 675l-214 -442v-233h-186v232l-211 443h202l63 -146c17 -39 30 -73 40 -103h2c12 36 30 76 49 118l58 131h197zM329 799l-26 -96l-253 49l35 123z" />
    <glyph glyph-name="uni1EF4" unicode="&#x1ef4;" horiz-adv-x="597" 
d="M604 675l-214 -442v-233h-186v232l-211 443h202l63 -146c17 -39 30 -73 40 -103h2c12 36 30 76 49 118l58 131h197zM401 -141c0 -57 -46 -103 -103 -103s-103 46 -103 103s46 103 103 103s103 -46 103 -103z" />
    <glyph glyph-name="uni1EF6" unicode="&#x1ef6;" horiz-adv-x="597" 
d="M604 675l-214 -442v-233h-186v232l-211 443h202l63 -146c17 -39 30 -73 40 -103h2c12 36 30 76 49 118l58 131h197zM303 710l-22 78c15 4 36 15 36 31c0 12 -6 20 -34 20s-57 -9 -75 -17l-26 90c31 14 82 29 142 29c80 0 125 -32 125 -94c0 -87 -103 -126 -146 -137z" />
    <glyph glyph-name="uni1EF8" unicode="&#x1ef8;" horiz-adv-x="597" 
d="M604 675l-214 -442v-233h-186v232l-211 443h202l63 -146c17 -39 30 -73 40 -103h2c12 36 30 76 49 118l58 131h197zM413 870l88 -58c-35 -62 -83 -95 -145 -95c-70 0 -87 40 -121 40c-24 0 -37 -13 -51 -39l-88 58c35 62 83 95 145 95c70 0 87 -40 121 -40
c24 0 37 13 51 39z" />
    <glyph glyph-name="Z" unicode="Z" horiz-adv-x="534" 
d="M491 0h-448v147l186 324c8 13 16 26 26 38c-11 -1 -23 -1 -85 -1h-121v167h437v-154l-196 -322c-6 -9 -11 -18 -19 -28c10 1 37 1 113 1h107v-172z" />
    <glyph glyph-name="Zacute" unicode="&#x179;" horiz-adv-x="534" 
d="M491 0h-448v147l186 324c8 13 16 26 26 38c-11 -1 -23 -1 -85 -1h-121v167h437v-154l-196 -322c-6 -9 -11 -18 -19 -28c10 1 37 1 113 1h107v-172zM442 752l-253 -49l-26 96l244 76z" />
    <glyph glyph-name="Zcaron" unicode="&#x17d;" horiz-adv-x="534" 
d="M491 0h-448v147l186 324c8 13 16 26 26 38c-11 -1 -23 -1 -85 -1h-121v167h437v-154l-196 -322c-6 -9 -11 -18 -19 -28c10 1 37 1 113 1h107v-172zM444 789l-179 -86l-173 84l38 89l138 -48l140 48z" />
    <glyph glyph-name="Zdotaccent" unicode="&#x17b;" horiz-adv-x="534" 
d="M491 0h-448v147l186 324c8 13 16 26 26 38c-11 -1 -23 -1 -85 -1h-121v167h437v-154l-196 -322c-6 -9 -11 -18 -19 -28c10 1 37 1 113 1h107v-172zM374 806c0 -57 -46 -103 -103 -103s-103 46 -103 103s46 103 103 103s103 -46 103 -103z" />
    <glyph glyph-name="uni1E92" unicode="&#x1e92;" horiz-adv-x="534" 
d="M491 0h-448v147l186 324c8 13 16 26 26 38c-11 -1 -23 -1 -85 -1h-121v167h437v-154l-196 -322c-6 -9 -11 -18 -19 -28c10 1 37 1 113 1h107v-172zM370 -141c0 -57 -46 -103 -103 -103s-103 46 -103 103s46 103 103 103s103 -46 103 -103z" />
    <glyph glyph-name="uni1E94" unicode="&#x1e94;" horiz-adv-x="534" 
d="M117 -208v130h300v-130h-300zM491 0h-448v147l186 324c8 13 16 26 26 38c-11 -1 -23 -1 -85 -1h-121v167h437v-154l-196 -322c-6 -9 -11 -18 -19 -28c10 1 37 1 113 1h107v-172z" />
    <glyph glyph-name="LatinSmallCaps" unicode="&#xe022;" horiz-adv-x="1255" 
d="M235 333h-211v402h125v-302h86v-100zM624 333h-132l-13 62h-97l-12 -62h-121l92 402h191zM460 487l-21 103c-3 18 -6 37 -8 59h-1c-1 -22 -4 -41 -8 -59l-21 -103h59zM847 636h-66v-303h-125v303h-65v99h256v-99zM1231 333h-171l-54 191c-7 27 -12 53 -15 84h-2
c2 -46 4 -80 4 -118v-157h-110v402h183l42 -148c8 -27 14 -61 16 -84h2c-3 47 -4 93 -4 118v114h109v-402zM253 220l-21 -96c-18 7 -42 12 -58 12c-18 0 -27 -8 -27 -24c0 -46 125 -44 125 -170c0 -77 -61 -128 -151 -128c-36 0 -69 4 -99 11l23 102c25 -12 48 -18 67 -18
c18 0 27 8 27 24c0 50 -124 47 -124 170c0 75 60 126 152 126c31 0 59 -3 86 -9zM545 -74l26 -95c-25 -10 -54 -17 -91 -17c-138 0 -175 79 -175 199c0 132 64 215 183 215c30 0 60 -6 80 -12l-26 -98c-12 4 -25 7 -41 7c-38 0 -59 -28 -59 -104c0 -74 18 -104 55 -104
c19 0 33 3 48 9z" />
    <glyph glyph-name="A.sc" 
d="M600 0h-199l-20 65h-179l-20 -65h-182l176 520h248zM340 195l-35 115c-5 16 -11 37 -15 59h-1c-3 -22 -8 -43 -13 -59l-35 -115h99z" />
    <glyph glyph-name="Agrave.sc" 
d="M600 0h-199l-20 65h-179l-20 -65h-182l176 520h248zM340 195l-35 115c-5 16 -11 37 -15 59h-1c-3 -22 -8 -43 -13 -59l-35 -115h99zM436 645l-60 -101l-226 101l74 123z" />
    <glyph glyph-name="Aacute.sc" 
d="M600 0h-199l-20 65h-179l-20 -65h-182l176 520h248zM340 195l-35 115c-5 16 -11 37 -15 59h-1c-3 -22 -8 -43 -13 -59l-35 -115h99zM454 645l-226 -101l-60 100l212 124z" />
    <glyph glyph-name="Acircumflex.sc" 
d="M600 0h-199l-20 65h-179l-20 -65h-182l176 520h248zM340 195l-35 115c-5 16 -11 37 -15 59h-1c-3 -22 -8 -43 -13 -59l-35 -115h99zM475 637l-66 -83l-108 77l-110 -77l-64 81l176 143z" />
    <glyph glyph-name="Atilde.sc" 
d="M600 0h-199l-20 65h-179l-20 -65h-182l176 520h248zM340 195l-35 115c-5 16 -11 37 -15 59h-1c-3 -22 -8 -43 -13 -59l-35 -115h99zM416 724l84 -64c-33 -69 -79 -106 -139 -106c-68 0 -84 45 -117 45c-23 0 -35 -15 -49 -43l-84 64c33 69 79 106 139 106
c68 0 84 -45 117 -45c23 0 35 15 49 43z" />
    <glyph glyph-name="Adieresis.sc" 
d="M600 0h-199l-20 65h-179l-20 -65h-182l176 520h248zM340 195l-35 115c-5 16 -11 37 -15 59h-1c-3 -22 -8 -43 -13 -59l-35 -115h99zM501 640c0 -50 -41 -91 -91 -91s-91 41 -91 91s41 91 91 91s91 -41 91 -91zM284 640c0 -50 -41 -91 -91 -91s-91 41 -91 91s41 91 91 91
s91 -41 91 -91z" />
    <glyph glyph-name="Amacron.sc" 
d="M600 0h-199l-20 65h-179l-20 -65h-182l176 520h248zM340 195l-35 115c-5 16 -11 37 -15 59h-1c-3 -22 -8 -43 -13 -59l-35 -115h99zM445 575h-295v130h295v-130z" />
    <glyph glyph-name="Abreve.sc" 
d="M600 0h-199l-20 65h-179l-20 -65h-182l176 520h248zM340 195l-35 115c-5 16 -11 37 -15 59h-1c-3 -22 -8 -43 -13 -59l-35 -115h99zM340 724h114c0 -95 -45 -180 -155 -180c-111 0 -152 87 -152 180h113c0 -34 13 -53 40 -53c24 0 40 15 40 53z" />
    <glyph glyph-name="Aring.sc" 
d="M600 0h-199l-20 65h-179l-20 -65h-182l176 520h248zM340 195l-35 115c-5 16 -11 37 -15 59h-1c-3 -22 -8 -43 -13 -59l-35 -115h99zM453 692c0 -89 -71 -144 -159 -144c-96 0 -147 43 -147 130c0 89 71 144 159 144c96 0 147 -43 147 -130zM342 684c0 39 -13 52 -41 52
c-27 0 -43 -19 -43 -50c0 -39 13 -52 41 -52c27 0 43 19 43 50z" />
    <glyph glyph-name="Aring.alt.sc" 
d="M600 0h-199l-20 65h-179l-20 -65h-182l176 520c-17 16 -25 51 -25 81c0 89 71 144 159 144c96 0 147 -43 147 -130c0 -39 -14 -72 -33 -95zM346 607c0 39 -13 52 -41 52c-27 0 -43 -19 -43 -50c0 -39 13 -52 41 -52c27 0 43 19 43 50zM340 195l-35 115
c-5 16 -11 37 -15 59h-1c-3 -22 -8 -43 -13 -59l-35 -115h99z" />
    <glyph glyph-name="Aringacute.sc" 
d="M600 0h-199l-20 65h-179l-20 -65h-182l176 520h248zM340 195l-35 115c-5 16 -11 37 -15 59h-1c-3 -22 -8 -43 -13 -59l-35 -115h99zM473 821l-238 -39l-23 77l229 61zM440 663c0 -74 -61 -116 -137 -116c-83 0 -127 32 -127 104c0 74 61 116 137 116
c83 0 127 -32 127 -104zM344 656c0 32 -11 42 -35 42c-23 0 -37 -15 -37 -40c0 -32 11 -42 35 -42c23 0 37 15 37 40z" />
    <glyph glyph-name="Aogonek.sc" 
d="M340 195l-35 115c-5 16 -11 37 -15 59h-1c-3 -22 -8 -43 -13 -59l-35 -115h99zM595 -87l46 -96c-46 -41 -100 -58 -157 -58c-87 0 -149 40 -149 117c0 45 21 91 66 124l-20 65h-179l-20 -65h-182l176 520h248l176 -520c-75 -20 -98 -55 -98 -84c0 -15 10 -25 29 -25
c21 0 42 8 64 22z" />
    <glyph glyph-name="uni01CD.sc" 
d="M600 0h-199l-20 65h-179l-20 -65h-182l176 520h248zM340 195l-35 115c-5 16 -11 37 -15 59h-1c-3 -22 -8 -43 -13 -59l-35 -115h99zM474 692l-176 -143l-172 141l66 83l108 -77l110 77z" />
    <glyph glyph-name="uni1EA0.sc" 
d="M600 0h-199l-20 65h-179l-20 -65h-182l176 520h248zM340 195l-35 115c-5 16 -11 37 -15 59h-1c-3 -22 -8 -43 -13 -59l-35 -115h99zM403 -141c0 -57 -46 -103 -103 -103s-103 46 -103 103s46 103 103 103s103 -46 103 -103z" />
    <glyph glyph-name="uni1EA2.sc" 
d="M600 0h-199l-20 65h-179l-20 -65h-182l176 520h248zM340 195l-35 115c-5 16 -11 37 -15 59h-1c-3 -22 -8 -43 -13 -59l-35 -115h99zM286 559l-21 78c15 4 36 15 36 31c0 12 -6 20 -34 20c-30 0 -66 -12 -76 -17l-24 90c23 10 76 29 141 29c80 0 125 -32 125 -94
c0 -87 -104 -126 -147 -137z" />
    <glyph glyph-name="uni1EA4.sc" 
d="M600 0h-199l-20 65h-179l-20 -65h-182l176 520h248zM340 195l-35 115c-5 16 -11 37 -15 59h-1c-3 -22 -8 -43 -13 -59l-35 -115h99zM457 618l-45 -70l-112 51l-112 -51l-45 70l157 94zM409 773l-210 -55l-29 71l197 77z" />
    <glyph glyph-name="uni1EA6.sc" 
d="M600 0h-199l-20 65h-179l-20 -65h-182l176 520h248zM340 195l-35 115c-5 16 -11 37 -15 59h-1c-3 -22 -8 -43 -13 -59l-35 -115h99zM457 618l-45 -70l-112 51l-112 -51l-45 70l157 94zM380 718l-210 55l42 93l197 -77z" />
    <glyph glyph-name="uni1EA8.sc" 
d="M600 0h-199l-20 65h-179l-20 -65h-182l176 520h248zM340 195l-35 115c-5 16 -11 37 -15 59h-1c-3 -22 -8 -43 -13 -59l-35 -115h99zM456 618l-45 -70l-112 51l-112 -51l-45 70l157 94zM395 687l-72 42c11 6 24 16 24 29c0 12 -10 19 -38 19s-59 -13 -68 -18l-21 77
c21 10 68 27 124 27c71 0 115 -29 115 -79s-38 -83 -64 -97z" />
    <glyph glyph-name="uni1EAA.sc" 
d="M600 0h-199l-20 65h-179l-20 -65h-182l176 520h248zM340 195l-35 115c-5 16 -11 37 -15 59h-1c-3 -22 -8 -43 -13 -59l-35 -115h99zM454 618l-45 -70l-112 51l-112 -51l-45 70l157 94zM387 845l75 -46c-27 -51 -66 -77 -111 -77c-53 0 -59 32 -85 32
c-15 0 -27 -7 -39 -29l-75 46c27 51 66 77 111 77c53 0 58 -32 85 -32c15 0 27 7 39 29z" />
    <glyph glyph-name="uni1EAC.sc" 
d="M600 0h-199l-20 65h-179l-20 -65h-182l176 520h248zM340 195l-35 115c-5 16 -11 37 -15 59h-1c-3 -22 -8 -43 -13 -59l-35 -115h99zM403 -141c0 -57 -46 -103 -103 -103s-103 46 -103 103s46 103 103 103s103 -46 103 -103zM474 637l-66 -83l-108 77l-110 -77l-64 81
l176 143z" />
    <glyph glyph-name="uni1EAE.sc" 
d="M600 0h-199l-20 65h-179l-20 -65h-182l176 520h248zM340 195l-35 115c-5 16 -11 37 -15 59h-1c-3 -22 -8 -43 -13 -59l-35 -115h99zM337 693h105c0 -69 -41 -129 -143 -129c-103 0 -140 62 -140 129h104c0 -25 12 -37 37 -37c22 0 37 9 37 37zM442 773l-210 -55l-29 71
l197 77z" />
    <glyph glyph-name="uni1EB0.sc" 
d="M600 0h-199l-20 65h-179l-20 -65h-182l176 520h248zM340 195l-35 115c-5 16 -11 37 -15 59h-1c-3 -22 -8 -43 -13 -59l-35 -115h99zM337 693h105c0 -69 -41 -129 -143 -129c-103 0 -140 62 -140 129h104c0 -25 12 -37 37 -37c22 0 37 9 37 37zM369 718l-210 55l42 93
l197 -77z" />
    <glyph glyph-name="uni1EB2.sc" 
d="M600 0h-199l-20 65h-179l-20 -65h-182l176 520h248zM340 195l-35 115c-5 16 -11 37 -15 59h-1c-3 -22 -8 -43 -13 -59l-35 -115h99zM340 696h112c0 -74 -45 -138 -153 -138c-109 0 -150 66 -150 138h111c0 -26 13 -41 40 -41c24 0 40 13 40 41zM289 703l-16 65
c13 3 32 12 32 25c0 10 -5 16 -29 16s-52 -8 -62 -13l-19 73c21 10 64 23 116 23c68 0 107 -27 107 -76c0 -73 -93 -104 -129 -113z" />
    <glyph glyph-name="uni1EB4.sc" 
d="M600 0h-199l-20 65h-179l-20 -65h-182l176 520h248zM340 195l-35 115c-5 16 -11 37 -15 59h-1c-3 -22 -8 -43 -13 -59l-35 -115h99zM374 855l75 -46c-27 -51 -66 -77 -111 -77c-53 0 -59 32 -85 32c-15 0 -27 -7 -39 -29l-75 46c27 51 66 77 111 77c53 0 58 -32 85 -32
c15 0 27 7 39 29zM331 693h105c0 -69 -41 -129 -143 -129c-103 0 -140 62 -140 129h104c0 -25 12 -37 37 -37c22 0 37 9 37 37z" />
    <glyph glyph-name="uni1EB6.sc" 
d="M600 0h-199l-20 65h-179l-20 -65h-182l176 520h248zM340 195l-35 115c-5 16 -11 37 -15 59h-1c-3 -22 -8 -43 -13 -59l-35 -115h99zM340 724h114c0 -95 -45 -180 -155 -180c-111 0 -152 87 -152 180h113c0 -34 13 -53 40 -53c24 0 40 15 40 53zM403 -141
c0 -57 -46 -103 -103 -103s-103 46 -103 103s46 103 103 103s103 -46 103 -103z" />
    <glyph glyph-name="AE.sc" horiz-adv-x="756" 
d="M707 0h-360v71h-138l-33 -71h-192l252 520h471v-145h-179v-42h163v-139h-163v-47h179v-147zM347 195v180h-4c-10 -29 -26 -67 -39 -95l-39 -85h82z" />
    <glyph glyph-name="AEacute.sc" horiz-adv-x="756" 
d="M707 0h-360v71h-138l-33 -71h-192l252 520h471v-145h-179v-42h163v-139h-163v-47h179v-147zM347 195v180h-4c-10 -29 -26 -67 -39 -95l-39 -85h82zM623 645l-226 -101l-60 100l212 124z" />
    <glyph glyph-name="B.sc" horiz-adv-x="576" 
d="M52 0v520c67 0 181 3 246 3c176 0 226 -62 226 -143c0 -43 -22 -77 -58 -97v-1c42 -13 76 -50 76 -108c0 -88 -66 -176 -264 -176c-58 0 -153 2 -226 2zM234 397v-76s18 -1 36 -1c45 0 61 17 61 39c0 24 -15 39 -61 39c-16 0 -36 -1 -36 -1zM234 205v-81s25 -1 48 -1
c41 0 62 16 62 43c0 23 -17 40 -67 40c-19 0 -43 -1 -43 -1z" />
    <glyph glyph-name="uni1E02.sc" horiz-adv-x="576" 
d="M52 0v520c67 0 181 3 246 3c176 0 226 -62 226 -143c0 -43 -22 -77 -58 -97v-1c42 -13 76 -50 76 -108c0 -88 -66 -176 -264 -176c-58 0 -153 2 -226 2zM234 397v-76s18 -1 36 -1c45 0 61 17 61 39c0 24 -15 39 -61 39c-16 0 -36 -1 -36 -1zM234 205v-81s25 -1 48 -1
c41 0 62 16 62 43c0 23 -17 40 -67 40c-19 0 -43 -1 -43 -1zM374 652c0 -57 -46 -103 -103 -103s-103 46 -103 103s46 103 103 103s103 -46 103 -103z" />
    <glyph glyph-name="uni1E06.sc" horiz-adv-x="576" 
d="M111 -208v130h300v-130h-300zM52 0v520c67 0 181 3 246 3c176 0 226 -62 226 -143c0 -43 -22 -77 -58 -97v-1c42 -13 76 -50 76 -108c0 -88 -66 -176 -264 -176c-58 0 -153 2 -226 2zM234 397v-76s18 -1 36 -1c45 0 61 17 61 39c0 24 -15 39 -61 39c-16 0 -36 -1 -36 -1z
M234 205v-81s25 -1 48 -1c41 0 62 16 62 43c0 23 -17 40 -67 40c-19 0 -43 -1 -43 -1z" />
    <glyph glyph-name="C.sc" horiz-adv-x="451" 
d="M400 165l21 -155c-41 -15 -87 -21 -130 -21c-198 0 -270 113 -270 254c0 164 100 290 297 290c33 0 73 -5 102 -12l-22 -162c-24 9 -54 14 -79 14c-63 0 -99 -42 -99 -110c0 -71 34 -112 103 -112c28 0 54 6 77 14z" />
    <glyph glyph-name="Cacute.sc" horiz-adv-x="451" 
d="M400 165l21 -155c-41 -15 -87 -21 -130 -21c-198 0 -270 113 -270 254c0 164 100 290 297 290c33 0 73 -5 102 -12l-22 -162c-24 9 -54 14 -79 14c-63 0 -99 -42 -99 -110c0 -71 34 -112 103 -112c28 0 54 6 77 14zM423 645l-226 -101l-60 100l212 124z" />
    <glyph glyph-name="Ccircumflex.sc" horiz-adv-x="451" 
d="M400 165l21 -155c-41 -15 -87 -21 -130 -21c-198 0 -270 113 -270 254c0 164 100 290 297 290c33 0 73 -5 102 -12l-22 -162c-24 9 -54 14 -79 14c-63 0 -99 -42 -99 -110c0 -71 34 -112 103 -112c28 0 54 6 77 14zM442 637l-66 -83l-108 77l-110 -77l-64 81l176 143z
" />
    <glyph glyph-name="Ccaron.sc" horiz-adv-x="451" 
d="M400 165l21 -155c-41 -15 -87 -21 -130 -21c-198 0 -270 113 -270 254c0 164 100 290 297 290c33 0 73 -5 102 -12l-22 -162c-24 9 -54 14 -79 14c-63 0 -99 -42 -99 -110c0 -71 34 -112 103 -112c28 0 54 6 77 14zM448 692l-176 -143l-172 141l66 83l108 -77l110 77z
" />
    <glyph glyph-name="Cdotaccent.sc" horiz-adv-x="451" 
d="M400 165l21 -155c-41 -15 -87 -21 -130 -21c-198 0 -270 113 -270 254c0 164 100 290 297 290c33 0 73 -5 102 -12l-22 -162c-24 9 -54 14 -79 14c-63 0 -99 -42 -99 -110c0 -71 34 -112 103 -112c28 0 54 6 77 14zM368 659c0 -57 -46 -103 -103 -103s-103 46 -103 103
s46 103 103 103s103 -46 103 -103z" />
    <glyph glyph-name="Ccedilla.sc" horiz-adv-x="451" 
d="M400 165l21 -155c-41 -15 -87 -21 -130 -21c-198 0 -270 113 -270 254c0 164 100 290 297 290c33 0 73 -5 102 -12l-22 -162c-24 9 -54 14 -79 14c-63 0 -99 -42 -99 -110c0 -71 34 -112 103 -112c28 0 54 6 77 14zM167 -77l146 38c53 -77 38 -146 -18 -194h-130
c43 48 50 93 2 156z" />
    <glyph glyph-name="D.sc" horiz-adv-x="598" 
d="M52 1v519c51 1 168 3 241 3c165 0 282 -67 282 -250c0 -197 -141 -277 -314 -277c-83 0 -152 2 -209 5zM236 370v-216c6 -1 19 -2 41 -2c58 0 101 42 101 114c0 69 -33 106 -99 106c-15 0 -32 -1 -43 -2z" />
    <glyph glyph-name="Dcaron.sc" horiz-adv-x="598" 
d="M52 1v519c51 1 168 3 241 3c165 0 282 -67 282 -250c0 -197 -141 -277 -314 -277c-83 0 -152 2 -209 5zM236 370v-216c6 -1 19 -2 41 -2c58 0 101 42 101 114c0 69 -33 106 -99 106c-15 0 -32 -1 -43 -2zM448 692l-176 -143l-172 141l66 83l108 -77l110 77z" />
    <glyph glyph-name="uni1E0A.sc" horiz-adv-x="598" 
d="M52 1v519c51 1 168 3 241 3c165 0 282 -67 282 -250c0 -197 -141 -277 -314 -277c-83 0 -152 2 -209 5zM236 370v-216c6 -1 19 -2 41 -2c58 0 101 42 101 114c0 69 -33 106 -99 106c-15 0 -32 -1 -43 -2zM377 652c0 -57 -46 -103 -103 -103s-103 46 -103 103
s46 103 103 103s103 -46 103 -103z" />
    <glyph glyph-name="uni1E0C.sc" horiz-adv-x="598" 
d="M52 1v519c51 1 168 3 241 3c165 0 282 -67 282 -250c0 -197 -141 -277 -314 -277c-83 0 -152 2 -209 5zM236 370v-216c6 -1 19 -2 41 -2c58 0 101 42 101 114c0 69 -33 106 -99 106c-15 0 -32 -1 -43 -2zM382 -141c0 -57 -46 -103 -103 -103s-103 46 -103 103
s46 103 103 103s103 -46 103 -103z" />
    <glyph glyph-name="uni1E0E.sc" horiz-adv-x="598" 
d="M130 -208v130h300v-130h-300zM52 1v519c51 1 168 3 241 3c165 0 282 -67 282 -250c0 -197 -141 -277 -314 -277c-83 0 -152 2 -209 5zM236 370v-216c6 -1 19 -2 41 -2c58 0 101 42 101 114c0 69 -33 106 -99 106c-15 0 -32 -1 -43 -2z" />
    <glyph glyph-name="Eth.sc" horiz-adv-x="608" 
d="M62 325v195c51 1 168 3 241 3c165 0 282 -67 282 -250c0 -197 -141 -277 -314 -277c-83 0 -152 2 -209 5v202h-47v122h47zM313 203h-67v-49c6 -1 19 -2 41 -2c58 0 101 42 101 114c0 69 -33 106 -99 106c-15 0 -32 -1 -43 -2v-45h67v-122z" />
    <glyph glyph-name="Dcroat.sc" horiz-adv-x="608" 
d="M62 325v195c51 1 168 3 241 3c165 0 282 -67 282 -250c0 -197 -141 -277 -314 -277c-83 0 -152 2 -209 5v202h-47v122h47zM313 203h-67v-49c6 -1 19 -2 41 -2c58 0 101 42 101 114c0 69 -33 106 -99 106c-15 0 -32 -1 -43 -2v-45h67v-122z" />
    <glyph glyph-name="E.sc" horiz-adv-x="464" 
d="M415 0h-363v520h363v-145h-179v-42h163v-139h-163v-47h179v-147z" />
    <glyph glyph-name="Egrave.sc" horiz-adv-x="464" 
d="M415 0h-363v520h363v-145h-179v-42h163v-139h-163v-47h179v-147zM325 645l-60 -101l-226 101l74 123z" />
    <glyph glyph-name="Eacute.sc" horiz-adv-x="464" 
d="M415 0h-363v520h363v-145h-179v-42h163v-139h-163v-47h179v-147zM422 645l-226 -101l-60 100l212 124z" />
    <glyph glyph-name="Ecircumflex.sc" horiz-adv-x="464" 
d="M415 0h-363v520h363v-145h-179v-42h163v-139h-163v-47h179v-147zM407 637l-66 -83l-108 77l-110 -77l-64 81l176 143z" />
    <glyph glyph-name="Ecaron.sc" horiz-adv-x="464" 
d="M415 0h-363v520h363v-145h-179v-42h163v-139h-163v-47h179v-147zM405 692l-176 -143l-172 141l66 83l108 -77l110 77z" />
    <glyph glyph-name="Edieresis.sc" horiz-adv-x="464" 
d="M415 0h-363v520h363v-145h-179v-42h163v-139h-163v-47h179v-147zM432 640c0 -50 -41 -91 -91 -91s-91 41 -91 91s41 91 91 91s91 -41 91 -91zM215 640c0 -50 -41 -91 -91 -91s-91 41 -91 91s41 91 91 91s91 -41 91 -91z" />
    <glyph glyph-name="Emacron.sc" horiz-adv-x="464" 
d="M415 0h-363v520h363v-145h-179v-42h163v-139h-163v-47h179v-147zM379 575h-295v130h295v-130z" />
    <glyph glyph-name="Ebreve.sc" horiz-adv-x="464" 
d="M415 0h-363v520h363v-145h-179v-42h163v-139h-163v-47h179v-147zM270 724h114c0 -95 -45 -180 -155 -180c-111 0 -152 87 -152 180h113c0 -34 13 -53 40 -53c24 0 40 15 40 53z" />
    <glyph glyph-name="Edotaccent.sc" horiz-adv-x="464" 
d="M415 0h-363v520h363v-145h-179v-42h163v-139h-163v-47h179v-147zM335 652c0 -57 -46 -103 -103 -103s-103 46 -103 103s46 103 103 103s103 -46 103 -103z" />
    <glyph glyph-name="Eogonek.sc" horiz-adv-x="464" 
d="M402 -87l46 -96c-46 -41 -100 -58 -158 -58c-86 0 -148 40 -148 117c0 42 18 90 69 124h-159v520h363v-145h-179v-42h163v-139h-163v-47h179v-145c-82 -16 -106 -60 -106 -86c0 -15 10 -25 29 -25c21 0 42 8 64 22z" />
    <glyph glyph-name="uni1EB8.sc" horiz-adv-x="464" 
d="M415 0h-363v520h363v-145h-179v-42h163v-139h-163v-47h179v-147zM335 -141c0 -57 -46 -103 -103 -103s-103 46 -103 103s46 103 103 103s103 -46 103 -103z" />
    <glyph glyph-name="uni1EBA.sc" horiz-adv-x="464" 
d="M415 0h-363v520h363v-145h-179v-42h163v-139h-163v-47h179v-147zM226 559l-21 78c15 4 36 15 36 31c0 12 -6 20 -34 20c-30 0 -66 -12 -76 -17l-24 90c23 10 76 29 141 29c80 0 125 -32 125 -94c0 -87 -104 -126 -147 -137z" />
    <glyph glyph-name="uni1EBC.sc" horiz-adv-x="464" 
d="M415 0h-363v520h363v-145h-179v-42h163v-139h-163v-47h179v-147zM339 724l84 -64c-33 -69 -79 -106 -139 -106c-68 0 -84 45 -117 45c-23 0 -35 -15 -49 -43l-84 64c33 69 79 106 139 106c68 0 84 -45 117 -45c23 0 35 15 49 43z" />
    <glyph glyph-name="uni1EBE.sc" horiz-adv-x="464" 
d="M415 0h-363v520h363v-145h-179v-42h163v-139h-163v-47h179v-147zM387 618l-45 -70l-112 51l-112 -51l-45 70l157 94zM339 773l-210 -55l-29 71l197 77z" />
    <glyph glyph-name="uni1EC0.sc" horiz-adv-x="464" 
d="M415 0h-363v520h363v-145h-179v-42h163v-139h-163v-47h179v-147zM387 618l-45 -70l-112 51l-112 -51l-45 70l157 94zM310 718l-210 55l42 93l197 -77z" />
    <glyph glyph-name="uni1EC2.sc" horiz-adv-x="464" 
d="M415 0h-363v520h363v-145h-179v-42h163v-139h-163v-47h179v-147zM387 618l-45 -70l-112 51l-112 -51l-45 70l157 94zM326 687l-72 42c11 6 24 16 24 29c0 12 -10 19 -38 19s-59 -13 -68 -18l-21 77c21 10 68 27 124 27c71 0 115 -29 115 -79s-38 -83 -64 -97z" />
    <glyph glyph-name="uni1EC4.sc" horiz-adv-x="464" 
d="M415 0h-363v520h363v-145h-179v-42h163v-139h-163v-47h179v-147zM387 618l-45 -70l-112 51l-112 -51l-45 70l157 94zM320 845l75 -46c-27 -51 -66 -77 -111 -77c-53 0 -59 32 -85 32c-15 0 -27 -7 -39 -29l-75 46c27 51 66 77 111 77c53 0 58 -32 85 -32c15 0 27 7 39 29
z" />
    <glyph glyph-name="uni1EC6.sc" horiz-adv-x="464" 
d="M415 0h-363v520h363v-145h-179v-42h163v-139h-163v-47h179v-147zM407 637l-66 -83l-108 77l-110 -77l-64 81l176 143zM333 -141c0 -57 -46 -103 -103 -103s-103 46 -103 103s46 103 103 103s103 -46 103 -103z" />
    <glyph glyph-name="uni018F.sc" horiz-adv-x="577" 
d="M28 320h320c-4 36 -42 67 -122 67c-54 0 -103 -8 -154 -28l-30 136c67 25 148 36 217 36c189 0 297 -81 297 -264c0 -160 -99 -279 -281 -279c-174 0 -254 107 -254 251c0 26 2 53 7 81zM349 199h-128v-7c0 -45 24 -65 58 -65c41 0 68 30 70 72z" />
    <glyph glyph-name="F.sc" horiz-adv-x="442" 
d="M409 375h-173v-55h158v-141h-158v-179h-184v520h357v-145z" />
    <glyph glyph-name="uni1E1E.sc" horiz-adv-x="442" 
d="M409 375h-173v-55h158v-141h-158v-179h-184v520h357v-145zM332 652c0 -57 -46 -103 -103 -103s-103 46 -103 103s46 103 103 103s103 -46 103 -103z" />
    <glyph glyph-name="G.sc" horiz-adv-x="569" 
d="M519 289v-254c-69 -30 -143 -47 -222 -47c-153 0 -273 84 -273 261c0 155 109 282 299 282c61 0 125 -9 187 -28l-34 -155c-42 18 -88 27 -139 27c-78 0 -116 -46 -116 -115c0 -68 35 -106 85 -106c10 0 20 1 29 3v132h184z" />
    <glyph glyph-name="Gcircumflex.sc" horiz-adv-x="569" 
d="M519 289v-254c-69 -30 -143 -47 -222 -47c-153 0 -273 84 -273 261c0 155 109 282 299 282c61 0 125 -9 187 -28l-34 -155c-42 18 -88 27 -139 27c-78 0 -116 -46 -116 -115c0 -68 35 -106 85 -106c10 0 20 1 29 3v132h184zM479 637l-66 -83l-108 77l-110 -77l-64 81
l176 143z" />
    <glyph glyph-name="Gbreve.sc" horiz-adv-x="569" 
d="M519 289v-254c-69 -30 -143 -47 -222 -47c-153 0 -273 84 -273 261c0 155 109 282 299 282c61 0 125 -9 187 -28l-34 -155c-42 18 -88 27 -139 27c-78 0 -116 -46 -116 -115c0 -68 35 -106 85 -106c10 0 20 1 29 3v132h184zM357 734h114c0 -95 -45 -180 -155 -180
c-111 0 -152 87 -152 180h113c0 -34 13 -53 40 -53c24 0 40 15 40 53z" />
    <glyph glyph-name="Gdotaccent.sc" horiz-adv-x="569" 
d="M519 289v-254c-69 -30 -143 -47 -222 -47c-153 0 -273 84 -273 261c0 155 109 282 299 282c61 0 125 -9 187 -28l-34 -155c-42 18 -88 27 -139 27c-78 0 -116 -46 -116 -115c0 -68 35 -106 85 -106c10 0 20 1 29 3v132h184zM405 662c0 -57 -46 -103 -103 -103
s-103 46 -103 103s46 103 103 103s103 -46 103 -103z" />
    <glyph glyph-name="Gcommaaccent.sc" horiz-adv-x="569" 
d="M519 289v-254c-69 -30 -143 -47 -222 -47c-153 0 -273 84 -273 261c0 155 109 282 299 282c61 0 125 -9 187 -28l-34 -155c-42 18 -88 27 -139 27c-78 0 -116 -46 -116 -115c0 -68 35 -106 85 -106c10 0 20 1 29 3v132h184zM209 -245l-18 65c43 9 55 17 55 35
c0 10 -3 19 -3 31c0 37 26 70 76 70c47 0 74 -33 74 -78c0 -59 -53 -123 -184 -123z" />
    <glyph glyph-name="Gcaron.sc" horiz-adv-x="569" 
d="M519 289v-254c-69 -30 -143 -47 -222 -47c-153 0 -273 84 -273 261c0 155 109 282 299 282c61 0 125 -9 187 -28l-34 -155c-42 18 -88 27 -139 27c-78 0 -116 -46 -116 -115c0 -68 35 -106 85 -106c10 0 20 1 29 3v132h184zM488 692l-176 -143l-172 141l66 83l108 -77
l110 77z" />
    <glyph glyph-name="uni1E20.sc" horiz-adv-x="569" 
d="M519 289v-254c-69 -30 -143 -47 -222 -47c-153 0 -273 84 -273 261c0 155 109 282 299 282c61 0 125 -9 187 -28l-34 -155c-42 18 -88 27 -139 27c-78 0 -116 -46 -116 -115c0 -68 35 -106 85 -106c10 0 20 1 29 3v132h184zM463 575h-295v130h295v-130z" />
    <glyph glyph-name="G.sc.alt1" horiz-adv-x="569" 
d="M519 309v-274c-69 -30 -143 -47 -222 -47c-153 0 -273 84 -273 261c0 155 109 282 299 282c61 0 125 -9 187 -28l-34 -155c-42 18 -88 27 -139 27c-78 0 -116 -46 -116 -115c0 -68 35 -106 85 -106c10 0 20 1 29 3v45h-58v107h242z" />
    <glyph glyph-name="Gcircumflex.sc.alt1" horiz-adv-x="569" 
d="M519 309v-274c-69 -30 -143 -47 -222 -47c-153 0 -273 84 -273 261c0 155 109 282 299 282c61 0 125 -9 187 -28l-34 -155c-42 18 -88 27 -139 27c-78 0 -116 -46 -116 -115c0 -68 35 -106 85 -106c10 0 20 1 29 3v45h-58v107h242zM479 637l-66 -83l-108 77l-110 -77
l-64 81l176 143z" />
    <glyph glyph-name="Gbreve.sc.alt1" horiz-adv-x="569" 
d="M519 309v-274c-69 -30 -143 -47 -222 -47c-153 0 -273 84 -273 261c0 155 109 282 299 282c61 0 125 -9 187 -28l-34 -155c-42 18 -88 27 -139 27c-78 0 -116 -46 -116 -115c0 -68 35 -106 85 -106c10 0 20 1 29 3v45h-58v107h242zM357 734h114c0 -95 -45 -180 -155 -180
c-111 0 -152 87 -152 180h113c0 -34 13 -53 40 -53c24 0 40 15 40 53z" />
    <glyph glyph-name="Gdotaccent.sc.alt1" horiz-adv-x="569" 
d="M519 309v-274c-69 -30 -143 -47 -222 -47c-153 0 -273 84 -273 261c0 155 109 282 299 282c61 0 125 -9 187 -28l-34 -155c-42 18 -88 27 -139 27c-78 0 -116 -46 -116 -115c0 -68 35 -106 85 -106c10 0 20 1 29 3v45h-58v107h242zM401 662c0 -57 -46 -103 -103 -103
s-103 46 -103 103s46 103 103 103s103 -46 103 -103z" />
    <glyph glyph-name="Gcommaaccent.sc.alt1" horiz-adv-x="569" 
d="M519 309v-274c-69 -30 -143 -47 -222 -47c-153 0 -273 84 -273 261c0 155 109 282 299 282c61 0 125 -9 187 -28l-34 -155c-42 18 -88 27 -139 27c-78 0 -116 -46 -116 -115c0 -68 35 -106 85 -106c10 0 20 1 29 3v45h-58v107h242zM209 -245l-18 65c43 9 55 17 55 35
c0 10 -3 19 -3 31c0 37 26 70 76 70c47 0 74 -33 74 -78c0 -59 -53 -123 -184 -123z" />
    <glyph glyph-name="Gcaron.sc.alt1" horiz-adv-x="569" 
d="M519 309v-274c-69 -30 -143 -47 -222 -47c-153 0 -273 84 -273 261c0 155 109 282 299 282c61 0 125 -9 187 -28l-34 -155c-42 18 -88 27 -139 27c-78 0 -116 -46 -116 -115c0 -68 35 -106 85 -106c10 0 20 1 29 3v45h-58v107h242zM488 692l-176 -143l-172 141l66 83
l108 -77l110 77z" />
    <glyph glyph-name="uni1E20.sc.alt1" horiz-adv-x="569" 
d="M519 309v-274c-69 -30 -143 -47 -222 -47c-153 0 -273 84 -273 261c0 155 109 282 299 282c61 0 125 -9 187 -28l-34 -155c-42 18 -88 27 -139 27c-78 0 -116 -46 -116 -115c0 -68 35 -106 85 -106c10 0 20 1 29 3v45h-58v107h242zM463 575h-295v130h295v-130z" />
    <glyph glyph-name="H.sc" horiz-adv-x="632" 
d="M580 0h-184v184h-160v-184h-184v520h184v-179h160v179h184v-520z" />
    <glyph glyph-name="Hcircumflex.sc" horiz-adv-x="632" 
d="M580 0h-184v184h-160v-184h-184v520h184v-179h160v179h184v-520zM490 637l-66 -83l-108 77l-110 -77l-64 81l176 143z" />
    <glyph glyph-name="uni1E24.sc" horiz-adv-x="632" 
d="M580 0h-184v184h-160v-184h-184v520h184v-179h160v179h184v-520zM419 -141c0 -57 -46 -103 -103 -103s-103 46 -103 103s46 103 103 103s103 -46 103 -103z" />
    <glyph glyph-name="Hbar.sc" horiz-adv-x="640" 
d="M584 477h44v-126h-44v-351h-184v168h-160v-168h-184v351h-44v126h44v43h184v-43h160v43h184v-43zM400 351h-160v-47h160v47z" />
    <glyph glyph-name="I.sc" horiz-adv-x="288" 
d="M236 0h-184v520h184v-520z" />
    <glyph glyph-name="Igrave.sc" horiz-adv-x="288" 
d="M236 0h-184v520h184v-520zM273 645l-60 -101l-226 101l74 123z" />
    <glyph glyph-name="Iacute.sc" horiz-adv-x="288" 
d="M236 0h-184v520h184v-520zM293 645l-226 -101l-60 100l212 124z" />
    <glyph glyph-name="Icircumflex.sc" horiz-adv-x="288" 
d="M236 0h-184v520h184v-520zM298 627l-61 -83l-93 77l-95 -77l-59 81l155 143z" />
    <glyph glyph-name="Itilde.sc" horiz-adv-x="288" 
d="M236 0h-184v520h184v-520zM241 722l81 -61c-24 -66 -66 -108 -132 -108c-53 0 -77 46 -99 46c-20 0 -36 -23 -44 -42l-81 61c16 59 63 109 131 109c54 0 79 -46 99 -46c21 0 36 25 45 41z" />
    <glyph glyph-name="Idieresis.sc" horiz-adv-x="288" 
d="M236 0h-184v520h184v-520zM338 640c0 -50 -41 -91 -91 -91s-91 41 -91 91s41 91 91 91c51 0 91 -40 91 -91zM138 640c0 -50 -41 -91 -91 -91c-51 0 -91 40 -91 91c0 50 41 91 91 91c51 0 91 -40 91 -91z" />
    <glyph glyph-name="Imacron.sc" horiz-adv-x="288" 
d="M236 0h-184v520h184v-520zM286 575h-283v130h283v-130z" />
    <glyph glyph-name="Ibreve.sc" horiz-adv-x="288" 
d="M236 0h-184v520h184v-520zM176 724h114c0 -114 -51 -180 -147 -180c-97 0 -144 67 -144 180h113c0 -30 12 -53 32 -53s32 20 32 53z" />
    <glyph glyph-name="Idotaccent.sc" horiz-adv-x="288" 
d="M236 0h-184v520h184v-520zM248 652c0 -57 -46 -103 -103 -103s-103 46 -103 103s46 103 103 103s103 -46 103 -103z" />
    <glyph glyph-name="Iogonek.sc" horiz-adv-x="288" 
d="M237 520v-520c-60 -31 -77 -60 -77 -84c0 -15 10 -25 29 -25c21 0 42 8 64 22l46 -96c-46 -41 -100 -58 -157 -58c-87 0 -149 40 -149 117c0 52 27 92 60 124v520h184z" />
    <glyph glyph-name="uni01CF.sc" horiz-adv-x="288" 
d="M236 0h-184v520h184v-520zM318 692l-176 -143l-172 141l66 83l108 -77l110 77z" />
    <glyph glyph-name="uni1EC8.sc" horiz-adv-x="288" 
d="M236 0h-184v520h184v-520zM130 559l-21 78c15 4 36 15 36 31c0 12 -6 20 -34 20c-30 0 -66 -12 -76 -17l-24 90c23 10 76 29 141 29c80 0 125 -32 125 -94c0 -87 -104 -126 -147 -137z" />
    <glyph glyph-name="uni1ECA.sc" horiz-adv-x="288" 
d="M236 0h-184v520h184v-520zM247 -141c0 -57 -46 -103 -103 -103s-103 46 -103 103s46 103 103 103s103 -46 103 -103z" />
    <glyph glyph-name="I.barred.sc" horiz-adv-x="400" 
d="M108 375h-74v145h332v-145h-74v-228h74v-147h-332v147h74v228z" />
    <glyph glyph-name="Igrave.barred.sc" horiz-adv-x="400" 
d="M108 375h-74v145h332v-145h-74v-228h74v-147h-332v147h74v228zM323 645l-60 -101l-226 101l74 123z" />
    <glyph glyph-name="Iacute.barred.sc" horiz-adv-x="400" 
d="M108 375h-74v145h332v-145h-74v-228h74v-147h-332v147h74v228zM363 645l-226 -101l-60 100l212 124z" />
    <glyph glyph-name="Icircumflex.barred.sc" horiz-adv-x="400" 
d="M108 375h-74v145h332v-145h-74v-228h74v-147h-332v147h74v228zM374 637l-66 -83l-108 77l-110 -77l-64 81l176 143z" />
    <glyph glyph-name="Itilde.barred.sc" horiz-adv-x="400" 
d="M108 375h-74v145h332v-145h-74v-228h74v-147h-332v147h74v228zM311 724l84 -64c-33 -69 -79 -106 -139 -106c-68 0 -84 45 -117 45c-23 0 -35 -15 -49 -43l-84 64c33 69 79 106 139 106c68 0 84 -45 117 -45c23 0 35 15 49 43z" />
    <glyph glyph-name="Idieresis.barred.sc" horiz-adv-x="400" 
d="M108 375h-74v145h332v-145h-74v-228h74v-147h-332v147h74v228zM400 640c0 -50 -41 -91 -91 -91s-91 41 -91 91s41 91 91 91s91 -41 91 -91zM183 640c0 -50 -41 -91 -91 -91s-91 41 -91 91s41 91 91 91s91 -41 91 -91z" />
    <glyph glyph-name="Imacron.barred.sc" horiz-adv-x="400" 
d="M108 375h-74v145h332v-145h-74v-228h74v-147h-332v147h74v228zM348 575h-295v130h295v-130z" />
    <glyph glyph-name="Ibreve.barred.sc" horiz-adv-x="400" 
d="M108 375h-74v145h332v-145h-74v-228h74v-147h-332v147h74v228zM240 724h114c0 -95 -45 -180 -155 -180c-111 0 -152 87 -152 180h113c0 -34 13 -53 40 -53c24 0 40 15 40 53z" />
    <glyph glyph-name="Idotaccent.barred.sc" horiz-adv-x="400" 
d="M108 375h-74v145h332v-145h-74v-228h74v-147h-332v147h74v228zM303 652c0 -57 -46 -103 -103 -103s-103 46 -103 103s46 103 103 103s103 -46 103 -103z" />
    <glyph glyph-name="Iogonek.barred.sc" horiz-adv-x="400" 
d="M353 -87l46 -96c-46 -41 -100 -58 -158 -58c-86 0 -148 40 -148 117c0 42 18 90 69 124h-128v147h74v228h-74v145h332v-145h-74v-228h74v-145c-82 -16 -106 -60 -106 -86c0 -15 10 -25 29 -25c21 0 42 8 64 22z" />
    <glyph glyph-name="uni01CF.barred.sc" horiz-adv-x="400" 
d="M108 375h-74v145h332v-145h-74v-228h74v-147h-332v147h74v228zM374 692l-176 -143l-172 141l66 83l108 -77l110 77z" />
    <glyph glyph-name="uni1EC8.barred.sc" horiz-adv-x="400" 
d="M108 375h-74v145h332v-145h-74v-228h74v-147h-332v147h74v228zM186 559l-21 78c15 4 36 15 36 31c0 12 -6 20 -34 20c-30 0 -66 -12 -76 -17l-24 90c23 10 76 29 141 29c80 0 125 -32 125 -94c0 -87 -104 -126 -147 -137z" />
    <glyph glyph-name="uni1ECA.barred.sc" horiz-adv-x="400" 
d="M108 375h-74v145h332v-145h-74v-228h74v-147h-332v147h74v228zM303 -141c0 -57 -46 -103 -103 -103s-103 46 -103 103s46 103 103 103s103 -46 103 -103z" />
    <glyph glyph-name="IJ.sc" horiz-adv-x="617" 
d="M236 0h-184v520h184v-520zM566 520v-327c0 -128 -63 -202 -203 -202c-28 0 -53 3 -76 7v149c13 -3 31 -6 47 -6c35 0 48 16 48 52v327h184z" />
    <glyph glyph-name="IJ.sc.alt1" horiz-adv-x="584" 
d="M236 0h-184v520h184v-520zM375 -186l-90 93c48 34 63 67 63 131v482h184v-467c0 -106 -32 -175 -157 -239z" />
    <glyph glyph-name="IJ.barred.sc" horiz-adv-x="740" 
d="M108 375h-74v145h332v-145h-74v-228h74v-147h-332v147h74v228zM689 520v-327c0 -128 -63 -202 -203 -202c-28 0 -53 3 -76 7v149c13 -3 31 -6 47 -6c35 0 48 16 48 52v182h-95v145h279z" />
    <glyph glyph-name="J.sc" horiz-adv-x="345" 
d="M294 520v-327c0 -128 -63 -202 -203 -202c-28 0 -53 3 -76 7v149c13 -3 31 -6 47 -6c35 0 48 16 48 52v327h184z" />
    <glyph glyph-name="Jcircumflex.sc" horiz-adv-x="345" 
d="M294 520v-327c0 -128 -63 -202 -203 -202c-28 0 -53 3 -76 7v149c13 -3 31 -6 47 -6c35 0 48 16 48 52v327h184zM376 637l-66 -83l-108 77l-110 -77l-64 81l176 143z" />
    <glyph glyph-name="J.sc.alt1" horiz-adv-x="288" 
d="M79 -186l-90 93c48 34 63 67 63 131v482h184v-467c0 -106 -32 -175 -157 -239z" />
    <glyph glyph-name="Jcircumflex.sc.alt1" horiz-adv-x="288" 
d="M79 -186l-90 93c48 34 63 67 63 131v482h184v-467c0 -106 -32 -175 -157 -239zM318 637l-66 -83l-108 77l-110 -77l-64 81l176 143z" />
    <glyph glyph-name="J.barred.sc" horiz-adv-x="364" 
d="M313 520v-327c0 -128 -63 -202 -203 -202c-28 0 -53 3 -76 7v149c13 -3 31 -6 47 -6c35 0 48 16 48 52v182h-95v145h279z" />
    <glyph glyph-name="Jcircumflex.barred.sc" horiz-adv-x="364" 
d="M313 520v-327c0 -128 -63 -202 -203 -202c-28 0 -53 3 -76 7v149c13 -3 31 -6 47 -6c35 0 48 16 48 52v182h-95v145h279zM354 637l-66 -83l-108 77l-110 -77l-64 81l176 143z" />
    <glyph glyph-name="K.sc" horiz-adv-x="599" 
d="M590 0h-238l-116 214v-214h-184v520h184v-201l117 201h218l-161 -245z" />
    <glyph glyph-name="Kcommaaccent.sc" horiz-adv-x="599" 
d="M590 0h-238l-116 214v-214h-184v520h184v-201l117 201h218l-161 -245zM190 -245l-18 65c43 9 55 17 55 35c0 10 -3 19 -3 31c0 37 26 70 76 70c47 0 74 -33 74 -78c0 -59 -53 -123 -184 -123z" />
    <glyph glyph-name="uni01E8.sc" horiz-adv-x="599" 
d="M590 0h-238l-116 214v-214h-184v520h184v-201l117 201h218l-161 -245zM458 692l-176 -143l-172 141l66 83l108 -77l110 77z" />
    <glyph glyph-name="uni1E32.sc" horiz-adv-x="599" 
d="M590 0h-238l-116 214v-214h-184v520h184v-201l117 201h218l-161 -245zM382 -141c0 -57 -46 -103 -103 -103s-103 46 -103 103s46 103 103 103s103 -46 103 -103z" />
    <glyph glyph-name="uni1E34.sc" horiz-adv-x="599" 
d="M130 -208v130h300v-130h-300zM590 0h-238l-116 214v-214h-184v520h184v-201l117 201h218l-161 -245z" />
    <glyph glyph-name="L.sc" horiz-adv-x="399" 
d="M380 0h-328v520h184v-361h144v-159z" />
    <glyph glyph-name="Lacute.sc" horiz-adv-x="399" 
d="M380 0h-328v520h184v-361h144v-159zM340 645l-226 -101l-60 100l212 124z" />
    <glyph glyph-name="Lcaron.sc" horiz-adv-x="399" 
d="M380 0h-328v520h184v-361h144v-159zM436 644l-69 -236l-115 21l43 240z" />
    <glyph glyph-name="Lcommaaccent.sc" horiz-adv-x="399" 
d="M380 0h-328v520h184v-361h144v-159zM120 -245l-18 65c43 9 55 17 55 35c0 10 -3 19 -3 31c0 37 26 70 76 70c47 0 74 -33 74 -78c0 -59 -53 -123 -184 -123z" />
    <glyph glyph-name="uni1E36.sc" horiz-adv-x="399" 
d="M380 0h-328v520h184v-361h144v-159zM310 -141c0 -57 -46 -103 -103 -103s-103 46 -103 103s46 103 103 103s103 -46 103 -103z" />
    <glyph glyph-name="uni1E38.sc" horiz-adv-x="399" 
d="M380 0h-328v520h184v-361h144v-159zM356 575h-295v130h295v-130zM318 -141c0 -57 -46 -103 -103 -103s-103 46 -103 103s46 103 103 103s103 -46 103 -103z" />
    <glyph glyph-name="Lslash.sc" horiz-adv-x="409" 
d="M390 0h-328v186l-37 -18l-27 129l64 30v193h184v-106l60 28l27 -129l-87 -41v-113h144v-159z" />
    <glyph glyph-name="Ldot.sc" horiz-adv-x="513" 
d="M380 0h-328v520h184v-361h144v-159zM510 318c0 -60 -50 -110 -110 -110s-110 50 -110 110s50 110 110 110s110 -50 110 -110z" />
    <glyph glyph-name="M.sc" horiz-adv-x="865" 
d="M838 0h-194l-27 220c-4 34 -8 89 -10 130h-3c-6 -43 -16 -106 -27 -148l-54 -202h-195l-52 201c-14 58 -26 107 -32 149h-3c-2 -38 -4 -92 -8 -131l-20 -219h-186l74 520h259l50 -193c7 -27 14 -61 21 -101h3c7 38 13 71 21 101l50 193h259z" />
    <glyph glyph-name="uni1E40.sc" horiz-adv-x="865" 
d="M838 0h-194l-27 220c-4 34 -8 89 -10 130h-3c-6 -43 -16 -106 -27 -148l-54 -202h-195l-52 201c-14 58 -26 107 -32 149h-3c-2 -38 -4 -92 -8 -131l-20 -219h-186l74 520h259l50 -193c7 -27 14 -61 21 -101h3c7 38 13 71 21 101l50 193h259zM535 652
c0 -57 -46 -103 -103 -103s-103 46 -103 103s46 103 103 103s103 -46 103 -103z" />
    <glyph glyph-name="uni1E42.sc" horiz-adv-x="865" 
d="M838 0h-194l-27 220c-4 34 -8 89 -10 130h-3c-6 -43 -16 -106 -27 -148l-54 -202h-195l-52 201c-14 58 -26 107 -32 149h-3c-2 -38 -4 -92 -8 -131l-20 -219h-186l74 520h259l50 -193c7 -27 14 -61 21 -101h3c7 38 13 71 21 101l50 193h259zM529 -141
c0 -57 -46 -103 -103 -103s-103 46 -103 103s46 103 103 103s103 -46 103 -103z" />
    <glyph glyph-name="N.sc" horiz-adv-x="651" 
d="M599 0h-210l-113 171c-21 31 -42 67 -55 101h-2c4 -43 6 -103 6 -147v-125h-173v520h216l107 -161c21 -31 42 -67 55 -101h2c-4 43 -6 103 -6 147v115h173v-520z" />
    <glyph glyph-name="Nacute.sc" horiz-adv-x="651" 
d="M599 0h-210l-113 171c-21 31 -42 67 -55 101h-2c4 -43 6 -103 6 -147v-125h-173v520h216l107 -161c21 -31 42 -67 55 -101h2c-4 43 -6 103 -6 147v115h173v-520zM523 645l-226 -101l-60 100l212 124z" />
    <glyph glyph-name="Ncaron.sc" horiz-adv-x="651" 
d="M599 0h-210l-113 171c-21 31 -42 67 -55 101h-2c4 -43 6 -103 6 -147v-125h-173v520h216l107 -161c21 -31 42 -67 55 -101h2c-4 43 -6 103 -6 147v115h173v-520zM525 692l-176 -143l-172 141l66 83l108 -77l110 77z" />
    <glyph glyph-name="Ntilde.sc" horiz-adv-x="651" 
d="M599 0h-210l-113 171c-21 31 -42 67 -55 101h-2c4 -43 6 -103 6 -147v-125h-173v520h216l107 -161c21 -31 42 -67 55 -101h2c-4 43 -6 103 -6 147v115h173v-520zM444 724l84 -64c-33 -69 -79 -106 -139 -106c-68 0 -84 45 -117 45c-23 0 -35 -15 -49 -43l-84 64
c33 69 79 106 139 106c68 0 84 -45 117 -45c23 0 35 15 49 43z" />
    <glyph glyph-name="uni1E44.sc" horiz-adv-x="651" 
d="M599 0h-210l-113 171c-21 31 -42 67 -55 101h-2c4 -43 6 -103 6 -147v-125h-173v520h216l107 -161c21 -31 42 -67 55 -101h2c-4 43 -6 103 -6 147v115h173v-520zM435 652c0 -57 -46 -103 -103 -103s-103 46 -103 103s46 103 103 103s103 -46 103 -103z" />
    <glyph glyph-name="uni1E46.sc" horiz-adv-x="651" 
d="M599 0h-210l-113 171c-21 31 -42 67 -55 101h-2c4 -43 6 -103 6 -147v-125h-173v520h216l107 -161c21 -31 42 -67 55 -101h2c-4 43 -6 103 -6 147v115h173v-520zM430 -141c0 -57 -46 -103 -103 -103s-103 46 -103 103s46 103 103 103s103 -46 103 -103z" />
    <glyph glyph-name="Ncommaaccent.sc" horiz-adv-x="651" 
d="M599 0h-210l-113 171c-21 31 -42 67 -55 101h-2c4 -43 6 -103 6 -147v-125h-173v520h216l107 -161c21 -31 42 -67 55 -101h2c-4 43 -6 103 -6 147v115h173v-520zM222 -245l-18 65c43 9 55 17 55 35c0 10 -3 19 -3 31c0 37 26 70 76 70c47 0 74 -33 74 -78
c0 -59 -53 -123 -184 -123z" />
    <glyph glyph-name="Eng.sc" horiz-adv-x="644" 
d="M592 520v-530c0 -131 -64 -206 -220 -227l-35 153c48 5 71 30 73 60l-145 209c-17 24 -32 50 -43 74h-1c3 -38 4 -100 4 -147v-112h-173v520h219l117 -167c17 -24 31 -48 39 -66c-4 26 -5 95 -5 130v103h170z" />
    <glyph glyph-name="O.sc" horiz-adv-x="624" 
d="M603 274c0 -170 -125 -287 -303 -287c-181 0 -279 91 -279 259c0 170 125 287 303 287c181 0 279 -91 279 -259zM406 259c0 75 -30 117 -93 117c-59 0 -95 -40 -95 -115s30 -116 93 -116c59 0 95 39 95 114z" />
    <glyph glyph-name="Ograve.sc" horiz-adv-x="624" 
d="M603 274c0 -170 -125 -287 -303 -287c-181 0 -279 91 -279 259c0 170 125 287 303 287c181 0 279 -91 279 -259zM406 259c0 75 -30 117 -93 117c-59 0 -95 -40 -95 -115s30 -116 93 -116c59 0 95 39 95 114zM406 645l-60 -101l-226 101l74 123z" />
    <glyph glyph-name="Oacute.sc" horiz-adv-x="624" 
d="M603 274c0 -170 -125 -287 -303 -287c-181 0 -279 91 -279 259c0 170 125 287 303 287c181 0 279 -91 279 -259zM406 259c0 75 -30 117 -93 117c-59 0 -95 -40 -95 -115s30 -116 93 -116c59 0 95 39 95 114zM510 645l-226 -101l-60 100l212 124z" />
    <glyph glyph-name="Ocircumflex.sc" horiz-adv-x="624" 
d="M603 274c0 -170 -125 -287 -303 -287c-181 0 -279 91 -279 259c0 170 125 287 303 287c181 0 279 -91 279 -259zM406 259c0 75 -30 117 -93 117c-59 0 -95 -40 -95 -115s30 -116 93 -116c59 0 95 39 95 114zM491 637l-66 -83l-108 77l-110 -77l-64 81l176 143z" />
    <glyph glyph-name="Otilde.sc" horiz-adv-x="624" 
d="M603 274c0 -170 -125 -287 -303 -287c-181 0 -279 91 -279 259c0 170 125 287 303 287c181 0 279 -91 279 -259zM406 259c0 75 -30 117 -93 117c-59 0 -95 -40 -95 -115s30 -116 93 -116c59 0 95 39 95 114zM426 724l84 -64c-33 -69 -79 -106 -139 -106
c-68 0 -84 45 -117 45c-23 0 -35 -15 -49 -43l-84 64c33 69 79 106 139 106c68 0 84 -45 117 -45c23 0 35 15 49 43z" />
    <glyph glyph-name="Odieresis.sc" horiz-adv-x="624" 
d="M603 274c0 -170 -125 -287 -303 -287c-181 0 -279 91 -279 259c0 170 125 287 303 287c181 0 279 -91 279 -259zM406 259c0 75 -30 117 -93 117c-59 0 -95 -40 -95 -115s30 -116 93 -116c59 0 95 39 95 114zM514 640c0 -50 -41 -91 -91 -91s-91 41 -91 91s41 91 91 91
s91 -41 91 -91zM297 640c0 -50 -41 -91 -91 -91s-91 41 -91 91s41 91 91 91s91 -41 91 -91z" />
    <glyph glyph-name="Omacron.sc" horiz-adv-x="624" 
d="M603 274c0 -170 -125 -287 -303 -287c-181 0 -279 91 -279 259c0 170 125 287 303 287c181 0 279 -91 279 -259zM406 259c0 75 -30 117 -93 117c-59 0 -95 -40 -95 -115s30 -116 93 -116c59 0 95 39 95 114zM461 575h-295v130h295v-130z" />
    <glyph glyph-name="Obreve.sc" horiz-adv-x="624" 
d="M603 274c0 -170 -125 -287 -303 -287c-181 0 -279 91 -279 259c0 170 125 287 303 287c181 0 279 -91 279 -259zM406 259c0 75 -30 117 -93 117c-59 0 -95 -40 -95 -115s30 -116 93 -116c59 0 95 39 95 114zM356 724h114c0 -95 -45 -180 -155 -180
c-111 0 -152 87 -152 180h113c0 -34 13 -53 40 -53c24 0 40 15 40 53z" />
    <glyph glyph-name="Ohungarumlaut.sc" horiz-adv-x="624" 
d="M603 274c0 -170 -125 -287 -303 -287c-181 0 -279 91 -279 259c0 170 125 287 303 287c181 0 279 -91 279 -259zM406 259c0 75 -30 117 -93 117c-59 0 -95 -40 -95 -115s30 -116 93 -116c59 0 95 39 95 114zM620 688l-179 -144l-76 70l164 164zM390 707l-163 -163l-81 69
l145 177z" />
    <glyph glyph-name="Ohorn.sc" horiz-adv-x="624" 
d="M496 659l148 30c12 -27 20 -69 20 -104c0 -84 -39 -131 -107 -148c30 -40 46 -97 46 -163c0 -170 -125 -287 -303 -287c-181 0 -279 91 -279 259c0 170 125 287 303 287c69 0 96 -13 134 -13c44 0 59 22 59 53c0 29 -9 61 -21 86zM406 259c0 75 -30 117 -93 117
c-59 0 -95 -40 -95 -115s30 -116 93 -116c59 0 95 39 95 114z" />
    <glyph glyph-name="uni01D1.sc" horiz-adv-x="624" 
d="M603 274c0 -170 -125 -287 -303 -287c-181 0 -279 91 -279 259c0 170 125 287 303 287c181 0 279 -91 279 -259zM406 259c0 75 -30 117 -93 117c-59 0 -95 -40 -95 -115s30 -116 93 -116c59 0 95 39 95 114zM486 692l-176 -143l-172 141l66 83l108 -77l110 77z" />
    <glyph glyph-name="uni1ECC.sc" horiz-adv-x="624" 
d="M603 274c0 -170 -125 -287 -303 -287c-181 0 -279 91 -279 259c0 170 125 287 303 287c181 0 279 -91 279 -259zM406 259c0 75 -30 117 -93 117c-59 0 -95 -40 -95 -115s30 -116 93 -116c59 0 95 39 95 114zM415 -151c0 -57 -46 -103 -103 -103s-103 46 -103 103
s46 103 103 103s103 -46 103 -103z" />
    <glyph glyph-name="uni1ECE.sc" horiz-adv-x="624" 
d="M603 274c0 -170 -125 -287 -303 -287c-181 0 -279 91 -279 259c0 170 125 287 303 287c181 0 279 -91 279 -259zM406 259c0 75 -30 117 -93 117c-59 0 -95 -40 -95 -115s30 -116 93 -116c59 0 95 39 95 114zM298 559l-21 78c15 4 36 15 36 31c0 12 -6 20 -34 20
c-30 0 -66 -12 -76 -17l-24 90c23 10 76 29 141 29c80 0 125 -32 125 -94c0 -87 -104 -126 -147 -137z" />
    <glyph glyph-name="uni1ED0.sc" horiz-adv-x="624" 
d="M603 274c0 -170 -125 -287 -303 -287c-181 0 -279 91 -279 259c0 170 125 287 303 287c181 0 279 -91 279 -259zM406 259c0 75 -30 117 -93 117c-59 0 -95 -40 -95 -115s30 -116 93 -116c59 0 95 39 95 114zM469 618l-45 -70l-112 51l-112 -51l-45 70l157 94zM421 773
l-210 -55l-29 71l197 77z" />
    <glyph glyph-name="uni1ED2.sc" horiz-adv-x="624" 
d="M603 274c0 -170 -125 -287 -303 -287c-181 0 -279 91 -279 259c0 170 125 287 303 287c181 0 279 -91 279 -259zM406 259c0 75 -30 117 -93 117c-59 0 -95 -40 -95 -115s30 -116 93 -116c59 0 95 39 95 114zM469 618l-45 -70l-112 51l-112 -51l-45 70l157 94zM392 718
l-210 55l42 93l197 -77z" />
    <glyph glyph-name="uni1ED4.sc" horiz-adv-x="624" 
d="M603 274c0 -170 -125 -287 -303 -287c-181 0 -279 91 -279 259c0 170 125 287 303 287c181 0 279 -91 279 -259zM406 259c0 75 -30 117 -93 117c-59 0 -95 -40 -95 -115s30 -116 93 -116c59 0 95 39 95 114zM469 618l-45 -70l-112 51l-112 -51l-45 70l157 94zM408 687
l-72 42c11 6 24 16 24 29c0 12 -10 19 -38 19s-59 -13 -68 -18l-21 77c21 10 68 27 124 27c71 0 115 -29 115 -79s-38 -83 -64 -97z" />
    <glyph glyph-name="uni1ED6.sc" horiz-adv-x="624" 
d="M603 274c0 -170 -125 -287 -303 -287c-181 0 -279 91 -279 259c0 170 125 287 303 287c181 0 279 -91 279 -259zM406 259c0 75 -30 117 -93 117c-59 0 -95 -40 -95 -115s30 -116 93 -116c59 0 95 39 95 114zM469 618l-45 -70l-112 51l-112 -51l-45 70l157 94zM402 845
l75 -46c-27 -51 -66 -77 -111 -77c-53 0 -59 32 -85 32c-15 0 -27 -7 -39 -29l-75 46c27 51 66 77 111 77c53 0 58 -32 85 -32c15 0 27 7 39 29z" />
    <glyph glyph-name="uni1ED8.sc" horiz-adv-x="624" 
d="M603 274c0 -170 -125 -287 -303 -287c-181 0 -279 91 -279 259c0 170 125 287 303 287c181 0 279 -91 279 -259zM406 259c0 75 -30 117 -93 117c-59 0 -95 -40 -95 -115s30 -116 93 -116c59 0 95 39 95 114zM486 637l-66 -83l-108 77l-110 -77l-64 81l176 143zM415 -151
c0 -57 -46 -103 -103 -103s-103 46 -103 103s46 103 103 103s103 -46 103 -103z" />
    <glyph glyph-name="uni1EDA.sc" horiz-adv-x="624" 
d="M496 659l148 30c12 -27 20 -69 20 -104c0 -84 -39 -131 -107 -148c30 -40 46 -97 46 -163c0 -170 -125 -287 -303 -287c-181 0 -279 91 -279 259c0 170 125 287 303 287c69 0 96 -13 134 -13c44 0 59 22 59 53c0 29 -9 61 -21 86zM406 259c0 75 -30 117 -93 117
c-59 0 -95 -40 -95 -115s30 -116 93 -116c59 0 95 39 95 114zM470 645l-226 -101l-60 100l212 124z" />
    <glyph glyph-name="uni1EDC.sc" horiz-adv-x="624" 
d="M496 659l148 30c12 -27 20 -69 20 -104c0 -84 -39 -131 -107 -148c30 -40 46 -97 46 -163c0 -170 -125 -287 -303 -287c-181 0 -279 91 -279 259c0 170 125 287 303 287c69 0 96 -13 134 -13c44 0 59 22 59 53c0 29 -9 61 -21 86zM406 259c0 75 -30 117 -93 117
c-59 0 -95 -40 -95 -115s30 -116 93 -116c59 0 95 39 95 114zM406 645l-60 -101l-226 101l74 123z" />
    <glyph glyph-name="uni1EDE.sc" horiz-adv-x="624" 
d="M496 659l148 30c12 -27 20 -69 20 -104c0 -84 -39 -131 -107 -148c30 -40 46 -97 46 -163c0 -170 -125 -287 -303 -287c-181 0 -279 91 -279 259c0 170 125 287 303 287c69 0 96 -13 134 -13c44 0 59 22 59 53c0 29 -9 61 -21 86zM406 259c0 75 -30 117 -93 117
c-59 0 -95 -40 -95 -115s30 -116 93 -116c59 0 95 39 95 114zM298 559l-21 78c15 4 36 15 36 31c0 12 -6 20 -34 20c-30 0 -66 -12 -76 -17l-24 90c23 10 76 29 141 29c80 0 125 -32 125 -94c0 -87 -104 -126 -147 -137z" />
    <glyph glyph-name="uni1EE0.sc" horiz-adv-x="624" 
d="M496 659l148 30c12 -27 20 -69 20 -104c0 -84 -39 -131 -107 -148c30 -40 46 -97 46 -163c0 -170 -125 -287 -303 -287c-181 0 -279 91 -279 259c0 170 125 287 303 287c69 0 96 -13 134 -13c44 0 59 22 59 53c0 29 -9 61 -21 86zM406 259c0 75 -30 117 -93 117
c-59 0 -95 -40 -95 -115s30 -116 93 -116c59 0 95 39 95 114zM396 724l84 -64c-33 -69 -79 -106 -139 -106c-68 0 -84 45 -117 45c-23 0 -35 -15 -49 -43l-84 64c33 69 79 106 139 106c68 0 84 -45 117 -45c23 0 35 15 49 43z" />
    <glyph glyph-name="uni1EE2.sc" horiz-adv-x="624" 
d="M496 659l148 30c12 -27 20 -69 20 -104c0 -84 -39 -131 -107 -148c30 -40 46 -97 46 -163c0 -170 -125 -287 -303 -287c-181 0 -279 91 -279 259c0 170 125 287 303 287c69 0 96 -13 134 -13c44 0 59 22 59 53c0 29 -9 61 -21 86zM406 259c0 75 -30 117 -93 117
c-59 0 -95 -40 -95 -115s30 -116 93 -116c59 0 95 39 95 114zM415 -151c0 -57 -46 -103 -103 -103s-103 46 -103 103s46 103 103 103s103 -46 103 -103z" />
    <glyph glyph-name="Oslash.sc" horiz-adv-x="624" 
d="M439 617l107 -46l-44 -82c66 -42 101 -115 101 -215c0 -170 -125 -287 -303 -287c-24 0 -46 2 -67 5l-48 -89l-107 46l44 81c-67 43 -101 116 -101 216c0 170 125 287 303 287c24 0 46 -2 67 -5zM409 322l-98 -183h3c60 0 99 41 99 120c0 37 -7 54 -4 63zM214 198l99 184
h-2c-61 0 -100 -42 -100 -121c0 -34 6 -52 3 -63z" />
    <glyph glyph-name="Oslashacute.sc" horiz-adv-x="624" 
d="M439 617l107 -46l-44 -82c66 -42 101 -115 101 -215c0 -170 -125 -287 -303 -287c-24 0 -46 2 -67 5l-48 -89l-107 46l44 81c-67 43 -101 116 -101 216c0 170 125 287 303 287c24 0 46 -2 67 -5zM457 694l-194 -131l-76 86l178 150zM409 322l-98 -183h3
c60 0 99 41 99 120c0 37 -7 54 -4 63zM214 198l99 184h-2c-61 0 -100 -42 -100 -121c0 -34 6 -52 3 -63z" />
    <glyph glyph-name="OE.sc" horiz-adv-x="778" 
d="M729 0h-332c-27 -8 -60 -13 -97 -13c-181 0 -279 91 -279 259c0 170 125 287 303 287c41 0 75 -5 107 -13h298v-145h-179v-42h163v-139h-163v-47h179v-147zM366 155v210c-13 6 -34 11 -53 11c-59 0 -95 -40 -95 -115s30 -116 93 -116c20 0 42 5 55 10z" />
    <glyph glyph-name="P.sc" horiz-adv-x="529" 
d="M236 0h-184v520c53 2 150 4 220 4c153 0 237 -67 237 -189c0 -129 -103 -204 -247 -204c-12 0 -26 1 -26 1v-132zM236 376v-99s13 -1 27 -1c35 0 51 22 51 50s-14 51 -50 51c-14 0 -28 -1 -28 -1z" />
    <glyph glyph-name="uni1E56.sc" horiz-adv-x="529" 
d="M236 0h-184v520c53 2 150 4 220 4c153 0 237 -67 237 -189c0 -129 -103 -204 -247 -204c-12 0 -26 1 -26 1v-132zM236 376v-99s13 -1 27 -1c35 0 51 22 51 50s-14 51 -50 51c-14 0 -28 -1 -28 -1zM367 652c0 -57 -46 -103 -103 -103s-103 46 -103 103s46 103 103 103
s103 -46 103 -103z" />
    <glyph glyph-name="Thorn.sc" horiz-adv-x="529" 
d="M236 0h-184v520h184v-62s18 1 36 1c153 0 237 -66 237 -188c0 -129 -103 -203 -247 -203c-12 0 -26 1 -26 1v-69zM236 311v-97s13 -1 27 -1c35 0 51 21 51 49s-14 50 -50 50c-14 0 -28 -1 -28 -1z" />
    <glyph glyph-name="Q.sc" horiz-adv-x="624" 
d="M634 84v-152c-189 -38 -182 55 -329 55h-5c-181 0 -279 91 -279 259c0 170 125 287 303 287c181 0 279 -91 279 -259c0 -63 -20 -125 -59 -164c-9 -9 -21 -19 -32 -24c44 4 57 -16 122 -2zM406 259c0 75 -30 117 -93 117c-59 0 -95 -40 -95 -115s30 -116 93 -116
c59 0 95 39 95 114z" />
    <glyph glyph-name="Q.sc.alt0" horiz-adv-x="624" 
d="M661 -64v-155c-184 -34 -235 39 -389 19v155c181 22 220 -48 389 -19zM603 274c0 -170 -125 -287 -303 -287c-181 0 -279 91 -279 259c0 170 125 287 303 287c181 0 279 -91 279 -259zM406 259c0 75 -30 117 -93 117c-59 0 -95 -40 -95 -115s30 -116 93 -116
c59 0 95 39 95 114z" />
    <glyph glyph-name="Q.sc.alt1" horiz-adv-x="624" 
d="M621 7l-117 -96l-80 97c-37 -13 -79 -21 -124 -21c-181 0 -279 91 -279 259c0 170 125 287 303 287c181 0 279 -91 279 -259c0 -71 -22 -132 -59 -179zM362 304l49 -56v11c0 75 -35 119 -98 119c-59 0 -100 -42 -100 -117s35 -118 98 -118h3l-60 73z" />
    <glyph glyph-name="Q.sc.alt2" horiz-adv-x="624" 
d="M639 28l-123 -107l-82 91c-39 -16 -85 -25 -134 -25c-181 0 -279 91 -279 259c0 170 125 287 303 287c181 0 279 -91 279 -259c0 -61 -16 -116 -45 -160zM406 259c0 75 -30 117 -93 117c-59 0 -95 -40 -95 -115s30 -116 93 -116c59 0 95 39 95 114z" />
    <glyph glyph-name="R.sc" horiz-adv-x="541" 
d="M541 0h-219l-79 174h-7v-174h-184v520s98 4 223 4c147 0 234 -50 234 -175c0 -57 -32 -111 -82 -137c10 -20 22 -40 33 -61zM236 383v-90s13 -1 25 -1c34 0 52 21 52 46c0 27 -16 46 -53 46c-12 0 -24 -1 -24 -1z" />
    <glyph glyph-name="Racute.sc" horiz-adv-x="541" 
d="M541 0h-219l-79 174h-7v-174h-184v520s98 4 223 4c147 0 234 -50 234 -175c0 -57 -32 -111 -82 -137c10 -20 22 -40 33 -61zM236 383v-90s13 -1 25 -1c34 0 52 21 52 46c0 27 -16 46 -53 46c-12 0 -24 -1 -24 -1zM460 645l-226 -101l-60 100l212 124z" />
    <glyph glyph-name="Rcaron.sc" horiz-adv-x="541" 
d="M541 0h-219l-79 174h-7v-174h-184v520s98 4 223 4c147 0 234 -50 234 -175c0 -57 -32 -111 -82 -137c10 -20 22 -40 33 -61zM236 383v-90s13 -1 25 -1c34 0 52 21 52 46c0 27 -16 46 -53 46c-12 0 -24 -1 -24 -1zM441 692l-176 -143l-172 141l66 83l108 -77l110 77z" />
    <glyph glyph-name="uni1E5A.sc" horiz-adv-x="541" 
d="M541 0h-219l-79 174h-7v-174h-184v520s98 4 223 4c147 0 234 -50 234 -175c0 -57 -32 -111 -82 -137c10 -20 22 -40 33 -61zM236 383v-90s13 -1 25 -1c34 0 52 21 52 46c0 27 -16 46 -53 46c-12 0 -24 -1 -24 -1zM366 -141c0 -57 -46 -103 -103 -103s-103 46 -103 103
s46 103 103 103s103 -46 103 -103z" />
    <glyph glyph-name="uni1E5C.sc" horiz-adv-x="541" 
d="M541 0h-219l-79 174h-7v-174h-184v520s98 4 223 4c147 0 234 -50 234 -175c0 -57 -32 -111 -82 -137c10 -20 22 -40 33 -61zM236 383v-90s13 -1 25 -1c34 0 52 21 52 46c0 27 -16 46 -53 46c-12 0 -24 -1 -24 -1zM414 575h-295v130h295v-130zM373 -141
c0 -57 -46 -103 -103 -103s-103 46 -103 103s46 103 103 103s103 -46 103 -103z" />
    <glyph glyph-name="Rcommaaccent.sc" horiz-adv-x="541" 
d="M541 0h-219l-79 174h-7v-174h-184v520s98 4 223 4c147 0 234 -50 234 -175c0 -57 -32 -111 -82 -137c10 -20 22 -40 33 -61zM236 383v-90s13 -1 25 -1c34 0 52 21 52 46c0 27 -16 46 -53 46c-12 0 -24 -1 -24 -1zM173 -245l-18 65c43 9 55 17 55 35c0 10 -3 19 -3 31
c0 37 26 70 76 70c47 0 74 -33 74 -78c0 -59 -53 -123 -184 -123z" />
    <glyph glyph-name="S.sc" horiz-adv-x="460" 
d="M389 524l-11 -145c-31 8 -69 14 -100 14c-34 0 -50 -7 -50 -21c0 -49 204 -33 204 -204c0 -107 -88 -182 -254 -182c-45 0 -96 6 -135 14l12 150c37 -13 86 -21 128 -21c36 0 48 10 48 22c0 52 -200 33 -200 205c0 104 85 178 251 178c35 0 77 -4 107 -10z" />
    <glyph glyph-name="Sacute.sc" horiz-adv-x="460" 
d="M389 524l-11 -145c-31 8 -69 14 -100 14c-34 0 -50 -7 -50 -21c0 -49 204 -33 204 -204c0 -107 -88 -182 -254 -182c-45 0 -96 6 -135 14l12 150c37 -13 86 -21 128 -21c36 0 48 10 48 22c0 52 -200 33 -200 205c0 104 85 178 251 178c35 0 77 -4 107 -10zM413 645
l-226 -101l-60 100l212 124z" />
    <glyph glyph-name="Scircumflex.sc" horiz-adv-x="460" 
d="M389 524l-11 -145c-31 8 -69 14 -100 14c-34 0 -50 -7 -50 -21c0 -49 204 -33 204 -204c0 -107 -88 -182 -254 -182c-45 0 -96 6 -135 14l12 150c37 -13 86 -21 128 -21c36 0 48 10 48 22c0 52 -200 33 -200 205c0 104 85 178 251 178c35 0 77 -4 107 -10zM406 637
l-66 -83l-108 77l-110 -77l-64 81l176 143z" />
    <glyph glyph-name="Scaron.sc" horiz-adv-x="460" 
d="M389 524l-11 -145c-31 8 -69 14 -100 14c-34 0 -50 -7 -50 -21c0 -49 204 -33 204 -204c0 -107 -88 -182 -254 -182c-45 0 -96 6 -135 14l12 150c37 -13 86 -21 128 -21c36 0 48 10 48 22c0 52 -200 33 -200 205c0 104 85 178 251 178c35 0 77 -4 107 -10zM400 692
l-176 -143l-172 141l66 83l108 -77l110 77z" />
    <glyph glyph-name="Scedilla.sc" horiz-adv-x="460" 
d="M389 524l-11 -145c-31 8 -69 14 -100 14c-34 0 -50 -7 -50 -21c0 -49 204 -33 204 -204c0 -107 -88 -182 -254 -182c-45 0 -96 6 -135 14l12 150c37 -13 86 -21 128 -21c36 0 48 10 48 22c0 52 -200 33 -200 205c0 104 85 178 251 178c35 0 77 -4 107 -10zM146 -77
l146 38c53 -77 38 -146 -18 -194h-130c43 48 50 93 2 156z" />
    <glyph glyph-name="Scommaaccent.sc" horiz-adv-x="460" 
d="M389 524l-11 -145c-31 8 -69 14 -100 14c-34 0 -50 -7 -50 -21c0 -49 204 -33 204 -204c0 -107 -88 -182 -254 -182c-45 0 -96 6 -135 14l12 150c37 -13 86 -21 128 -21c36 0 48 10 48 22c0 52 -200 33 -200 205c0 104 85 178 251 178c35 0 77 -4 107 -10zM123 -245
l-18 65c43 9 55 17 55 35c0 10 -3 19 -3 31c0 37 26 70 76 70c47 0 74 -33 74 -78c0 -59 -53 -123 -184 -123z" />
    <glyph glyph-name="uni1E60.sc" horiz-adv-x="460" 
d="M389 524l-11 -145c-31 8 -69 14 -100 14c-34 0 -50 -7 -50 -21c0 -49 204 -33 204 -204c0 -107 -88 -182 -254 -182c-45 0 -96 6 -135 14l12 150c37 -13 86 -21 128 -21c36 0 48 10 48 22c0 52 -200 33 -200 205c0 104 85 178 251 178c35 0 77 -4 107 -10zM332 662
c0 -57 -46 -103 -103 -103s-103 46 -103 103s46 103 103 103s103 -46 103 -103z" />
    <glyph glyph-name="uni1E62.sc" horiz-adv-x="460" 
d="M389 524l-11 -145c-31 8 -69 14 -100 14c-34 0 -50 -7 -50 -21c0 -49 204 -33 204 -204c0 -107 -88 -182 -254 -182c-45 0 -96 6 -135 14l12 150c37 -13 86 -21 128 -21c36 0 48 10 48 22c0 52 -200 33 -200 205c0 104 85 178 251 178c35 0 77 -4 107 -10zM333 -141
c0 -57 -46 -103 -103 -103s-103 46 -103 103s46 103 103 103s103 -46 103 -103z" />
    <glyph glyph-name="uni1E9E.sc" horiz-adv-x="670" 
d="M591 509v-108l-69 -83c64 -16 110 -74 110 -150c0 -96 -75 -182 -237 -182c-29 0 -65 3 -102 11l11 139c23 -7 50 -12 76 -12c35 0 52 16 52 34c0 22 -20 38 -78 38h-39v109l73 87c-18 3 -41 5 -60 5c-61 0 -92 -26 -92 -87v-310h-184v306c0 155 99 229 291 229
c72 0 172 -10 248 -26z" />
    <glyph glyph-name="T.sc" horiz-adv-x="450" 
d="M432 366h-115v-366h-184v366h-115v154h414v-154z" />
    <glyph glyph-name="Tcaron.sc" horiz-adv-x="450" 
d="M432 366h-115v-366h-184v366h-115v154h414v-154zM400 692l-176 -143l-172 141l66 83l108 -77l110 77z" />
    <glyph glyph-name="Tcommaaccent.sc" horiz-adv-x="450" 
d="M432 366h-115v-366h-184v366h-115v154h414v-154zM115 -245l-18 65c43 9 55 17 55 35c0 10 -3 19 -3 31c0 37 26 70 76 70c47 0 74 -33 74 -78c0 -59 -53 -123 -184 -123z" />
    <glyph glyph-name="uni0162.sc" horiz-adv-x="450" 
d="M432 366h-115v-366h-184v366h-115v154h414v-154zM136 -77l146 38c53 -77 38 -146 -18 -194h-130c43 48 50 93 2 156z" />
    <glyph glyph-name="uni1E6A.sc" horiz-adv-x="450" 
d="M432 366h-115v-366h-184v366h-115v154h414v-154zM328 652c0 -57 -46 -103 -103 -103s-103 46 -103 103s46 103 103 103s103 -46 103 -103z" />
    <glyph glyph-name="uni1E6C.sc" horiz-adv-x="450" 
d="M432 366h-115v-366h-184v366h-115v154h414v-154zM328 -141c0 -57 -46 -103 -103 -103s-103 46 -103 103s46 103 103 103s103 -46 103 -103z" />
    <glyph glyph-name="uni1E6E.sc" horiz-adv-x="450" 
d="M76 -208v130h300v-130h-300zM432 366h-115v-366h-184v366h-115v154h414v-154z" />
    <glyph glyph-name="Tbar.sc" horiz-adv-x="450" 
d="M432 366h-115v-56h74v-141h-74v-169h-184v169h-74v141h74v56h-115v154h414v-154z" />
    <glyph glyph-name="U.sc" horiz-adv-x="616" 
d="M566 520v-316c0 -121 -82 -215 -265 -215c-176 0 -251 84 -251 200v331h184v-284c0 -67 21 -94 77 -94c49 0 73 29 73 92v286h182z" />
    <glyph glyph-name="Ugrave.sc" horiz-adv-x="616" 
d="M566 520v-316c0 -121 -82 -215 -265 -215c-176 0 -251 84 -251 200v331h184v-284c0 -67 21 -94 77 -94c49 0 73 29 73 92v286h182zM377 645l-60 -101l-226 101l74 123z" />
    <glyph glyph-name="Uacute.sc" horiz-adv-x="616" 
d="M566 520v-316c0 -121 -82 -215 -265 -215c-176 0 -251 84 -251 200v331h184v-284c0 -67 21 -94 77 -94c49 0 73 29 73 92v286h182zM529 645l-226 -101l-60 100l212 124z" />
    <glyph glyph-name="Ucircumflex.sc" horiz-adv-x="616" 
d="M566 520v-316c0 -121 -82 -215 -265 -215c-176 0 -251 84 -251 200v331h184v-284c0 -67 21 -94 77 -94c49 0 73 29 73 92v286h182zM484 637l-66 -83l-108 77l-110 -77l-64 81l176 143z" />
    <glyph glyph-name="Utilde.sc" horiz-adv-x="616" 
d="M566 520v-316c0 -121 -82 -215 -265 -215c-176 0 -251 84 -251 200v331h184v-284c0 -67 21 -94 77 -94c49 0 73 29 73 92v286h182zM419 724l84 -64c-33 -69 -79 -106 -139 -106c-68 0 -84 45 -117 45c-23 0 -35 -15 -49 -43l-84 64c33 69 79 106 139 106
c68 0 84 -45 117 -45c23 0 35 15 49 43z" />
    <glyph glyph-name="Udieresis.sc" horiz-adv-x="616" 
d="M566 520v-316c0 -121 -82 -215 -265 -215c-176 0 -251 84 -251 200v331h184v-284c0 -67 21 -94 77 -94c49 0 73 29 73 92v286h182zM510 640c0 -50 -41 -91 -91 -91s-91 41 -91 91s41 91 91 91s91 -41 91 -91zM293 640c0 -50 -41 -91 -91 -91s-91 41 -91 91s41 91 91 91
s91 -41 91 -91z" />
    <glyph glyph-name="Umacron.sc" horiz-adv-x="616" 
d="M566 520v-316c0 -121 -82 -215 -265 -215c-176 0 -251 84 -251 200v331h184v-284c0 -67 21 -94 77 -94c49 0 73 29 73 92v286h182zM461 575h-295v130h295v-130z" />
    <glyph glyph-name="Ubreve.sc" horiz-adv-x="616" 
d="M566 520v-316c0 -121 -82 -215 -265 -215c-176 0 -251 84 -251 200v331h184v-284c0 -67 21 -94 77 -94c49 0 73 29 73 92v286h182zM348 724h114c0 -95 -45 -180 -155 -180c-111 0 -152 87 -152 180h113c0 -34 13 -53 40 -53c24 0 40 15 40 53z" />
    <glyph glyph-name="Uring.sc" horiz-adv-x="616" 
d="M566 520v-316c0 -121 -82 -215 -265 -215c-176 0 -251 84 -251 200v331h184v-284c0 -67 21 -94 77 -94c49 0 73 29 73 92v286h182zM463 692c0 -89 -71 -144 -159 -144c-96 0 -147 43 -147 130c0 89 71 144 159 144c96 0 147 -43 147 -130zM352 684c0 39 -13 52 -41 52
c-27 0 -43 -19 -43 -50c0 -39 13 -52 41 -52c27 0 43 19 43 50z" />
    <glyph glyph-name="Uhungarumlaut.sc" horiz-adv-x="616" 
d="M566 520v-316c0 -121 -82 -215 -265 -215c-176 0 -251 84 -251 200v331h184v-284c0 -67 21 -94 77 -94c49 0 73 29 73 92v286h182zM605 688l-179 -144l-76 70l164 164zM375 707l-163 -163l-81 69l145 177z" />
    <glyph glyph-name="Uogonek.sc" horiz-adv-x="616" 
d="M566 520v-316c0 -60 -20 -109 -55 -144c-31 -31 -64 -59 -96 -91c-18 -18 -27 -35 -27 -53c0 -16 10 -25 29 -25c21 0 42 8 64 22l46 -96c-46 -41 -100 -58 -157 -58c-87 0 -149 40 -149 117c0 43 21 87 66 115h-7c-116 0 -230 54 -230 198v331h184v-284
c0 -67 21 -94 77 -94c49 0 73 29 73 92v286h182z" />
    <glyph glyph-name="Uhorn.sc" horiz-adv-x="616" 
d="M384 520h72c42 0 55 16 55 51c0 31 -9 64 -21 89l148 30c12 -27 20 -70 20 -107c0 -84 -37 -130 -92 -152v-227c0 -121 -82 -215 -265 -215c-176 0 -251 84 -251 200v331h184v-284c0 -67 21 -94 77 -94c49 0 73 29 73 92v286z" />
    <glyph glyph-name="uni01D3.sc" horiz-adv-x="616" 
d="M566 520v-316c0 -121 -82 -215 -265 -215c-176 0 -251 84 -251 200v331h184v-284c0 -67 21 -94 77 -94c49 0 73 29 73 92v286h182zM482 692l-176 -143l-172 141l66 83l108 -77l110 77z" />
    <glyph glyph-name="uni01D5.sc" horiz-adv-x="616" 
d="M566 520v-316c0 -121 -82 -215 -265 -215c-176 0 -251 84 -251 200v331h184v-284c0 -67 21 -94 77 -94c49 0 73 29 73 92v286h182zM273 624c0 -41 -34 -75 -75 -75s-75 34 -75 75s34 75 75 75s75 -34 75 -75zM493 624c0 -41 -34 -75 -75 -75s-75 34 -75 75s34 75 75 75
s75 -34 75 -75zM461 735h-306v104h306v-104z" />
    <glyph glyph-name="uni01D7.sc" horiz-adv-x="616" 
d="M566 520v-316c0 -121 -82 -215 -265 -215c-176 0 -251 84 -251 200v331h184v-284c0 -67 21 -94 77 -94c49 0 73 29 73 92v286h182zM273 624c0 -41 -34 -75 -75 -75s-75 34 -75 75s34 75 75 75s75 -34 75 -75zM493 624c0 -41 -34 -75 -75 -75s-75 34 -75 75s34 75 75 75
s75 -34 75 -75zM486 763l-206 -70l-37 82l194 91z" />
    <glyph glyph-name="uni01D9.sc" horiz-adv-x="616" 
d="M566 520v-316c0 -121 -82 -215 -265 -215c-176 0 -251 84 -251 200v331h184v-284c0 -67 21 -94 77 -94c49 0 73 29 73 92v286h182zM493 624c0 -41 -34 -75 -75 -75s-75 34 -75 75s34 75 75 75s75 -34 75 -75zM273 624c0 -41 -34 -75 -75 -75s-75 34 -75 75s34 75 75 75
s75 -34 75 -75zM143 793l41 73l125 -53l124 53l40 -71l-166 -102z" />
    <glyph glyph-name="uni01DB.sc" horiz-adv-x="616" 
d="M566 520v-316c0 -121 -82 -215 -265 -215c-176 0 -251 84 -251 200v331h184v-284c0 -67 21 -94 77 -94c49 0 73 29 73 92v286h182zM493 624c0 -41 -34 -75 -75 -75s-75 34 -75 75s34 75 75 75s75 -34 75 -75zM273 624c0 -41 -34 -75 -75 -75s-75 34 -75 75s34 75 75 75
s75 -34 75 -75zM374 775l-39 -82l-205 70l51 103z" />
    <glyph glyph-name="uni1EE4.sc" horiz-adv-x="616" 
d="M566 520v-316c0 -121 -82 -215 -265 -215c-176 0 -251 84 -251 200v331h184v-284c0 -67 21 -94 77 -94c49 0 73 29 73 92v286h182zM411 -151c0 -57 -46 -103 -103 -103s-103 46 -103 103s46 103 103 103s103 -46 103 -103z" />
    <glyph glyph-name="uni1EE6.sc" horiz-adv-x="616" 
d="M566 520v-316c0 -121 -82 -215 -265 -215c-176 0 -251 84 -251 200v331h184v-284c0 -67 21 -94 77 -94c49 0 73 29 73 92v286h182zM294 559l-21 78c15 4 36 15 36 31c0 12 -6 20 -34 20c-30 0 -66 -12 -76 -17l-24 90c23 10 76 29 141 29c80 0 125 -32 125 -94
c0 -87 -104 -126 -147 -137z" />
    <glyph glyph-name="uni1EE8.sc" horiz-adv-x="616" 
d="M384 520h72c42 0 55 16 55 51c0 31 -9 64 -21 89l148 30c12 -27 20 -70 20 -107c0 -84 -37 -130 -92 -152v-227c0 -121 -82 -215 -265 -215c-176 0 -251 84 -251 200v331h184v-284c0 -67 21 -94 77 -94c49 0 73 29 73 92v286zM469 645l-226 -101l-60 100l212 124z" />
    <glyph glyph-name="uni1EEA.sc" horiz-adv-x="616" 
d="M384 520h72c42 0 55 16 55 51c0 31 -9 64 -21 89l148 30c12 -27 20 -70 20 -107c0 -84 -37 -130 -92 -152v-227c0 -121 -82 -215 -265 -215c-176 0 -251 84 -251 200v331h184v-284c0 -67 21 -94 77 -94c49 0 73 29 73 92v286zM377 645l-60 -101l-226 101l74 123z" />
    <glyph glyph-name="uni1EEC.sc" horiz-adv-x="616" 
d="M384 520h72c42 0 55 16 55 51c0 31 -9 64 -21 89l148 30c12 -27 20 -70 20 -107c0 -84 -37 -130 -92 -152v-227c0 -121 -82 -215 -265 -215c-176 0 -251 84 -251 200v331h184v-284c0 -67 21 -94 77 -94c49 0 73 29 73 92v286zM294 559l-21 78c15 4 36 15 36 31
c0 12 -6 20 -34 20c-30 0 -66 -12 -76 -17l-24 90c23 10 76 29 141 29c80 0 125 -32 125 -94c0 -87 -104 -126 -147 -137z" />
    <glyph glyph-name="uni1EEE.sc" horiz-adv-x="616" 
d="M384 520h72c42 0 55 16 55 51c0 31 -9 64 -21 89l148 30c12 -27 20 -70 20 -107c0 -84 -37 -130 -92 -152v-227c0 -121 -82 -215 -265 -215c-176 0 -251 84 -251 200v331h184v-284c0 -67 21 -94 77 -94c49 0 73 29 73 92v286zM389 724l84 -64c-33 -69 -79 -106 -139 -106
c-68 0 -84 45 -117 45c-23 0 -35 -15 -49 -43l-84 64c33 69 79 106 139 106c68 0 84 -45 117 -45c23 0 35 15 49 43z" />
    <glyph glyph-name="uni1EF0.sc" horiz-adv-x="616" 
d="M384 520h72c42 0 55 16 55 51c0 31 -9 64 -21 89l148 30c12 -27 20 -70 20 -107c0 -84 -37 -130 -92 -152v-227c0 -121 -82 -215 -265 -215c-176 0 -251 84 -251 200v331h184v-284c0 -67 21 -94 77 -94c49 0 73 29 73 92v286zM411 -151c0 -57 -46 -103 -103 -103
s-103 46 -103 103s46 103 103 103s103 -46 103 -103z" />
    <glyph glyph-name="V.sc" horiz-adv-x="586" 
d="M584 520l-173 -520h-237l-172 520h201l69 -228c13 -42 22 -82 30 -122h1c7 40 18 81 30 123l67 227h184z" />
    <glyph glyph-name="uni1E7E.sc" horiz-adv-x="586" 
d="M584 520l-173 -520h-237l-172 520h201l69 -228c13 -42 22 -82 30 -122h1c7 40 18 81 30 123l67 227h184zM396 -141c0 -57 -46 -103 -103 -103s-103 46 -103 103s46 103 103 103s103 -46 103 -103z" />
    <glyph glyph-name="W.sc" horiz-adv-x="878" 
d="M872 520l-122 -520h-250l-44 186c-6 26 -16 79 -21 112h-2c-5 -32 -15 -79 -22 -106l-48 -192h-228l-129 520h202l49 -227c6 -27 12 -64 16 -93h2c5 34 13 76 22 111l54 209h191l54 -200c11 -39 19 -81 24 -120h2c4 32 11 79 21 122l44 198h185z" />
    <glyph glyph-name="Wgrave.sc" horiz-adv-x="878" 
d="M872 520l-122 -520h-250l-44 186c-6 26 -16 79 -21 112h-2c-5 -32 -15 -79 -22 -106l-48 -192h-228l-129 520h202l49 -227c6 -27 12 -64 16 -93h2c5 34 13 76 22 111l54 209h191l54 -200c11 -39 19 -81 24 -120h2c4 32 11 79 21 122l44 198h185zM545 645l-60 -101
l-226 101l74 123z" />
    <glyph glyph-name="Wacute.sc" horiz-adv-x="878" 
d="M872 520l-122 -520h-250l-44 186c-6 26 -16 79 -21 112h-2c-5 -32 -15 -79 -22 -106l-48 -192h-228l-129 520h202l49 -227c6 -27 12 -64 16 -93h2c5 34 13 76 22 111l54 209h191l54 -200c11 -39 19 -81 24 -120h2c4 32 11 79 21 122l44 198h185zM605 645l-226 -101
l-60 100l212 124z" />
    <glyph glyph-name="Wcircumflex.sc" horiz-adv-x="878" 
d="M872 520l-122 -520h-250l-44 186c-6 26 -16 79 -21 112h-2c-5 -32 -15 -79 -22 -106l-48 -192h-228l-129 520h202l49 -227c6 -27 12 -64 16 -93h2c5 34 13 76 22 111l54 209h191l54 -200c11 -39 19 -81 24 -120h2c4 32 11 79 21 122l44 198h185zM620 637l-66 -83l-108 77
l-110 -77l-64 81l176 143z" />
    <glyph glyph-name="Wdieresis.sc" horiz-adv-x="878" 
d="M872 520l-122 -520h-250l-44 186c-6 26 -16 79 -21 112h-2c-5 -32 -15 -79 -22 -106l-48 -192h-228l-129 520h202l49 -227c6 -27 12 -64 16 -93h2c5 34 13 76 22 111l54 209h191l54 -200c11 -39 19 -81 24 -120h2c4 32 11 79 21 122l44 198h185zM646 640
c0 -50 -41 -91 -91 -91s-91 41 -91 91s41 91 91 91s91 -41 91 -91zM429 640c0 -50 -41 -91 -91 -91s-91 41 -91 91s41 91 91 91s91 -41 91 -91z" />
    <glyph glyph-name="X.sc" horiz-adv-x="622" 
d="M616 0h-237l-78 139l-77 -139h-218l180 258l-173 262h227l78 -136l78 136h208l-166 -253z" />
    <glyph glyph-name="Y.sc" horiz-adv-x="541" 
d="M546 520l-183 -360v-160h-184v156l-184 364h203l39 -85c12 -27 26 -59 39 -97h1c13 38 28 71 42 100l38 82h189z" />
    <glyph glyph-name="Yacute.sc" horiz-adv-x="541" 
d="M546 520l-183 -360v-160h-184v156l-184 364h203l39 -85c12 -27 26 -59 39 -97h1c13 38 28 71 42 100l38 82h189zM490 645l-226 -101l-60 100l212 124z" />
    <glyph glyph-name="Ycircumflex.sc" horiz-adv-x="541" 
d="M546 520l-183 -360v-160h-184v156l-184 364h203l39 -85c12 -27 26 -59 39 -97h1c13 38 28 71 42 100l38 82h189zM444 637l-66 -83l-108 77l-110 -77l-64 81l176 143z" />
    <glyph glyph-name="Ydieresis.sc" horiz-adv-x="541" 
d="M546 520l-183 -360v-160h-184v156l-184 364h203l39 -85c12 -27 26 -59 39 -97h1c13 38 28 71 42 100l38 82h189zM477 640c0 -50 -41 -91 -91 -91s-91 41 -91 91s41 91 91 91s91 -41 91 -91zM260 640c0 -50 -41 -91 -91 -91s-91 41 -91 91s41 91 91 91s91 -41 91 -91z" />
    <glyph glyph-name="Ygrave.sc" horiz-adv-x="541" 
d="M546 520l-183 -360v-160h-184v156l-184 364h203l39 -85c12 -27 26 -59 39 -97h1c13 38 28 71 42 100l38 82h189zM342 645l-60 -101l-226 101l74 123z" />
    <glyph glyph-name="uni1EF4.sc" horiz-adv-x="541" 
d="M546 520l-183 -360v-160h-184v156l-184 364h203l39 -85c12 -27 26 -59 39 -97h1c13 38 28 71 42 100l38 82h189zM373 -141c0 -57 -46 -103 -103 -103s-103 46 -103 103s46 103 103 103s103 -46 103 -103z" />
    <glyph glyph-name="uni1EF6.sc" horiz-adv-x="541" 
d="M546 520l-183 -360v-160h-184v156l-184 364h203l39 -85c12 -27 26 -59 39 -97h1c13 38 28 71 42 100l38 82h189zM256 559l-21 78c15 4 36 15 36 31c0 12 -6 20 -34 20c-30 0 -66 -12 -76 -17l-24 90c23 10 76 29 141 29c80 0 125 -32 125 -94c0 -87 -104 -126 -147 -137z
" />
    <glyph glyph-name="uni1EF8.sc" horiz-adv-x="541" 
d="M546 520l-183 -360v-160h-184v156l-184 364h203l39 -85c12 -27 26 -59 39 -97h1c13 38 28 71 42 100l38 82h189zM381 724l84 -64c-33 -69 -79 -106 -139 -106c-68 0 -84 45 -117 45c-23 0 -35 -15 -49 -43l-84 64c33 69 79 106 139 106c68 0 84 -45 117 -45
c23 0 35 15 49 43z" />
    <glyph glyph-name="Z.sc" horiz-adv-x="507" 
d="M458 0h-409v144l146 191c8 10 13 16 19 22c-10 -1 -31 -1 -60 -1h-99v164h397v-145l-146 -191l-14 -16c6 1 30 1 71 1h95v-169z" />
    <glyph glyph-name="Zacute.sc" horiz-adv-x="507" 
d="M458 0h-409v144l146 191c8 10 13 16 19 22c-10 -1 -31 -1 -60 -1h-99v164h397v-145l-146 -191l-14 -16c6 1 30 1 71 1h95v-169zM453 645l-226 -101l-60 100l212 124z" />
    <glyph glyph-name="Zcaron.sc" horiz-adv-x="507" 
d="M458 0h-409v144l146 191c8 10 13 16 19 22c-10 -1 -31 -1 -60 -1h-99v164h397v-145l-146 -191l-14 -16c6 1 30 1 71 1h95v-169zM432 692l-176 -143l-172 141l66 83l108 -77l110 77z" />
    <glyph glyph-name="Zdotaccent.sc" horiz-adv-x="507" 
d="M458 0h-409v144l146 191c8 10 13 16 19 22c-10 -1 -31 -1 -60 -1h-99v164h397v-145l-146 -191l-14 -16c6 1 30 1 71 1h95v-169zM364 652c0 -57 -46 -103 -103 -103s-103 46 -103 103s46 103 103 103s103 -46 103 -103z" />
    <glyph glyph-name="uni1E92.sc" horiz-adv-x="507" 
d="M458 0h-409v144l146 191c8 10 13 16 19 22c-10 -1 -31 -1 -60 -1h-99v164h397v-145l-146 -191l-14 -16c6 1 30 1 71 1h95v-169zM356 -141c0 -57 -46 -103 -103 -103s-103 46 -103 103s46 103 103 103s103 -46 103 -103z" />
    <glyph glyph-name="uni1E94.sc" horiz-adv-x="507" 
d="M458 0h-409v144l146 191c8 10 13 16 19 22c-10 -1 -31 -1 -60 -1h-99v164h397v-145l-146 -191l-14 -16c6 1 30 1 71 1h95v-169zM104 -208v130h300v-130h-300z" />
    <glyph glyph-name="LatinLowercase" unicode="&#xe020;" horiz-adv-x="1255" 
d="M235 -180h-211v402h125v-302h86v-100zM508 -74l25 -95c-25 -10 -54 -17 -91 -17c-138 0 -174 79 -174 199c0 132 63 215 183 215c30 0 60 -6 79 -12l-25 -98c-12 4 -26 7 -42 7c-38 0 -58 -28 -58 -104c0 -74 17 -104 55 -104c18 0 33 3 48 9zM235 333h-211v402h125v-302
h86v-100zM624 333h-132l-13 62h-97l-12 -62h-121l92 402h191zM460 487l-21 103c-3 18 -6 37 -8 59h-1c-1 -22 -4 -41 -8 -59l-21 -103h59zM847 636h-66v-303h-125v303h-65v99h256v-99zM1231 333h-171l-54 191c-7 27 -12 53 -15 84h-2c2 -46 4 -80 4 -118v-157h-110v402h183
l42 -148c8 -27 14 -61 16 -84h2c-3 47 -4 93 -4 118v114h109v-402z" />
    <glyph glyph-name="a" unicode="a" horiz-adv-x="529" 
d="M484 0h-170c0 19 0 40 4 63h-1c-24 -47 -81 -75 -144 -75c-100 0 -148 71 -148 153c0 134 121 177 271 177v11c0 32 -19 43 -65 43c-43 0 -102 -12 -151 -30l-26 135c59 19 136 33 198 33c177 0 228 -61 228 -176v-228c0 -31 0 -69 4 -106zM296 190v15
c-78 0 -97 -15 -97 -46c0 -18 13 -34 36 -34c36 0 61 31 61 65z" />
    <glyph glyph-name="agrave" unicode="&#xe0;" horiz-adv-x="529" 
d="M484 0h-170c0 19 0 40 4 63h-1c-24 -47 -81 -75 -144 -75c-100 0 -148 71 -148 153c0 134 121 177 271 177v11c0 32 -19 43 -65 43c-43 0 -102 -12 -151 -30l-26 135c59 19 136 33 198 33c177 0 228 -61 228 -176v-228c0 -31 0 -69 4 -106zM296 190v15
c-78 0 -97 -15 -97 -46c0 -18 13 -34 36 -34c36 0 61 31 61 65zM375 630l-76 -87l-194 129l92 107z" />
    <glyph glyph-name="aacute" unicode="&#xe1;" horiz-adv-x="529" 
d="M484 0h-170c0 19 0 40 4 63h-1c-24 -47 -81 -75 -144 -75c-100 0 -148 71 -148 153c0 134 121 177 271 177v11c0 32 -19 43 -65 43c-43 0 -102 -12 -151 -30l-26 135c59 19 136 33 198 33c177 0 228 -61 228 -176v-228c0 -31 0 -69 4 -106zM296 190v15
c-78 0 -97 -15 -97 -46c0 -18 13 -34 36 -34c36 0 61 31 61 65zM438 674l-194 -131l-76 86l178 150z" />
    <glyph glyph-name="acircumflex" unicode="&#xe2;" horiz-adv-x="529" 
d="M484 0h-170c0 19 0 40 4 63h-1c-24 -47 -81 -75 -144 -75c-100 0 -148 71 -148 153c0 134 121 177 271 177v11c0 32 -19 43 -65 43c-43 0 -102 -12 -151 -30l-26 135c59 19 136 33 198 33c177 0 228 -61 228 -176v-228c0 -31 0 -69 4 -106zM296 190v15
c-78 0 -97 -15 -97 -46c0 -18 13 -34 36 -34c36 0 61 31 61 65zM449 627l-66 -83l-108 77l-110 -77l-64 81l176 143z" />
    <glyph glyph-name="atilde" unicode="&#xe3;" horiz-adv-x="529" 
d="M484 0h-170c0 19 0 40 4 63h-1c-24 -47 -81 -75 -144 -75c-100 0 -148 71 -148 153c0 134 121 177 271 177v11c0 32 -19 43 -65 43c-43 0 -102 -12 -151 -30l-26 135c59 19 136 33 198 33c177 0 228 -61 228 -176v-228c0 -31 0 -69 4 -106zM296 190v15
c-78 0 -97 -15 -97 -46c0 -18 13 -34 36 -34c36 0 61 31 61 65zM386 724l84 -64c-33 -69 -79 -106 -139 -106c-68 0 -84 45 -117 45c-23 0 -35 -15 -49 -43l-84 64c33 69 79 106 139 106c68 0 84 -45 117 -45c23 0 35 15 49 43z" />
    <glyph glyph-name="adieresis" unicode="&#xe4;" horiz-adv-x="529" 
d="M484 0h-170c0 19 0 40 4 63h-1c-24 -47 -81 -75 -144 -75c-100 0 -148 71 -148 153c0 134 121 177 271 177v11c0 32 -19 43 -65 43c-43 0 -102 -12 -151 -30l-26 135c59 19 136 33 198 33c177 0 228 -61 228 -176v-228c0 -31 0 -69 4 -106zM296 190v15
c-78 0 -97 -15 -97 -46c0 -18 13 -34 36 -34c36 0 61 31 61 65zM474 640c0 -50 -41 -91 -91 -91s-91 41 -91 91s41 91 91 91s91 -41 91 -91zM257 640c0 -50 -41 -91 -91 -91s-91 41 -91 91s41 91 91 91s91 -41 91 -91z" />
    <glyph glyph-name="amacron" unicode="&#x101;" horiz-adv-x="529" 
d="M484 0h-170c0 19 0 40 4 63h-1c-24 -47 -81 -75 -144 -75c-100 0 -148 71 -148 153c0 134 121 177 271 177v11c0 32 -19 43 -65 43c-43 0 -102 -12 -151 -30l-26 135c59 19 136 33 198 33c177 0 228 -61 228 -176v-228c0 -31 0 -69 4 -106zM296 190v15
c-78 0 -97 -15 -97 -46c0 -18 13 -34 36 -34c36 0 61 31 61 65zM422 575h-295v130h295v-130z" />
    <glyph glyph-name="abreve" unicode="&#x103;" horiz-adv-x="529" 
d="M484 0h-170c0 19 0 40 4 63h-1c-24 -47 -81 -75 -144 -75c-100 0 -148 71 -148 153c0 134 121 177 271 177v11c0 32 -19 43 -65 43c-43 0 -102 -12 -151 -30l-26 135c59 19 136 33 198 33c177 0 228 -61 228 -176v-228c0 -31 0 -69 4 -106zM296 190v15
c-78 0 -97 -15 -97 -46c0 -18 13 -34 36 -34c36 0 61 31 61 65zM315 724h114c0 -95 -45 -180 -155 -180c-111 0 -152 87 -152 180h113c0 -34 13 -53 40 -53c24 0 40 15 40 53z" />
    <glyph glyph-name="aring" unicode="&#xe5;" horiz-adv-x="529" 
d="M484 0h-170c0 19 0 40 4 63h-1c-24 -47 -81 -75 -144 -75c-100 0 -148 71 -148 153c0 134 121 177 271 177v11c0 32 -19 43 -65 43c-43 0 -102 -12 -151 -30l-26 135c59 19 136 33 198 33c177 0 228 -61 228 -176v-228c0 -31 0 -69 4 -106zM296 190v15
c-78 0 -97 -15 -97 -46c0 -18 13 -34 36 -34c36 0 61 31 61 65zM428 683c0 -89 -71 -144 -159 -144c-96 0 -147 43 -147 130c0 89 71 144 159 144c96 0 147 -43 147 -130zM317 675c0 39 -13 52 -41 52c-27 0 -43 -19 -43 -50c0 -39 13 -52 41 -52c27 0 43 19 43 50z" />
    <glyph glyph-name="aringacute" unicode="&#x1fb;" horiz-adv-x="529" 
d="M484 0h-170c0 19 0 40 4 63h-1c-24 -47 -81 -75 -144 -75c-100 0 -148 71 -148 153c0 134 121 177 271 177v11c0 32 -19 43 -65 43c-43 0 -102 -12 -151 -30l-26 135c59 19 136 33 198 33c177 0 228 -61 228 -176v-228c0 -31 0 -69 4 -106zM296 190v15
c-78 0 -97 -15 -97 -46c0 -18 13 -34 36 -34c36 0 61 31 61 65zM423 815l-238 -41l-23 77l229 63zM390 652c0 -74 -61 -119 -137 -119c-83 0 -127 35 -127 107c0 74 61 119 137 119c83 0 127 -35 127 -107zM294 645c0 32 -11 43 -35 43c-23 0 -37 -16 -37 -41
c0 -32 11 -43 35 -43c23 0 37 16 37 41z" />
    <glyph glyph-name="aogonek" unicode="&#x105;" horiz-adv-x="529" 
d="M501 -87l46 -96c-46 -41 -100 -58 -157 -58c-87 0 -149 40 -149 117c0 58 31 99 77 137c-2 15 -3 32 -3 46h-1c-26 -46 -80 -71 -141 -71c-100 0 -148 71 -148 153c0 134 121 177 271 177v11c0 32 -19 43 -65 43c-43 0 -102 -12 -151 -30l-26 135c59 19 136 33 198 33
c177 0 228 -61 228 -176v-188c0 -56 1 -103 7 -146c-60 -28 -79 -58 -79 -84c0 -15 10 -25 29 -25c21 0 42 8 64 22zM296 190v15c-78 0 -97 -15 -97 -46c0 -18 13 -34 36 -34c36 0 61 31 61 65z" />
    <glyph glyph-name="uni01CE" unicode="&#x1ce;" horiz-adv-x="529" 
d="M484 0h-170c0 19 0 40 4 63h-1c-24 -47 -81 -75 -144 -75c-100 0 -148 71 -148 153c0 134 121 177 271 177v11c0 32 -19 43 -65 43c-43 0 -102 -12 -151 -30l-26 135c59 19 136 33 198 33c177 0 228 -61 228 -176v-228c0 -31 0 -69 4 -106zM296 190v15
c-78 0 -97 -15 -97 -46c0 -18 13 -34 36 -34c36 0 61 31 61 65zM438 687l-176 -143l-172 141l66 83l108 -77l110 77z" />
    <glyph glyph-name="uni1EA1" unicode="&#x1ea1;" horiz-adv-x="529" 
d="M484 0h-170c0 19 0 40 4 63h-1c-24 -47 -81 -75 -144 -75c-100 0 -148 71 -148 153c0 134 121 177 271 177v11c0 32 -19 43 -65 43c-43 0 -102 -12 -151 -30l-26 135c59 19 136 33 198 33c177 0 228 -61 228 -176v-228c0 -31 0 -69 4 -106zM296 190v15
c-78 0 -97 -15 -97 -46c0 -18 13 -34 36 -34c36 0 61 31 61 65zM376 -141c0 -57 -46 -103 -103 -103s-103 46 -103 103s46 103 103 103s103 -46 103 -103z" />
    <glyph glyph-name="uni1EA3" unicode="&#x1ea3;" horiz-adv-x="529" 
d="M484 0h-170c0 19 0 40 4 63h-1c-24 -47 -81 -75 -144 -75c-100 0 -148 71 -148 153c0 134 121 177 271 177v11c0 32 -19 43 -65 43c-43 0 -102 -12 -151 -30l-26 135c59 19 136 33 198 33c177 0 228 -61 228 -176v-228c0 -31 0 -69 4 -106zM296 190v15
c-78 0 -97 -15 -97 -46c0 -18 13 -34 36 -34c36 0 61 31 61 65zM257 541l-21 78c15 4 36 15 36 31c0 12 -6 20 -34 20c-30 0 -66 -12 -76 -17l-24 90c23 10 76 29 141 29c80 0 125 -32 125 -94c0 -87 -104 -126 -147 -137z" />
    <glyph glyph-name="uni1EA5" unicode="&#x1ea5;" horiz-adv-x="529" 
d="M484 0h-170c0 19 0 40 4 63h-1c-24 -47 -81 -75 -144 -75c-100 0 -148 71 -148 153c0 134 121 177 271 177v11c0 32 -19 43 -65 43c-43 0 -102 -12 -151 -30l-26 135c59 19 136 33 198 33c177 0 228 -61 228 -176v-228c0 -31 0 -69 4 -106zM296 190v15
c-78 0 -97 -15 -97 -46c0 -18 13 -34 36 -34c36 0 61 31 61 65zM431 600l-45 -70l-112 51l-112 -51l-45 70l157 94zM383 755l-210 -55l-29 71l197 77z" />
    <glyph glyph-name="uni1EA7" unicode="&#x1ea7;" horiz-adv-x="529" 
d="M484 0h-170c0 19 0 40 4 63h-1c-24 -47 -81 -75 -144 -75c-100 0 -148 71 -148 153c0 134 121 177 271 177v11c0 32 -19 43 -65 43c-43 0 -102 -12 -151 -30l-26 135c59 19 136 33 198 33c177 0 228 -61 228 -176v-228c0 -31 0 -69 4 -106zM296 190v15
c-78 0 -97 -15 -97 -46c0 -18 13 -34 36 -34c36 0 61 31 61 65zM431 600l-45 -70l-112 51l-112 -51l-45 70l157 94zM354 700l-210 55l42 93l197 -77z" />
    <glyph glyph-name="uni1EA9" unicode="&#x1ea9;" horiz-adv-x="529" 
d="M484 0h-170c0 19 0 40 4 63h-1c-24 -47 -81 -75 -144 -75c-100 0 -148 71 -148 153c0 134 121 177 271 177v11c0 32 -19 43 -65 43c-43 0 -102 -12 -151 -30l-26 135c59 19 136 33 198 33c177 0 228 -61 228 -176v-228c0 -31 0 -69 4 -106zM296 190v15
c-78 0 -97 -15 -97 -46c0 -18 13 -34 36 -34c36 0 61 31 61 65zM431 600l-45 -70l-112 51l-112 -51l-45 70l157 94zM370 669l-72 42c11 6 24 16 24 29c0 12 -10 19 -38 19s-59 -13 -68 -18l-21 77c21 10 68 27 124 27c71 0 115 -29 115 -79s-38 -83 -64 -97z" />
    <glyph glyph-name="uni1EAB" unicode="&#x1eab;" horiz-adv-x="529" 
d="M484 0h-170c0 19 0 40 4 63h-1c-24 -47 -81 -75 -144 -75c-100 0 -148 71 -148 153c0 134 121 177 271 177v11c0 32 -19 43 -65 43c-43 0 -102 -12 -151 -30l-26 135c59 19 136 33 198 33c177 0 228 -61 228 -176v-228c0 -31 0 -69 4 -106zM296 190v15
c-78 0 -97 -15 -97 -46c0 -18 13 -34 36 -34c36 0 61 31 61 65zM431 600l-45 -70l-112 51l-112 -51l-45 70l157 94zM364 827l75 -46c-27 -51 -66 -77 -111 -77c-53 0 -59 32 -85 32c-15 0 -27 -7 -39 -29l-75 46c27 51 66 77 111 77c53 0 58 -32 85 -32c15 0 27 7 39 29z
" />
    <glyph glyph-name="uni1EAD" unicode="&#x1ead;" horiz-adv-x="529" 
d="M484 0h-170c0 19 0 40 4 63h-1c-24 -47 -81 -75 -144 -75c-100 0 -148 71 -148 153c0 134 121 177 271 177v11c0 32 -19 43 -65 43c-43 0 -102 -12 -151 -30l-26 135c59 19 136 33 198 33c177 0 228 -61 228 -176v-228c0 -31 0 -69 4 -106zM296 190v15
c-78 0 -97 -15 -97 -46c0 -18 13 -34 36 -34c36 0 61 31 61 65zM376 -141c0 -57 -46 -103 -103 -103s-103 46 -103 103s46 103 103 103s103 -46 103 -103zM449 627l-66 -83l-108 77l-110 -77l-64 81l176 143z" />
    <glyph glyph-name="uni1EAF" unicode="&#x1eaf;" horiz-adv-x="529" 
d="M484 0h-170c0 19 0 40 4 63h-1c-24 -47 -81 -75 -144 -75c-100 0 -148 71 -148 153c0 134 121 177 271 177v11c0 32 -19 43 -65 43c-43 0 -102 -12 -151 -30l-26 135c59 19 136 33 198 33c177 0 228 -61 228 -176v-228c0 -31 0 -69 4 -106zM296 190v15
c-78 0 -97 -15 -97 -46c0 -18 13 -34 36 -34c36 0 61 31 61 65zM312 675h105c0 -69 -41 -129 -143 -129c-103 0 -140 62 -140 129h104c0 -25 12 -37 37 -37c22 0 37 9 37 37zM417 755l-210 -55l-29 71l197 77z" />
    <glyph glyph-name="uni1EB1" unicode="&#x1eb1;" horiz-adv-x="529" 
d="M484 0h-170c0 19 0 40 4 63h-1c-24 -47 -81 -75 -144 -75c-100 0 -148 71 -148 153c0 134 121 177 271 177v11c0 32 -19 43 -65 43c-43 0 -102 -12 -151 -30l-26 135c59 19 136 33 198 33c177 0 228 -61 228 -176v-228c0 -31 0 -69 4 -106zM296 190v15
c-78 0 -97 -15 -97 -46c0 -18 13 -34 36 -34c36 0 61 31 61 65zM312 675h105c0 -69 -41 -129 -143 -129c-103 0 -140 62 -140 129h104c0 -25 12 -37 37 -37c22 0 37 9 37 37zM344 700l-210 55l42 93l197 -77z" />
    <glyph glyph-name="uni1EB3" unicode="&#x1eb3;" horiz-adv-x="529" 
d="M484 0h-170c0 19 0 40 4 63h-1c-24 -47 -81 -75 -144 -75c-100 0 -148 71 -148 153c0 134 121 177 271 177v11c0 32 -19 43 -65 43c-43 0 -102 -12 -151 -30l-26 135c59 19 136 33 198 33c177 0 228 -61 228 -176v-228c0 -31 0 -69 4 -106zM296 190v15
c-78 0 -97 -15 -97 -46c0 -18 13 -34 36 -34c36 0 61 31 61 65zM315 678h112c0 -74 -45 -138 -153 -138c-109 0 -150 66 -150 138h111c0 -26 13 -41 40 -41c24 0 40 13 40 41zM264 685l-16 65c13 3 32 12 32 25c0 10 -5 16 -29 16s-52 -8 -62 -13l-19 73c21 10 64 23 116 23
c68 0 107 -27 107 -76c0 -73 -93 -104 -129 -113z" />
    <glyph glyph-name="uni1EB5" unicode="&#x1eb5;" horiz-adv-x="529" 
d="M484 0h-170c0 19 0 40 4 63h-1c-24 -47 -81 -75 -144 -75c-100 0 -148 71 -148 153c0 134 121 177 271 177v11c0 32 -19 43 -65 43c-43 0 -102 -12 -151 -30l-26 135c59 19 136 33 198 33c177 0 228 -61 228 -176v-228c0 -31 0 -69 4 -106zM296 190v15
c-78 0 -97 -15 -97 -46c0 -18 13 -34 36 -34c36 0 61 31 61 65zM355 837l75 -46c-27 -51 -66 -77 -111 -77c-53 0 -59 32 -85 32c-15 0 -27 -7 -39 -29l-75 46c27 51 66 77 111 77c53 0 58 -32 85 -32c15 0 27 7 39 29zM312 675h105c0 -69 -41 -129 -143 -129
c-103 0 -140 62 -140 129h104c0 -25 12 -37 37 -37c22 0 37 9 37 37z" />
    <glyph glyph-name="uni1EB7" unicode="&#x1eb7;" horiz-adv-x="529" 
d="M484 0h-170c0 19 0 40 4 63h-1c-24 -47 -81 -75 -144 -75c-100 0 -148 71 -148 153c0 134 121 177 271 177v11c0 32 -19 43 -65 43c-43 0 -102 -12 -151 -30l-26 135c59 19 136 33 198 33c177 0 228 -61 228 -176v-228c0 -31 0 -69 4 -106zM296 190v15
c-78 0 -97 -15 -97 -46c0 -18 13 -34 36 -34c36 0 61 31 61 65zM376 -141c0 -57 -46 -103 -103 -103s-103 46 -103 103s46 103 103 103s103 -46 103 -103zM315 724h114c0 -95 -45 -180 -155 -180c-111 0 -152 87 -152 180h113c0 -34 13 -53 40 -53c24 0 40 15 40 53z" />
    <glyph glyph-name="a.alt" horiz-adv-x="559" 
d="M512 0h-165c0 17 0 34 3 56h-2c-26 -39 -72 -69 -143 -69c-119 0 -180 92 -180 231c0 158 93 291 284 291c85 0 145 -7 203 -17v-492zM330 262v99c-8 1 -18 3 -35 3c-42 0 -78 -29 -78 -125c0 -72 16 -100 48 -100c34 0 65 39 65 123z" />
    <glyph glyph-name="agrave.alt" horiz-adv-x="559" 
d="M512 0h-165c0 17 0 34 3 56h-2c-26 -39 -72 -69 -143 -69c-119 0 -180 92 -180 231c0 158 93 291 284 291c85 0 145 -7 203 -17v-492zM330 262v99c-8 1 -18 3 -35 3c-42 0 -78 -29 -78 -125c0 -72 16 -100 48 -100c34 0 65 39 65 123zM409 630l-76 -87l-194 129l92 107z
" />
    <glyph glyph-name="aacute.alt" horiz-adv-x="559" 
d="M512 0h-165c0 17 0 34 3 56h-2c-26 -39 -72 -69 -143 -69c-119 0 -180 92 -180 231c0 158 93 291 284 291c85 0 145 -7 203 -17v-492zM330 262v99c-8 1 -18 3 -35 3c-42 0 -78 -29 -78 -125c0 -72 16 -100 48 -100c34 0 65 39 65 123zM465 674l-194 -131l-76 86l178 150z
" />
    <glyph glyph-name="acircumflex.alt" horiz-adv-x="559" 
d="M512 0h-165c0 17 0 34 3 56h-2c-26 -39 -72 -69 -143 -69c-119 0 -180 92 -180 231c0 158 93 291 284 291c85 0 145 -7 203 -17v-492zM330 262v99c-8 1 -18 3 -35 3c-42 0 -78 -29 -78 -125c0 -72 16 -100 48 -100c34 0 65 39 65 123zM476 627l-66 -83l-108 77l-110 -77
l-64 81l176 143z" />
    <glyph glyph-name="atilde.alt" horiz-adv-x="559" 
d="M512 0h-165c0 17 0 34 3 56h-2c-26 -39 -72 -69 -143 -69c-119 0 -180 92 -180 231c0 158 93 291 284 291c85 0 145 -7 203 -17v-492zM330 262v99c-8 1 -18 3 -35 3c-42 0 -78 -29 -78 -125c0 -72 16 -100 48 -100c34 0 65 39 65 123zM413 724l84 -64
c-33 -69 -79 -106 -139 -106c-68 0 -84 45 -117 45c-23 0 -35 -15 -49 -43l-84 64c33 69 79 106 139 106c68 0 84 -45 117 -45c23 0 35 15 49 43z" />
    <glyph glyph-name="adieresis.alt" horiz-adv-x="559" 
d="M512 0h-165c0 17 0 34 3 56h-2c-26 -39 -72 -69 -143 -69c-119 0 -180 92 -180 231c0 158 93 291 284 291c85 0 145 -7 203 -17v-492zM330 262v99c-8 1 -18 3 -35 3c-42 0 -78 -29 -78 -125c0 -72 16 -100 48 -100c34 0 65 39 65 123zM502 640c0 -50 -41 -91 -91 -91
s-91 41 -91 91s41 91 91 91s91 -41 91 -91zM285 640c0 -50 -41 -91 -91 -91s-91 41 -91 91s41 91 91 91s91 -41 91 -91z" />
    <glyph glyph-name="amacron.alt" horiz-adv-x="559" 
d="M512 0h-165c0 17 0 34 3 56h-2c-26 -39 -72 -69 -143 -69c-119 0 -180 92 -180 231c0 158 93 291 284 291c85 0 145 -7 203 -17v-492zM330 262v99c-8 1 -18 3 -35 3c-42 0 -78 -29 -78 -125c0 -72 16 -100 48 -100c34 0 65 39 65 123zM450 575h-295v130h295v-130z" />
    <glyph glyph-name="abreve.alt" horiz-adv-x="559" 
d="M512 0h-165c0 17 0 34 3 56h-2c-26 -39 -72 -69 -143 -69c-119 0 -180 92 -180 231c0 158 93 291 284 291c85 0 145 -7 203 -17v-492zM330 262v99c-8 1 -18 3 -35 3c-42 0 -78 -29 -78 -125c0 -72 16 -100 48 -100c34 0 65 39 65 123zM342 724h114
c0 -95 -45 -180 -155 -180c-111 0 -152 87 -152 180h113c0 -34 13 -53 40 -53c24 0 40 15 40 53z" />
    <glyph glyph-name="aring.alt" horiz-adv-x="559" 
d="M512 0h-165c0 17 0 34 3 56h-2c-26 -39 -72 -69 -143 -69c-119 0 -180 92 -180 231c0 158 93 291 284 291c85 0 145 -7 203 -17v-492zM330 262v99c-8 1 -18 3 -35 3c-42 0 -78 -29 -78 -125c0 -72 16 -100 48 -100c34 0 65 39 65 123zM455 676c0 -89 -71 -144 -159 -144
c-96 0 -147 43 -147 130c0 89 71 144 159 144c96 0 147 -43 147 -130zM344 668c0 39 -13 52 -41 52c-27 0 -43 -19 -43 -50c0 -39 13 -52 41 -52c27 0 43 19 43 50z" />
    <glyph glyph-name="aringacute.alt" horiz-adv-x="559" 
d="M512 0h-165c0 17 0 34 3 56h-2c-26 -39 -72 -69 -143 -69c-119 0 -180 92 -180 231c0 158 93 291 284 291c85 0 145 -7 203 -17v-492zM330 262v99c-8 1 -18 3 -35 3c-42 0 -78 -29 -78 -125c0 -72 16 -100 48 -100c34 0 65 39 65 123zM468 815l-238 -41l-23 77l229 63z
M435 652c0 -74 -61 -119 -137 -119c-83 0 -127 35 -127 107c0 74 61 119 137 119c83 0 127 -35 127 -107zM339 645c0 32 -11 43 -35 43c-23 0 -37 -16 -37 -41c0 -32 11 -43 35 -43c23 0 37 16 37 41z" />
    <glyph glyph-name="aogonek.alt" horiz-adv-x="559" 
d="M512 492v-346c0 -49 1 -97 5 -146c-60 -28 -79 -58 -79 -84c0 -15 10 -25 29 -25c21 0 42 8 64 22l46 -96c-46 -41 -100 -58 -157 -58c-87 0 -149 40 -149 117c0 58 33 101 78 138c-1 11 -2 34 -2 44h-2c-26 -39 -69 -71 -140 -71c-119 0 -180 92 -180 231
c0 158 93 291 284 291c85 0 145 -7 203 -17zM330 262v99c-8 1 -18 3 -35 3c-42 0 -78 -29 -78 -125c0 -72 16 -100 48 -100c34 0 65 39 65 123z" />
    <glyph glyph-name="uni01CE.alt" horiz-adv-x="559" 
d="M512 0h-165c0 17 0 34 3 56h-2c-26 -39 -72 -69 -143 -69c-119 0 -180 92 -180 231c0 158 93 291 284 291c85 0 145 -7 203 -17v-492zM330 262v99c-8 1 -18 3 -35 3c-42 0 -78 -29 -78 -125c0 -72 16 -100 48 -100c34 0 65 39 65 123zM478 687l-176 -143l-172 141l66 83
l108 -77l110 77z" />
    <glyph glyph-name="uni1EA1.alt" horiz-adv-x="559" 
d="M512 0h-165c0 17 0 34 3 56h-2c-26 -39 -72 -69 -143 -69c-119 0 -180 92 -180 231c0 158 93 291 284 291c85 0 145 -7 203 -17v-492zM330 262v99c-8 1 -18 3 -35 3c-42 0 -78 -29 -78 -125c0 -72 16 -100 48 -100c34 0 65 39 65 123zM386 -141c0 -57 -46 -103 -103 -103
s-103 46 -103 103s46 103 103 103s103 -46 103 -103z" />
    <glyph glyph-name="uni1EA3.alt" horiz-adv-x="559" 
d="M512 0h-165c0 17 0 34 3 56h-2c-26 -39 -72 -69 -143 -69c-119 0 -180 92 -180 231c0 158 93 291 284 291c85 0 145 -7 203 -17v-492zM330 262v99c-8 1 -18 3 -35 3c-42 0 -78 -29 -78 -125c0 -72 16 -100 48 -100c34 0 65 39 65 123zM290 541l-21 78c15 4 36 15 36 31
c0 12 -6 20 -34 20c-30 0 -66 -12 -76 -17l-24 90c23 10 76 29 141 29c80 0 125 -32 125 -94c0 -87 -104 -126 -147 -137z" />
    <glyph glyph-name="uni1EA5.alt" horiz-adv-x="559" 
d="M512 0h-165c0 17 0 34 3 56h-2c-26 -39 -72 -69 -143 -69c-119 0 -180 92 -180 231c0 158 93 291 284 291c85 0 145 -7 203 -17v-492zM330 262v99c-8 1 -18 3 -35 3c-42 0 -78 -29 -78 -125c0 -72 16 -100 48 -100c34 0 65 39 65 123zM459 600l-45 -70l-112 51l-112 -51
l-45 70l157 94zM411 755l-210 -55l-29 71l197 77z" />
    <glyph glyph-name="uni1EA7.alt" horiz-adv-x="559" 
d="M512 0h-165c0 17 0 34 3 56h-2c-26 -39 -72 -69 -143 -69c-119 0 -180 92 -180 231c0 158 93 291 284 291c85 0 145 -7 203 -17v-492zM330 262v99c-8 1 -18 3 -35 3c-42 0 -78 -29 -78 -125c0 -72 16 -100 48 -100c34 0 65 39 65 123zM459 600l-45 -70l-112 51l-112 -51
l-45 70l157 94zM382 700l-210 55l42 93l197 -77z" />
    <glyph glyph-name="uni1EA9.alt" horiz-adv-x="559" 
d="M512 0h-165c0 17 0 34 3 56h-2c-26 -39 -72 -69 -143 -69c-119 0 -180 92 -180 231c0 158 93 291 284 291c85 0 145 -7 203 -17v-492zM330 262v99c-8 1 -18 3 -35 3c-42 0 -78 -29 -78 -125c0 -72 16 -100 48 -100c34 0 65 39 65 123zM458 600l-45 -70l-112 51l-112 -51
l-45 70l157 94zM397 669l-72 42c11 6 24 16 24 29c0 12 -10 19 -38 19s-59 -13 -68 -18l-21 77c21 10 68 27 124 27c71 0 115 -29 115 -79s-38 -83 -64 -97z" />
    <glyph glyph-name="uni1EAB.alt" horiz-adv-x="559" 
d="M512 0h-165c0 17 0 34 3 56h-2c-26 -39 -72 -69 -143 -69c-119 0 -180 92 -180 231c0 158 93 291 284 291c85 0 145 -7 203 -17v-492zM330 262v99c-8 1 -18 3 -35 3c-42 0 -78 -29 -78 -125c0 -72 16 -100 48 -100c34 0 65 39 65 123zM459 600l-45 -70l-112 51l-112 -51
l-45 70l157 94zM392 827l75 -46c-27 -51 -66 -77 -111 -77c-53 0 -59 32 -85 32c-15 0 -27 -7 -39 -29l-75 46c27 51 66 77 111 77c53 0 58 -32 85 -32c15 0 27 7 39 29z" />
    <glyph glyph-name="uni1EAD.alt" horiz-adv-x="559" 
d="M512 0h-165c0 17 0 34 3 56h-2c-26 -39 -72 -69 -143 -69c-119 0 -180 92 -180 231c0 158 93 291 284 291c85 0 145 -7 203 -17v-492zM330 262v99c-8 1 -18 3 -35 3c-42 0 -78 -29 -78 -125c0 -72 16 -100 48 -100c34 0 65 39 65 123zM386 -141c0 -57 -46 -103 -103 -103
s-103 46 -103 103s46 103 103 103s103 -46 103 -103zM476 627l-66 -83l-108 77l-110 -77l-64 81l176 143z" />
    <glyph glyph-name="uni1EAF.alt" horiz-adv-x="559" 
d="M512 0h-165c0 17 0 34 3 56h-2c-26 -39 -72 -69 -143 -69c-119 0 -180 92 -180 231c0 158 93 291 284 291c85 0 145 -7 203 -17v-492zM330 262v99c-8 1 -18 3 -35 3c-42 0 -78 -29 -78 -125c0 -72 16 -100 48 -100c34 0 65 39 65 123zM339 675h105
c0 -69 -41 -129 -143 -129c-103 0 -140 62 -140 129h104c0 -25 12 -37 37 -37c22 0 37 9 37 37zM444 755l-210 -55l-29 71l197 77z" />
    <glyph glyph-name="uni1EB1.alt" horiz-adv-x="559" 
d="M512 0h-165c0 17 0 34 3 56h-2c-26 -39 -72 -69 -143 -69c-119 0 -180 92 -180 231c0 158 93 291 284 291c85 0 145 -7 203 -17v-492zM330 262v99c-8 1 -18 3 -35 3c-42 0 -78 -29 -78 -125c0 -72 16 -100 48 -100c34 0 65 39 65 123zM339 675h105
c0 -69 -41 -129 -143 -129c-103 0 -140 62 -140 129h104c0 -25 12 -37 37 -37c22 0 37 9 37 37zM371 700l-210 55l42 93l197 -77z" />
    <glyph glyph-name="uni1EB3.alt" horiz-adv-x="559" 
d="M512 0h-165c0 17 0 34 3 56h-2c-26 -39 -72 -69 -143 -69c-119 0 -180 92 -180 231c0 158 93 291 284 291c85 0 145 -7 203 -17v-492zM330 262v99c-8 1 -18 3 -35 3c-42 0 -78 -29 -78 -125c0 -72 16 -100 48 -100c34 0 65 39 65 123zM342 678h112
c0 -74 -45 -138 -153 -138c-109 0 -150 66 -150 138h111c0 -26 13 -41 40 -41c24 0 40 13 40 41zM291 685l-16 65c13 3 32 12 32 25c0 10 -5 16 -29 16s-52 -8 -62 -13l-19 73c21 10 64 23 116 23c68 0 107 -27 107 -76c0 -73 -93 -104 -129 -113z" />
    <glyph glyph-name="uni1EB5.alt" horiz-adv-x="559" 
d="M512 0h-165c0 17 0 34 3 56h-2c-26 -39 -72 -69 -143 -69c-119 0 -180 92 -180 231c0 158 93 291 284 291c85 0 145 -7 203 -17v-492zM330 262v99c-8 1 -18 3 -35 3c-42 0 -78 -29 -78 -125c0 -72 16 -100 48 -100c34 0 65 39 65 123zM382 837l75 -46
c-27 -51 -66 -77 -111 -77c-53 0 -59 32 -85 32c-15 0 -27 -7 -39 -29l-75 46c27 51 66 77 111 77c53 0 58 -32 85 -32c15 0 27 7 39 29zM339 675h105c0 -69 -41 -129 -143 -129c-103 0 -140 62 -140 129h104c0 -25 12 -37 37 -37c22 0 37 9 37 37z" />
    <glyph glyph-name="uni1EB7.alt" horiz-adv-x="559" 
d="M512 0h-165c0 17 0 34 3 56h-2c-26 -39 -72 -69 -143 -69c-119 0 -180 92 -180 231c0 158 93 291 284 291c85 0 145 -7 203 -17v-492zM330 262v99c-8 1 -18 3 -35 3c-42 0 -78 -29 -78 -125c0 -72 16 -100 48 -100c34 0 65 39 65 123zM386 -141c0 -57 -46 -103 -103 -103
s-103 46 -103 103s46 103 103 103s103 -46 103 -103zM342 724h114c0 -95 -45 -180 -155 -180c-111 0 -152 87 -152 180h113c0 -34 13 -53 40 -53c24 0 40 15 40 53z" />
    <glyph glyph-name="ae" unicode="&#xe6;" horiz-adv-x="791" 
d="M729 152l16 -133c-60 -21 -131 -31 -190 -31c-100 0 -165 26 -199 77h-1c-44 -56 -102 -77 -166 -77c-118 0 -164 72 -164 153c0 134 121 177 271 177v11c0 32 -19 43 -65 43c-43 0 -102 -12 -151 -30l-26 135c59 19 136 33 198 33c54 0 112 -5 156 -39h1
c30 24 78 38 135 38c153 0 219 -94 219 -221c0 -47 -6 -97 -6 -97h-282c3 -35 28 -64 100 -64c50 0 103 9 154 25zM474 309h112c2 48 -19 68 -51 68c-35 0 -59 -27 -61 -68zM296 190v15c-78 0 -97 -15 -97 -46c0 -18 13 -34 36 -34c36 0 61 31 61 65z" />
    <glyph glyph-name="aeacute" unicode="&#x1fd;" horiz-adv-x="791" 
d="M729 152l16 -133c-60 -21 -131 -31 -190 -31c-100 0 -165 26 -199 77h-1c-44 -56 -102 -77 -166 -77c-118 0 -164 72 -164 153c0 134 121 177 271 177v11c0 32 -19 43 -65 43c-43 0 -102 -12 -151 -30l-26 135c59 19 136 33 198 33c54 0 112 -5 156 -39h1
c30 24 78 38 135 38c153 0 219 -94 219 -221c0 -47 -6 -97 -6 -97h-282c3 -35 28 -64 100 -64c50 0 103 9 154 25zM474 309h112c2 48 -19 68 -51 68c-35 0 -59 -27 -61 -68zM296 190v15c-78 0 -97 -15 -97 -46c0 -18 13 -34 36 -34c36 0 61 31 61 65zM611 674l-194 -131
l-76 86l178 150z" />
    <glyph glyph-name="b" unicode="b" horiz-adv-x="559" 
d="M229 730v-174c0 -33 -3 -76 -7 -103h1c22 33 68 56 129 56c121 0 182 -92 182 -232c0 -158 -95 -290 -282 -290c-112 0 -205 28 -205 28v715h182zM229 242v-103s15 -6 35 -6c42 0 78 29 78 125c0 72 -16 99 -49 99s-64 -38 -64 -115z" />
    <glyph glyph-name="uni1E03" unicode="&#x1e03;" horiz-adv-x="559" 
d="M229 730v-174c0 -33 -3 -76 -7 -103h1c22 33 68 56 129 56c121 0 182 -92 182 -232c0 -158 -95 -290 -282 -290c-112 0 -205 28 -205 28v715h182zM229 242v-103s15 -6 35 -6c42 0 78 29 78 125c0 72 -16 99 -49 99s-64 -38 -64 -115zM241 871c0 -57 -46 -103 -103 -103
s-103 46 -103 103s46 103 103 103s103 -46 103 -103z" />
    <glyph glyph-name="uni1E07" unicode="&#x1e07;" horiz-adv-x="559" 
d="M119 -208v130h300v-130h-300zM229 730v-174c0 -33 -3 -76 -7 -103h1c22 33 68 56 129 56c121 0 182 -92 182 -232c0 -158 -95 -290 -282 -290c-112 0 -205 28 -205 28v715h182zM229 242v-103s15 -6 35 -6c42 0 78 29 78 125c0 72 -16 99 -49 99s-64 -38 -64 -115z" />
    <glyph glyph-name="c" unicode="c" horiz-adv-x="409" 
d="M364 161l20 -154c-35 -13 -83 -19 -126 -19c-166 0 -234 96 -234 245c0 170 103 276 268 276c26 0 61 -4 92 -13l-25 -158c-22 9 -43 14 -64 14c-56 0 -80 -39 -80 -107c0 -66 31 -98 80 -98c23 0 48 5 69 14z" />
    <glyph glyph-name="cacute" unicode="&#x107;" horiz-adv-x="409" 
d="M364 161l20 -154c-35 -13 -83 -19 -126 -19c-166 0 -234 96 -234 245c0 170 103 276 268 276c26 0 61 -4 92 -13l-25 -158c-22 9 -43 14 -64 14c-56 0 -80 -39 -80 -107c0 -66 31 -98 80 -98c23 0 48 5 69 14zM398 674l-194 -131l-76 86l178 150z" />
    <glyph glyph-name="ccircumflex" unicode="&#x109;" horiz-adv-x="409" 
d="M364 161l20 -154c-35 -13 -83 -19 -126 -19c-166 0 -234 96 -234 245c0 170 103 276 268 276c26 0 61 -4 92 -13l-25 -158c-22 9 -43 14 -64 14c-56 0 -80 -39 -80 -107c0 -66 31 -98 80 -98c23 0 48 5 69 14zM411 627l-66 -83l-108 77l-110 -77l-64 81l176 143z" />
    <glyph glyph-name="ccaron" unicode="&#x10d;" horiz-adv-x="409" 
d="M364 161l20 -154c-35 -13 -83 -19 -126 -19c-166 0 -234 96 -234 245c0 170 103 276 268 276c26 0 61 -4 92 -13l-25 -158c-22 9 -43 14 -64 14c-56 0 -80 -39 -80 -107c0 -66 31 -98 80 -98c23 0 48 5 69 14zM418 687l-176 -143l-172 141l66 83l108 -77l110 77z" />
    <glyph glyph-name="cdotaccent" unicode="&#x10b;" horiz-adv-x="409" 
d="M364 161l20 -154c-35 -13 -83 -19 -126 -19c-166 0 -234 96 -234 245c0 170 103 276 268 276c26 0 61 -4 92 -13l-25 -158c-22 9 -43 14 -64 14c-56 0 -80 -39 -80 -107c0 -66 31 -98 80 -98c23 0 48 5 69 14zM358 638c0 -57 -46 -103 -103 -103s-103 46 -103 103
s46 103 103 103s103 -46 103 -103z" />
    <glyph glyph-name="ccedilla" unicode="&#xe7;" horiz-adv-x="409" 
d="M364 161l20 -154c-35 -13 -83 -19 -126 -19c-166 0 -234 96 -234 245c0 170 103 276 268 276c26 0 61 -4 92 -13l-25 -158c-22 9 -43 14 -64 14c-56 0 -80 -39 -80 -107c0 -66 31 -98 80 -98c23 0 48 5 69 14zM137 -77l146 38c53 -77 38 -146 -18 -194h-130
c43 48 50 93 2 156z" />
    <glyph glyph-name="c_h" horiz-adv-x="973" 
d="M926 0h-182v314c0 25 -7 41 -28 41c-40 0 -78 -58 -78 -114v-241h-182v598s-12 2 -28 2c-66 0 -93 -25 -93 -56c0 -24 18 -40 49 -48l-25 -158c-22 9 -43 14 -64 14c-56 0 -80 -39 -80 -107c0 -66 31 -98 80 -98c23 0 48 4 69 14l20 -154c-35 -13 -83 -19 -126 -19
c-166 0 -234 96 -234 245c0 113 47 227 181 265c-30 14 -45 43 -45 74c0 108 131 169 309 169c84 0 169 -11 169 -11v-182c0 -27 -2 -70 -9 -103h1c29 37 80 64 149 64c110 0 147 -72 147 -157v-352z" />
    <glyph glyph-name="c_k" horiz-adv-x="974" 
d="M456 0v598s-12 2 -28 2c-66 0 -93 -25 -93 -56c0 -24 18 -40 49 -48l-25 -158c-22 9 -43 14 -64 14c-56 0 -80 -39 -80 -107c0 -66 31 -98 80 -98c23 0 48 4 69 14l20 -154c-35 -13 -83 -19 -126 -19c-166 0 -234 96 -234 245c0 113 47 227 181 265c-30 14 -45 43 -45 74
c0 108 131 169 309 169c84 0 169 -11 169 -11v-424l102 191h224l-151 -228l161 -269h-225l-111 230v-230h-182z" />
    <glyph glyph-name="c_t" horiz-adv-x="789" 
d="M752 145l10 -141c-36 -9 -82 -16 -118 -16c-123 0 -162 37 -162 171v198h-58v140h58v9c0 52 -34 95 -88 95c-38 0 -56 -26 -56 -52c0 -28 17 -47 42 -52l-24 -157c-19 7 -38 12 -61 12c-56 0 -80 -39 -80 -107c0 -66 31 -98 80 -98c23 0 48 4 69 14l20 -154
c-35 -13 -83 -19 -126 -19c-166 0 -234 96 -234 245c0 114 51 231 179 261c-27 15 -42 41 -42 79c0 72 70 168 243 168c168 0 260 -82 260 -225v-19h93v-140h-93v-171c0 -35 12 -47 39 -47c16 0 33 2 49 6z" />
    <glyph glyph-name="c_t.alt1" horiz-adv-x="789" 
d="M752 145l10 -141c-36 -9 -82 -16 -118 -16c-123 0 -162 37 -162 171v198h-63v140h63v84c-21 13 -58 24 -96 24c-42 0 -65 -21 -65 -53c0 -27 21 -45 56 -56l-22 -156c-18 7 -39 12 -60 12c-56 0 -80 -39 -80 -107c0 -66 31 -98 80 -98c23 0 48 4 69 14l20 -154
c-34 -13 -83 -19 -126 -19c-166 0 -234 96 -234 245c0 135 66 232 175 261c-33 18 -48 51 -48 81c0 90 83 166 240 166c112 0 212 -31 273 -67v-177h93v-140h-93v-171c0 -35 12 -47 39 -47c16 0 33 2 49 6z" />
    <glyph glyph-name="ccedilla_t" horiz-adv-x="789" 
d="M752 145l10 -141c-36 -9 -82 -16 -118 -16c-123 0 -162 37 -162 171v198h-58v140h58v9c0 52 -34 95 -88 95c-38 0 -56 -26 -56 -52c0 -28 17 -47 42 -52l-24 -157c-19 7 -38 12 -61 12c-56 0 -80 -39 -80 -107c0 -66 31 -98 80 -98c23 0 48 4 69 14l20 -154
c-35 -13 -83 -19 -126 -19c-166 0 -234 96 -234 245c0 114 51 231 179 261c-27 15 -42 41 -42 79c0 72 70 168 243 168c168 0 260 -82 260 -225v-19h93v-140h-93v-171c0 -35 12 -47 39 -47c16 0 33 2 49 6zM137 -77l146 38c53 -77 38 -146 -18 -194h-130c43 48 50 93 2 156z
" />
    <glyph glyph-name="ccedilla_t.alt1" horiz-adv-x="789" 
d="M752 145l10 -141c-36 -9 -82 -16 -118 -16c-123 0 -162 37 -162 171v198h-63v140h63v84c-21 13 -58 24 -96 24c-42 0 -65 -21 -65 -53c0 -27 21 -45 56 -56l-22 -156c-18 7 -39 12 -60 12c-56 0 -80 -39 -80 -107c0 -66 31 -98 80 -98c23 0 48 4 69 14l20 -154
c-34 -13 -83 -19 -126 -19c-166 0 -234 96 -234 245c0 135 66 232 175 261c-33 18 -48 51 -48 81c0 90 83 166 240 166c112 0 212 -31 273 -67v-177h93v-140h-93v-171c0 -35 12 -47 39 -47c16 0 33 2 49 6zM137 -77l146 38c53 -77 38 -146 -18 -194h-130c43 48 50 93 2 156z
" />
    <glyph glyph-name="d" unicode="d" horiz-adv-x="559" 
d="M512 0h-165c0 17 0 34 3 56h-2c-26 -39 -72 -69 -143 -69c-119 0 -180 92 -180 232c0 149 86 290 276 290c8 0 20 0 29 -1v222h182v-730zM330 258v102c-11 3 -22 4 -35 4c-42 0 -78 -29 -78 -125c0 -72 16 -100 49 -100s64 39 64 119z" />
    <glyph glyph-name="dcaron" unicode="&#x10f;" horiz-adv-x="643" 
d="M512 0h-165c0 17 0 34 3 56h-2c-26 -39 -72 -69 -143 -69c-119 0 -180 92 -180 232c0 149 86 290 276 290c8 0 20 0 29 -1v222h182v-730zM330 258v102c-11 3 -22 4 -35 4c-42 0 -78 -29 -78 -125c0 -72 16 -100 49 -100s64 39 64 119zM712 772l-69 -236l-115 21l43 240z
" />
    <glyph glyph-name="uni1E0B" unicode="&#x1e0b;" horiz-adv-x="559" 
d="M512 0h-165c0 17 0 34 3 56h-2c-26 -39 -72 -69 -143 -69c-119 0 -180 92 -180 232c0 149 86 290 276 290c8 0 20 0 29 -1v222h182v-730zM330 258v102c-11 3 -22 4 -35 4c-42 0 -78 -29 -78 -125c0 -72 16 -100 49 -100s64 39 64 119zM524 871c0 -57 -46 -103 -103 -103
s-103 46 -103 103s46 103 103 103s103 -46 103 -103z" />
    <glyph glyph-name="uni1E0D" unicode="&#x1e0d;" horiz-adv-x="559" 
d="M512 0h-165c0 17 0 34 3 56h-2c-26 -39 -72 -69 -143 -69c-119 0 -180 92 -180 232c0 149 86 290 276 290c8 0 20 0 29 -1v222h182v-730zM330 258v102c-11 3 -22 4 -35 4c-42 0 -78 -29 -78 -125c0 -72 16 -100 49 -100s64 39 64 119zM402 -141c0 -57 -46 -103 -103 -103
s-103 46 -103 103s46 103 103 103s103 -46 103 -103z" />
    <glyph glyph-name="uni1E0F" unicode="&#x1e0f;" horiz-adv-x="559" 
d="M130 -208v130h300v-130h-300zM512 0h-165c0 17 0 34 3 56h-2c-26 -39 -72 -69 -143 -69c-119 0 -180 92 -180 232c0 149 86 290 276 290c8 0 20 0 29 -1v222h182v-730zM330 258v102c-11 3 -22 4 -35 4c-42 0 -78 -29 -78 -125c0 -72 16 -100 49 -100s64 39 64 119z" />
    <glyph glyph-name="eth" unicode="&#xf0;" horiz-adv-x="567" 
d="M489 662l-72 -30c81 -101 122 -219 122 -346c0 -200 -121 -298 -264 -298c-145 0 -251 76 -251 246c0 175 117 271 248 271c16 0 32 -3 42 -9l-17 25c-9 14 -22 30 -37 45l-79 -34l-71 79l68 29c-21 16 -44 31 -68 45l176 74c20 -15 40 -31 59 -49l73 31zM349 260
c0 57 -20 93 -68 93c-38 0 -68 -33 -68 -104c0 -70 28 -103 71 -103c44 0 65 38 65 114z" />
    <glyph glyph-name="dcroat" unicode="&#x111;" horiz-adv-x="559" 
d="M559 570h-47v-570h-165c0 17 0 34 3 56h-2c-26 -39 -72 -69 -143 -69c-119 0 -180 92 -180 232c0 158 96 290 272 290c12 0 24 -1 33 -2v63h-89v109h89v51h182v-51h47v-109zM330 258v102c-11 3 -22 4 -35 4c-42 0 -78 -29 -78 -125c0 -72 16 -100 49 -100s64 39 64 119z
" />
    <glyph glyph-name="e" unicode="e" horiz-adv-x="524" 
d="M462 152l16 -133c-60 -21 -131 -31 -190 -31c-169 0 -264 78 -264 254c0 150 94 267 253 267c153 0 219 -94 219 -221c0 -47 -6 -97 -6 -97h-282c3 -35 28 -64 100 -64c50 0 103 9 154 25zM207 309h112c2 48 -19 68 -51 68c-35 0 -59 -27 -61 -68z" />
    <glyph glyph-name="egrave" unicode="&#xe8;" horiz-adv-x="524" 
d="M462 152l16 -133c-60 -21 -131 -31 -190 -31c-169 0 -264 78 -264 254c0 150 94 267 253 267c153 0 219 -94 219 -221c0 -47 -6 -97 -6 -97h-282c3 -35 28 -64 100 -64c50 0 103 9 154 25zM207 309h112c2 48 -19 68 -51 68c-35 0 -59 -27 -61 -68zM376 630l-76 -87
l-194 129l92 107z" />
    <glyph glyph-name="eacute" unicode="&#xe9;" horiz-adv-x="524" 
d="M462 152l16 -133c-60 -21 -131 -31 -190 -31c-169 0 -264 78 -264 254c0 150 94 267 253 267c153 0 219 -94 219 -221c0 -47 -6 -97 -6 -97h-282c3 -35 28 -64 100 -64c50 0 103 9 154 25zM207 309h112c2 48 -19 68 -51 68c-35 0 -59 -27 -61 -68zM439 674l-194 -131
l-76 86l178 150z" />
    <glyph glyph-name="ecircumflex" unicode="&#xea;" horiz-adv-x="524" 
d="M462 152l16 -133c-60 -21 -131 -31 -190 -31c-169 0 -264 78 -264 254c0 150 94 267 253 267c153 0 219 -94 219 -221c0 -47 -6 -97 -6 -97h-282c3 -35 28 -64 100 -64c50 0 103 9 154 25zM207 309h112c2 48 -19 68 -51 68c-35 0 -59 -27 -61 -68zM447 627l-66 -83
l-108 77l-110 -77l-64 81l176 143z" />
    <glyph glyph-name="ecaron" unicode="&#x11b;" horiz-adv-x="524" 
d="M462 152l16 -133c-60 -21 -131 -31 -190 -31c-169 0 -264 78 -264 254c0 150 94 267 253 267c153 0 219 -94 219 -221c0 -47 -6 -97 -6 -97h-282c3 -35 28 -64 100 -64c50 0 103 9 154 25zM207 309h112c2 48 -19 68 -51 68c-35 0 -59 -27 -61 -68zM446 687l-176 -143
l-172 141l66 83l108 -77l110 77z" />
    <glyph glyph-name="edieresis" unicode="&#xeb;" horiz-adv-x="524" 
d="M462 152l16 -133c-60 -21 -131 -31 -190 -31c-169 0 -264 78 -264 254c0 150 94 267 253 267c153 0 219 -94 219 -221c0 -47 -6 -97 -6 -97h-282c3 -35 28 -64 100 -64c50 0 103 9 154 25zM207 309h112c2 48 -19 68 -51 68c-35 0 -59 -27 -61 -68zM472 640
c0 -50 -41 -91 -91 -91s-91 41 -91 91s41 91 91 91s91 -41 91 -91zM255 640c0 -50 -41 -91 -91 -91s-91 41 -91 91s41 91 91 91s91 -41 91 -91z" />
    <glyph glyph-name="emacron" unicode="&#x113;" horiz-adv-x="524" 
d="M462 152l16 -133c-60 -21 -131 -31 -190 -31c-169 0 -264 78 -264 254c0 150 94 267 253 267c153 0 219 -94 219 -221c0 -47 -6 -97 -6 -97h-282c3 -35 28 -64 100 -64c50 0 103 9 154 25zM207 309h112c2 48 -19 68 -51 68c-35 0 -59 -27 -61 -68zM418 575h-295v130h295
v-130z" />
    <glyph glyph-name="ebreve" unicode="&#x115;" horiz-adv-x="524" 
d="M462 152l16 -133c-60 -21 -131 -31 -190 -31c-169 0 -264 78 -264 254c0 150 94 267 253 267c153 0 219 -94 219 -221c0 -47 -6 -97 -6 -97h-282c3 -35 28 -64 100 -64c50 0 103 9 154 25zM207 309h112c2 48 -19 68 -51 68c-35 0 -59 -27 -61 -68zM305 724h114
c0 -95 -45 -180 -155 -180c-111 0 -152 87 -152 180h113c0 -34 13 -53 40 -53c24 0 40 15 40 53z" />
    <glyph glyph-name="edotaccent" unicode="&#x117;" horiz-adv-x="524" 
d="M462 152l16 -133c-60 -21 -131 -31 -190 -31c-169 0 -264 78 -264 254c0 150 94 267 253 267c153 0 219 -94 219 -221c0 -47 -6 -97 -6 -97h-282c3 -35 28 -64 100 -64c50 0 103 9 154 25zM207 309h112c2 48 -19 68 -51 68c-35 0 -59 -27 -61 -68zM376 648
c0 -57 -46 -103 -103 -103s-103 46 -103 103s46 103 103 103s103 -46 103 -103z" />
    <glyph glyph-name="eogonek" unicode="&#x119;" horiz-adv-x="524" 
d="M462 152l16 -132c-75 -35 -100 -74 -100 -104c0 -15 10 -25 29 -25c21 0 42 8 64 22l46 -96c-46 -41 -100 -58 -157 -58c-87 0 -149 40 -149 117c0 39 16 83 58 119c-6 -2 -12 -3 -19 -3c-85 0 -226 39 -226 250c0 150 94 267 253 267c153 0 219 -94 219 -221
c0 -47 -6 -97 -6 -97h-282c3 -35 28 -64 100 -64c50 0 103 9 154 25zM207 309h112c2 48 -19 68 -51 68c-35 0 -59 -27 -61 -68z" />
    <glyph glyph-name="uni1EB9" unicode="&#x1eb9;" horiz-adv-x="524" 
d="M462 152l16 -133c-60 -21 -131 -31 -190 -31c-169 0 -264 78 -264 254c0 150 94 267 253 267c153 0 219 -94 219 -221c0 -47 -6 -97 -6 -97h-282c3 -35 28 -64 100 -64c50 0 103 9 154 25zM207 309h112c2 48 -19 68 -51 68c-35 0 -59 -27 -61 -68zM379 -151
c0 -57 -46 -103 -103 -103s-103 46 -103 103s46 103 103 103s103 -46 103 -103z" />
    <glyph glyph-name="uni1EBB" unicode="&#x1ebb;" horiz-adv-x="524" 
d="M462 152l16 -133c-60 -21 -131 -31 -190 -31c-169 0 -264 78 -264 254c0 150 94 267 253 267c153 0 219 -94 219 -221c0 -47 -6 -97 -6 -97h-282c3 -35 28 -64 100 -64c50 0 103 9 154 25zM207 309h112c2 48 -19 68 -51 68c-35 0 -59 -27 -61 -68zM277 541l-21 78
c15 4 36 15 36 31c0 12 -6 20 -34 20c-30 0 -66 -12 -76 -17l-24 90c23 10 76 29 141 29c80 0 125 -32 125 -94c0 -87 -104 -126 -147 -137z" />
    <glyph glyph-name="uni1EBD" unicode="&#x1ebd;" horiz-adv-x="524" 
d="M462 152l16 -133c-60 -21 -131 -31 -190 -31c-169 0 -264 78 -264 254c0 150 94 267 253 267c153 0 219 -94 219 -221c0 -47 -6 -97 -6 -97h-282c3 -35 28 -64 100 -64c50 0 103 9 154 25zM207 309h112c2 48 -19 68 -51 68c-35 0 -59 -27 -61 -68zM372 724l84 -64
c-33 -69 -79 -106 -139 -106c-68 0 -84 45 -117 45c-23 0 -35 -15 -49 -43l-84 64c33 69 79 106 139 106c68 0 84 -45 117 -45c23 0 35 15 49 43z" />
    <glyph glyph-name="uni1EBF" unicode="&#x1ebf;" horiz-adv-x="524" 
d="M462 152l16 -133c-60 -21 -131 -31 -190 -31c-169 0 -264 78 -264 254c0 150 94 267 253 267c153 0 219 -94 219 -221c0 -47 -6 -97 -6 -97h-282c3 -35 28 -64 100 -64c50 0 103 9 154 25zM207 309h112c2 48 -19 68 -51 68c-35 0 -59 -27 -61 -68zM430 600l-45 -70
l-112 51l-112 -51l-45 70l157 94zM382 755l-210 -55l-29 71l197 77z" />
    <glyph glyph-name="uni1EC1" unicode="&#x1ec1;" horiz-adv-x="524" 
d="M462 152l16 -133c-60 -21 -131 -31 -190 -31c-169 0 -264 78 -264 254c0 150 94 267 253 267c153 0 219 -94 219 -221c0 -47 -6 -97 -6 -97h-282c3 -35 28 -64 100 -64c50 0 103 9 154 25zM207 309h112c2 48 -19 68 -51 68c-35 0 -59 -27 -61 -68zM430 600l-45 -70
l-112 51l-112 -51l-45 70l157 94zM353 700l-210 55l42 93l197 -77z" />
    <glyph glyph-name="uni1EC3" unicode="&#x1ec3;" horiz-adv-x="524" 
d="M462 152l16 -133c-60 -21 -131 -31 -190 -31c-169 0 -264 78 -264 254c0 150 94 267 253 267c153 0 219 -94 219 -221c0 -47 -6 -97 -6 -97h-282c3 -35 28 -64 100 -64c50 0 103 9 154 25zM207 309h112c2 48 -19 68 -51 68c-35 0 -59 -27 -61 -68zM430 600l-45 -70
l-112 51l-112 -51l-45 70l157 94zM369 669l-72 42c11 6 24 16 24 29c0 12 -10 19 -38 19s-59 -13 -68 -18l-21 77c21 10 68 27 124 27c71 0 115 -29 115 -79s-38 -83 -64 -97z" />
    <glyph glyph-name="uni1EC5" unicode="&#x1ec5;" horiz-adv-x="524" 
d="M462 152l16 -133c-60 -21 -131 -31 -190 -31c-169 0 -264 78 -264 254c0 150 94 267 253 267c153 0 219 -94 219 -221c0 -47 -6 -97 -6 -97h-282c3 -35 28 -64 100 -64c50 0 103 9 154 25zM207 309h112c2 48 -19 68 -51 68c-35 0 -59 -27 -61 -68zM430 600l-45 -70
l-112 51l-112 -51l-45 70l157 94zM363 827l75 -46c-27 -51 -66 -77 -111 -77c-53 0 -59 32 -85 32c-15 0 -27 -7 -39 -29l-75 46c27 51 66 77 111 77c53 0 58 -32 85 -32c15 0 27 7 39 29z" />
    <glyph glyph-name="uni1EC7" unicode="&#x1ec7;" horiz-adv-x="524" 
d="M462 152l16 -133c-60 -21 -131 -31 -190 -31c-169 0 -264 78 -264 254c0 150 94 267 253 267c153 0 219 -94 219 -221c0 -47 -6 -97 -6 -97h-282c3 -35 28 -64 100 -64c50 0 103 9 154 25zM207 309h112c2 48 -19 68 -51 68c-35 0 -59 -27 -61 -68zM379 -151
c0 -57 -46 -103 -103 -103s-103 46 -103 103s46 103 103 103s103 -46 103 -103zM447 627l-66 -83l-108 77l-110 -77l-64 81l176 143z" />
    <glyph glyph-name="uni0259" unicode="&#x259;" horiz-adv-x="519" 
d="M30 307h282c-3 35 -36 65 -107 65c-47 0 -91 -8 -136 -27l-27 130c60 24 131 35 192 35c167 0 262 -78 262 -254c0 -154 -87 -268 -248 -268c-154 0 -224 103 -224 241c0 25 2 51 6 78zM313 191h-112v-7c0 -43 21 -62 51 -62c35 0 59 28 61 69z" />
    <glyph glyph-name="f" unicode="f" horiz-adv-x="361" 
d="M340 497v-140h-85v-357h-182v357h-63v140h63v26c0 152 73 218 218 218c36 0 72 -6 72 -6l-11 -150s-25 8 -50 8c-31 0 -47 -13 -47 -55v-41h85z" />
    <glyph glyph-name="uni1E1F" unicode="&#x1e1f;" horiz-adv-x="361" 
d="M340 497v-140h-85v-357h-182v357h-63v140h63v26c0 152 73 218 218 218c36 0 72 -6 72 -6l-11 -150s-25 8 -50 8c-31 0 -47 -13 -47 -55v-41h85zM333 871c0 -57 -46 -103 -103 -103s-103 46 -103 103s46 103 103 103s103 -46 103 -103z" />
    <glyph glyph-name="ff" unicode="&#xfb00;" horiz-adv-x="662" 
d="M556 0h-182v357h-119v-357h-182v357h-63v140h63v22c0 147 89 213 257 213c49 0 102 -8 137 -16c33 17 74 25 125 25c36 0 72 -6 72 -6l-11 -150s-25 8 -50 8c-31 0 -47 -13 -47 -55v-41h85v-140h-85v-357zM374 497v26c0 18 1 37 3 53c-15 4 -38 7 -55 7
c-49 0 -67 -23 -67 -60v-26h119z" />
    <glyph glyph-name="f_f.alt1" horiz-adv-x="662" 
d="M556 0h-182v357h-119v-357h-182v357h-63v140h63v21c0 152 73 218 216 218c36 0 66 -5 66 -5l-11 -149s-20 6 -44 6c-29 0 -45 -13 -45 -55v-36h119v26c0 152 73 218 218 218c36 0 72 -6 72 -6l-11 -150s-25 8 -50 8c-31 0 -47 -13 -47 -55v-41h85v-140h-85v-357z" />
    <glyph glyph-name="f_f_f.alt1" horiz-adv-x="963" 
d="M857 0h-182v357h-119v-357h-182v357h-119v-357h-182v357h-63v140h63v16c0 152 73 218 216 218c36 0 66 -5 66 -5l-11 -149s-20 6 -44 6c-29 0 -45 -13 -45 -55v-31h119v21c0 152 73 218 216 218c36 0 66 -5 66 -5l-11 -149s-20 6 -44 6c-29 0 -45 -13 -45 -55v-36h119v26
c0 152 73 218 218 218c36 0 72 -6 72 -6l-11 -150s-25 8 -50 8c-31 0 -47 -13 -47 -55v-41h85v-140h-85v-357z" />
    <glyph glyph-name="ffi" unicode="&#xfb03;" horiz-adv-x="900" 
d="M857 0h-182v357h-119v-357h-182v357h-119v-357h-182v357h-63v140h63v22c0 147 89 213 257 213c49 0 119 -10 158 -21c40 20 97 32 169 32c59 0 116 -8 169 -19l-31 -151c-51 12 -100 19 -147 19c-65 0 -92 -27 -92 -77v-18h301v-497zM374 497v8c0 28 3 50 7 70
c-19 5 -41 8 -59 8c-49 0 -67 -23 -67 -60v-26h119z" />
    <glyph glyph-name="f_f_i.alt1" horiz-adv-x="904" 
d="M875 635c0 -55 -47 -100 -104 -100c-58 0 -105 45 -105 100c0 56 47 101 105 101c57 0 104 -45 104 -101zM857 0h-182v357h-119v-357h-182v357h-119v-357h-182v357h-63v140h63v21c0 152 73 218 216 218c36 0 66 -5 66 -5l-11 -149s-20 6 -44 6c-29 0 -45 -13 -45 -55v-36
h119v26c0 152 73 218 211 218c35 0 65 -5 65 -5l-11 -149s-20 6 -43 6c-24 0 -40 -13 -40 -55v-41h301v-497z" />
    <glyph glyph-name="f_f_iogonek.alt1" horiz-adv-x="904" 
d="M875 635c0 -55 -47 -100 -104 -100c-58 0 -105 45 -105 100c0 56 47 101 105 101c57 0 104 -45 104 -101zM875 -87l46 -96c-46 -41 -100 -58 -157 -58c-87 0 -149 40 -149 117c0 52 27 92 60 124v357h-119v-357h-182v357h-119v-357h-182v357h-63v140h63v21
c0 152 73 218 216 218c36 0 66 -5 66 -5l-11 -149s-20 6 -44 6c-29 0 -45 -13 -45 -55v-36h119v26c0 152 73 218 211 218c35 0 65 -5 65 -5l-11 -149s-20 6 -43 6c-24 0 -40 -13 -40 -55v-41h301v-497c-58 -31 -75 -60 -75 -84c0 -15 10 -25 29 -25c21 0 42 8 64 22z" />
    <glyph glyph-name="f_f_dotlessi.2" horiz-adv-x="904" 
d="M857 0h-182v357h-119v-357h-182v357h-119v-357h-182v357h-63v140h63v21c0 152 73 218 216 218c36 0 66 -5 66 -5l-11 -149s-20 6 -44 6c-29 0 -45 -13 -45 -55v-36h119v26c0 152 73 218 194 218c31 0 57 -5 57 -5l-11 -149s-14 6 -27 6c-22 0 -31 -18 -31 -55v-41h301
v-497z" />
    <glyph glyph-name="f_f_j.alt1" horiz-adv-x="904" 
d="M875 635c0 -55 -47 -100 -104 -100c-58 0 -105 45 -105 100c0 56 47 101 105 101c57 0 104 -45 104 -101zM857 497v-508c0 -135 -58 -228 -224 -228c-24 0 -52 4 -74 10l9 153c18 -7 41 -11 55 -11c37 0 52 19 52 55v389h-119v-357h-182v357h-119v-357h-182v357h-63v140
h63v21c0 152 73 218 216 218c36 0 66 -5 66 -5l-11 -149s-20 6 -44 6c-29 0 -45 -13 -45 -55v-36h119v26c0 152 73 218 211 218c35 0 65 -5 65 -5l-11 -149s-20 6 -43 6c-24 0 -40 -13 -40 -55v-41h301z" />
    <glyph glyph-name="ffl" unicode="&#xfb04;" horiz-adv-x="900" 
d="M857 0h-182v589s-24 4 -51 4c-48 0 -68 -25 -68 -64v-32h73v-140h-73v-357h-182v357h-119v-357h-182v357h-63v140h63v22c0 147 89 212 257 212c49 0 109 -8 151 -18c39 17 87 28 159 28c101 0 217 -17 217 -17v-724zM374 497v28c0 17 2 36 4 51c-16 4 -39 7 -56 7
c-49 0 -67 -23 -67 -60v-26h119z" />
    <glyph glyph-name="f_f_l.alt" horiz-adv-x="949" 
d="M939 144v-142s-53 -14 -98 -14c-126 0 -166 49 -166 176v425s-24 4 -51 4c-48 0 -68 -25 -68 -64v-32h73v-140h-73v-357h-182v357h-119v-357h-182v357h-63v140h63v22c0 147 89 212 257 212c49 0 109 -8 151 -18c39 17 87 28 159 28c101 0 217 -17 217 -17v-531
c0 -38 11 -54 41 -54c20 0 41 5 41 5zM374 497v28c0 17 2 36 4 51c-16 4 -39 7 -56 7c-49 0 -67 -23 -67 -60v-26h119z" />
    <glyph glyph-name="fi" unicode="&#xfb01;" horiz-adv-x="603" 
d="M556 0h-182v357h-119v-357h-182v357h-63v140h63v8c0 143 76 238 283 238c59 0 116 -8 169 -19l-31 -151c-51 12 -100 19 -147 19c-65 0 -92 -27 -92 -77v-18h301v-497z" />
    <glyph glyph-name="f_i.alt1" horiz-adv-x="603" 
d="M574 635c0 -55 -47 -100 -104 -100c-58 0 -105 45 -105 100c0 56 47 101 105 101c57 0 104 -45 104 -101zM556 0h-182v357h-119v-357h-182v357h-63v140h63v26c0 152 73 218 211 218c35 0 65 -5 65 -5l-11 -149s-20 6 -43 6c-24 0 -40 -13 -40 -55v-41h301v-497z" />
    <glyph glyph-name="f_i.TRK" horiz-adv-x="603" 
d="M574 635c0 -55 -47 -100 -104 -100c-58 0 -105 45 -105 100c0 56 47 101 105 101c57 0 104 -45 104 -101zM556 0h-182v357h-119v-357h-182v357h-63v140h63v26c0 152 73 218 211 218c35 0 65 -5 65 -5l-11 -149s-20 6 -43 6c-24 0 -40 -13 -40 -55v-41h301v-497z" />
    <glyph glyph-name="f_iogonek.alt1" horiz-adv-x="603" 
d="M574 635c0 -55 -47 -100 -104 -100c-58 0 -105 45 -105 100c0 56 47 101 105 101c57 0 104 -45 104 -101zM574 -87l46 -96c-46 -41 -100 -58 -157 -58c-87 0 -149 40 -149 117c0 52 27 92 60 124v357h-119v-357h-182v357h-63v140h63v26c0 152 73 218 211 218
c35 0 65 -5 65 -5l-11 -149s-20 6 -43 6c-24 0 -40 -13 -40 -55v-41h301v-497c-58 -31 -75 -60 -75 -84c0 -15 10 -25 29 -25c21 0 42 8 64 22z" />
    <glyph glyph-name="f_dotlessi.2" horiz-adv-x="603" 
d="M556 0h-182v357h-119v-357h-182v357h-63v140h63v26c0 152 73 218 194 218c31 0 57 -5 57 -5l-11 -149s-14 6 -27 6c-22 0 -31 -18 -31 -55v-41h301v-497z" />
    </font>
</defs>
</svg>
