<?xml version="1.0" standalone="no"?>
<!DOCTYPE svg PUBLIC "-//W3C//DTD SVG 1.1//EN" "http://www.w3.org/Graphics/SVG/1.1/DTD/svg11.dtd" >
<svg xmlns="http://www.w3.org/2000/svg" xmlns:xlink="http://www.w3.org/1999/xlink" version="1.1">
<metadata>
Created by FontForge 20161116 at Tue Jun 16 13:37:14 2015
 By Jimmy Wärting
Copyright 1994-2015 Luc\(as\) de Groot, published by LucasFonts, www.lucasfonts.com  All rights reserved.
</metadata>
<defs>
<font id="TheSansC4s-Plain" horiz-adv-x="600" >
  <font-face 
    font-family="TheSans C4s Plain"
    font-weight="500"
    font-stretch="normal"
    units-per-em="1000"
    panose-1="2 11 5 2 5 3 2 2 2 3"
    ascent="740"
    descent="-260"
    x-height="497"
    cap-height="675"
    bbox="-458 -320 2852 980"
    underline-thickness="72"
    underline-position="-214"
    stemh="73"
    stemv="90"
    unicode-range="U+000D-FB06"
  />
<missing-glyph horiz-adv-x="550" 
d="M300 150h-150v250h50v-200h100v-50zM500 50h-450v450h450v-450zM350 350h-100v50h150v-250h-50v100h-100v50h100v50zM100 100h350v350h-350v-350z" />
    <glyph glyph-name="f_b" unicode="fb" horiz-adv-x="889" 
d="M327 427h-128v-427h-90v427h-102v70h102v35c0 133 67 204 225 204c80 0 171 -13 171 -13v-234c0 -29 -3 -68 -8 -93l2 -1c27 70 88 111 164 111c117 0 183 -82 183 -234c0 -174 -99 -279 -260 -279c-92 0 -171 20 -171 20v643s-46 8 -93 8c-83 0 -123 -37 -123 -128v-39
h128v-70zM505 241v-164s40 -13 89 -13c94 0 157 57 157 200c0 107 -34 168 -110 168c-90 0 -136 -105 -136 -191z" />
    <glyph glyph-name="f_f" unicode="ff" horiz-adv-x="652" 
d="M502 0h-90v427h-213v-427h-90v427h-102v70h102v25c0 110 54 206 216 206c52 0 111 -13 157 -27c32 23 73 35 123 35c39 0 79 -8 79 -8l-7 -76s-38 11 -75 11c-69 0 -100 -40 -100 -129v-37h138v-70h-138v-427zM412 497v31c0 43 7 78 21 105c-35 13 -77 21 -115 21
c-81 0 -119 -43 -119 -123v-34h213z" />
    <glyph glyph-name="f_f_b" unicode="ffb" horiz-adv-x="1191" 
d="M629 427h-127v-427h-90v427h-213v-427h-90v427h-102v70h102v25c0 110 54 205 216 205c52 0 113 -12 162 -28c34 24 82 37 149 37c81 0 172 -13 172 -13v-234c0 -29 -3 -68 -9 -93l2 -1c27 70 89 111 164 111c117 0 183 -82 183 -234c0 -174 -99 -279 -259 -279
c-92 0 -171 20 -171 20v643s-46 8 -93 8c-84 0 -123 -37 -123 -128v-39h127v-70zM412 497v35c0 47 10 79 21 101c-35 13 -77 21 -115 21c-81 0 -119 -43 -119 -123v-34h213zM808 241v-164s39 -13 88 -13c94 0 158 57 158 200c0 107 -35 168 -110 168
c-90 0 -136 -105 -136 -191z" />
    <glyph glyph-name="f_f_f" unicode="fff" horiz-adv-x="958" 
d="M808 0h-90v427h-216v-427h-90v427h-213v-427h-90v427h-102v70h102v20c0 110 54 206 216 206c52 0 111 -12 157 -26c32 23 73 35 123 35c39 0 79 -9 79 -9l-7 -75s-38 11 -75 11c-69 0 -100 -41 -100 -130v-32h216v31c0 143 71 208 193 208c39 0 79 -8 79 -8l-7 -76
s-38 11 -75 11c-69 0 -100 -40 -100 -129v-37h138v-70h-138v-427zM412 497v27c0 43 7 77 21 105c-35 12 -77 21 -115 21c-81 0 -119 -43 -119 -124v-29h213z" />
    <glyph glyph-name="f_f_h" unicode="ffh" horiz-adv-x="1208" 
d="M1124 0h-90v320c0 70 -19 112 -85 112c-82 0 -141 -84 -141 -194v-238h-90v656s-46 8 -93 8c-84 0 -123 -37 -123 -128v-39h127v-70h-127v-427h-90v427h-213v-427h-90v427h-102v70h102v25c0 110 54 205 216 205c52 0 113 -12 162 -28c34 24 82 37 149 37
c81 0 172 -13 172 -13v-229c0 -32 -2 -72 -9 -99l2 -1c29 68 90 112 173 112c114 0 150 -71 150 -159v-347zM412 497v35c0 47 10 79 21 101c-35 13 -77 21 -115 21c-81 0 -119 -43 -119 -123v-34h213z" />
    <glyph glyph-name="f_f_i" unicode="ffi" horiz-adv-x="891" 
d="M808 0h-90v427h-216v-427h-90v427h-213v-427h-90v427h-102v70h102v25c0 110 54 206 216 206c52 0 117 -13 167 -31c36 25 83 40 149 40c53 0 105 -8 146 -19l-18 -75c-41 12 -89 20 -135 20c-91 0 -132 -50 -132 -134v-32h306v-497zM412 497v21c0 38 6 79 25 113
c-38 15 -80 23 -119 23c-81 0 -119 -43 -119 -123v-34h213z" />
    <glyph glyph-name="f_f_igrave" unicode="ff&#xec;" horiz-adv-x="896" 
d="M811 0h-90v427h-216v-427h-90v427h-216v-427h-90v427h-102v70h102v30c0 136 70 200 186 200c31 0 60 -4 60 -4l-7 -75s-26 6 -56 6c-64 0 -93 -40 -93 -122v-35h216v53c0 121 56 186 152 186c28 0 52 -4 52 -4l-8 -76s-21 7 -43 7c-47 0 -63 -42 -63 -106v-60h306v-497z
M814 593l-55 -29l-99 158l69 36z" />
    <glyph glyph-name="f_f_iacute" unicode="ff&#xed;" horiz-adv-x="896" 
d="M811 0h-90v427h-216v-427h-90v427h-216v-427h-90v427h-102v70h102v30c0 136 70 200 186 200c31 0 60 -4 60 -4l-7 -75s-26 6 -56 6c-64 0 -93 -40 -93 -122v-35h216v38c0 136 70 201 186 201c31 0 60 -4 60 -4l-7 -75s-26 6 -56 6c-64 0 -93 -40 -93 -122v-44h306v-497z
M880 712l-116 -144l-52 35l104 152z" />
    <glyph glyph-name="f_f_icircumflex" unicode="ff&#xee;" horiz-adv-x="896" 
d="M811 0h-90v427h-216v-427h-90v427h-216v-427h-90v427h-102v70h102v30c0 136 70 200 186 200c31 0 60 -4 60 -4l-7 -75s-26 6 -56 6c-64 0 -93 -40 -93 -122v-35h216v53c0 121 56 186 152 186c28 0 52 -4 52 -4l-8 -76s-21 7 -43 7c-47 0 -63 -42 -63 -106v-60h306v-497z
M895 613l-39 -43l-87 85l-88 -85l-37 42l126 131z" />
    <glyph glyph-name="f_f_itilde" unicode="ff&#x129;" horiz-adv-x="896" 
d="M865 693l45 -33c-21 -49 -57 -79 -93 -79c-52 0 -64 53 -96 53c-17 0 -32 -14 -46 -45l-45 33c20 49 57 79 92 79c53 0 64 -52 97 -52c16 0 32 14 46 44zM811 0h-90v427h-216v-427h-90v427h-216v-427h-90v427h-102v70h102v31c0 135 65 199 172 199c33 0 59 -4 59 -4
l-7 -75s-25 6 -52 6c-56 0 -82 -39 -82 -120v-37h216v53c0 121 56 186 152 186c28 0 52 -4 52 -4l-8 -76s-21 7 -43 7c-47 0 -63 -42 -63 -106v-60h306v-497z" />
    <glyph glyph-name="f_f_idieresis" unicode="ff&#xef;" horiz-adv-x="905" 
d="M913 654c0 -30 -24 -54 -54 -54s-53 24 -53 54s23 54 53 54s54 -24 54 -54zM751 654c0 -30 -24 -54 -54 -54s-54 24 -54 54s24 54 54 54s54 -24 54 -54zM820 0h-90v427h-225v-427h-90v427h-216v-427h-90v427h-102v70h102v31c0 135 65 199 172 199c33 0 59 -4 59 -4
l-7 -75s-25 6 -52 6c-56 0 -82 -39 -82 -120v-37h216v53c0 119 54 186 153 186c26 0 48 -4 48 -4l-8 -75s-20 6 -42 6c-46 0 -61 -41 -61 -106v-60h315v-497z" />
    <glyph glyph-name="f_f_imacron" unicode="ff&#x12b;" horiz-adv-x="896" 
d="M886 616h-229v68h229v-68zM811 0h-90v427h-216v-427h-90v427h-216v-427h-90v427h-102v70h102v31c0 135 65 199 172 199c33 0 59 -4 59 -4l-7 -75s-25 6 -52 6c-56 0 -82 -39 -82 -120v-37h216v53c0 119 54 186 153 186c25 0 48 -4 48 -4l-8 -75s-20 6 -42 6
c-46 0 -61 -41 -61 -106v-60h306v-497z" />
    <glyph glyph-name="f_f_ibreve" unicode="ff&#x12d;" horiz-adv-x="896" 
d="M811 0h-90v427h-216v-427h-90v427h-216v-427h-90v427h-102v70h102v30c0 136 70 200 186 200c31 0 60 -4 60 -4l-7 -75s-26 6 -56 6c-64 0 -93 -40 -93 -122v-35h216v53c0 121 56 186 152 186c28 0 52 -4 52 -4l-8 -76s-21 7 -43 7c-47 0 -63 -42 -63 -106v-60h306v-497z
M827 718h62c0 -87 -44 -135 -119 -135s-115 49 -115 135h61c0 -36 19 -68 55 -68c35 0 56 26 56 68z" />
    <glyph glyph-name="f_f_iogonek" unicode="ff&#x12f;" horiz-adv-x="893" 
d="M412 497v21c0 38 6 79 25 113c-38 15 -80 23 -119 23c-81 0 -119 -43 -119 -123v-34h213zM839 -139l28 -51c-32 -29 -71 -44 -112 -44c-68 0 -108 35 -108 91c0 50 26 96 71 145v425h-216v-427h-90v427h-213v-427h-90v427h-102v70h102v25c0 110 54 206 216 206
c52 0 117 -13 167 -31c36 25 83 40 149 40c53 0 105 -8 146 -19l-18 -75c-41 12 -89 20 -135 20c-91 0 -132 -50 -132 -134v-32h306v-497c-58 -50 -75 -94 -75 -125c0 -26 15 -40 40 -40c22 0 43 9 66 26z" />
    <glyph glyph-name="f_f_dotlessi" unicode="ff&#x131;" horiz-adv-x="896" 
d="M811 0h-90v427h-216v-427h-90v427h-216v-427h-90v427h-102v70h102v30c0 136 70 200 186 200c31 0 60 -4 60 -4l-7 -75s-26 6 -56 6c-64 0 -93 -40 -93 -122v-35h216v38c0 136 70 201 186 201c31 0 60 -4 60 -4l-7 -75s-26 6 -56 6c-64 0 -93 -40 -93 -122v-44h306v-497z
" />
    <glyph glyph-name="f_f_j" unicode="ffj" horiz-adv-x="893" 
d="M808 497v-552c0 -133 -42 -199 -172 -199c-22 0 -49 3 -68 9l7 79c19 -7 42 -12 63 -12c63 0 80 26 80 115v490h-216v-427h-90v427h-213v-427h-90v427h-102v70h102v25c0 110 54 206 216 206c52 0 117 -13 167 -31c36 25 83 40 149 40c53 0 105 -8 146 -19l-18 -75
c-41 12 -89 20 -135 20c-91 0 -132 -50 -132 -134v-32h306zM412 497v21c0 38 6 79 25 113c-38 15 -80 23 -119 23c-81 0 -119 -43 -119 -123v-34h213z" />
    <glyph glyph-name="f_f_dotlessj" unicode="ff&#x237;" horiz-adv-x="896" 
d="M811 497v-552c0 -133 -46 -199 -165 -199c-40 0 -75 8 -75 8l8 79s31 -11 70 -11c54 0 72 26 72 115v490h-216v-427h-90v427h-216v-427h-90v427h-102v70h102v30c0 136 70 200 186 200c31 0 60 -4 60 -4l-7 -75s-26 6 -56 6c-64 0 -93 -40 -93 -122v-35h216v53
c0 121 56 186 152 186c28 0 52 -4 52 -4l-8 -76s-21 7 -43 7c-47 0 -63 -42 -63 -106v-60h306z" />
    <glyph glyph-name="f_f_jcircumflex" unicode="ff&#x135;" horiz-adv-x="896" 
d="M811 497v-552c0 -133 -46 -199 -165 -199c-40 0 -75 8 -75 8l8 79s31 -11 70 -11c54 0 72 26 72 115v490h-216v-427h-90v427h-216v-427h-90v427h-102v70h102v30c0 136 70 200 186 200c31 0 60 -4 60 -4l-7 -75s-26 6 -56 6c-64 0 -93 -40 -93 -122v-35h216v53
c0 121 56 186 152 186c28 0 52 -4 52 -4l-8 -76s-21 7 -43 7c-47 0 -63 -42 -63 -106v-60h306zM895 613l-39 -43l-87 85l-88 -85l-37 42l126 131z" />
    <glyph glyph-name="f_f_k" unicode="ffk" horiz-adv-x="1127" 
d="M412 497v35c0 47 10 79 21 101c-35 13 -77 21 -115 21c-81 0 -119 -43 -119 -123v-34h213zM1107 0h-115l-184 256v-256h-90v656s-46 8 -93 8c-84 0 -123 -37 -123 -128v-39h127v-70h-127v-427h-90v427h-213v-427h-90v427h-102v70h102v25c0 110 54 205 216 205
c52 0 113 -12 162 -28c34 24 82 37 149 37c81 0 172 -13 172 -13v-444l175 218h109l-191 -227z" />
    <glyph glyph-name="f_f_l" unicode="ffl" horiz-adv-x="891" 
d="M808 0h-90v656s-46 8 -93 8c-84 0 -123 -37 -123 -128v-39h127v-70h-127v-427h-90v427h-213v-427h-90v427h-102v70h102v25c0 110 54 205 216 205c52 0 113 -12 162 -28c34 24 82 37 149 37c81 0 172 -13 172 -13v-723zM412 497v35c0 47 10 79 21 101
c-35 13 -77 21 -115 21c-81 0 -119 -43 -119 -123v-34h213z" />
    <glyph glyph-name="f_h" unicode="fh" horiz-adv-x="905" 
d="M821 0h-90v320c0 70 -19 112 -84 112c-82 0 -142 -84 -142 -194v-238h-90v656s-46 8 -93 8c-83 0 -123 -37 -123 -128v-39h128v-70h-128v-427h-90v427h-102v70h102v35c0 133 67 204 225 204c80 0 171 -13 171 -13v-229c0 -32 -2 -72 -8 -99l2 -1c29 68 90 112 173 112
c114 0 149 -71 149 -159v-347z" />
    <glyph glyph-name="f_i" unicode="fi" horiz-adv-x="590" 
d="M505 0h-90v427h-216v-427h-90v427h-102v70h102v21c0 136 72 219 229 219c53 0 105 -8 146 -19l-17 -75c-41 12 -89 20 -136 20c-90 0 -132 -50 -132 -134v-32h306v-497z" />
    <glyph glyph-name="f_igrave" unicode="f&#xec;" horiz-adv-x="590" 
d="M505 0h-90v427h-216v-427h-90v427h-102v70h102v53c0 121 56 186 152 186c28 0 52 -4 52 -4l-8 -76s-21 7 -43 7c-47 0 -63 -42 -63 -106v-60h306v-497zM508 593l-55 -29l-99 158l69 36z" />
    <glyph glyph-name="f_iacute" unicode="f&#xed;" horiz-adv-x="590" 
d="M505 0h-90v427h-216v-427h-90v427h-102v70h102v38c0 136 70 201 186 201c31 0 60 -4 60 -4l-7 -75s-26 6 -56 6c-64 0 -93 -40 -93 -122v-44h306v-497zM574 712l-116 -144l-52 35l104 152z" />
    <glyph glyph-name="f_icircumflex" unicode="f&#xee;" horiz-adv-x="590" 
d="M505 0h-90v427h-216v-427h-90v427h-102v70h102v53c0 121 56 186 152 186c28 0 52 -4 52 -4l-8 -76s-21 7 -43 7c-47 0 -63 -42 -63 -106v-60h306v-497zM589 613l-39 -43l-87 85l-88 -85l-37 42l126 131z" />
    <glyph glyph-name="f_itilde" unicode="f&#x129;" horiz-adv-x="590" 
d="M505 0h-90v427h-216v-427h-90v427h-102v70h102v53c0 121 56 186 152 186c28 0 52 -4 52 -4l-8 -76s-21 7 -43 7c-47 0 -63 -42 -63 -107v-59h306v-497zM369 589l-45 33c20 49 57 79 92 79c53 0 64 -52 97 -52c16 0 32 14 46 44l45 -33c-21 -49 -57 -79 -93 -79
c-52 0 -64 53 -96 53c-17 0 -32 -14 -46 -45z" />
    <glyph glyph-name="f_idieresis" unicode="f&#xef;" horiz-adv-x="599" 
d="M514 0h-90v427h-225v-427h-90v427h-102v70h102v53c0 119 54 186 153 186c25 0 48 -4 48 -4l-8 -75s-20 6 -42 6c-46 0 -61 -41 -61 -106v-60h315v-497zM607 654c0 -30 -24 -54 -54 -54s-53 24 -53 54s23 54 53 54s54 -24 54 -54zM445 654c0 -30 -24 -54 -54 -54
s-54 24 -54 54s24 54 54 54s54 -24 54 -54z" />
    <glyph glyph-name="f_imacron" unicode="f&#x12b;" horiz-adv-x="590" 
d="M580 616h-229v68h229v-68zM505 0h-90v427h-216v-427h-90v427h-102v70h102v53c0 119 54 186 153 186c25 0 48 -4 48 -4l-8 -75s-20 6 -42 6c-46 0 -61 -41 -61 -106v-60h306v-497z" />
    <glyph glyph-name="f_ibreve" unicode="f&#x12d;" horiz-adv-x="590" 
d="M505 0h-90v427h-216v-427h-90v427h-102v70h102v53c0 121 56 186 152 186c28 0 52 -4 52 -4l-8 -76s-21 7 -43 7c-47 0 -63 -42 -63 -106v-60h306v-497zM521 718h62c0 -87 -44 -135 -119 -135s-115 49 -115 135h61c0 -36 19 -68 55 -68c35 0 56 26 56 68z" />
    <glyph glyph-name="f_iogonek" unicode="f&#x12f;" horiz-adv-x="590" 
d="M537 -139l28 -51c-32 -29 -71 -44 -113 -44c-67 0 -107 35 -107 91c0 50 25 96 70 145v425h-216v-427h-90v427h-102v70h102v21c0 136 72 219 229 219c53 0 105 -8 146 -19l-17 -75c-41 12 -89 20 -136 20c-90 0 -132 -50 -132 -134v-32h306v-497
c-57 -50 -74 -94 -74 -125c0 -26 14 -40 40 -40c21 0 42 9 66 26z" />
    <glyph glyph-name="f_dotlessi" unicode="f&#x131;" horiz-adv-x="590" 
d="M505 0h-90v427h-216v-427h-90v427h-102v70h102v38c0 136 70 201 186 201c31 0 60 -4 60 -4l-7 -75s-26 6 -56 6c-64 0 -93 -40 -93 -122v-44h306v-497z" />
    <glyph glyph-name="f_j" unicode="fj" horiz-adv-x="589" 
d="M505 497v-552c0 -133 -41 -199 -172 -199c-21 0 -48 3 -68 9l8 79c18 -7 41 -12 63 -12c62 0 79 26 79 115v490h-216v-427h-90v427h-102v70h102v21c0 136 72 219 229 219c53 0 105 -8 146 -19l-17 -75c-41 12 -89 20 -136 20c-90 0 -132 -50 -132 -134v-32h306z" />
    <glyph glyph-name="f_dotlessj" unicode="f&#x237;" horiz-adv-x="590" 
d="M505 497v-552c0 -133 -41 -199 -172 -199c-21 0 -48 3 -68 9l8 79c18 -7 41 -12 63 -12c62 0 79 26 79 115v490h-216v-427h-90v427h-102v70h102v38c0 136 70 201 186 201c31 0 60 -4 60 -4l-7 -75s-26 6 -56 6c-64 0 -93 -40 -93 -122v-44h306z" />
    <glyph glyph-name="f_jcircumflex" unicode="f&#x135;" horiz-adv-x="590" 
d="M505 497v-552c0 -133 -41 -199 -172 -199c-21 0 -48 3 -68 9l8 79c18 -7 41 -12 63 -12c62 0 79 26 79 115v490h-216v-427h-90v427h-102v70h102v53c0 121 56 186 152 186c28 0 52 -4 52 -4l-8 -76s-21 7 -43 7c-47 0 -63 -42 -63 -106v-60h306zM589 613l-39 -43l-87 85
l-88 -85l-37 42l126 131z" />
    <glyph glyph-name="f_k" unicode="fk" horiz-adv-x="824" 
d="M805 0h-116l-184 256v-256h-90v656s-46 8 -93 8c-83 0 -123 -37 -123 -128v-39h128v-70h-128v-427h-90v427h-102v70h102v35c0 133 67 204 225 204c80 0 171 -13 171 -13v-444l175 218h110l-191 -227z" />
    <glyph glyph-name="f_l" unicode="fl" horiz-adv-x="590" 
d="M505 0h-90v656s-46 8 -93 8c-83 0 -123 -37 -123 -128v-39h128v-70h-128v-427h-90v427h-102v70h102v35c0 133 67 204 225 204c80 0 171 -13 171 -13v-723z" />
    <glyph glyph-name="f_lacute" unicode="f&#x13a;" horiz-adv-x="590" 
d="M505 0h-90v656s-46 8 -93 8c-83 0 -123 -37 -123 -128v-39h128v-70h-128v-427h-90v427h-102v70h102v35c0 133 67 204 225 204c80 0 171 -13 171 -13v-723zM616 841l-190 -56l-17 52l182 74z" />
    <glyph glyph-name="f_lcaron" unicode="f&#x13e;" horiz-adv-x="621" 
d="M505 0h-90v656s-46 8 -93 8c-83 0 -123 -37 -123 -128v-39h128v-70h-128v-427h-90v427h-102v70h102v35c0 133 67 204 225 204c80 0 171 -13 171 -13v-723zM684 742l-70 -177l-60 16l55 181z" />
    <glyph glyph-name="f_lcommaaccent" unicode="f&#x13c;" horiz-adv-x="590" 
d="M505 0h-90v656s-46 8 -93 8c-83 0 -123 -37 -123 -128v-39h128v-70h-128v-427h-90v427h-102v70h102v35c0 133 67 204 225 204c80 0 171 -13 171 -13v-723zM403 -240l-23 34c36 26 47 49 47 67c0 21 -12 24 -12 44c0 24 17 46 47 46c31 0 51 -25 51 -57
c0 -40 -27 -90 -110 -134z" />
    <glyph glyph-name="ellipsis" unicode="&#x2e;&#x2e;&#x2e;" horiz-adv-x="665" 
d="M603 51c0 -33 -27 -60 -61 -60c-33 0 -60 27 -60 60c0 34 27 61 60 61c34 0 61 -27 61 -61zM388 51c0 -33 -27 -60 -61 -60c-33 0 -60 27 -60 60c0 34 27 61 60 61c34 0 61 -27 61 -61zM173 51c0 -33 -27 -60 -60 -60c-34 0 -61 27 -61 60c0 34 27 61 61 61
c33 0 60 -27 60 -61z" />
    <glyph glyph-name="exclamdbl" unicode="&#x21;&#x21;" horiz-adv-x="584" 
d="M222 703l-15 -535h-75l-16 535h106zM229 50c0 -33 -26 -59 -60 -59s-61 26 -61 59s27 59 61 59s60 -26 60 -59zM486 703l-15 -535h-75l-16 535h106zM493 50c0 -33 -26 -59 -60 -59s-61 26 -61 59s27 59 61 59s60 -26 60 -59z" />
    <glyph glyph-name=".notdef" horiz-adv-x="550" 
d="M300 150h-150v250h50v-200h100v-50zM500 50h-450v450h450v-450zM350 350h-100v50h150v-250h-50v100h-100v50h100v50zM100 100h350v350h-350v-350z" />
    <glyph glyph-name=".null" horiz-adv-x="0" 
 />
    <glyph glyph-name=".null" horiz-adv-x="0" 
 />
    <glyph glyph-name="CR" unicode="&#xd;" horiz-adv-x="500" 
 />
    <glyph glyph-name="space" unicode=" " horiz-adv-x="218" 
 />
    <glyph glyph-name="uni00A0" unicode="&#xa0;" horiz-adv-x="218" 
 />
    <glyph glyph-name="LatinCapitals" unicode="&#xe021;" horiz-adv-x="1189" 
d="M1141 333h-86l-110 257c-10 24 -18 47 -27 77h-1c1 -49 3 -115 3 -204v-130h-58v402h90l107 -245c9 -22 19 -52 26 -76h2c-3 55 -4 151 -4 214v107h58v-402zM617 -180h-68l-25 91h-135l-25 -91h-62l112 402h89zM569 333h-68l-25 91h-135l-25 -91h-62l113 402h88z
M741 -180h-63v402c27 1 61 2 93 2c90 0 131 -46 131 -122c0 -83 -53 -134 -138 -134c-7 0 -16 0 -23 1v-149zM262 -117l15 -48c-24 -12 -56 -20 -92 -20c-109 0 -153 74 -153 198c0 123 50 214 163 214c28 0 56 -6 79 -15l-15 -51c-20 9 -41 13 -62 13
c-69 0 -97 -65 -97 -154c0 -99 31 -152 96 -152c26 0 48 6 66 15zM796 684h-92v-351h-62v351h-91v51h245v-51zM224 333h-176v402h63v-351h113v-51zM741 174v-156c7 -1 16 -2 26 -2c48 0 70 31 70 80c0 50 -21 79 -70 79c-6 0 -17 0 -26 -1zM464 472l-42 152
c-5 20 -9 39 -13 60c-4 -20 -8 -39 -13 -58l-43 -154h111zM512 -41l-43 152c-5 20 -8 39 -13 60c-3 -20 -7 -39 -13 -58l-42 -154h111z" />
    <glyph glyph-name="A" unicode="A" horiz-adv-x="615" 
d="M605 0h-103l-55 161h-287l-56 -161h-94l242 675h112zM425 234l-92 259c-11 33 -20 65 -29 95h-1c-8 -30 -18 -62 -28 -94l-92 -260h242z" />
    <glyph glyph-name="Agrave" unicode="&#xc0;" horiz-adv-x="615" 
d="M605 0h-103l-55 161h-287l-56 -161h-94l242 675h112zM425 234l-92 259c-11 33 -20 65 -29 95h-1c-8 -30 -18 -62 -28 -94l-92 -260h242zM371 777l-17 -52l-190 56l26 70z" />
    <glyph glyph-name="Aacute" unicode="&#xc1;" horiz-adv-x="615" 
d="M605 0h-103l-55 161h-287l-56 -161h-94l242 675h112zM425 234l-92 259c-11 33 -20 65 -29 95h-1c-8 -30 -18 -62 -28 -94l-92 -260h242zM442 781l-190 -56l-17 52l182 74z" />
    <glyph glyph-name="Acircumflex" unicode="&#xc2;" horiz-adv-x="615" 
d="M605 0h-103l-55 161h-287l-56 -161h-94l242 675h112zM425 234l-92 259c-11 33 -20 65 -29 95h-1c-8 -30 -18 -62 -28 -94l-92 -260h242zM466 776l-26 -52l-133 60l-135 -60l-24 50l160 83z" />
    <glyph glyph-name="Atilde" unicode="&#xc3;" horiz-adv-x="615" 
d="M605 0h-103l-55 161h-287l-56 -161h-94l242 675h112zM425 234l-92 259c-11 33 -20 65 -29 95h-1c-8 -30 -18 -62 -28 -94l-92 -260h242zM439 841l46 -33c-27 -47 -65 -73 -112 -73c-68 0 -89 52 -132 52c-23 0 -45 -15 -63 -45l-46 33c26 47 65 74 112 74
c68 0 89 -52 132 -52c24 0 45 15 63 44z" />
    <glyph glyph-name="Adieresis" unicode="&#xc4;" horiz-adv-x="615" 
d="M605 0h-103l-55 161h-287l-56 -161h-94l242 675h112zM425 234l-92 259c-11 33 -20 65 -29 95h-1c-8 -30 -18 -62 -28 -94l-92 -260h242zM466 782c0 -30 -24 -54 -54 -54s-53 24 -53 54s23 54 53 54s54 -24 54 -54zM253 782c0 -30 -24 -54 -54 -54s-54 24 -54 54
s24 54 54 54s54 -24 54 -54z" />
    <glyph glyph-name="Amacron" unicode="&#x100;" horiz-adv-x="615" 
d="M605 0h-103l-55 161h-287l-56 -161h-94l242 675h112zM425 234l-92 259c-11 33 -20 65 -29 95h-1c-8 -30 -18 -62 -28 -94l-92 -260h242zM444 748h-276v62h276v-62z" />
    <glyph glyph-name="Abreve" unicode="&#x102;" horiz-adv-x="615" 
d="M605 0h-103l-55 161h-287l-56 -161h-94l242 675h112zM425 234l-92 259c-11 33 -20 65 -29 95h-1c-8 -30 -18 -62 -28 -94l-92 -260h242zM375 852h59c0 -69 -48 -122 -131 -122c-85 0 -128 55 -128 122h58c0 -34 29 -61 71 -61c44 0 71 27 71 61z" />
    <glyph glyph-name="Aring" unicode="&#xc5;" horiz-adv-x="615" 
d="M605 0h-103l-55 161h-287l-56 -161h-94l242 675h112zM425 234l-92 259c-11 33 -20 65 -29 95h-1c-8 -30 -18 -62 -28 -94l-92 -260h242zM428 821c0 -63 -48 -110 -122 -110c-69 0 -112 34 -112 104c0 62 48 109 121 109c70 0 113 -33 113 -103zM361 817
c0 38 -18 57 -50 57c-27 0 -51 -18 -51 -56c0 -37 18 -57 51 -57c27 0 50 18 50 56z" />
    <glyph glyph-name="Aring.alt" horiz-adv-x="615" 
d="M428 770c0 -43 -22 -80 -64 -95l241 -675h-103l-55 161h-287l-56 -161h-94l242 675c-36 11 -58 41 -58 89c0 63 48 110 122 110c69 0 112 -34 112 -104zM425 234l-92 259c-11 33 -20 65 -29 95h-1c-8 -30 -18 -62 -28 -94l-92 -260h242zM362 767c0 37 -18 56 -51 56
c-27 0 -51 -18 -51 -56c0 -37 18 -56 51 -56c27 0 51 18 51 56z" />
    <glyph glyph-name="Aringacute" unicode="&#x1fa;" horiz-adv-x="615" 
d="M605 0h-103l-55 161h-287l-56 -161h-94l242 675h112zM425 234l-92 259c-11 33 -20 65 -29 95h-1c-8 -30 -18 -62 -28 -94l-92 -260h242zM437 926l-175 -44l-15 41l169 57zM414 785c0 -51 -43 -90 -110 -90c-62 0 -101 27 -101 85c0 50 43 90 110 90c62 0 101 -27 101 -85
zM357 782c0 30 -18 45 -48 45c-25 0 -49 -13 -49 -45c0 -30 18 -44 48 -44c25 0 49 13 49 44z" />
    <glyph glyph-name="Aogonek" unicode="&#x104;" horiz-adv-x="615" 
d="M611 -139l28 -51c-32 -29 -71 -44 -113 -44c-67 0 -107 35 -107 91c0 48 26 99 83 143l-55 161h-287l-56 -161h-94l242 675h112l241 -675c-78 -45 -100 -89 -100 -125c0 -26 14 -40 40 -40c22 0 43 9 66 26zM425 234l-92 259c-11 33 -20 65 -29 95h-1
c-8 -30 -18 -62 -28 -94l-92 -260h242z" />
    <glyph glyph-name="uni01CD" unicode="&#x1cd;" horiz-adv-x="615" 
d="M605 0h-103l-55 161h-287l-56 -161h-94l242 675h112zM425 234l-92 259c-11 33 -20 65 -29 95h-1c-8 -30 -18 -62 -28 -94l-92 -260h242zM467 807l-161 -83l-157 82l25 51l134 -60l135 60z" />
    <glyph glyph-name="uni1EA0" unicode="&#x1ea0;" horiz-adv-x="615" 
d="M605 0h-103l-55 161h-287l-56 -161h-94l242 675h112zM425 234l-92 259c-11 33 -20 65 -29 95h-1c-8 -30 -18 -62 -28 -94l-92 -260h242zM360 -157c0 -32 -26 -58 -58 -58s-58 26 -58 58c0 33 26 58 58 58s58 -26 58 -58z" />
    <glyph glyph-name="uni1EA2" unicode="&#x1ea2;" horiz-adv-x="615" 
d="M605 0h-103l-55 161h-287l-56 -161h-94l242 675h112zM425 234l-92 259c-11 33 -20 65 -29 95h-1c-8 -30 -18 -62 -28 -94l-92 -260h242zM302 725l-12 47c13 4 54 21 54 50c0 23 -19 34 -52 34c-25 0 -54 -7 -75 -16l-16 51c28 11 69 23 112 23c65 0 105 -27 105 -77
c0 -71 -84 -104 -116 -112z" />
    <glyph glyph-name="uni1EA4" unicode="&#x1ea4;" horiz-adv-x="615" 
d="M605 0h-103l-55 161h-287l-56 -161h-94l242 675h112zM425 234l-92 259c-11 33 -20 65 -29 95h-1c-8 -30 -18 -62 -28 -94l-92 -260h242zM402 919l-176 -57l-17 44l167 74zM461 770l-24 -49l-135 59l-128 -59l-22 46l154 81z" />
    <glyph glyph-name="uni1EA6" unicode="&#x1ea6;" horiz-adv-x="615" 
d="M605 0h-103l-55 161h-287l-56 -161h-94l242 675h112zM425 234l-92 259c-11 33 -20 65 -29 95h-1c-8 -30 -18 -62 -28 -94l-92 -260h242zM461 770l-24 -49l-135 59l-128 -59l-22 46l154 81zM392 908l-16 -44l-176 55l25 61z" />
    <glyph glyph-name="uni1EA8" unicode="&#x1ea8;" horiz-adv-x="615" 
d="M605 0h-103l-55 161h-287l-56 -161h-94l242 675h112zM425 234l-92 259c-11 33 -20 65 -29 95h-1c-8 -30 -18 -62 -28 -94l-92 -260h242zM375 826l-48 24c13 6 39 23 39 43c0 23 -22 34 -55 34c-29 0 -64 -11 -73 -15l-12 47c15 7 57 21 105 21c62 0 103 -26 103 -73
c0 -46 -40 -73 -59 -81zM461 756l-24 -49l-135 58l-128 -58l-22 46l154 81z" />
    <glyph glyph-name="uni1EAA" unicode="&#x1eaa;" horiz-adv-x="615" 
d="M605 0h-103l-55 161h-287l-56 -161h-94l242 675h112zM425 234l-92 259c-11 33 -20 65 -29 95h-1c-8 -30 -18 -62 -28 -94l-92 -260h242zM461 770l-24 -49l-135 59l-128 -59l-22 46l154 81zM417 973l45 -28c-20 -43 -58 -70 -95 -70c-53 0 -64 49 -97 49
c-17 0 -32 -13 -47 -42l-45 27c20 44 58 71 94 71c53 0 65 -49 98 -49c17 0 32 13 47 42z" />
    <glyph glyph-name="uni1EAC" unicode="&#x1eac;" horiz-adv-x="615" 
d="M605 0h-103l-55 161h-287l-56 -161h-94l242 675h112zM425 234l-92 259c-11 33 -20 65 -29 95h-1c-8 -30 -18 -62 -28 -94l-92 -260h242zM360 -157c0 -32 -26 -58 -58 -58s-58 26 -58 58c0 33 26 58 58 58s58 -26 58 -58zM466 776l-26 -52l-133 60l-135 -60l-24 50l160 83
z" />
    <glyph glyph-name="uni1EAE" unicode="&#x1eae;" horiz-adv-x="615" 
d="M605 0h-103l-55 161h-287l-56 -161h-94l242 675h112zM425 234l-92 259c-11 33 -20 65 -29 95h-1c-8 -30 -18 -62 -28 -94l-92 -260h242zM373 835h58c0 -64 -45 -111 -128 -111c-85 0 -125 50 -125 111h57c0 -31 28 -58 69 -58c43 0 69 27 69 58zM431 919l-175 -57l-17 44
l167 74z" />
    <glyph glyph-name="uni1EB0" unicode="&#x1eb0;" horiz-adv-x="615" 
d="M605 0h-103l-55 161h-287l-56 -161h-94l242 675h112zM425 234l-92 259c-11 33 -20 65 -29 95h-1c-8 -30 -18 -62 -28 -94l-92 -260h242zM373 835h58c0 -64 -45 -111 -128 -111c-85 0 -125 50 -125 111h57c0 -31 28 -58 69 -58c43 0 69 27 69 58zM370 906l-16 -44l-176 57
l25 61z" />
    <glyph glyph-name="uni1EB2" unicode="&#x1eb2;" horiz-adv-x="615" 
d="M605 0h-103l-55 161h-287l-56 -161h-94l242 675h112zM425 234l-92 259c-11 33 -20 65 -29 95h-1c-8 -30 -18 -62 -28 -94l-92 -260h242zM373 819h58c0 -62 -45 -108 -128 -108c-85 0 -125 48 -125 108h57c0 -30 28 -56 69 -56c43 0 69 26 69 56zM296 823l-11 36
c11 4 54 20 54 45c0 21 -18 30 -47 30c-26 0 -59 -10 -66 -13l-12 40c13 6 52 19 97 19c56 0 91 -22 91 -64c0 -58 -79 -86 -106 -93z" />
    <glyph glyph-name="uni1EB4" unicode="&#x1eb4;" horiz-adv-x="615" 
d="M605 0h-103l-55 161h-287l-56 -161h-94l242 675h112zM425 234l-92 259c-11 33 -20 65 -29 95h-1c-8 -30 -18 -62 -28 -94l-92 -260h242zM407 973l45 -28c-20 -43 -58 -70 -94 -70c-53 0 -65 49 -98 49c-17 0 -32 -13 -47 -42l-45 27c20 44 58 71 94 71
c53 0 65 -49 98 -49c17 0 32 13 47 42zM377 835h58c0 -64 -45 -111 -128 -111c-85 0 -125 50 -125 111h57c0 -31 28 -58 69 -58c43 0 69 27 69 58z" />
    <glyph glyph-name="uni1EB6" unicode="&#x1eb6;" horiz-adv-x="615" 
d="M605 0h-103l-55 161h-287l-56 -161h-94l242 675h112zM425 234l-92 259c-11 33 -20 65 -29 95h-1c-8 -30 -18 -62 -28 -94l-92 -260h242zM360 -157c0 -32 -26 -58 -58 -58s-58 26 -58 58c0 33 26 58 58 58s58 -26 58 -58zM375 852h59c0 -69 -48 -122 -131 -122
c-85 0 -128 55 -128 122h58c0 -34 29 -61 71 -61c44 0 71 27 71 61z" />
    <glyph glyph-name="AE" unicode="&#xc6;" horiz-adv-x="785" 
d="M717 0h-350v163h-229l-85 -163h-96l359 675h396v-76h-254v-214h236v-74h-236v-234h259v-77zM367 236v364h-6c-17 -39 -35 -77 -67 -139l-122 -225h195z" />
    <glyph glyph-name="AEacute" unicode="&#x1fc;" horiz-adv-x="785" 
d="M717 0h-350v163h-229l-85 -163h-96l359 675h396v-76h-254v-214h236v-74h-236v-234h259v-77zM367 236v364h-6c-17 -39 -35 -77 -67 -139l-122 -225h195zM641 781l-190 -56l-17 52l182 74z" />
    <glyph glyph-name="B" unicode="B" horiz-adv-x="571" 
d="M85 0v675s94 4 184 4c158 0 229 -65 229 -167c0 -70 -41 -130 -112 -155v-1c82 -16 135 -71 135 -156c0 -89 -65 -203 -264 -203c-48 0 -106 2 -172 3zM177 603v-220c19 -1 37 -1 69 -1c104 0 156 42 156 116c0 60 -32 108 -142 108c-25 0 -57 -2 -83 -3zM177 312v-236
c18 -3 58 -5 87 -5c112 0 160 54 160 123c0 76 -51 119 -179 119c-16 0 -52 0 -68 -1z" />
    <glyph glyph-name="uni1E02" unicode="&#x1e02;" horiz-adv-x="571" 
d="M85 0v675s94 4 184 4c158 0 229 -65 229 -167c0 -70 -41 -130 -112 -155v-1c82 -16 135 -71 135 -156c0 -89 -65 -203 -264 -203c-48 0 -106 2 -172 3zM177 603v-220c19 -1 37 -1 69 -1c104 0 156 42 156 116c0 60 -32 108 -142 108c-25 0 -57 -2 -83 -3zM177 312v-236
c18 -3 58 -5 87 -5c112 0 160 54 160 123c0 76 -51 119 -179 119c-16 0 -52 0 -68 -1zM327 785c0 -32 -26 -58 -58 -58s-58 26 -58 58s26 58 58 58s58 -25 58 -58z" />
    <glyph glyph-name="uni1E06" unicode="&#x1e06;" horiz-adv-x="571" 
d="M152 -187v68h266v-68h-266zM85 0v675s94 4 184 4c158 0 229 -65 229 -167c0 -70 -41 -130 -112 -155v-1c82 -16 135 -71 135 -156c0 -89 -65 -203 -264 -203c-48 0 -106 2 -172 3zM177 603v-220c19 -1 37 -1 69 -1c104 0 156 42 156 116c0 60 -32 108 -142 108
c-25 0 -57 -2 -83 -3zM177 312v-236c18 -3 58 -5 87 -5c112 0 160 54 160 123c0 76 -51 119 -179 119c-16 0 -52 0 -68 -1z" />
    <glyph glyph-name="C" unicode="C" horiz-adv-x="583" 
d="M522 112l17 -78c-51 -22 -118 -42 -189 -42c-213 0 -304 138 -304 330c0 208 105 361 325 361c54 0 113 -11 160 -29l-16 -85c-52 23 -103 33 -156 33c-147 0 -214 -120 -214 -267c0 -165 73 -260 223 -260c52 0 113 18 154 37z" />
    <glyph glyph-name="Cacute" unicode="&#x106;" horiz-adv-x="583" 
d="M522 112l17 -78c-51 -22 -118 -42 -189 -42c-213 0 -304 138 -304 330c0 208 105 361 325 361c54 0 113 -11 160 -29l-16 -85c-52 23 -103 33 -156 33c-147 0 -214 -120 -214 -267c0 -165 73 -260 223 -260c52 0 113 18 154 37zM497 781l-190 -56l-17 52l182 74z" />
    <glyph glyph-name="Ccircumflex" unicode="&#x108;" horiz-adv-x="583" 
d="M522 112l17 -78c-51 -22 -118 -42 -189 -42c-213 0 -304 138 -304 330c0 208 105 361 325 361c54 0 113 -11 160 -29l-16 -85c-52 23 -103 33 -156 33c-147 0 -214 -120 -214 -267c0 -165 73 -260 223 -260c52 0 113 18 154 37zM509 776l-26 -52l-133 60l-135 -60l-24 50
l160 83z" />
    <glyph glyph-name="Ccaron" unicode="&#x10c;" horiz-adv-x="583" 
d="M522 112l17 -78c-51 -22 -118 -42 -189 -42c-213 0 -304 138 -304 330c0 208 105 361 325 361c54 0 113 -11 160 -29l-16 -85c-52 23 -103 33 -156 33c-147 0 -214 -120 -214 -267c0 -165 73 -260 223 -260c52 0 113 18 154 37zM507 807l-161 -83l-157 82l25 51l134 -60
l135 60z" />
    <glyph glyph-name="Cdotaccent" unicode="&#x10a;" horiz-adv-x="583" 
d="M522 112l17 -78c-51 -22 -118 -42 -189 -42c-213 0 -304 138 -304 330c0 208 105 361 325 361c54 0 113 -11 160 -29l-16 -85c-52 23 -103 33 -156 33c-147 0 -214 -120 -214 -267c0 -165 73 -260 223 -260c52 0 113 18 154 37zM410 785c0 -32 -26 -58 -58 -58
s-58 26 -58 58s26 58 58 58s58 -25 58 -58z" />
    <glyph glyph-name="Ccedilla" unicode="&#xc7;" horiz-adv-x="583" 
d="M522 112l17 -78c-51 -22 -118 -42 -189 -42c-213 0 -304 138 -304 330c0 208 105 361 325 361c54 0 113 -11 160 -29l-16 -85c-52 23 -103 33 -156 33c-147 0 -214 -120 -214 -267c0 -165 73 -260 223 -260c52 0 113 18 154 37zM281 -70l77 30c51 -67 35 -130 -21 -195
h-73c52 65 64 107 17 165z" />
    <glyph glyph-name="D" unicode="D" horiz-adv-x="678" 
d="M85 0v674c52 1 128 4 202 4c216 0 345 -101 345 -333c0 -231 -155 -349 -376 -349c-68 0 -121 4 -171 4zM177 600v-520c25 -4 62 -6 89 -6c158 0 269 82 269 265c0 172 -82 264 -257 264c-35 0 -76 -2 -101 -3z" />
    <glyph glyph-name="Dcaron" unicode="&#x10e;" horiz-adv-x="678" 
d="M85 0v674c52 1 128 4 202 4c216 0 345 -101 345 -333c0 -231 -155 -349 -376 -349c-68 0 -121 4 -171 4zM177 600v-520c25 -4 62 -6 89 -6c158 0 269 82 269 265c0 172 -82 264 -257 264c-35 0 -76 -2 -101 -3zM459 807l-161 -83l-157 82l25 51l134 -60l135 60z" />
    <glyph glyph-name="uni1E0A" unicode="&#x1e0a;" horiz-adv-x="678" 
d="M85 0v674c52 1 128 4 202 4c216 0 345 -101 345 -333c0 -231 -155 -349 -376 -349c-68 0 -121 4 -171 4zM177 600v-520c25 -4 62 -6 89 -6c158 0 269 82 269 265c0 172 -82 264 -257 264c-35 0 -76 -2 -101 -3zM359 785c0 -32 -26 -58 -58 -58s-58 26 -58 58s26 58 58 58
s58 -25 58 -58z" />
    <glyph glyph-name="uni1E0C" unicode="&#x1e0c;" horiz-adv-x="678" 
d="M85 0v674c52 1 128 4 202 4c216 0 345 -101 345 -333c0 -231 -155 -349 -376 -349c-68 0 -121 4 -171 4zM177 600v-520c25 -4 62 -6 89 -6c158 0 269 82 269 265c0 172 -82 264 -257 264c-35 0 -76 -2 -101 -3zM375 -157c0 -32 -26 -58 -58 -58s-58 26 -58 58
c0 33 26 58 58 58s58 -26 58 -58z" />
    <glyph glyph-name="uni1E0E" unicode="&#x1e0e;" horiz-adv-x="678" 
d="M204 -187v68h266v-68h-266zM85 0v674c52 1 128 4 202 4c216 0 345 -101 345 -333c0 -231 -155 -349 -376 -349c-68 0 -121 4 -171 4zM177 600v-520c25 -4 62 -6 89 -6c158 0 269 82 269 265c0 172 -82 264 -257 264c-35 0 -76 -2 -101 -3z" />
    <glyph glyph-name="Eth" unicode="&#xd0;" horiz-adv-x="687" 
d="M3 312v71h91v291c52 1 128 4 201 4c217 0 346 -101 346 -333c0 -228 -153 -348 -377 -349c-67 0 -121 4 -170 4v312h-91zM328 312h-143v-232c25 -4 62 -6 89 -6c159 0 270 82 270 265c0 172 -83 264 -258 264c-35 0 -76 -2 -101 -3v-217h143v-71z" />
    <glyph glyph-name="Dcroat" unicode="&#x110;" horiz-adv-x="687" 
d="M3 312v71h91v291c52 1 128 4 201 4c217 0 346 -101 346 -333c0 -228 -153 -348 -377 -349c-67 0 -121 4 -170 4v312h-91zM328 312h-143v-232c25 -4 62 -6 89 -6c159 0 270 82 270 265c0 172 -83 264 -258 264c-35 0 -76 -2 -101 -3v-217h143v-71z" />
    <glyph glyph-name="E" unicode="E" horiz-adv-x="513" 
d="M445 0h-360v675h360v-76h-268v-214h246v-74h-246v-234h268v-77z" />
    <glyph glyph-name="Egrave" unicode="&#xc8;" horiz-adv-x="513" 
d="M445 0h-360v675h360v-76h-268v-214h246v-74h-246v-234h268v-77zM326 777l-17 -52l-190 56l26 70z" />
    <glyph glyph-name="Eacute" unicode="&#xc9;" horiz-adv-x="513" 
d="M445 0h-360v675h360v-76h-268v-214h246v-74h-246v-234h268v-77zM396 781l-190 -56l-17 52l182 74z" />
    <glyph glyph-name="Ecircumflex" unicode="&#xca;" horiz-adv-x="513" 
d="M445 0h-360v675h360v-76h-268v-214h246v-74h-246v-234h268v-77zM421 776l-26 -52l-133 60l-135 -60l-24 50l160 83z" />
    <glyph glyph-name="Ecaron" unicode="&#x11a;" horiz-adv-x="513" 
d="M445 0h-360v675h360v-76h-268v-214h246v-74h-246v-234h268v-77zM417 807l-161 -83l-157 82l25 51l134 -60l135 60z" />
    <glyph glyph-name="Edieresis" unicode="&#xcb;" horiz-adv-x="513" 
d="M445 0h-360v675h360v-76h-268v-214h246v-74h-246v-234h268v-77zM417 782c0 -30 -24 -54 -54 -54s-53 24 -53 54s23 54 53 54s54 -24 54 -54zM204 782c0 -30 -24 -54 -54 -54s-54 24 -54 54s24 54 54 54s54 -24 54 -54z" />
    <glyph glyph-name="Emacron" unicode="&#x112;" horiz-adv-x="513" 
d="M445 0h-360v675h360v-76h-268v-214h246v-74h-246v-234h268v-77zM397 748h-276v62h276v-62z" />
    <glyph glyph-name="Ebreve" unicode="&#x114;" horiz-adv-x="513" 
d="M445 0h-360v675h360v-76h-268v-214h246v-74h-246v-234h268v-77zM334 852h59c0 -69 -48 -122 -131 -122c-85 0 -128 55 -128 122h58c0 -34 29 -61 71 -61c44 0 71 27 71 61z" />
    <glyph glyph-name="Edotaccent" unicode="&#x116;" horiz-adv-x="513" 
d="M445 0h-360v675h360v-76h-268v-214h246v-74h-246v-234h268v-77zM319 785c0 -32 -26 -58 -58 -58s-58 26 -58 58s26 58 58 58s58 -25 58 -58z" />
    <glyph glyph-name="Eogonek" unicode="&#x118;" horiz-adv-x="513" 
d="M443 -139l28 -51c-32 -29 -71 -44 -113 -44c-67 0 -107 35 -107 91c0 55 38 113 86 143h-252v675h360v-76h-268v-214h246v-74h-246v-234h268v-74c-63 -22 -108 -82 -108 -128c0 -26 14 -40 40 -40c21 0 42 9 66 26z" />
    <glyph glyph-name="uni1EB8" unicode="&#x1eb8;" horiz-adv-x="513" 
d="M445 0h-360v675h360v-76h-268v-214h246v-74h-246v-234h268v-77zM328 -157c0 -32 -26 -58 -58 -58s-58 26 -58 58c0 33 26 58 58 58s58 -26 58 -58z" />
    <glyph glyph-name="uni1EBA" unicode="&#x1eba;" horiz-adv-x="513" 
d="M445 0h-360v675h360v-76h-268v-214h246v-74h-246v-234h268v-77zM257 725l-12 47c13 4 54 21 54 50c0 23 -19 34 -52 34c-25 0 -54 -7 -75 -16l-16 51c28 11 69 23 112 23c65 0 105 -27 105 -77c0 -71 -84 -104 -116 -112z" />
    <glyph glyph-name="uni1EBC" unicode="&#x1ebc;" horiz-adv-x="513" 
d="M445 0h-360v675h360v-76h-268v-214h246v-74h-246v-234h268v-77zM398 841l46 -33c-27 -47 -65 -73 -112 -73c-68 0 -89 52 -132 52c-23 0 -45 -15 -63 -45l-46 33c26 47 65 74 112 74c68 0 89 -52 132 -52c24 0 45 15 63 44z" />
    <glyph glyph-name="uni1EBE" unicode="&#x1ebe;" horiz-adv-x="513" 
d="M445 0h-360v675h360v-76h-268v-214h246v-74h-246v-234h268v-77zM356 919l-176 -57l-17 44l167 74zM415 770l-24 -49l-135 59l-128 -59l-22 46l154 81z" />
    <glyph glyph-name="uni1EC0" unicode="&#x1ec0;" horiz-adv-x="513" 
d="M445 0h-360v675h360v-76h-268v-214h246v-74h-246v-234h268v-77zM416 770l-24 -49l-135 59l-128 -59l-22 46l154 81zM347 908l-16 -44l-176 55l25 61z" />
    <glyph glyph-name="uni1EC2" unicode="&#x1ec2;" horiz-adv-x="513" 
d="M445 0h-360v675h360v-76h-268v-214h246v-74h-246v-234h268v-77zM331 826l-48 24c13 6 39 23 39 43c0 23 -22 34 -55 34c-29 0 -64 -11 -73 -15l-12 47c15 7 57 21 105 21c62 0 103 -26 103 -73c0 -46 -40 -73 -59 -81zM417 756l-24 -49l-135 58l-128 -58l-22 46l154 81z
" />
    <glyph glyph-name="uni1EC4" unicode="&#x1ec4;" horiz-adv-x="513" 
d="M445 0h-360v675h360v-76h-268v-214h246v-74h-246v-234h268v-77zM418 770l-24 -49l-135 59l-128 -59l-22 46l154 81zM374 973l45 -28c-20 -43 -58 -70 -95 -70c-53 0 -64 49 -97 49c-17 0 -32 -13 -47 -42l-45 27c20 44 58 71 94 71c53 0 65 -49 98 -49c17 0 32 13 47 42z
" />
    <glyph glyph-name="uni1EC6" unicode="&#x1ec6;" horiz-adv-x="513" 
d="M445 0h-360v675h360v-76h-268v-214h246v-74h-246v-234h268v-77zM326 -157c0 -32 -26 -58 -58 -58s-58 26 -58 58c0 33 26 58 58 58s58 -26 58 -58zM425 776l-26 -52l-133 60l-135 -60l-24 50l160 83z" />
    <glyph glyph-name="uni018F" unicode="&#x18f;" horiz-adv-x="603" 
d="M40 381h420c-11 148 -87 222 -204 222c-75 0 -133 -17 -178 -37l-18 76c54 23 120 41 207 41c176 0 294 -110 294 -343c0 -217 -107 -349 -281 -349s-247 120 -247 298c0 26 4 69 7 92zM461 306h-329v-19c0 -153 61 -215 157 -215c114 0 171 97 172 234z" />
    <glyph glyph-name="F" unicode="F" horiz-adv-x="471" 
d="M436 599h-259v-220h241v-74h-241v-305h-92v675h351v-76z" />
    <glyph glyph-name="uni1E1E" unicode="&#x1e1e;" horiz-adv-x="471" 
d="M436 599h-259v-220h241v-74h-241v-305h-92v675h351v-76zM320 785c0 -32 -26 -58 -58 -58s-58 26 -58 58s26 58 58 58s58 -25 58 -58z" />
    <glyph glyph-name="G" unicode="G" horiz-adv-x="682" 
d="M601 344v-314c-67 -25 -149 -39 -223 -39c-211 0 -335 124 -335 330c0 211 124 363 363 363c66 0 129 -11 187 -29l-20 -83c-55 21 -115 33 -176 33c-182 0 -256 -128 -256 -270c0 -168 93 -264 250 -264c45 0 83 7 119 18v255h91z" />
    <glyph glyph-name="Gcircumflex" unicode="&#x11c;" horiz-adv-x="682" 
d="M601 344v-314c-67 -25 -149 -39 -223 -39c-211 0 -335 124 -335 330c0 211 124 363 363 363c66 0 129 -11 187 -29l-20 -83c-55 21 -115 33 -176 33c-182 0 -256 -128 -256 -270c0 -168 93 -264 250 -264c45 0 83 7 119 18v255h91zM540 776l-26 -52l-133 60l-135 -60
l-24 50l160 83z" />
    <glyph glyph-name="Gbreve" unicode="&#x11e;" horiz-adv-x="682" 
d="M601 344v-314c-67 -25 -149 -39 -223 -39c-211 0 -335 124 -335 330c0 211 124 363 363 363c66 0 129 -11 187 -29l-20 -83c-55 21 -115 33 -176 33c-182 0 -256 -128 -256 -270c0 -168 93 -264 250 -264c45 0 83 7 119 18v255h91zM457 852h59c0 -69 -48 -122 -131 -122
c-85 0 -128 55 -128 122h58c0 -34 29 -61 71 -61c44 0 71 27 71 61z" />
    <glyph glyph-name="Gdotaccent" unicode="&#x120;" horiz-adv-x="682" 
d="M601 344v-314c-67 -25 -149 -39 -223 -39c-211 0 -335 124 -335 330c0 211 124 363 363 363c66 0 129 -11 187 -29l-20 -83c-55 21 -115 33 -176 33c-182 0 -256 -128 -256 -270c0 -168 93 -264 250 -264c45 0 83 7 119 18v255h91zM437 788c0 -32 -26 -58 -58 -58
s-58 26 -58 58s26 58 58 58s58 -25 58 -58z" />
    <glyph glyph-name="Gcommaaccent" unicode="&#x122;" horiz-adv-x="682" 
d="M601 344v-314c-67 -25 -149 -39 -223 -39c-211 0 -335 124 -335 330c0 211 124 363 363 363c66 0 129 -11 187 -29l-20 -83c-55 21 -115 33 -176 33c-182 0 -256 -128 -256 -270c0 -168 93 -264 250 -264c45 0 83 7 119 18v255h91zM312 -240l-23 34c36 26 47 49 47 67
c0 21 -12 24 -12 44c0 24 17 46 47 46c31 0 51 -25 51 -57c0 -40 -27 -90 -110 -134z" />
    <glyph glyph-name="Gcaron" unicode="&#x1e6;" horiz-adv-x="682" 
d="M601 344v-314c-67 -25 -149 -39 -223 -39c-211 0 -335 124 -335 330c0 211 124 363 363 363c66 0 129 -11 187 -29l-20 -83c-55 21 -115 33 -176 33c-182 0 -256 -128 -256 -270c0 -168 93 -264 250 -264c45 0 83 7 119 18v255h91zM532 807l-161 -83l-157 82l25 51
l134 -60l135 60z" />
    <glyph glyph-name="uni1E20" unicode="&#x1e20;" horiz-adv-x="682" 
d="M601 344v-314c-67 -25 -149 -39 -223 -39c-211 0 -335 124 -335 330c0 211 124 363 363 363c66 0 129 -11 187 -29l-20 -83c-55 21 -115 33 -176 33c-182 0 -256 -128 -256 -270c0 -168 93 -264 250 -264c45 0 83 7 119 18v255h91zM521 748h-276v62h276v-62z" />
    <glyph glyph-name="G.alt1" horiz-adv-x="682" 
d="M601 371v-341c-67 -25 -149 -39 -223 -39c-211 0 -335 124 -335 330c0 211 124 363 363 363c63 0 126 -10 187 -29l-20 -83c-55 21 -115 33 -176 33c-182 0 -256 -128 -256 -270c0 -168 93 -264 250 -264c45 0 83 7 119 18v207h-171v75h262z" />
    <glyph glyph-name="Gcircumflex.alt1" horiz-adv-x="682" 
d="M601 371v-341c-67 -25 -149 -39 -223 -39c-211 0 -335 124 -335 330c0 211 124 363 363 363c63 0 126 -10 187 -29l-20 -83c-55 21 -115 33 -176 33c-182 0 -256 -128 -256 -270c0 -168 93 -264 250 -264c45 0 83 7 119 18v207h-171v75h262zM540 776l-26 -52l-133 60
l-135 -60l-24 50l160 83z" />
    <glyph glyph-name="Gbreve.alt1" horiz-adv-x="682" 
d="M601 371v-341c-67 -25 -149 -39 -223 -39c-211 0 -335 124 -335 330c0 211 124 363 363 363c63 0 126 -10 187 -29l-20 -83c-55 21 -115 33 -176 33c-182 0 -256 -128 -256 -270c0 -168 93 -264 250 -264c45 0 83 7 119 18v207h-171v75h262zM457 852h59
c0 -69 -48 -122 -131 -122c-85 0 -128 55 -128 122h58c0 -34 29 -61 71 -61c44 0 71 27 71 61z" />
    <glyph glyph-name="Gdotaccent.alt1" horiz-adv-x="682" 
d="M601 371v-341c-67 -25 -149 -39 -223 -39c-211 0 -335 124 -335 330c0 211 124 363 363 363c63 0 126 -10 187 -29l-20 -83c-55 21 -115 33 -176 33c-182 0 -256 -128 -256 -270c0 -168 93 -264 250 -264c45 0 83 7 119 18v207h-171v75h262zM444 785
c0 -32 -26 -58 -58 -58s-58 26 -58 58s26 58 58 58s58 -25 58 -58z" />
    <glyph glyph-name="Gcommaaccent.alt1" horiz-adv-x="682" 
d="M601 371v-341c-67 -25 -149 -39 -223 -39c-211 0 -335 124 -335 330c0 211 124 363 363 363c63 0 126 -10 187 -29l-20 -83c-55 21 -115 33 -176 33c-182 0 -256 -128 -256 -270c0 -168 93 -264 250 -264c45 0 83 7 119 18v207h-171v75h262zM312 -240l-23 34
c36 26 47 49 47 67c0 21 -12 24 -12 44c0 24 17 46 47 46c31 0 51 -25 51 -57c0 -40 -27 -90 -110 -134z" />
    <glyph glyph-name="Gcaron.alt1" horiz-adv-x="682" 
d="M601 371v-341c-67 -25 -149 -39 -223 -39c-211 0 -335 124 -335 330c0 211 124 363 363 363c63 0 126 -10 187 -29l-20 -83c-55 21 -115 33 -176 33c-182 0 -256 -128 -256 -270c0 -168 93 -264 250 -264c45 0 83 7 119 18v207h-171v75h262zM532 807l-161 -83l-157 82
l25 51l134 -60l135 60z" />
    <glyph glyph-name="uni1E20.alt1" horiz-adv-x="682" 
d="M601 371v-341c-67 -25 -149 -39 -223 -39c-211 0 -335 124 -335 330c0 211 124 363 363 363c63 0 126 -10 187 -29l-20 -83c-55 21 -115 33 -176 33c-182 0 -256 -128 -256 -270c0 -168 93 -264 250 -264c45 0 83 7 119 18v207h-171v75h262zM521 748h-276v62h276v-62z
" />
    <glyph glyph-name="H" unicode="H" horiz-adv-x="698" 
d="M613 0h-92v311h-344v-311h-92v675h92v-286h344v286h92v-675z" />
    <glyph glyph-name="Hcircumflex" unicode="&#x124;" horiz-adv-x="698" 
d="M613 0h-92v311h-344v-311h-92v675h92v-286h344v286h92v-675zM509 776l-26 -52l-133 60l-135 -60l-24 50l160 83z" />
    <glyph glyph-name="uni1E24" unicode="&#x1e24;" horiz-adv-x="698" 
d="M613 0h-92v311h-344v-311h-92v675h92v-286h344v286h92v-675zM406 -157c0 -32 -26 -58 -58 -58s-58 26 -58 58c0 33 26 58 58 58s58 -26 58 -58z" />
    <glyph glyph-name="Hbar" unicode="&#x126;" horiz-adv-x="718" 
d="M623 568h75v-74h-75v-494h-92v303h-344v-303h-92v494h-76v74h76v107h92v-107h344v107h92v-107zM531 494h-344v-117h344v117z" />
    <glyph glyph-name="I" unicode="I" horiz-adv-x="262" 
d="M177 0h-92v675h92v-675z" />
    <glyph glyph-name="Igrave" unicode="&#xcc;" horiz-adv-x="262" 
d="M177 0h-92v675h92v-675zM195 777l-17 -52l-190 56l26 70z" />
    <glyph glyph-name="Iacute" unicode="&#xcd;" horiz-adv-x="262" 
d="M177 0h-92v675h92v-675zM275 781l-190 -56l-17 52l182 74z" />
    <glyph glyph-name="Icircumflex" unicode="&#xce;" horiz-adv-x="262" 
d="M177 0h-92v675h92v-675zM290 776l-26 -52l-133 60l-135 -60l-24 50l160 83z" />
    <glyph glyph-name="Itilde" unicode="&#x128;" horiz-adv-x="262" 
d="M177 0h-92v675h92v-675zM262 841l46 -33c-27 -47 -65 -73 -112 -73c-68 0 -89 52 -132 52c-23 0 -45 -15 -63 -45l-46 33c26 47 65 74 112 74c68 0 89 -52 132 -52c24 0 45 15 63 44z" />
    <glyph glyph-name="Idieresis" unicode="&#xcf;" horiz-adv-x="262" 
d="M177 0h-92v675h92v-675zM283 782c0 -30 -24 -54 -54 -54s-54 24 -54 54s24 54 54 54s54 -24 54 -54zM87 782c0 -30 -24 -54 -54 -54s-54 24 -54 54s24 54 54 54s54 -24 54 -54z" />
    <glyph glyph-name="Imacron" unicode="&#x12a;" horiz-adv-x="262" 
d="M177 0h-92v675h92v-675zM270 748h-276v62h276v-62z" />
    <glyph glyph-name="Ibreve" unicode="&#x12c;" horiz-adv-x="262" 
d="M177 0h-92v675h92v-675zM202 852h59c0 -69 -48 -122 -131 -122c-85 0 -128 55 -128 122h58c0 -34 29 -61 71 -61c44 0 71 27 71 61z" />
    <glyph glyph-name="Idotaccent" unicode="&#x130;" horiz-adv-x="262" 
d="M177 0h-92v675h92v-675zM189 785c0 -32 -26 -58 -58 -58s-58 26 -58 58s26 58 58 58s58 -25 58 -58z" />
    <glyph glyph-name="Iogonek" unicode="&#x12e;" horiz-adv-x="262" 
d="M207 -139l28 -51c-32 -29 -71 -44 -112 -44c-68 0 -108 35 -108 91c0 50 26 96 70 145v673h92v-675c-59 -50 -76 -94 -76 -125c0 -26 15 -40 40 -40c22 0 43 9 66 26z" />
    <glyph glyph-name="uni01CF" unicode="&#x1cf;" horiz-adv-x="262" 
d="M177 0h-92v675h92v-675zM291 807l-161 -83l-157 82l25 51l134 -60l135 60z" />
    <glyph glyph-name="uni1EC8" unicode="&#x1ec8;" horiz-adv-x="262" 
d="M177 0h-92v675h92v-675zM121 725l-12 47c13 4 54 21 54 50c0 23 -19 34 -52 34c-25 0 -54 -7 -75 -16l-16 51c28 11 69 23 112 23c65 0 105 -27 105 -77c0 -71 -84 -104 -116 -112z" />
    <glyph glyph-name="uni1ECA" unicode="&#x1eca;" horiz-adv-x="262" 
d="M177 0h-92v675h92v-675zM189 -157c0 -32 -26 -58 -58 -58s-58 26 -58 58c0 33 26 58 58 58s58 -26 58 -58z" />
    <glyph glyph-name="I.barred" horiz-adv-x="376" 
d="M334 0h-292v77h100v522h-100v76h292v-76h-100v-522h100v-77z" />
    <glyph glyph-name="Igrave.barred" horiz-adv-x="376" 
d="M334 0h-292v77h100v522h-100v76h292v-76h-100v-522h100v-77zM257 777l-17 -52l-190 56l26 70z" />
    <glyph glyph-name="Iacute.barred" horiz-adv-x="376" 
d="M334 0h-292v77h100v522h-100v76h292v-76h-100v-522h100v-77zM326 781l-190 -56l-17 52l182 74z" />
    <glyph glyph-name="Icircumflex.barred" horiz-adv-x="376" 
d="M334 0h-292v77h100v522h-100v76h292v-76h-100v-522h100v-77zM347 776l-26 -52l-133 60l-135 -60l-24 50l160 83z" />
    <glyph glyph-name="Itilde.barred" horiz-adv-x="376" 
d="M334 0h-292v77h100v522h-100v76h292v-76h-100v-522h100v-77zM319 841l46 -33c-27 -47 -65 -73 -112 -73c-68 0 -89 52 -132 52c-23 0 -45 -15 -63 -45l-46 33c26 47 65 74 112 74c68 0 89 -52 132 -52c24 0 45 15 63 44z" />
    <glyph glyph-name="Idieresis.barred" horiz-adv-x="376" 
d="M334 0h-292v77h100v522h-100v76h292v-76h-100v-522h100v-77zM348 782c0 -30 -24 -54 -54 -54s-53 24 -53 54s23 54 53 54s54 -24 54 -54zM135 782c0 -30 -24 -54 -54 -54s-54 24 -54 54s24 54 54 54s54 -24 54 -54z" />
    <glyph glyph-name="Imacron.barred" horiz-adv-x="376" 
d="M334 0h-292v77h100v522h-100v76h292v-76h-100v-522h100v-77zM326 748h-276v62h276v-62z" />
    <glyph glyph-name="Ibreve.barred" horiz-adv-x="376" 
d="M334 0h-292v77h100v522h-100v76h292v-76h-100v-522h100v-77zM259 852h59c0 -69 -48 -122 -131 -122c-85 0 -128 55 -128 122h58c0 -34 29 -61 71 -61c44 0 71 27 71 61z" />
    <glyph glyph-name="Idotaccent.barred" horiz-adv-x="376" 
d="M334 0h-292v77h100v522h-100v76h292v-76h-100v-522h100v-77zM246 785c0 -32 -26 -58 -58 -58s-58 26 -58 58s26 58 58 58s58 -25 58 -58z" />
    <glyph glyph-name="Iogonek.barred" horiz-adv-x="376" 
d="M332 -139l28 -51c-32 -29 -71 -44 -113 -44c-67 0 -107 36 -107 90c0 56 38 114 86 144h-184v77h100v522h-100v76h292v-76h-100v-522h100v-74c-62 -22 -108 -82 -108 -128c0 -26 15 -40 40 -40c22 0 43 9 66 26z" />
    <glyph glyph-name="uni01CF.barred" horiz-adv-x="376" 
d="M334 0h-292v77h100v522h-100v76h292v-76h-100v-522h100v-77zM348 807l-161 -83l-157 82l25 51l134 -60l135 60z" />
    <glyph glyph-name="uni1EC8.barred" horiz-adv-x="376" 
d="M334 0h-292v77h100v522h-100v76h292v-76h-100v-522h100v-77zM180 725l-12 47c13 4 54 21 54 50c0 23 -19 34 -52 34c-25 0 -54 -7 -75 -16l-16 51c28 11 69 23 112 23c65 0 105 -27 105 -77c0 -71 -84 -104 -116 -112z" />
    <glyph glyph-name="uni1ECA.barred" horiz-adv-x="376" 
d="M334 0h-292v77h100v522h-100v76h292v-76h-100v-522h100v-77zM246 -157c0 -32 -26 -58 -58 -58s-58 26 -58 58c0 33 26 58 58 58s58 -26 58 -58z" />
    <glyph glyph-name="IJ" unicode="&#x132;" horiz-adv-x="598" 
d="M177 0h-92v675h92v-675zM514 675v-497c0 -114 -54 -185 -178 -185c-28 0 -61 3 -82 8v80c18 -6 53 -11 77 -11c55 0 91 23 91 112v493h92z" />
    <glyph glyph-name="IJ.alt1" horiz-adv-x="543" 
d="M177 0h-92v675h92v-675zM320 -192l-42 58c69 40 88 73 88 159v650h92v-645c0 -109 -29 -165 -138 -222z" />
    <glyph glyph-name="IJ.barred" horiz-adv-x="744" 
d="M334 0h-292v77h100v522h-100v76h292v-76h-100v-522h100v-77zM659 675v-497c0 -114 -54 -185 -178 -185c-28 0 -61 3 -82 8v80c18 -6 53 -11 78 -11c54 0 91 23 91 112v417h-155v76h246z" />
    <glyph glyph-name="J" unicode="J" horiz-adv-x="346" 
d="M261 675v-497c0 -114 -54 -185 -178 -185c-28 0 -61 3 -82 8v80c18 -6 53 -11 77 -11c55 0 91 23 91 112v493h92z" />
    <glyph glyph-name="Jcircumflex" unicode="&#x134;" horiz-adv-x="346" 
d="M261 675v-497c0 -114 -54 -185 -178 -185c-28 0 -61 3 -82 8v80c18 -6 53 -11 77 -11c55 0 91 23 91 112v493h92zM372 776l-26 -52l-133 60l-135 -60l-24 50l160 83z" />
    <glyph glyph-name="J.alt1" horiz-adv-x="262" 
d="M39 -192l-42 58c69 40 88 73 88 159v650h92v-645c0 -109 -29 -165 -138 -222z" />
    <glyph glyph-name="Jcircumflex.alt1" horiz-adv-x="262" 
d="M39 -192l-42 58c69 40 88 73 88 159v650h92v-645c0 -109 -29 -165 -138 -222zM291 776l-26 -52l-133 60l-135 -60l-24 50l160 83z" />
    <glyph glyph-name="J.barred" horiz-adv-x="388" 
d="M303 675v-497c0 -114 -54 -185 -178 -185c-28 0 -61 3 -82 8v80c18 -6 53 -11 78 -11c54 0 91 23 91 112v417h-155v76h246z" />
    <glyph glyph-name="Jcircumflex.barred" horiz-adv-x="388" 
d="M303 675v-497c0 -114 -54 -185 -178 -185c-28 0 -61 3 -82 8v80c18 -6 53 -11 78 -11c54 0 91 23 91 112v417h-155v76h246zM348 776l-26 -52l-133 60l-135 -60l-24 50l160 83z" />
    <glyph glyph-name="K" unicode="K" horiz-adv-x="584" 
d="M569 0h-125l-267 334v-334h-92v675h92v-318l268 318h112l-285 -325z" />
    <glyph glyph-name="Kcommaaccent" unicode="&#x136;" horiz-adv-x="584" 
d="M569 0h-125l-267 334v-334h-92v675h92v-318l268 318h112l-285 -325zM239 -240l-23 34c36 26 47 49 47 67c0 21 -12 24 -12 44c0 24 17 46 47 46c31 0 51 -25 51 -57c0 -40 -27 -90 -110 -134z" />
    <glyph glyph-name="uni01E8" unicode="&#x1e8;" horiz-adv-x="584" 
d="M569 0h-125l-267 334v-334h-92v675h92v-318l268 318h112l-285 -325zM464 807l-161 -83l-157 82l25 51l134 -60l135 60z" />
    <glyph glyph-name="uni1E32" unicode="&#x1e32;" horiz-adv-x="584" 
d="M569 0h-125l-267 334v-334h-92v675h92v-318l268 318h112l-285 -325zM357 -157c0 -32 -26 -58 -58 -58s-58 26 -58 58c0 33 26 58 58 58s58 -26 58 -58z" />
    <glyph glyph-name="uni1E34" unicode="&#x1e34;" horiz-adv-x="584" 
d="M190 -187v68h266v-68h-266zM569 0h-125l-267 334v-334h-92v675h92v-318l268 318h112l-285 -325z" />
    <glyph glyph-name="L" unicode="L" horiz-adv-x="426" 
d="M419 0h-334v675h92v-597h242v-78z" />
    <glyph glyph-name="Lacute" unicode="&#x139;" horiz-adv-x="426" 
d="M419 0h-334v675h92v-597h242v-78zM340 781l-190 -56l-17 52l182 74z" />
    <glyph glyph-name="Lcaron" unicode="&#x13d;" horiz-adv-x="429" 
d="M419 0h-334v675h92v-597h242v-78zM376 742l-70 -177l-60 16l55 181z" />
    <glyph glyph-name="Lcommaaccent" unicode="&#x13b;" horiz-adv-x="426" 
d="M419 0h-334v675h92v-597h242v-78zM197 -240l-23 34c36 26 47 49 47 67c0 21 -12 24 -12 44c0 24 17 46 47 46c31 0 51 -25 51 -57c0 -40 -27 -90 -110 -134z" />
    <glyph glyph-name="uni1E36" unicode="&#x1e36;" horiz-adv-x="426" 
d="M419 0h-334v675h92v-597h242v-78zM307 -157c0 -32 -26 -58 -58 -58s-58 26 -58 58c0 33 26 58 58 58s58 -26 58 -58z" />
    <glyph glyph-name="uni1E38" unicode="&#x1e38;" horiz-adv-x="426" 
d="M419 0h-334v675h92v-597h242v-78zM373 748h-276v62h276v-62zM304 -157c0 -32 -26 -58 -58 -58s-58 26 -58 58c0 33 26 58 58 58s58 -26 58 -58z" />
    <glyph glyph-name="Lslash" unicode="&#x141;" horiz-adv-x="435" 
d="M427 0h-333v349l-78 -36l-20 69l98 45v248h91v-205l112 50l19 -69l-131 -59v-314h242v-78z" />
    <glyph glyph-name="Ldot" unicode="&#x13f;" horiz-adv-x="553" 
d="M419 0h-334v675h92v-597h242v-78zM491 347c0 -35 -28 -64 -64 -64s-64 29 -64 64c0 36 28 65 64 65s64 -29 64 -65z" />
    <glyph glyph-name="M" unicode="M" horiz-adv-x="894" 
d="M847 0h-95l-53 394c-10 80 -17 148 -19 196h-2c-9 -40 -23 -88 -41 -144l-156 -446h-84l-148 423c-18 53 -39 120 -50 167h-1c-2 -57 -8 -126 -16 -200l-44 -390h-91l87 675h126l150 -426c12 -37 25 -80 33 -121h1c9 41 20 84 32 121l150 426h130z" />
    <glyph glyph-name="uni1E40" unicode="&#x1e40;" horiz-adv-x="894" 
d="M847 0h-95l-53 394c-10 80 -17 148 -19 196h-2c-9 -40 -23 -88 -41 -144l-156 -446h-84l-148 423c-18 53 -39 120 -50 167h-1c-2 -57 -8 -126 -16 -200l-44 -390h-91l87 675h126l150 -426c12 -37 25 -80 33 -121h1c9 41 20 84 32 121l150 426h130zM504 785
c0 -32 -26 -58 -58 -58s-58 26 -58 58s26 58 58 58s58 -25 58 -58z" />
    <glyph glyph-name="uni1E42" unicode="&#x1e42;" horiz-adv-x="894" 
d="M847 0h-95l-53 394c-10 80 -17 148 -19 196h-2c-9 -40 -23 -88 -41 -144l-156 -446h-84l-148 423c-18 53 -39 120 -50 167h-1c-2 -57 -8 -126 -16 -200l-44 -390h-91l87 675h126l150 -426c12 -37 25 -80 33 -121h1c9 41 20 84 32 121l150 426h130zM503 -157
c0 -32 -26 -58 -58 -58s-58 26 -58 58c0 33 26 58 58 58s58 -26 58 -58z" />
    <glyph glyph-name="N" unicode="N" horiz-adv-x="693" 
d="M608 0h-95l-250 395c-49 77 -74 122 -95 166h-2c4 -76 9 -252 9 -372v-189h-90v675h113l235 -372c52 -81 73 -121 92 -161h2c-5 87 -9 238 -9 363v170h90v-675z" />
    <glyph glyph-name="Nacute" unicode="&#x143;" horiz-adv-x="693" 
d="M608 0h-95l-250 395c-49 77 -74 122 -95 166h-2c4 -76 9 -252 9 -372v-189h-90v675h113l235 -372c52 -81 73 -121 92 -161h2c-5 87 -9 238 -9 363v170h90v-675zM516 781l-190 -56l-17 52l182 74z" />
    <glyph glyph-name="Ncaron" unicode="&#x147;" horiz-adv-x="693" 
d="M608 0h-95l-250 395c-49 77 -74 122 -95 166h-2c4 -76 9 -252 9 -372v-189h-90v675h113l235 -372c52 -81 73 -121 92 -161h2c-5 87 -9 238 -9 363v170h90v-675zM512 807l-161 -83l-157 82l25 51l134 -60l135 60z" />
    <glyph glyph-name="Ntilde" unicode="&#xd1;" horiz-adv-x="693" 
d="M608 0h-95l-250 395c-49 77 -74 122 -95 166h-2c4 -76 9 -252 9 -372v-189h-90v675h113l235 -372c52 -81 73 -121 92 -161h2c-5 87 -9 238 -9 363v170h90v-675zM482 841l46 -33c-27 -47 -65 -73 -112 -73c-68 0 -89 52 -132 52c-23 0 -45 -15 -63 -45l-46 33
c26 47 65 74 112 74c68 0 89 -52 132 -52c24 0 45 15 63 44z" />
    <glyph glyph-name="uni1E44" unicode="&#x1e44;" horiz-adv-x="693" 
d="M608 0h-95l-250 395c-49 77 -74 122 -95 166h-2c4 -76 9 -252 9 -372v-189h-90v675h113l235 -372c52 -81 73 -121 92 -161h2c-5 87 -9 238 -9 363v170h90v-675zM412 785c0 -32 -26 -58 -58 -58s-58 26 -58 58s26 58 58 58s58 -25 58 -58z" />
    <glyph glyph-name="uni1E46" unicode="&#x1e46;" horiz-adv-x="693" 
d="M608 0h-95l-250 395c-49 77 -74 122 -95 166h-2c4 -76 9 -252 9 -372v-189h-90v675h113l235 -372c52 -81 73 -121 92 -161h2c-5 87 -9 238 -9 363v170h90v-675zM411 -157c0 -32 -26 -58 -58 -58s-58 26 -58 58c0 33 26 58 58 58s58 -26 58 -58z" />
    <glyph glyph-name="Ncommaaccent" unicode="&#x145;" horiz-adv-x="693" 
d="M608 0h-95l-250 395c-49 77 -74 122 -95 166h-2c4 -76 9 -252 9 -372v-189h-90v675h113l235 -372c52 -81 73 -121 92 -161h2c-5 87 -9 238 -9 363v170h90v-675zM290 -240l-23 34c36 26 47 49 47 67c0 21 -12 24 -12 44c0 24 17 46 47 46c31 0 51 -25 51 -57
c0 -40 -27 -90 -110 -134z" />
    <glyph glyph-name="Eng" unicode="&#x14a;" horiz-adv-x="693" 
d="M608 675v-670c0 -180 -71 -237 -194 -261l-19 72c78 15 123 49 123 172l-278 442c-29 45 -52 87 -73 129c5 -71 8 -256 8 -371v-188h-90v675h110l269 -423c23 -36 44 -75 62 -111c-4 84 -8 245 -8 362v172h90z" />
    <glyph glyph-name="O" unicode="O" horiz-adv-x="709" 
d="M667 347c0 -231 -147 -357 -321 -357c-196 0 -303 131 -303 338c0 231 147 357 321 357c196 0 303 -131 303 -338zM570 333c0 162 -72 271 -215 271c-121 0 -215 -92 -215 -262c0 -162 72 -271 215 -271c121 0 215 92 215 262z" />
    <glyph glyph-name="Ograve" unicode="&#xd2;" horiz-adv-x="709" 
d="M667 347c0 -231 -147 -357 -321 -357c-196 0 -303 131 -303 338c0 231 147 357 321 357c196 0 303 -131 303 -338zM570 333c0 162 -72 271 -215 271c-121 0 -215 -92 -215 -262c0 -162 72 -271 215 -271c121 0 215 92 215 262zM414 777l-17 -52l-190 56l26 70z" />
    <glyph glyph-name="Oacute" unicode="&#xd3;" horiz-adv-x="709" 
d="M667 347c0 -231 -147 -357 -321 -357c-196 0 -303 131 -303 338c0 231 147 357 321 357c196 0 303 -131 303 -338zM570 333c0 162 -72 271 -215 271c-121 0 -215 -92 -215 -262c0 -162 72 -271 215 -271c121 0 215 92 215 262zM508 781l-190 -56l-17 52l182 74z" />
    <glyph glyph-name="Ocircumflex" unicode="&#xd4;" horiz-adv-x="709" 
d="M667 347c0 -231 -147 -357 -321 -357c-196 0 -303 131 -303 338c0 231 147 357 321 357c196 0 303 -131 303 -338zM570 333c0 162 -72 271 -215 271c-121 0 -215 -92 -215 -262c0 -162 72 -271 215 -271c121 0 215 92 215 262zM520 776l-26 -52l-133 60l-135 -60l-24 50
l160 83z" />
    <glyph glyph-name="Otilde" unicode="&#xd5;" horiz-adv-x="709" 
d="M667 347c0 -231 -147 -357 -321 -357c-196 0 -303 131 -303 338c0 231 147 357 321 357c196 0 303 -131 303 -338zM570 333c0 162 -72 271 -215 271c-121 0 -215 -92 -215 -262c0 -162 72 -271 215 -271c121 0 215 92 215 262zM485 841l46 -33c-27 -47 -65 -73 -112 -73
c-68 0 -89 52 -132 52c-23 0 -45 -15 -63 -45l-46 33c26 47 65 74 112 74c68 0 89 -52 132 -52c24 0 45 15 63 44z" />
    <glyph glyph-name="Odieresis" unicode="&#xd6;" horiz-adv-x="709" 
d="M667 347c0 -231 -147 -357 -321 -357c-196 0 -303 131 -303 338c0 231 147 357 321 357c196 0 303 -131 303 -338zM570 333c0 162 -72 271 -215 271c-121 0 -215 -92 -215 -262c0 -162 72 -271 215 -271c121 0 215 92 215 262zM518 782c0 -30 -24 -54 -54 -54
s-53 24 -53 54s23 54 53 54s54 -24 54 -54zM305 782c0 -30 -24 -54 -54 -54s-54 24 -54 54s24 54 54 54s54 -24 54 -54z" />
    <glyph glyph-name="Omacron" unicode="&#x14c;" horiz-adv-x="709" 
d="M667 347c0 -231 -147 -357 -321 -357c-196 0 -303 131 -303 338c0 231 147 357 321 357c196 0 303 -131 303 -338zM570 333c0 162 -72 271 -215 271c-121 0 -215 -92 -215 -262c0 -162 72 -271 215 -271c121 0 215 92 215 262zM494 748h-276v62h276v-62z" />
    <glyph glyph-name="Obreve" unicode="&#x14e;" horiz-adv-x="709" 
d="M667 347c0 -231 -147 -357 -321 -357c-196 0 -303 131 -303 338c0 231 147 357 321 357c196 0 303 -131 303 -338zM570 333c0 162 -72 271 -215 271c-121 0 -215 -92 -215 -262c0 -162 72 -271 215 -271c121 0 215 92 215 262zM426 852h59c0 -69 -48 -122 -131 -122
c-85 0 -128 55 -128 122h58c0 -34 29 -61 71 -61c44 0 71 27 71 61z" />
    <glyph glyph-name="Ohungarumlaut" unicode="&#x150;" horiz-adv-x="709" 
d="M667 347c0 -231 -147 -357 -321 -357c-196 0 -303 131 -303 338c0 231 147 357 321 357c196 0 303 -131 303 -338zM570 333c0 162 -72 271 -215 271c-121 0 -215 -92 -215 -262c0 -162 72 -271 215 -271c121 0 215 92 215 262zM592 838l-141 -114l-42 40l131 127z
M400 844l-124 -120l-44 40l113 130z" />
    <glyph glyph-name="Ohorn" unicode="&#x1a0;" horiz-adv-x="709" 
d="M604 821l78 20c12 -27 20 -65 20 -96c0 -80 -47 -134 -129 -137c61 -58 94 -149 94 -261c0 -231 -147 -357 -321 -357c-196 0 -303 131 -303 338c0 231 147 357 321 357c93 0 114 -26 177 -26c54 0 83 32 83 78c0 27 -8 59 -20 84zM570 333c0 162 -72 271 -215 271
c-121 0 -215 -92 -215 -262c0 -162 72 -271 215 -271c121 0 215 92 215 262z" />
    <glyph glyph-name="uni01D1" unicode="&#x1d1;" horiz-adv-x="709" 
d="M667 347c0 -231 -147 -357 -321 -357c-196 0 -303 131 -303 338c0 231 147 357 321 357c196 0 303 -131 303 -338zM570 333c0 162 -72 271 -215 271c-121 0 -215 -92 -215 -262c0 -162 72 -271 215 -271c121 0 215 92 215 262zM514 807l-161 -83l-157 82l25 51l134 -60
l135 60z" />
    <glyph glyph-name="uni1ECC" unicode="&#x1ecc;" horiz-adv-x="709" 
d="M667 347c0 -231 -147 -357 -321 -357c-196 0 -303 131 -303 338c0 231 147 357 321 357c196 0 303 -131 303 -338zM570 333c0 162 -72 271 -215 271c-121 0 -215 -92 -215 -262c0 -162 72 -271 215 -271c121 0 215 92 215 262zM412 -160c0 -32 -26 -58 -58 -58
s-58 26 -58 58c0 33 26 58 58 58s58 -26 58 -58z" />
    <glyph glyph-name="uni1ECE" unicode="&#x1ece;" horiz-adv-x="709" 
d="M667 347c0 -231 -147 -357 -321 -357c-196 0 -303 131 -303 338c0 231 147 357 321 357c196 0 303 -131 303 -338zM570 333c0 162 -72 271 -215 271c-121 0 -215 -92 -215 -262c0 -162 72 -271 215 -271c121 0 215 92 215 262zM368 725l-12 47c13 4 54 21 54 50
c0 23 -19 34 -52 34c-25 0 -54 -7 -75 -16l-16 51c28 11 69 23 112 23c65 0 105 -27 105 -77c0 -71 -84 -104 -116 -112z" />
    <glyph glyph-name="uni1ED0" unicode="&#x1ed0;" horiz-adv-x="709" 
d="M667 347c0 -231 -147 -357 -321 -357c-196 0 -303 131 -303 338c0 231 147 357 321 357c196 0 303 -131 303 -338zM570 333c0 162 -72 271 -215 271c-121 0 -215 -92 -215 -262c0 -162 72 -271 215 -271c121 0 215 92 215 262zM455 919l-176 -57l-17 44l167 74zM514 770
l-24 -49l-135 59l-128 -59l-22 46l154 81z" />
    <glyph glyph-name="uni1ED2" unicode="&#x1ed2;" horiz-adv-x="709" 
d="M667 347c0 -231 -147 -357 -321 -357c-196 0 -303 131 -303 338c0 231 147 357 321 357c196 0 303 -131 303 -338zM570 333c0 162 -72 271 -215 271c-121 0 -215 -92 -215 -262c0 -162 72 -271 215 -271c121 0 215 92 215 262zM514 770l-24 -49l-135 59l-128 -59l-22 46
l154 81zM445 908l-16 -44l-176 55l25 61z" />
    <glyph glyph-name="uni1ED4" unicode="&#x1ed4;" horiz-adv-x="709" 
d="M667 347c0 -231 -147 -357 -321 -357c-196 0 -303 131 -303 338c0 231 147 357 321 357c196 0 303 -131 303 -338zM570 333c0 162 -72 271 -215 271c-121 0 -215 -92 -215 -262c0 -162 72 -271 215 -271c121 0 215 92 215 262zM428 826l-48 24c13 6 39 23 39 43
c0 23 -22 34 -55 34c-29 0 -64 -11 -73 -15l-12 47c15 7 57 21 105 21c62 0 103 -26 103 -73c0 -46 -40 -73 -59 -81zM514 756l-24 -49l-135 58l-128 -58l-22 46l154 81z" />
    <glyph glyph-name="uni1ED6" unicode="&#x1ed6;" horiz-adv-x="709" 
d="M667 347c0 -231 -147 -357 -321 -357c-196 0 -303 131 -303 338c0 231 147 357 321 357c196 0 303 -131 303 -338zM570 333c0 162 -72 271 -215 271c-121 0 -215 -92 -215 -262c0 -162 72 -271 215 -271c121 0 215 92 215 262zM514 770l-24 -49l-135 59l-128 -59l-22 46
l154 81zM470 973l45 -28c-20 -43 -58 -70 -95 -70c-53 0 -64 49 -97 49c-17 0 -32 -13 -47 -42l-45 27c20 44 58 71 94 71c53 0 65 -49 98 -49c17 0 32 13 47 42z" />
    <glyph glyph-name="uni1ED8" unicode="&#x1ed8;" horiz-adv-x="709" 
d="M667 347c0 -231 -147 -357 -321 -357c-196 0 -303 131 -303 338c0 231 147 357 321 357c196 0 303 -131 303 -338zM570 333c0 162 -72 271 -215 271c-121 0 -215 -92 -215 -262c0 -162 72 -271 215 -271c121 0 215 92 215 262zM412 -160c0 -32 -26 -58 -58 -58
s-58 26 -58 58c0 33 26 58 58 58s58 -26 58 -58zM519 776l-26 -52l-133 60l-135 -60l-24 50l160 83z" />
    <glyph glyph-name="uni1EDA" unicode="&#x1eda;" horiz-adv-x="709" 
d="M604 821l78 20c12 -27 20 -65 20 -96c0 -80 -47 -134 -129 -137c61 -58 94 -149 94 -261c0 -231 -147 -357 -321 -357c-196 0 -303 131 -303 338c0 231 147 357 321 357c93 0 114 -26 177 -26c54 0 83 32 83 78c0 27 -8 59 -20 84zM570 333c0 162 -72 271 -215 271
c-121 0 -215 -92 -215 -262c0 -162 72 -271 215 -271c121 0 215 92 215 262zM508 781l-190 -56l-17 52l182 74z" />
    <glyph glyph-name="uni1EDC" unicode="&#x1edc;" horiz-adv-x="709" 
d="M604 821l78 20c12 -27 20 -65 20 -96c0 -80 -47 -134 -129 -137c61 -58 94 -149 94 -261c0 -231 -147 -357 -321 -357c-196 0 -303 131 -303 338c0 231 147 357 321 357c93 0 114 -26 177 -26c54 0 83 32 83 78c0 27 -8 59 -20 84zM570 333c0 162 -72 271 -215 271
c-121 0 -215 -92 -215 -262c0 -162 72 -271 215 -271c121 0 215 92 215 262zM414 777l-17 -52l-190 56l26 70z" />
    <glyph glyph-name="uni1EDE" unicode="&#x1ede;" horiz-adv-x="709" 
d="M604 821l78 20c12 -27 20 -65 20 -96c0 -80 -47 -134 -129 -137c61 -58 94 -149 94 -261c0 -231 -147 -357 -321 -357c-196 0 -303 131 -303 338c0 231 147 357 321 357c93 0 114 -26 177 -26c54 0 83 32 83 78c0 27 -8 59 -20 84zM570 333c0 162 -72 271 -215 271
c-121 0 -215 -92 -215 -262c0 -162 72 -271 215 -271c121 0 215 92 215 262zM368 725l-12 47c13 4 54 21 54 50c0 23 -19 34 -52 34c-25 0 -54 -7 -75 -16l-16 51c28 11 69 23 112 23c65 0 105 -27 105 -77c0 -71 -84 -104 -116 -112z" />
    <glyph glyph-name="uni1EE0" unicode="&#x1ee0;" horiz-adv-x="709" 
d="M604 821l78 20c12 -27 20 -65 20 -96c0 -80 -47 -134 -129 -137c61 -58 94 -149 94 -261c0 -231 -147 -357 -321 -357c-196 0 -303 131 -303 338c0 231 147 357 321 357c93 0 114 -26 177 -26c54 0 83 32 83 78c0 27 -8 59 -20 84zM570 333c0 162 -72 271 -215 271
c-121 0 -215 -92 -215 -262c0 -162 72 -271 215 -271c121 0 215 92 215 262zM485 841l46 -33c-27 -47 -65 -73 -112 -73c-68 0 -89 52 -132 52c-23 0 -45 -15 -63 -45l-46 33c26 47 65 74 112 74c68 0 89 -52 132 -52c24 0 45 15 63 44z" />
    <glyph glyph-name="uni1EE2" unicode="&#x1ee2;" horiz-adv-x="709" 
d="M604 821l78 20c12 -27 20 -65 20 -96c0 -80 -47 -134 -129 -137c61 -58 94 -149 94 -261c0 -231 -147 -357 -321 -357c-196 0 -303 131 -303 338c0 231 147 357 321 357c93 0 114 -26 177 -26c54 0 83 32 83 78c0 27 -8 59 -20 84zM570 333c0 162 -72 271 -215 271
c-121 0 -215 -92 -215 -262c0 -162 72 -271 215 -271c121 0 215 92 215 262zM412 -160c0 -32 -26 -58 -58 -58s-58 26 -58 58c0 33 26 58 58 58s58 -26 58 -58z" />
    <glyph glyph-name="Oslash" unicode="&#xd8;" horiz-adv-x="709" 
d="M602 736l-54 -104c73 -53 119 -147 119 -285c0 -231 -147 -357 -321 -357c-45 0 -85 8 -119 22l-54 -104l-66 31l54 104c-72 53 -118 147 -118 285c0 231 147 357 321 357c44 0 84 -8 119 -22l54 104zM504 548l-238 -459c24 -12 56 -20 89 -20c123 0 217 92 217 264
c0 108 -33 177 -68 215zM206 127l238 459c-25 13 -57 20 -89 20c-123 0 -218 -92 -218 -264c0 -108 34 -177 69 -215z" />
    <glyph glyph-name="Oslashacute" unicode="&#x1fe;" horiz-adv-x="709" 
d="M602 736l-54 -104c73 -53 119 -147 119 -285c0 -231 -147 -357 -321 -357c-45 0 -85 8 -119 22l-54 -104l-66 31l54 104c-72 53 -118 147 -118 285c0 231 147 357 321 357c44 0 84 -8 119 -22l54 104zM504 548l-238 -459c24 -12 56 -20 89 -20c123 0 217 92 217 264
c0 108 -33 177 -68 215zM206 127l238 459c-25 13 -57 20 -89 20c-123 0 -218 -92 -218 -264c0 -108 34 -177 69 -215zM480 821l-190 -56l-17 52l182 74z" />
    <glyph glyph-name="OE" unicode="&#x152;" horiz-adv-x="874" 
d="M805 0h-340c-37 -6 -82 -10 -119 -10c-196 0 -303 131 -303 338c0 231 147 357 321 357c35 0 77 -4 109 -10h332v-76h-256v-214h243v-74h-243v-234h256v-77zM457 83v508c-29 8 -67 13 -102 13c-121 0 -215 -92 -215 -262c0 -162 72 -271 215 -271c30 0 73 5 102 12z" />
    <glyph glyph-name="P" unicode="P" horiz-adv-x="550" 
d="M177 0h-92v675s96 4 177 4c176 0 256 -94 256 -210c0 -136 -102 -238 -270 -238c-35 0 -71 3 -71 3v-234zM177 602v-290s39 -6 78 -6c112 0 168 65 168 150c0 87 -53 148 -172 148c-35 0 -74 -2 -74 -2z" />
    <glyph glyph-name="uni1E56" unicode="&#x1e56;" horiz-adv-x="550" 
d="M177 0h-92v675s96 4 177 4c176 0 256 -94 256 -210c0 -136 -102 -238 -270 -238c-35 0 -71 3 -71 3v-234zM177 602v-290s39 -6 78 -6c112 0 168 65 168 150c0 87 -53 148 -172 148c-35 0 -74 -2 -74 -2zM325 785c0 -32 -26 -58 -58 -58s-58 26 -58 58s26 58 58 58
s58 -25 58 -58z" />
    <glyph glyph-name="Thorn" unicode="&#xde;" horiz-adv-x="537" 
d="M177 0h-92v675h92v-98s40 2 85 2c176 0 256 -93 256 -210c0 -135 -102 -238 -270 -238c-35 0 -71 3 -71 3v-134zM177 500v-289s39 -5 78 -5c112 0 168 66 168 151c0 86 -53 147 -172 147c-35 0 -74 -4 -74 -4z" />
    <glyph glyph-name="Q" unicode="Q" horiz-adv-x="709" 
d="M707 12v-79c-170 -21 -193 57 -336 57h-25c-196 0 -303 131 -303 338c0 231 147 357 321 357c196 0 303 -131 303 -338c0 -147 -62 -264 -163 -306c64 0 96 -41 203 -29zM570 333c0 162 -72 271 -215 271c-121 0 -215 -92 -215 -262c0 -162 72 -271 215 -271
c121 0 215 92 215 262z" />
    <glyph glyph-name="Q.alt0" horiz-adv-x="709" 
d="M707 -103v-82c-173 -25 -242 51 -383 31v82c162 20 225 -53 383 -31zM667 347c0 -231 -147 -357 -321 -357c-196 0 -303 131 -303 338c0 231 147 357 321 357c196 0 303 -131 303 -338zM570 333c0 162 -72 271 -215 271c-121 0 -215 -92 -215 -262
c0 -162 72 -271 215 -271c121 0 215 92 215 262z" />
    <glyph glyph-name="Q.alt1" horiz-adv-x="709" 
d="M631 -95l-120 131c-48 -30 -105 -46 -165 -46c-196 0 -303 131 -303 338c0 231 147 357 321 357c196 0 303 -131 303 -338c0 -112 -34 -198 -89 -258l118 -128zM438 243l80 -87c32 42 52 102 52 177c0 162 -72 271 -215 271c-121 0 -215 -92 -215 -262
c0 -162 72 -271 215 -271c36 0 70 10 98 30l-79 87z" />
    <glyph glyph-name="Q.alt2" horiz-adv-x="709" 
d="M570 333c0 162 -72 271 -215 271c-121 0 -215 -92 -215 -262c0 -162 72 -271 215 -271c121 0 215 92 215 262zM700 -27l-64 -58l-118 124c-51 -32 -110 -49 -172 -49c-196 0 -303 131 -303 338c0 231 147 357 321 357c196 0 303 -131 303 -338c0 -108 -33 -193 -85 -252z
" />
    <glyph glyph-name="R" unicode="R" horiz-adv-x="567" 
d="M544 0h-114l-204 292h-49v-292h-92v674s89 5 176 5c141 0 237 -55 237 -184c0 -117 -81 -177 -177 -191c0 0 29 -35 55 -72zM177 602v-240s38 -1 72 -1c98 0 153 46 153 123s-52 120 -149 120c-37 0 -76 -2 -76 -2z" />
    <glyph glyph-name="Racute" unicode="&#x154;" horiz-adv-x="567" 
d="M544 0h-114l-204 292h-49v-292h-92v674s89 5 176 5c141 0 237 -55 237 -184c0 -117 -81 -177 -177 -191c0 0 29 -35 55 -72zM177 602v-240s38 -1 72 -1c98 0 153 46 153 123s-52 120 -149 120c-37 0 -76 -2 -76 -2zM412 781l-190 -56l-17 52l182 74z" />
    <glyph glyph-name="Rcaron" unicode="&#x158;" horiz-adv-x="567" 
d="M544 0h-114l-204 292h-49v-292h-92v674s89 5 176 5c141 0 237 -55 237 -184c0 -117 -81 -177 -177 -191c0 0 29 -35 55 -72zM177 602v-240s38 -1 72 -1c98 0 153 46 153 123s-52 120 -149 120c-37 0 -76 -2 -76 -2zM420 807l-161 -83l-157 82l25 51l134 -60l135 60z" />
    <glyph glyph-name="uni1E5A" unicode="&#x1e5a;" horiz-adv-x="567" 
d="M544 0h-114l-204 292h-49v-292h-92v674s89 5 176 5c141 0 237 -55 237 -184c0 -117 -81 -177 -177 -191c0 0 29 -35 55 -72zM177 602v-240s38 -1 72 -1c98 0 153 46 153 123s-52 120 -149 120c-37 0 -76 -2 -76 -2zM334 -157c0 -32 -26 -58 -58 -58s-58 26 -58 58
c0 33 26 58 58 58s58 -26 58 -58z" />
    <glyph glyph-name="uni1E5C" unicode="&#x1e5c;" horiz-adv-x="567" 
d="M544 0h-114l-204 292h-49v-292h-92v674s89 5 176 5c141 0 237 -55 237 -184c0 -117 -81 -177 -177 -191c0 0 29 -35 55 -72zM177 602v-240s38 -1 72 -1c98 0 153 46 153 123s-52 120 -149 120c-37 0 -76 -2 -76 -2zM405 748h-276v62h276v-62zM334 -157
c0 -32 -26 -58 -58 -58s-58 26 -58 58c0 33 26 58 58 58s58 -26 58 -58z" />
    <glyph glyph-name="Rcommaaccent" unicode="&#x156;" horiz-adv-x="567" 
d="M544 0h-114l-204 292h-49v-292h-92v674s89 5 176 5c141 0 237 -55 237 -184c0 -117 -81 -177 -177 -191c0 0 29 -35 55 -72zM177 602v-240s38 -1 72 -1c98 0 153 46 153 123s-52 120 -149 120c-37 0 -76 -2 -76 -2zM228 -240l-23 34c36 26 47 49 47 67
c0 21 -12 24 -12 44c0 24 17 46 47 46c31 0 51 -25 51 -57c0 -40 -27 -90 -110 -134z" />
    <glyph glyph-name="R.swash" horiz-adv-x="557" 
d="M1188 -125l45 -63c-51 -48 -124 -72 -229 -72c-252 0 -483 171 -823 562h-4v-302h-92v675c46 3 95 4 169 4c133 0 229 -47 229 -176c0 -115 -90 -182 -201 -190c291 -323 523 -494 735 -494c79 0 133 20 171 56zM177 602v-230c10 -1 30 -2 57 -2c97 0 153 49 153 121
c0 81 -51 113 -149 113c-23 0 -43 -1 -61 -2z" />
    <glyph glyph-name="S" unicode="S" horiz-adv-x="503" 
d="M409 671l-11 -81c-36 11 -78 18 -117 18c-90 0 -136 -38 -136 -101c0 -148 310 -99 310 -316c0 -116 -87 -200 -248 -200c-55 0 -109 7 -152 19l12 87c43 -16 95 -27 146 -27c84 0 145 32 145 111c0 152 -307 100 -307 317c0 110 86 186 236 186c39 0 84 -4 122 -13z" />
    <glyph glyph-name="Sacute" unicode="&#x15a;" horiz-adv-x="503" 
d="M409 671l-11 -81c-36 11 -78 18 -117 18c-90 0 -136 -38 -136 -101c0 -148 310 -99 310 -316c0 -116 -87 -200 -248 -200c-55 0 -109 7 -152 19l12 87c43 -16 95 -27 146 -27c84 0 145 32 145 111c0 152 -307 100 -307 317c0 110 86 186 236 186c39 0 84 -4 122 -13z
M412 781l-190 -56l-17 52l182 74z" />
    <glyph glyph-name="Scircumflex" unicode="&#x15c;" horiz-adv-x="503" 
d="M409 671l-11 -81c-36 11 -78 18 -117 18c-90 0 -136 -38 -136 -101c0 -148 310 -99 310 -316c0 -116 -87 -200 -248 -200c-55 0 -109 7 -152 19l12 87c43 -16 95 -27 146 -27c84 0 145 32 145 111c0 152 -307 100 -307 317c0 110 86 186 236 186c39 0 84 -4 122 -13z
M420 776l-26 -52l-133 60l-135 -60l-24 50l160 83z" />
    <glyph glyph-name="Scaron" unicode="&#x160;" horiz-adv-x="503" 
d="M409 671l-11 -81c-36 11 -78 18 -117 18c-90 0 -136 -38 -136 -101c0 -148 310 -99 310 -316c0 -116 -87 -200 -248 -200c-55 0 -109 7 -152 19l12 87c43 -16 95 -27 146 -27c84 0 145 32 145 111c0 152 -307 100 -307 317c0 110 86 186 236 186c39 0 84 -4 122 -13z
M412 807l-161 -83l-157 82l25 51l134 -60l135 60z" />
    <glyph glyph-name="Scedilla" unicode="&#x15e;" horiz-adv-x="503" 
d="M409 671l-11 -81c-36 11 -78 18 -117 18c-90 0 -136 -38 -136 -101c0 -148 310 -99 310 -316c0 -116 -87 -200 -248 -200c-55 0 -109 7 -152 19l12 87c43 -16 95 -27 146 -27c84 0 145 32 145 111c0 152 -307 100 -307 317c0 110 86 186 236 186c39 0 84 -4 122 -13z
M193 -70l77 30c51 -67 35 -130 -21 -195h-73c52 65 64 107 17 165z" />
    <glyph glyph-name="Scedilla" unicode="&#xf6c1;" horiz-adv-x="503" 
d="M409 671l-11 -81c-36 11 -78 18 -117 18c-90 0 -136 -38 -136 -101c0 -148 310 -99 310 -316c0 -116 -87 -200 -248 -200c-55 0 -109 7 -152 19l12 87c43 -16 95 -27 146 -27c84 0 145 32 145 111c0 152 -307 100 -307 317c0 110 86 186 236 186c39 0 84 -4 122 -13z
M193 -70l77 30c51 -67 35 -130 -21 -195h-73c52 65 64 107 17 165z" />
    <glyph glyph-name="Scommaaccent" unicode="&#x218;" horiz-adv-x="503" 
d="M409 671l-11 -81c-36 11 -78 18 -117 18c-90 0 -136 -38 -136 -101c0 -148 310 -99 310 -316c0 -116 -87 -200 -248 -200c-55 0 -109 7 -152 19l12 87c43 -16 95 -27 146 -27c84 0 145 32 145 111c0 152 -307 100 -307 317c0 110 86 186 236 186c39 0 84 -4 122 -13z
M188 -240l-23 34c36 26 47 49 47 67c0 21 -12 24 -12 44c0 24 17 46 47 46c31 0 51 -25 51 -57c0 -40 -27 -90 -110 -134z" />
    <glyph glyph-name="uni1E60" unicode="&#x1e60;" horiz-adv-x="503" 
d="M409 671l-11 -81c-36 11 -78 18 -117 18c-90 0 -136 -38 -136 -101c0 -148 310 -99 310 -316c0 -116 -87 -200 -248 -200c-55 0 -109 7 -152 19l12 87c43 -16 95 -27 146 -27c84 0 145 32 145 111c0 152 -307 100 -307 317c0 110 86 186 236 186c39 0 84 -4 122 -13z
M310 788c0 -32 -26 -58 -58 -58s-58 26 -58 58s26 58 58 58s58 -25 58 -58z" />
    <glyph glyph-name="uni1E62" unicode="&#x1e62;" horiz-adv-x="503" 
d="M409 671l-11 -81c-36 11 -78 18 -117 18c-90 0 -136 -38 -136 -101c0 -148 310 -99 310 -316c0 -116 -87 -200 -248 -200c-55 0 -109 7 -152 19l12 87c43 -16 95 -27 146 -27c84 0 145 32 145 111c0 152 -307 100 -307 317c0 110 86 186 236 186c39 0 84 -4 122 -13z
M311 -160c0 -32 -26 -58 -58 -58s-58 26 -58 58c0 33 26 58 58 58s58 -26 58 -58z" />
    <glyph glyph-name="uni1E9E" unicode="&#x1e9e;" horiz-adv-x="688" 
d="M590 603l-173 -220c140 -6 222 -74 222 -188c0 -106 -84 -204 -240 -204c-39 0 -84 5 -125 13l8 83c36 -11 81 -19 123 -19c82 0 137 45 137 119s-52 123 -177 123h-52v63l175 225c-40 6 -85 10 -132 10c-122 0 -179 -60 -179 -176v-432h-92v430c0 171 96 255 276 255
c72 0 152 -7 229 -19v-63z" />
    <glyph glyph-name="T" unicode="T" horiz-adv-x="516" 
d="M499 598h-195v-598h-92v598h-194v77h481v-77z" />
    <glyph glyph-name="Tcaron" unicode="&#x164;" horiz-adv-x="516" 
d="M499 598h-195v-598h-92v598h-194v77h481v-77zM416 807l-161 -83l-157 82l25 51l134 -60l135 60z" />
    <glyph glyph-name="Tcommaaccent" unicode="&#x21a;" horiz-adv-x="516" 
d="M499 598h-195v-598h-92v598h-194v77h481v-77zM202 -240l-23 34c36 26 47 49 47 67c0 21 -12 24 -12 44c0 24 17 46 47 46c31 0 51 -25 51 -57c0 -40 -27 -90 -110 -134z" />
    <glyph glyph-name="uni0162" unicode="&#x162;" horiz-adv-x="516" 
d="M499 598h-195v-598h-92v598h-194v77h481v-77zM213 -70l77 30c51 -67 35 -130 -21 -195h-73c52 65 64 107 17 165z" />
    <glyph glyph-name="uni1E6A" unicode="&#x1e6a;" horiz-adv-x="516" 
d="M499 598h-195v-598h-92v598h-194v77h481v-77zM316 785c0 -32 -26 -58 -58 -58s-58 26 -58 58s26 58 58 58s58 -25 58 -58z" />
    <glyph glyph-name="uni1E6C" unicode="&#x1e6c;" horiz-adv-x="516" 
d="M499 598h-195v-598h-92v598h-194v77h481v-77zM316 -157c0 -32 -26 -58 -58 -58s-58 26 -58 58c0 33 26 58 58 58s58 -26 58 -58z" />
    <glyph glyph-name="uni1E6E" unicode="&#x1e6e;" horiz-adv-x="516" 
d="M126 -187v68h266v-68h-266zM499 598h-195v-598h-92v598h-194v77h481v-77z" />
    <glyph glyph-name="Tbar" unicode="&#x166;" horiz-adv-x="516" 
d="M212 379v219h-194v77h481v-77h-195v-219h116v-74h-116v-305h-92v305h-116v74h116z" />
    <glyph glyph-name="U" unicode="U" horiz-adv-x="693" 
d="M607 675v-417c0 -177 -93 -268 -269 -268c-211 0 -253 117 -253 237v448h92v-441c0 -93 31 -168 167 -168c118 0 173 49 173 185v424h90z" />
    <glyph glyph-name="Ugrave" unicode="&#xd9;" horiz-adv-x="693" 
d="M607 675v-417c0 -177 -93 -268 -269 -268c-211 0 -253 117 -253 237v448h92v-441c0 -93 31 -168 167 -168c118 0 173 49 173 185v424h90zM394 777l-17 -52l-190 56l26 70z" />
    <glyph glyph-name="Uacute" unicode="&#xda;" horiz-adv-x="693" 
d="M607 675v-417c0 -177 -93 -268 -269 -268c-211 0 -253 117 -253 237v448h92v-441c0 -93 31 -168 167 -168c118 0 173 49 173 185v424h90zM519 781l-190 -56l-17 52l182 74z" />
    <glyph glyph-name="Ucircumflex" unicode="&#xdb;" horiz-adv-x="693" 
d="M607 675v-417c0 -177 -93 -268 -269 -268c-211 0 -253 117 -253 237v448h92v-441c0 -93 31 -168 167 -168c118 0 173 49 173 185v424h90zM508 776l-26 -52l-133 60l-135 -60l-24 50l160 83z" />
    <glyph glyph-name="Utilde" unicode="&#x168;" horiz-adv-x="693" 
d="M607 675v-417c0 -177 -93 -268 -269 -268c-211 0 -253 117 -253 237v448h92v-441c0 -93 31 -168 167 -168c118 0 173 49 173 185v424h90zM476 841l46 -33c-27 -47 -65 -73 -112 -73c-68 0 -89 52 -132 52c-23 0 -45 -15 -63 -45l-46 33c26 47 65 74 112 74
c68 0 89 -52 132 -52c24 0 45 15 63 44z" />
    <glyph glyph-name="Udieresis" unicode="&#xdc;" horiz-adv-x="693" 
d="M607 675v-417c0 -177 -93 -268 -269 -268c-211 0 -253 117 -253 237v448h92v-441c0 -93 31 -168 167 -168c118 0 173 49 173 185v424h90zM506 782c0 -30 -24 -54 -54 -54s-53 24 -53 54s23 54 53 54s54 -24 54 -54zM293 782c0 -30 -24 -54 -54 -54s-54 24 -54 54
s24 54 54 54s54 -24 54 -54z" />
    <glyph glyph-name="Umacron" unicode="&#x16a;" horiz-adv-x="693" 
d="M607 675v-417c0 -177 -93 -268 -269 -268c-211 0 -253 117 -253 237v448h92v-441c0 -93 31 -168 167 -168c118 0 173 49 173 185v424h90zM485 748h-276v62h276v-62z" />
    <glyph glyph-name="Ubreve" unicode="&#x16c;" horiz-adv-x="693" 
d="M607 675v-417c0 -177 -93 -268 -269 -268c-211 0 -253 117 -253 237v448h92v-441c0 -93 31 -168 167 -168c118 0 173 49 173 185v424h90zM417 852h59c0 -69 -48 -122 -131 -122c-85 0 -128 55 -128 122h58c0 -34 29 -61 71 -61c44 0 71 27 71 61z" />
    <glyph glyph-name="Uring" unicode="&#x16e;" horiz-adv-x="693" 
d="M607 675v-417c0 -177 -93 -268 -269 -268c-211 0 -253 117 -253 237v448h92v-441c0 -93 31 -168 167 -168c118 0 173 49 173 185v424h90zM463 804c0 -63 -48 -110 -122 -110c-69 0 -112 34 -112 104c0 62 48 109 121 109c70 0 113 -33 113 -103zM396 800
c0 38 -18 57 -50 57c-27 0 -51 -18 -51 -56c0 -37 18 -57 51 -57c27 0 50 18 50 56z" />
    <glyph glyph-name="Uhungarumlaut" unicode="&#x170;" horiz-adv-x="693" 
d="M607 675v-417c0 -177 -93 -268 -269 -268c-211 0 -253 117 -253 237v448h92v-441c0 -93 31 -168 167 -168c118 0 173 49 173 185v424h90zM570 838l-141 -114l-42 40l131 127zM378 844l-124 -120l-44 40l113 130z" />
    <glyph glyph-name="Uogonek" unicode="&#x172;" horiz-adv-x="693" 
d="M607 675v-417c0 -88 -22 -154 -68 -200c-32 -32 -81 -53 -122 -95c-30 -29 -45 -58 -45 -88c0 -26 14 -40 40 -40c21 0 42 9 66 26l28 -51c-32 -29 -71 -44 -113 -44c-67 0 -107 35 -107 91c0 47 26 97 77 135c-8 0 -22 -1 -30 -1c-204 0 -248 116 -248 236v448h92v-441
c0 -93 31 -168 167 -168c118 0 173 49 173 185v424h90z" />
    <glyph glyph-name="Uhorn" unicode="&#x1af;" horiz-adv-x="693" 
d="M599 821l78 20c12 -27 20 -65 20 -93c0 -78 -38 -112 -90 -126v-364c0 -177 -93 -268 -269 -268c-211 0 -253 117 -253 237v448h92v-441c0 -93 31 -168 167 -168c118 0 173 49 173 185v424h40c47 0 62 24 63 65c0 24 -9 56 -21 81z" />
    <glyph glyph-name="uni01D3" unicode="&#x1d3;" horiz-adv-x="693" 
d="M607 675v-417c0 -177 -93 -268 -269 -268c-211 0 -253 117 -253 237v448h92v-441c0 -93 31 -168 167 -168c118 0 173 49 173 185v424h90zM506 807l-161 -83l-157 82l25 51l134 -60l135 60z" />
    <glyph glyph-name="uni01D5" unicode="&#x1d5;" horiz-adv-x="693" 
d="M607 675v-417c0 -177 -93 -268 -269 -268c-211 0 -253 117 -253 237v448h92v-441c0 -93 31 -168 167 -168c118 0 173 49 173 185v424h90zM505 774c0 -27 -21 -48 -47 -48c-27 0 -48 21 -48 48s21 48 48 48c26 0 47 -21 47 -48zM282 774c0 -27 -21 -48 -47 -48
c-27 0 -48 21 -48 48s21 48 48 48c26 0 47 -21 47 -48zM482 876h-271v57h271v-57z" />
    <glyph glyph-name="uni01D7" unicode="&#x1d7;" horiz-adv-x="693" 
d="M607 675v-417c0 -177 -93 -268 -269 -268c-211 0 -253 117 -253 237v448h92v-441c0 -93 31 -168 167 -168c118 0 173 49 173 185v424h90zM503 910l-178 -58l-17 46l169 73zM505 774c0 -27 -21 -48 -47 -48c-27 0 -48 21 -48 48s21 48 48 48c26 0 47 -21 47 -48zM282 774
c0 -27 -21 -48 -47 -48c-27 0 -48 21 -48 48s21 48 48 48c26 0 47 -21 47 -48z" />
    <glyph glyph-name="uni01D9" unicode="&#x1d9;" horiz-adv-x="693" 
d="M607 675v-417c0 -177 -93 -268 -269 -268c-211 0 -253 117 -253 237v448h92v-441c0 -93 31 -168 167 -168c118 0 173 49 173 185v424h90zM192 923l24 48l132 -58l130 58l22 -45l-154 -81zM505 774c0 -27 -21 -48 -47 -48c-27 0 -48 21 -48 48s21 48 48 48
c26 0 47 -21 47 -48zM282 774c0 -27 -21 -48 -47 -48c-27 0 -48 21 -48 48s21 48 48 48c26 0 47 -21 47 -48z" />
    <glyph glyph-name="uni01DB" unicode="&#x1db;" horiz-adv-x="693" 
d="M607 675v-417c0 -177 -93 -268 -269 -268c-211 0 -253 117 -253 237v448h92v-441c0 -93 31 -168 167 -168c118 0 173 49 173 185v424h90zM384 898l-17 -46l-178 58l26 61zM505 774c0 -27 -21 -48 -47 -48c-27 0 -48 21 -48 48s21 48 48 48c26 0 47 -21 47 -48zM282 774
c0 -27 -21 -48 -47 -48c-27 0 -48 21 -48 48s21 48 48 48c26 0 47 -21 47 -48z" />
    <glyph glyph-name="uni1EE4" unicode="&#x1ee4;" horiz-adv-x="693" 
d="M607 675v-417c0 -177 -93 -268 -269 -268c-211 0 -253 117 -253 237v448h92v-441c0 -93 31 -168 167 -168c118 0 173 49 173 185v424h90zM404 -160c0 -32 -26 -58 -58 -58s-58 26 -58 58c0 33 26 58 58 58s58 -26 58 -58z" />
    <glyph glyph-name="uni1EE6" unicode="&#x1ee6;" horiz-adv-x="693" 
d="M607 675v-417c0 -177 -93 -268 -269 -268c-211 0 -253 117 -253 237v448h92v-441c0 -93 31 -168 167 -168c118 0 173 49 173 185v424h90zM351 725l-12 47c13 4 54 21 54 50c0 23 -19 34 -52 34c-25 0 -54 -7 -75 -16l-16 51c28 11 69 23 112 23c65 0 105 -27 105 -77
c0 -71 -84 -104 -116 -112z" />
    <glyph glyph-name="uni1EE8" unicode="&#x1ee8;" horiz-adv-x="693" 
d="M599 821l78 20c12 -27 20 -65 20 -93c0 -78 -38 -112 -90 -126v-364c0 -177 -93 -268 -269 -268c-211 0 -253 117 -253 237v448h92v-441c0 -93 31 -168 167 -168c118 0 173 49 173 185v424h40c47 0 62 24 63 65c0 24 -9 56 -21 81zM508 781l-190 -56l-17 52l182 74z" />
    <glyph glyph-name="uni1EEA" unicode="&#x1eea;" horiz-adv-x="693" 
d="M599 821l78 20c12 -27 20 -65 20 -93c0 -78 -38 -112 -90 -126v-364c0 -177 -93 -268 -269 -268c-211 0 -253 117 -253 237v448h92v-441c0 -93 31 -168 167 -168c118 0 173 49 173 185v424h40c47 0 62 24 63 65c0 24 -9 56 -21 81zM394 777l-17 -52l-190 56l26 70z" />
    <glyph glyph-name="uni1EEC" unicode="&#x1eec;" horiz-adv-x="693" 
d="M599 821l78 20c12 -27 20 -65 20 -93c0 -78 -38 -112 -90 -126v-364c0 -177 -93 -268 -269 -268c-211 0 -253 117 -253 237v448h92v-441c0 -93 31 -168 167 -168c118 0 173 49 173 185v424h40c47 0 62 24 63 65c0 24 -9 56 -21 81zM351 725l-12 47c13 4 54 21 54 50
c0 23 -19 34 -52 34c-25 0 -54 -7 -75 -16l-16 51c28 11 69 23 112 23c65 0 105 -27 105 -77c0 -71 -84 -104 -116 -112z" />
    <glyph glyph-name="uni1EEE" unicode="&#x1eee;" horiz-adv-x="693" 
d="M599 821l78 20c12 -27 20 -65 20 -93c0 -78 -38 -112 -90 -126v-364c0 -177 -93 -268 -269 -268c-211 0 -253 117 -253 237v448h92v-441c0 -93 31 -168 167 -168c118 0 173 49 173 185v424h40c47 0 62 24 63 65c0 24 -9 56 -21 81zM476 841l46 -33
c-27 -47 -65 -73 -112 -73c-68 0 -89 52 -132 52c-23 0 -45 -15 -63 -45l-46 33c26 47 65 74 112 74c68 0 89 -52 132 -52c24 0 45 15 63 44z" />
    <glyph glyph-name="uni1EF0" unicode="&#x1ef0;" horiz-adv-x="693" 
d="M599 821l78 20c12 -27 20 -65 20 -93c0 -78 -38 -112 -90 -126v-364c0 -177 -93 -268 -269 -268c-211 0 -253 117 -253 237v448h92v-441c0 -93 31 -168 167 -168c118 0 173 49 173 185v424h40c47 0 62 24 63 65c0 24 -9 56 -21 81zM404 -160c0 -32 -26 -58 -58 -58
s-58 26 -58 58c0 33 26 58 58 58s58 -26 58 -58z" />
    <glyph glyph-name="V" unicode="V" horiz-adv-x="618" 
d="M606 675l-242 -675h-112l-241 675h103l151 -439c15 -42 32 -99 45 -147h1c13 46 30 102 47 151l152 435h96z" />
    <glyph glyph-name="uni1E7E" unicode="&#x1e7e;" horiz-adv-x="618" 
d="M606 675l-242 -675h-112l-241 675h103l151 -439c15 -42 32 -99 45 -147h1c13 46 30 102 47 151l152 435h96zM366 -157c0 -32 -26 -58 -58 -58s-58 26 -58 58c0 33 26 58 58 58s58 -26 58 -58z" />
    <glyph glyph-name="W" unicode="W" horiz-adv-x="955" 
d="M921 675l-179 -675h-115l-128 444c-9 32 -16 69 -22 104h-2c-5 -37 -12 -72 -20 -104l-125 -444h-116l-180 675h98l116 -438c13 -54 22 -99 29 -145h2c8 45 17 93 30 141l125 442h92l130 -448c12 -42 24 -91 31 -135h1c7 42 14 83 24 125l119 458h90z" />
    <glyph glyph-name="Wgrave" unicode="&#x1e80;" horiz-adv-x="955" 
d="M921 675l-179 -675h-115l-128 444c-9 32 -16 69 -22 104h-2c-5 -37 -12 -72 -20 -104l-125 -444h-116l-180 675h98l116 -438c13 -54 22 -99 29 -145h2c8 45 17 93 30 141l125 442h92l130 -448c12 -42 24 -91 31 -135h1c7 42 14 83 24 125l119 458h90zM543 777l-17 -52
l-190 56l26 70z" />
    <glyph glyph-name="Wacute" unicode="&#x1e82;" horiz-adv-x="955" 
d="M921 675l-179 -675h-115l-128 444c-9 32 -16 69 -22 104h-2c-5 -37 -12 -72 -20 -104l-125 -444h-116l-180 675h98l116 -438c13 -54 22 -99 29 -145h2c8 45 17 93 30 141l125 442h92l130 -448c12 -42 24 -91 31 -135h1c7 42 14 83 24 125l119 458h90zM621 781l-190 -56
l-17 52l182 74z" />
    <glyph glyph-name="Wcircumflex" unicode="&#x174;" horiz-adv-x="955" 
d="M921 675l-179 -675h-115l-128 444c-9 32 -16 69 -22 104h-2c-5 -37 -12 -72 -20 -104l-125 -444h-116l-180 675h98l116 -438c13 -54 22 -99 29 -145h2c8 45 17 93 30 141l125 442h92l130 -448c12 -42 24 -91 31 -135h1c7 42 14 83 24 125l119 458h90zM640 776l-26 -52
l-133 60l-135 -60l-24 50l160 83z" />
    <glyph glyph-name="Wdieresis" unicode="&#x1e84;" horiz-adv-x="955" 
d="M921 675l-179 -675h-115l-128 444c-9 32 -16 69 -22 104h-2c-5 -37 -12 -72 -20 -104l-125 -444h-116l-180 675h98l116 -438c13 -54 22 -99 29 -145h2c8 45 17 93 30 141l125 442h92l130 -448c12 -42 24 -91 31 -135h1c7 42 14 83 24 125l119 458h90zM641 782
c0 -30 -24 -54 -54 -54s-53 24 -53 54s23 54 53 54s54 -24 54 -54zM428 782c0 -30 -24 -54 -54 -54s-54 24 -54 54s24 54 54 54s54 -24 54 -54z" />
    <glyph glyph-name="X" unicode="X" horiz-adv-x="599" 
d="M582 0h-115l-172 279l-171 -279h-107l222 348l-208 327h106l160 -258l157 258h104l-205 -324z" />
    <glyph glyph-name="Y" unicode="Y" horiz-adv-x="537" 
d="M535 675l-222 -416v-259h-91v259l-220 416h101l116 -220c20 -41 35 -73 50 -111h2c16 39 35 79 54 115l112 216h98z" />
    <glyph glyph-name="Yacute" unicode="&#xdd;" horiz-adv-x="537" 
d="M535 675l-222 -416v-259h-91v259l-220 416h101l116 -220c20 -41 35 -73 50 -111h2c16 39 35 79 54 115l112 216h98zM437 781l-190 -56l-17 52l182 74z" />
    <glyph glyph-name="Ycircumflex" unicode="&#x176;" horiz-adv-x="537" 
d="M535 675l-222 -416v-259h-91v259l-220 416h101l116 -220c20 -41 35 -73 50 -111h2c16 39 35 79 54 115l112 216h98zM427 776l-26 -52l-133 60l-135 -60l-24 50l160 83z" />
    <glyph glyph-name="Ydieresis" unicode="&#x178;" horiz-adv-x="537" 
d="M535 675l-222 -416v-259h-91v259l-220 416h101l116 -220c20 -41 35 -73 50 -111h2c16 39 35 79 54 115l112 216h98zM430 782c0 -30 -24 -54 -54 -54s-53 24 -53 54s23 54 53 54s54 -24 54 -54zM217 782c0 -30 -24 -54 -54 -54s-54 24 -54 54s24 54 54 54s54 -24 54 -54z
" />
    <glyph glyph-name="Ygrave" unicode="&#x1ef2;" horiz-adv-x="537" 
d="M535 675l-222 -416v-259h-91v259l-220 416h101l116 -220c20 -41 35 -73 50 -111h2c16 39 35 79 54 115l112 216h98zM279 777l-17 -52l-190 56l26 70z" />
    <glyph glyph-name="uni1EF4" unicode="&#x1ef4;" horiz-adv-x="537" 
d="M535 675l-222 -416v-259h-91v259l-220 416h101l116 -220c20 -41 35 -73 50 -111h2c16 39 35 79 54 115l112 216h98zM326 -157c0 -32 -26 -58 -58 -58s-58 26 -58 58c0 33 26 58 58 58s58 -26 58 -58z" />
    <glyph glyph-name="uni1EF6" unicode="&#x1ef6;" horiz-adv-x="537" 
d="M535 675l-222 -416v-259h-91v259l-220 416h101l116 -220c20 -41 35 -73 50 -111h2c16 39 35 79 54 115l112 216h98zM273 725l-12 47c13 4 54 21 54 50c0 23 -19 34 -52 34c-25 0 -54 -7 -75 -16l-16 51c28 11 69 23 112 23c65 0 105 -27 105 -77
c0 -71 -84 -104 -116 -112z" />
    <glyph glyph-name="uni1EF8" unicode="&#x1ef8;" horiz-adv-x="537" 
d="M535 675l-222 -416v-259h-91v259l-220 416h101l116 -220c20 -41 35 -73 50 -111h2c16 39 35 79 54 115l112 216h98zM405 841l46 -33c-27 -47 -65 -73 -112 -73c-68 0 -89 52 -132 52c-23 0 -45 -15 -63 -45l-46 33c26 47 65 74 112 74c68 0 89 -52 132 -52
c24 0 45 15 63 44z" />
    <glyph glyph-name="Z" unicode="Z" horiz-adv-x="539" 
d="M495 0h-449v68l283 446c19 29 35 54 55 81c-32 -1 -78 -2 -148 -2h-180v82h435v-70l-298 -464l-40 -59c21 2 81 2 168 2h174v-84z" />
    <glyph glyph-name="Zacute" unicode="&#x179;" horiz-adv-x="539" 
d="M495 0h-449v68l283 446c19 29 35 54 55 81c-32 -1 -78 -2 -148 -2h-180v82h435v-70l-298 -464l-40 -59c21 2 81 2 168 2h174v-84zM433 781l-190 -56l-17 52l182 74z" />
    <glyph glyph-name="Zcaron" unicode="&#x17d;" horiz-adv-x="539" 
d="M495 0h-449v68l283 446c19 29 35 54 55 81c-32 -1 -78 -2 -148 -2h-180v82h435v-70l-298 -464l-40 -59c21 2 81 2 168 2h174v-84zM432 807l-161 -83l-157 82l25 51l134 -60l135 60z" />
    <glyph glyph-name="Zdotaccent" unicode="&#x17b;" horiz-adv-x="539" 
d="M495 0h-449v68l283 446c19 29 35 54 55 81c-32 -1 -78 -2 -148 -2h-180v82h435v-70l-298 -464l-40 -59c21 2 81 2 168 2h174v-84zM328 785c0 -32 -26 -58 -58 -58s-58 26 -58 58s26 58 58 58s58 -25 58 -58z" />
    <glyph glyph-name="uni1E92" unicode="&#x1e92;" horiz-adv-x="539" 
d="M495 0h-449v68l283 446c19 29 35 54 55 81c-32 -1 -78 -2 -148 -2h-180v82h435v-70l-298 -464l-40 -59c21 2 81 2 168 2h174v-84zM336 -157c0 -32 -26 -58 -58 -58s-58 26 -58 58c0 33 26 58 58 58s58 -26 58 -58z" />
    <glyph glyph-name="uni1E94" unicode="&#x1e94;" horiz-adv-x="539" 
d="M495 0h-449v68l283 446c19 29 35 54 55 81c-32 -1 -78 -2 -148 -2h-180v82h435v-70l-298 -464l-40 -59c21 2 81 2 168 2h174v-84zM137 -187v68h266v-68h-266z" />
    <glyph glyph-name="LatinSmallCaps" unicode="&#xe022;" horiz-adv-x="1189" 
d="M1141 333h-86l-110 257c-10 24 -18 47 -27 77h-1c1 -49 3 -115 3 -204v-130h-58v402h90l107 -245c9 -22 19 -52 26 -76h2c-3 55 -4 151 -4 214v107h58v-402zM569 333h-68l-25 91h-135l-25 -91h-62l113 402h88zM229 218l-12 -52c-20 7 -42 11 -59 11
c-41 0 -61 -23 -61 -56c0 -81 150 -68 150 -193c0 -62 -47 -113 -130 -113c-30 0 -59 4 -84 12l13 56c23 -11 48 -18 71 -18c43 0 63 24 63 59c0 86 -149 71 -149 192c0 61 45 111 127 111c24 0 47 -3 71 -9zM541 -117l15 -48c-25 -12 -56 -20 -92 -20
c-108 0 -153 74 -153 198c0 123 49 214 162 214c29 0 56 -6 79 -15l-14 -51c-20 9 -41 13 -63 13c-68 0 -97 -65 -97 -154c0 -99 31 -152 97 -152c25 0 48 6 66 15zM796 684h-92v-351h-62v351h-91v51h245v-51zM224 333h-176v402h63v-351h113v-51zM464 472l-42 152
c-5 20 -9 39 -13 60c-4 -20 -8 -39 -13 -58l-43 -154h111z" />
    <glyph glyph-name="A.sc" horiz-adv-x="550" 
d="M530 0h-100l-40 109h-237l-42 -109h-91l200 520h112zM366 176l-67 180c-10 29 -21 57 -28 80h-1c-6 -25 -15 -51 -25 -80l-69 -180h190z" />
    <glyph glyph-name="Agrave.sc" horiz-adv-x="550" 
d="M530 0h-100l-40 109h-237l-42 -109h-91l200 520h112zM366 176l-67 180c-10 29 -21 57 -28 80h-1c-6 -25 -15 -51 -25 -80l-69 -180h190zM340 624l-38 -50l-149 102l47 62z" />
    <glyph glyph-name="Aacute.sc" horiz-adv-x="550" 
d="M530 0h-100l-40 109h-237l-42 -109h-91l200 520h112zM366 176l-67 180c-10 29 -21 57 -28 80h-1c-6 -25 -15 -51 -25 -80l-69 -180h190zM397 676l-149 -102l-38 49l140 115z" />
    <glyph glyph-name="Acircumflex.sc" horiz-adv-x="550" 
d="M530 0h-100l-40 109h-237l-42 -109h-91l200 520h112zM366 176l-67 180c-10 29 -21 57 -28 80h-1c-6 -25 -15 -51 -25 -80l-69 -180h190zM419 624l-37 -46l-104 80l-105 -80l-35 45l142 119z" />
    <glyph glyph-name="Atilde.sc" horiz-adv-x="550" 
d="M530 0h-100l-40 109h-237l-42 -109h-91l200 520h112zM366 176l-67 180c-10 29 -21 57 -28 80h-1c-6 -25 -15 -51 -25 -80l-69 -180h190zM405 706l44 -35c-26 -50 -63 -78 -109 -78c-65 0 -85 55 -127 55c-22 0 -42 -16 -59 -47l-45 35c26 50 63 78 109 78
c65 0 85 -54 127 -54c22 0 42 15 60 46z" />
    <glyph glyph-name="Adieresis.sc" horiz-adv-x="550" 
d="M530 0h-100l-40 109h-237l-42 -109h-91l200 520h112zM366 176l-67 180c-10 29 -21 57 -28 80h-1c-6 -25 -15 -51 -25 -80l-69 -180h190zM426 654c0 -30 -24 -54 -54 -54s-54 24 -54 54s24 54 54 54s54 -24 54 -54zM234 654c0 -30 -24 -54 -54 -54s-54 24 -54 54
s24 54 54 54s54 -24 54 -54z" />
    <glyph glyph-name="Amacron.sc" horiz-adv-x="550" 
d="M530 0h-100l-40 109h-237l-42 -109h-91l200 520h112zM366 176l-67 180c-10 29 -21 57 -28 80h-1c-6 -25 -15 -51 -25 -80l-69 -180h190zM397 616h-245v68h245v-68z" />
    <glyph glyph-name="Abreve.sc" horiz-adv-x="550" 
d="M530 0h-100l-40 109h-237l-42 -109h-91l200 520h112zM366 176l-67 180c-10 29 -21 57 -28 80h-1c-6 -25 -15 -51 -25 -80l-69 -180h190zM339 718h62c0 -71 -39 -135 -127 -135s-123 65 -123 135h61c0 -37 21 -68 63 -68c39 0 64 25 64 68z" />
    <glyph glyph-name="Aring.sc" horiz-adv-x="550" 
d="M530 0h-100l-40 109h-237l-42 -109h-91l200 520h112zM366 176l-67 180c-10 29 -21 57 -28 80h-1c-6 -25 -15 -51 -25 -80l-69 -180h190zM391 674c0 -64 -48 -112 -121 -112c-69 0 -111 35 -111 105c0 64 47 113 120 113c70 0 112 -35 112 -106zM325 670
c0 39 -18 58 -50 58c-27 0 -51 -18 -51 -57c0 -38 18 -58 50 -58c27 0 51 19 51 57z" />
    <glyph glyph-name="Aring.alt.sc" horiz-adv-x="550" 
d="M530 0h-100l-40 109h-237l-42 -109h-91l200 520c-33 10 -57 41 -57 90c0 64 48 112 121 112c69 0 111 -35 111 -106c0 -49 -29 -82 -63 -96zM330 613c0 38 -18 57 -51 57c-27 0 -51 -18 -51 -57c0 -38 18 -57 51 -57c27 0 51 18 51 57zM366 176l-67 180
c-10 29 -21 57 -28 80h-1c-6 -25 -15 -51 -25 -80l-69 -180h190z" />
    <glyph glyph-name="Aringacute.sc" horiz-adv-x="550" 
d="M530 0h-100l-40 109h-237l-42 -109h-91l200 520h112zM366 176l-67 180c-10 29 -21 57 -28 80h-1c-6 -25 -15 -51 -25 -80l-69 -180h190zM415 835l-186 -51l-16 46l177 68zM388 659c0 -59 -46 -102 -115 -102c-66 0 -107 30 -107 96c0 60 46 103 115 103
c66 0 107 -30 107 -97zM327 656c0 36 -18 53 -50 53c-25 0 -50 -15 -50 -52s19 -53 50 -53c26 0 50 15 50 52z" />
    <glyph glyph-name="Aogonek.sc" horiz-adv-x="550" 
d="M366 176l-67 180c-10 29 -21 57 -28 80h-1c-6 -25 -15 -51 -25 -80l-69 -180h190zM536 -139l28 -51c-33 -29 -72 -44 -113 -44c-68 0 -107 35 -107 91c0 48 26 101 86 143l-40 109h-237l-42 -109h-91l200 520h112l198 -520c-78 -45 -100 -89 -100 -125
c0 -26 14 -40 40 -40c21 0 42 9 66 26z" />
    <glyph glyph-name="uni01CD.sc" horiz-adv-x="550" 
d="M530 0h-100l-40 109h-237l-42 -109h-91l200 520h112zM366 176l-67 180c-10 29 -21 57 -28 80h-1c-6 -25 -15 -51 -25 -80l-69 -180h190zM416 696l-142 -119l-139 118l37 46l103 -80l105 80z" />
    <glyph glyph-name="uni1EA0.sc" horiz-adv-x="550" 
d="M530 0h-100l-40 109h-237l-42 -109h-91l200 520h112zM366 176l-67 180c-10 29 -21 57 -28 80h-1c-6 -25 -15 -51 -25 -80l-69 -180h190zM333 -157c0 -32 -26 -58 -58 -58s-58 26 -58 58c0 33 26 58 58 58s58 -26 58 -58z" />
    <glyph glyph-name="uni1EA2.sc" horiz-adv-x="550" 
d="M530 0h-100l-40 109h-237l-42 -109h-91l200 520h112zM366 176l-67 180c-10 29 -21 57 -28 80h-1c-6 -25 -15 -51 -25 -80l-69 -180h190zM267 575l-12 46c13 4 54 22 54 51c0 22 -19 34 -52 34c-31 0 -67 -12 -76 -16l-14 51c16 7 61 23 111 23c65 0 105 -27 105 -77
c0 -71 -84 -104 -116 -112z" />
    <glyph glyph-name="uni1EA4.sc" horiz-adv-x="550" 
d="M530 0h-100l-40 109h-237l-42 -109h-91l200 520h112zM366 176l-67 180c-10 29 -21 57 -28 80h-1c-6 -25 -15 -51 -25 -80l-69 -180h190zM407 607l-33 -38l-98 69l-98 -69l-31 37l130 106zM374 797l-178 -58l-19 45l169 74z" />
    <glyph glyph-name="uni1EA6.sc" horiz-adv-x="550" 
d="M530 0h-100l-40 109h-237l-42 -109h-91l200 520h112zM366 176l-67 180c-10 29 -21 57 -28 80h-1c-6 -25 -15 -51 -25 -80l-69 -180h190zM407 607l-33 -38l-98 69l-98 -69l-31 37l130 106zM341 739l-178 58l28 61l168 -74z" />
    <glyph glyph-name="uni1EA8.sc" horiz-adv-x="550" 
d="M530 0h-100l-40 109h-237l-42 -109h-91l200 520h112zM366 176l-67 180c-10 29 -21 57 -28 80h-1c-6 -25 -15 -51 -25 -80l-69 -180h190zM407 607l-33 -38l-98 69l-98 -69l-31 37l130 106zM347 708l-41 31c9 7 23 20 23 36c0 21 -16 33 -53 33c-33 0 -69 -13 -77 -17
l-13 48c15 7 55 23 109 23c62 0 102 -27 102 -74c0 -38 -28 -66 -50 -80z" />
    <glyph glyph-name="uni1EAA.sc" horiz-adv-x="550" 
d="M530 0h-100l-40 109h-237l-42 -109h-91l200 520h112zM366 176l-67 180c-10 29 -21 57 -28 80h-1c-6 -25 -15 -51 -25 -80l-69 -180h190zM406 607l-32 -38l-98 69l-99 -69l-30 37l130 106zM382 843l45 -28c-20 -43 -59 -70 -95 -70c-53 0 -65 49 -98 49
c-16 0 -32 -13 -47 -42l-45 28c20 43 58 70 94 70c54 0 65 -49 99 -49c16 0 32 13 47 42z" />
    <glyph glyph-name="uni1EAC.sc" horiz-adv-x="550" 
d="M530 0h-100l-40 109h-237l-42 -109h-91l200 520h112zM366 176l-67 180c-10 29 -21 57 -28 80h-1c-6 -25 -15 -51 -25 -80l-69 -180h190zM333 -157c0 -32 -26 -58 -58 -58s-58 26 -58 58c0 33 26 58 58 58s58 -26 58 -58zM416 624l-37 -46l-104 80l-105 -80l-35 45
l142 119z" />
    <glyph glyph-name="uni1EAE.sc" horiz-adv-x="550" 
d="M530 0h-100l-40 109h-237l-42 -109h-91l200 520h112zM366 176l-67 180c-10 29 -21 57 -28 80h-1c-6 -25 -15 -51 -25 -80l-69 -180h190zM338 693h59c0 -63 -38 -120 -123 -120c-86 0 -120 58 -120 120h58c0 -34 21 -63 63 -63c38 0 63 23 63 63zM397 797l-178 -58l-18 45
l168 74z" />
    <glyph glyph-name="uni1EB0.sc" horiz-adv-x="550" 
d="M530 0h-100l-40 109h-237l-42 -109h-91l200 520h112zM366 176l-67 180c-10 29 -21 57 -28 80h-1c-6 -25 -15 -51 -25 -80l-69 -180h190zM338 693h59c0 -63 -38 -120 -123 -120c-86 0 -120 58 -120 120h58c0 -34 21 -63 63 -63c38 0 63 23 63 63zM332 739l-178 58l28 61
l168 -74z" />
    <glyph glyph-name="uni1EB2.sc" horiz-adv-x="550" 
d="M530 0h-100l-40 109h-237l-42 -109h-91l200 520h112zM366 176l-67 180c-10 29 -21 57 -28 80h-1c-6 -25 -15 -51 -25 -80l-69 -180h190zM338 687h62c0 -64 -39 -122 -126 -122c-88 0 -123 59 -123 122h60c0 -34 22 -63 64 -63c39 0 63 23 63 63zM277 708l-11 41
c13 3 49 19 49 45c0 20 -17 31 -47 31c-28 0 -58 -11 -67 -15l-12 44c15 7 53 20 97 20c57 0 92 -24 92 -67c0 -63 -75 -92 -101 -99z" />
    <glyph glyph-name="uni1EB4.sc" horiz-adv-x="550" 
d="M530 0h-100l-40 109h-237l-42 -109h-91l200 520h112zM366 176l-67 180c-10 29 -21 57 -28 80h-1c-6 -25 -15 -51 -25 -80l-69 -180h190zM370 846l45 -28c-20 -43 -58 -70 -94 -70c-53 0 -65 49 -98 49c-17 0 -32 -13 -47 -42l-45 27c20 44 58 71 94 71
c53 0 65 -49 98 -49c17 0 32 13 47 42zM334 693h60c0 -63 -38 -120 -123 -120c-86 0 -120 58 -120 120h58c0 -34 21 -63 63 -63c38 0 62 23 62 63z" />
    <glyph glyph-name="uni1EB6.sc" horiz-adv-x="550" 
d="M530 0h-100l-40 109h-237l-42 -109h-91l200 520h112zM366 176l-67 180c-10 29 -21 57 -28 80h-1c-6 -25 -15 -51 -25 -80l-69 -180h190zM339 718h62c0 -71 -39 -135 -127 -135s-123 65 -123 135h61c0 -37 21 -68 63 -68c39 0 64 25 64 68zM333 -157
c0 -32 -26 -58 -58 -58s-58 26 -58 58c0 33 26 58 58 58s58 -26 58 -58z" />
    <glyph glyph-name="AE.sc" horiz-adv-x="672" 
d="M605 0h-301v116h-176l-63 -116h-95l286 520h349v-71h-211v-147h193v-69h-193v-160h211v-73zM304 179v265h-2c-13 -27 -27 -57 -51 -100l-92 -165h145z" />
    <glyph glyph-name="AEacute.sc" horiz-adv-x="672" 
d="M605 0h-301v116h-176l-63 -116h-95l286 520h349v-71h-211v-147h193v-69h-193v-160h211v-73zM304 179v265h-2c-13 -27 -27 -57 -51 -100l-92 -165h145zM529 676l-149 -102l-38 49l140 115z" />
    <glyph glyph-name="B.sc" horiz-adv-x="547" 
d="M90 0v520c44 0 117 2 185 2c138 0 190 -55 190 -132c0 -50 -27 -93 -81 -113v-1c64 -14 102 -58 102 -120c0 -73 -50 -158 -233 -158c-39 0 -111 1 -163 2zM180 455v-155s31 -1 61 -1c93 0 129 29 129 81c0 43 -24 76 -112 76c-33 0 -78 -1 -78 -1zM180 235v-167
s35 -4 78 -4c96 0 131 35 131 88c0 54 -39 84 -148 84c-28 0 -61 -1 -61 -1z" />
    <glyph glyph-name="uni1E02.sc" horiz-adv-x="547" 
d="M90 0v520c44 0 117 2 185 2c138 0 190 -55 190 -132c0 -50 -27 -93 -81 -113v-1c64 -14 102 -58 102 -120c0 -73 -50 -158 -233 -158c-39 0 -111 1 -163 2zM180 455v-155s31 -1 61 -1c93 0 129 29 129 81c0 43 -24 76 -112 76c-33 0 -78 -1 -78 -1zM180 235v-167
s35 -4 78 -4c96 0 131 35 131 88c0 54 -39 84 -148 84c-28 0 -61 -1 -61 -1zM315 658c0 -32 -26 -58 -58 -58s-58 25 -58 58c0 32 26 58 58 58s58 -26 58 -58z" />
    <glyph glyph-name="uni1E06.sc" horiz-adv-x="547" 
d="M127 -187v68h265v-68h-265zM90 0v520c44 0 117 2 185 2c138 0 190 -55 190 -132c0 -50 -27 -93 -81 -113v-1c64 -14 102 -58 102 -120c0 -73 -50 -158 -233 -158c-39 0 -111 1 -163 2zM180 455v-155s31 -1 61 -1c93 0 129 29 129 81c0 43 -24 76 -112 76
c-33 0 -78 -1 -78 -1zM180 235v-167s35 -4 78 -4c96 0 131 35 131 88c0 54 -39 84 -148 84c-28 0 -61 -1 -61 -1z" />
    <glyph glyph-name="C.sc" horiz-adv-x="487" 
d="M432 95l14 -75c-42 -16 -93 -27 -149 -27c-169 0 -252 99 -252 256c0 154 83 279 273 279c39 0 88 -6 123 -16l-14 -81c-35 11 -79 19 -117 19c-115 0 -167 -84 -167 -191c0 -119 57 -187 172 -187c43 0 83 9 117 23z" />
    <glyph glyph-name="Cacute.sc" horiz-adv-x="487" 
d="M432 95l14 -75c-42 -16 -93 -27 -149 -27c-169 0 -252 99 -252 256c0 154 83 279 273 279c39 0 88 -6 123 -16l-14 -81c-35 11 -79 19 -117 19c-115 0 -167 -84 -167 -191c0 -119 57 -187 172 -187c43 0 83 9 117 23zM413 676l-149 -102l-38 49l140 115z" />
    <glyph glyph-name="Ccircumflex.sc" horiz-adv-x="487" 
d="M432 95l14 -75c-42 -16 -93 -27 -149 -27c-169 0 -252 99 -252 256c0 154 83 279 273 279c39 0 88 -6 123 -16l-14 -81c-35 11 -79 19 -117 19c-115 0 -167 -84 -167 -191c0 -119 57 -187 172 -187c43 0 83 9 117 23zM422 624l-37 -46l-104 80l-105 -80l-35 45l142 119z
" />
    <glyph glyph-name="Ccaron.sc" horiz-adv-x="487" 
d="M432 95l14 -75c-42 -16 -93 -27 -149 -27c-169 0 -252 99 -252 256c0 154 83 279 273 279c39 0 88 -6 123 -16l-14 -81c-35 11 -79 19 -117 19c-115 0 -167 -84 -167 -191c0 -119 57 -187 172 -187c43 0 83 9 117 23zM430 696l-142 -119l-139 118l37 46l103 -80l105 80z
" />
    <glyph glyph-name="Cdotaccent.sc" horiz-adv-x="487" 
d="M432 95l14 -75c-42 -16 -93 -27 -149 -27c-169 0 -252 99 -252 256c0 154 83 279 273 279c39 0 88 -6 123 -16l-14 -81c-35 11 -79 19 -117 19c-115 0 -167 -84 -167 -191c0 -119 57 -187 172 -187c43 0 83 9 117 23zM339 660c0 -32 -26 -58 -58 -58s-58 25 -58 58
c0 32 26 58 58 58s58 -26 58 -58z" />
    <glyph glyph-name="Ccedilla.sc" horiz-adv-x="487" 
d="M432 95l14 -75c-42 -16 -93 -27 -149 -27c-169 0 -252 99 -252 256c0 154 83 279 273 279c39 0 88 -6 123 -16l-14 -81c-35 11 -79 19 -117 19c-115 0 -167 -84 -167 -191c0 -119 57 -187 172 -187c43 0 83 9 117 23zM234 -70l77 30c51 -67 35 -130 -21 -195h-73
c52 65 64 107 17 165z" />
    <glyph glyph-name="D.sc" horiz-adv-x="590" 
d="M90 0v520c44 0 119 2 177 2c172 0 280 -75 280 -255c0 -185 -131 -270 -307 -270c-61 0 -108 2 -150 3zM181 447v-371c16 -2 47 -3 70 -3c118 0 200 60 200 189c0 124 -66 187 -196 187c-22 0 -51 -1 -74 -2z" />
    <glyph glyph-name="Dcaron.sc" horiz-adv-x="590" 
d="M90 0v520c44 0 119 2 177 2c172 0 280 -75 280 -255c0 -185 -131 -270 -307 -270c-61 0 -108 2 -150 3zM181 447v-371c16 -2 47 -3 70 -3c118 0 200 60 200 189c0 124 -66 187 -196 187c-22 0 -51 -1 -74 -2zM413 696l-142 -119l-139 118l37 46l103 -80l105 80z" />
    <glyph glyph-name="uni1E0A.sc" horiz-adv-x="590" 
d="M90 0v520c44 0 119 2 177 2c172 0 280 -75 280 -255c0 -185 -131 -270 -307 -270c-61 0 -108 2 -150 3zM181 447v-371c16 -2 47 -3 70 -3c118 0 200 60 200 189c0 124 -66 187 -196 187c-22 0 -51 -1 -74 -2zM331 658c0 -32 -26 -58 -58 -58s-58 25 -58 58
c0 32 26 58 58 58s58 -26 58 -58z" />
    <glyph glyph-name="uni1E0C.sc" horiz-adv-x="590" 
d="M90 0v520c44 0 119 2 177 2c172 0 280 -75 280 -255c0 -185 -131 -270 -307 -270c-61 0 -108 2 -150 3zM181 447v-371c16 -2 47 -3 70 -3c118 0 200 60 200 189c0 124 -66 187 -196 187c-22 0 -51 -1 -74 -2zM336 -157c0 -32 -26 -58 -58 -58s-58 26 -58 58
c0 33 26 58 58 58s58 -26 58 -58z" />
    <glyph glyph-name="uni1E0E.sc" horiz-adv-x="590" 
d="M146 -187v68h266v-68h-266zM90 0v520c44 0 119 2 177 2c172 0 280 -75 280 -255c0 -185 -131 -270 -307 -270c-61 0 -108 2 -150 3zM181 447v-371c16 -2 47 -3 70 -3c118 0 200 60 200 189c0 124 -66 187 -196 187c-22 0 -51 -1 -74 -2z" />
    <glyph glyph-name="Eth.sc" horiz-adv-x="599" 
d="M98 300v220c44 0 119 2 178 2c171 0 280 -75 280 -255c0 -185 -131 -270 -307 -270c-62 0 -109 2 -151 3v235h-67v65h67zM302 235h-112v-159c16 -2 46 -3 69 -3c118 0 200 60 200 189c0 124 -65 187 -196 187c-22 0 -50 -1 -73 -2v-147h112v-65z" />
    <glyph glyph-name="Dcroat.sc" horiz-adv-x="599" 
d="M98 300v220c44 0 119 2 178 2c171 0 280 -75 280 -255c0 -185 -131 -270 -307 -270c-62 0 -109 2 -151 3v235h-67v65h67zM302 235h-112v-159c16 -2 46 -3 69 -3c118 0 200 60 200 189c0 124 -65 187 -196 187c-22 0 -50 -1 -73 -2v-147h112v-65z" />
    <glyph glyph-name="E.sc" horiz-adv-x="458" 
d="M391 0h-301v520h301v-71h-210v-147h192v-69h-192v-160h210v-73z" />
    <glyph glyph-name="Egrave.sc" horiz-adv-x="458" 
d="M391 0h-301v520h301v-71h-210v-147h192v-69h-192v-160h210v-73zM283 624l-38 -50l-149 102l47 62z" />
    <glyph glyph-name="Eacute.sc" horiz-adv-x="458" 
d="M391 0h-301v520h301v-71h-210v-147h192v-69h-192v-160h210v-73zM369 676l-149 -102l-38 49l140 115z" />
    <glyph glyph-name="Ecircumflex.sc" horiz-adv-x="458" 
d="M391 0h-301v520h301v-71h-210v-147h192v-69h-192v-160h210v-73zM378 624l-37 -46l-104 80l-105 -80l-35 45l142 119z" />
    <glyph glyph-name="Ecaron.sc" horiz-adv-x="458" 
d="M391 0h-301v520h301v-71h-210v-147h192v-69h-192v-160h210v-73zM377 696l-142 -119l-139 118l37 46l103 -80l105 80z" />
    <glyph glyph-name="Edieresis.sc" horiz-adv-x="458" 
d="M391 0h-301v520h301v-71h-210v-147h192v-69h-192v-160h210v-73zM386 654c0 -30 -24 -54 -54 -54s-54 24 -54 54s24 54 54 54s54 -24 54 -54zM194 654c0 -30 -24 -54 -54 -54s-54 24 -54 54s24 54 54 54s54 -24 54 -54z" />
    <glyph glyph-name="Emacron.sc" horiz-adv-x="458" 
d="M391 0h-301v520h301v-71h-210v-147h192v-69h-192v-160h210v-73zM358 616h-245v68h245v-68z" />
    <glyph glyph-name="Ebreve.sc" horiz-adv-x="458" 
d="M391 0h-301v520h301v-71h-210v-147h192v-69h-192v-160h210v-73zM297 718h62c0 -71 -39 -135 -127 -135s-123 65 -123 135h61c0 -37 21 -68 63 -68c39 0 64 25 64 68z" />
    <glyph glyph-name="Edotaccent.sc" horiz-adv-x="458" 
d="M391 0h-301v520h301v-71h-210v-147h192v-69h-192v-160h210v-73zM296 658c0 -32 -26 -58 -58 -58s-58 25 -58 58c0 32 26 58 58 58s58 -26 58 -58z" />
    <glyph glyph-name="Eogonek.sc" horiz-adv-x="458" 
d="M389 -139l28 -51c-32 -29 -71 -44 -113 -44c-67 0 -107 35 -107 91c0 55 38 113 86 143h-193v520h301v-71h-210v-147h192v-69h-192v-160h210v-70c-62 -22 -108 -82 -108 -128c0 -26 15 -40 40 -40c22 0 43 9 66 26z" />
    <glyph glyph-name="uni1EB8.sc" horiz-adv-x="458" 
d="M391 0h-301v520h301v-71h-210v-147h192v-69h-192v-160h210v-73zM293 -157c0 -32 -26 -58 -58 -58s-58 26 -58 58c0 33 26 58 58 58s58 -26 58 -58z" />
    <glyph glyph-name="uni1EBA.sc" horiz-adv-x="458" 
d="M391 0h-301v520h301v-71h-210v-147h192v-69h-192v-160h210v-73zM230 575l-12 46c13 4 54 22 54 51c0 22 -19 34 -52 34c-31 0 -67 -12 -76 -16l-14 51c16 7 61 23 111 23c65 0 105 -27 105 -77c0 -71 -84 -104 -116 -112z" />
    <glyph glyph-name="uni1EBC.sc" horiz-adv-x="458" 
d="M391 0h-301v520h301v-71h-210v-147h192v-69h-192v-160h210v-73zM359 706l44 -35c-26 -50 -63 -78 -109 -78c-65 0 -85 55 -127 55c-22 0 -42 -16 -59 -47l-45 35c26 50 63 78 109 78c65 0 85 -54 127 -54c22 0 42 15 60 46z" />
    <glyph glyph-name="uni1EBE.sc" horiz-adv-x="458" 
d="M391 0h-301v520h301v-71h-210v-147h192v-69h-192v-160h210v-73zM367 607l-33 -38l-98 69l-98 -69l-31 37l130 106zM334 797l-178 -58l-19 45l169 74z" />
    <glyph glyph-name="uni1EC0.sc" horiz-adv-x="458" 
d="M391 0h-301v520h301v-71h-210v-147h192v-69h-192v-160h210v-73zM367 607l-33 -38l-98 69l-98 -69l-31 37l130 106zM301 739l-178 58l28 61l168 -74z" />
    <glyph glyph-name="uni1EC2.sc" horiz-adv-x="458" 
d="M391 0h-301v520h301v-71h-210v-147h192v-69h-192v-160h210v-73zM367 607l-33 -38l-98 69l-98 -69l-31 37l130 106zM307 708l-41 31c9 7 23 20 23 36c0 21 -16 33 -53 33c-33 0 -69 -13 -77 -17l-13 48c15 7 55 23 109 23c62 0 102 -27 102 -74c0 -38 -28 -66 -50 -80z
" />
    <glyph glyph-name="uni1EC4.sc" horiz-adv-x="458" 
d="M391 0h-301v520h301v-71h-210v-147h192v-69h-192v-160h210v-73zM366 607l-32 -38l-98 69l-99 -69l-30 37l130 106zM342 843l45 -28c-20 -43 -59 -70 -95 -70c-53 0 -65 49 -98 49c-16 0 -32 -13 -47 -42l-45 28c20 43 58 70 94 70c54 0 65 -49 99 -49c16 0 32 13 47 42z
" />
    <glyph glyph-name="uni1EC6.sc" horiz-adv-x="458" 
d="M391 0h-301v520h301v-71h-210v-147h192v-69h-192v-160h210v-73zM379 624l-37 -46l-104 80l-105 -80l-35 45l142 119zM294 -157c0 -32 -26 -58 -58 -58s-58 26 -58 58c0 33 26 58 58 58s58 -26 58 -58z" />
    <glyph glyph-name="uni018F.sc" horiz-adv-x="558" 
d="M46 299h366c-7 104 -72 157 -178 157c-55 0 -109 -11 -156 -31l-18 71c55 21 124 32 188 32c169 0 265 -84 265 -265c0 -163 -94 -271 -250 -271c-151 0 -221 99 -221 238c0 23 1 46 4 69zM413 233h-273c-1 -8 -1 -13 -1 -18c0 -104 52 -152 131 -152
c90 0 143 73 143 170z" />
    <glyph glyph-name="F.sc" horiz-adv-x="435" 
d="M385 449h-204v-153h189v-71h-189v-225h-91v520h295v-71z" />
    <glyph glyph-name="uni1E1E.sc" horiz-adv-x="435" 
d="M385 449h-204v-153h189v-71h-189v-225h-91v520h295v-71zM299 658c0 -32 -26 -58 -58 -58s-58 25 -58 58c0 32 26 58 58 58s58 -26 58 -58z" />
    <glyph glyph-name="G.sc" horiz-adv-x="580" 
d="M498 268v-242c-57 -21 -118 -34 -187 -34c-156 0 -268 91 -268 260c0 155 104 275 285 275c55 0 109 -7 161 -23l-17 -78c-46 17 -93 26 -144 26c-105 0 -189 -64 -189 -191c0 -122 74 -189 181 -189c32 0 63 4 87 12v184h91z" />
    <glyph glyph-name="Gcircumflex.sc" horiz-adv-x="580" 
d="M498 268v-242c-57 -21 -118 -34 -187 -34c-156 0 -268 91 -268 260c0 155 104 275 285 275c55 0 109 -7 161 -23l-17 -78c-46 17 -93 26 -144 26c-105 0 -189 -64 -189 -191c0 -122 74 -189 181 -189c32 0 63 4 87 12v184h91zM442 624l-37 -46l-104 80l-105 -80l-35 45
l142 119z" />
    <glyph glyph-name="Gbreve.sc" horiz-adv-x="580" 
d="M498 268v-242c-57 -21 -118 -34 -187 -34c-156 0 -268 91 -268 260c0 155 104 275 285 275c55 0 109 -7 161 -23l-17 -78c-46 17 -93 26 -144 26c-105 0 -189 -64 -189 -191c0 -122 74 -189 181 -189c32 0 63 4 87 12v184h91zM377 721h62c0 -71 -39 -135 -127 -135
s-123 65 -123 135h61c0 -37 21 -68 63 -68c39 0 64 25 64 68z" />
    <glyph glyph-name="Gdotaccent.sc" horiz-adv-x="580" 
d="M498 268v-242c-57 -21 -118 -34 -187 -34c-156 0 -268 91 -268 260c0 155 104 275 285 275c55 0 109 -7 161 -23l-17 -78c-46 17 -93 26 -144 26c-105 0 -189 -64 -189 -191c0 -122 74 -189 181 -189c32 0 63 4 87 12v184h91zM358 661c0 -32 -26 -58 -58 -58
s-58 25 -58 58c0 32 26 58 58 58s58 -26 58 -58z" />
    <glyph glyph-name="Gcommaaccent.sc" horiz-adv-x="580" 
d="M498 268v-242c-57 -21 -118 -34 -187 -34c-156 0 -268 91 -268 260c0 155 104 275 285 275c55 0 109 -7 161 -23l-17 -78c-46 17 -93 26 -144 26c-105 0 -189 -64 -189 -191c0 -122 74 -189 181 -189c32 0 63 4 87 12v184h91zM249 -240l-23 34c36 26 47 49 47 67
c0 21 -12 24 -12 44c0 24 17 46 47 46c31 0 51 -25 51 -57c0 -40 -27 -90 -110 -134z" />
    <glyph glyph-name="Gcaron.sc" horiz-adv-x="580" 
d="M498 268v-242c-57 -21 -118 -34 -187 -34c-156 0 -268 91 -268 260c0 155 104 275 285 275c55 0 109 -7 161 -23l-17 -78c-46 17 -93 26 -144 26c-105 0 -189 -64 -189 -191c0 -122 74 -189 181 -189c32 0 63 4 87 12v184h91zM454 696l-142 -119l-139 118l37 46l103 -80
l105 80z" />
    <glyph glyph-name="uni1E20.sc" horiz-adv-x="580" 
d="M498 268v-242c-57 -21 -118 -34 -187 -34c-156 0 -268 91 -268 260c0 155 104 275 285 275c55 0 109 -7 161 -23l-17 -78c-46 17 -93 26 -144 26c-105 0 -189 -64 -189 -191c0 -122 74 -189 181 -189c32 0 63 4 87 12v184h91zM439 616h-245v68h245v-68z" />
    <glyph glyph-name="G.sc.alt1" horiz-adv-x="580" 
d="M498 275v-249c-57 -21 -118 -34 -187 -34c-156 0 -268 91 -268 261c0 154 104 274 285 274c55 0 109 -7 161 -23l-17 -78c-46 17 -93 26 -144 26c-105 0 -189 -64 -189 -191c0 -122 74 -189 181 -189c32 0 63 4 87 12v128h-116v63h207z" />
    <glyph glyph-name="Gcircumflex.sc.alt1" horiz-adv-x="580" 
d="M498 275v-249c-57 -21 -118 -34 -187 -34c-156 0 -268 91 -268 261c0 154 104 274 285 274c55 0 109 -7 161 -23l-17 -78c-46 17 -93 26 -144 26c-105 0 -189 -64 -189 -191c0 -122 74 -189 181 -189c32 0 63 4 87 12v128h-116v63h207zM442 624l-37 -46l-104 80l-105 -80
l-35 45l142 119z" />
    <glyph glyph-name="Gbreve.sc.alt1" horiz-adv-x="580" 
d="M498 275v-249c-57 -21 -118 -34 -187 -34c-156 0 -268 91 -268 261c0 154 104 274 285 274c55 0 109 -7 161 -23l-17 -78c-46 17 -93 26 -144 26c-105 0 -189 -64 -189 -191c0 -122 74 -189 181 -189c32 0 63 4 87 12v128h-116v63h207zM377 721h62
c0 -71 -39 -135 -127 -135s-123 65 -123 135h61c0 -37 21 -68 63 -68c39 0 64 25 64 68z" />
    <glyph glyph-name="Gdotaccent.sc.alt1" horiz-adv-x="580" 
d="M498 275v-249c-57 -21 -118 -34 -187 -34c-156 0 -268 91 -268 261c0 154 104 274 285 274c55 0 109 -7 161 -23l-17 -78c-46 17 -93 26 -144 26c-105 0 -189 -64 -189 -191c0 -122 74 -189 181 -189c32 0 63 4 87 12v128h-116v63h207zM357 661c0 -32 -26 -58 -58 -58
s-58 25 -58 58c0 32 26 58 58 58s58 -26 58 -58z" />
    <glyph glyph-name="Gcommaaccent.sc.alt1" horiz-adv-x="580" 
d="M498 275v-249c-57 -21 -118 -34 -187 -34c-156 0 -268 91 -268 261c0 154 104 274 285 274c55 0 109 -7 161 -23l-17 -78c-46 17 -93 26 -144 26c-105 0 -189 -64 -189 -191c0 -122 74 -189 181 -189c32 0 63 4 87 12v128h-116v63h207zM249 -240l-23 34
c36 26 47 49 47 67c0 21 -12 24 -12 44c0 24 17 46 47 46c31 0 51 -25 51 -57c0 -40 -27 -90 -110 -134z" />
    <glyph glyph-name="Gcaron.sc.alt1" horiz-adv-x="580" 
d="M498 275v-249c-57 -21 -118 -34 -187 -34c-156 0 -268 91 -268 261c0 154 104 274 285 274c55 0 109 -7 161 -23l-17 -78c-46 17 -93 26 -144 26c-105 0 -189 -64 -189 -191c0 -122 74 -189 181 -189c32 0 63 4 87 12v128h-116v63h207zM454 696l-142 -119l-139 118l37 46
l103 -80l105 80z" />
    <glyph glyph-name="uni1E20.sc.alt1" horiz-adv-x="580" 
d="M498 275v-249c-57 -21 -118 -34 -187 -34c-156 0 -268 91 -268 261c0 154 104 274 285 274c55 0 109 -7 161 -23l-17 -78c-46 17 -93 26 -144 26c-105 0 -189 -64 -189 -191c0 -122 74 -189 181 -189c32 0 63 4 87 12v128h-116v63h207zM439 616h-245v68h245v-68z" />
    <glyph glyph-name="H.sc" horiz-adv-x="626" 
d="M536 0h-91v229h-264v-229h-91v520h91v-214h264v214h91v-520z" />
    <glyph glyph-name="Hcircumflex.sc" horiz-adv-x="626" 
d="M536 0h-91v229h-264v-229h-91v520h91v-214h264v214h91v-520zM454 624l-37 -46l-104 80l-105 -80l-35 45l142 119z" />
    <glyph glyph-name="uni1E24.sc" horiz-adv-x="626" 
d="M536 0h-91v229h-264v-229h-91v520h91v-214h264v214h91v-520zM370 -157c0 -32 -26 -58 -58 -58s-58 26 -58 58c0 33 26 58 58 58s58 -26 58 -58z" />
    <glyph glyph-name="Hbar.sc" horiz-adv-x="638" 
d="M542 441h65v-66h-65v-375h-91v224h-264v-224h-91v375h-65v66h65v79h91v-79h264v79h91v-79zM451 375h-264v-80h264v80z" />
    <glyph glyph-name="I.sc" horiz-adv-x="271" 
d="M181 0h-91v520h91v-520z" />
    <glyph glyph-name="Igrave.sc" horiz-adv-x="271" 
d="M181 0h-91v520h91v-520zM196 624l-38 -50l-149 102l47 62z" />
    <glyph glyph-name="Iacute.sc" horiz-adv-x="271" 
d="M181 0h-91v520h91v-520zM249 676l-149 -102l-38 49l140 115z" />
    <glyph glyph-name="Icircumflex.sc" horiz-adv-x="271" 
d="M181 0h-91v520h91v-520zM261 613l-39 -43l-87 85l-88 -85l-37 42l126 131z" />
    <glyph glyph-name="Itilde.sc" horiz-adv-x="271" 
d="M181 0h-91v520h91v-520zM239 705l43 -34c-21 -47 -53 -74 -97 -74c-47 0 -77 47 -103 47c-21 0 -37 -20 -47 -42l-44 32c16 41 49 77 98 77c47 0 77 -48 102 -48c21 0 36 19 48 42z" />
    <glyph glyph-name="Idieresis.sc" horiz-adv-x="271" 
d="M181 0h-91v520h91v-520zM278 654c0 -30 -24 -54 -54 -54s-54 24 -54 54s24 54 54 54s54 -23 54 -54zM103 654c0 -30 -24 -54 -54 -54s-54 24 -54 54s24 54 54 54s54 -23 54 -54z" />
    <glyph glyph-name="Imacron.sc" horiz-adv-x="271" 
d="M181 0h-91v520h91v-520zM253 616h-237v68h237v-68z" />
    <glyph glyph-name="Ibreve.sc" horiz-adv-x="271" 
d="M181 0h-91v520h91v-520zM191 718h62c0 -87 -44 -135 -119 -135s-115 49 -115 135h61c0 -36 19 -68 55 -68c35 0 56 26 56 68z" />
    <glyph glyph-name="Idotaccent.sc" horiz-adv-x="271" 
d="M181 0h-91v520h91v-520zM195 658c0 -32 -26 -58 -58 -58s-58 25 -58 58c0 32 26 58 58 58s58 -26 58 -58z" />
    <glyph glyph-name="Iogonek.sc" horiz-adv-x="271" 
d="M181 520v-520c-58 -50 -75 -94 -75 -125c0 -26 14 -40 39 -40c22 0 43 9 67 26l28 -51c-33 -29 -72 -44 -113 -44c-68 0 -108 35 -108 91c0 50 26 96 71 145v518h91z" />
    <glyph glyph-name="uni01CF.sc" horiz-adv-x="271" 
d="M181 0h-91v520h91v-520zM277 696l-142 -119l-139 118l37 46l103 -80l105 80z" />
    <glyph glyph-name="uni1EC8.sc" horiz-adv-x="271" 
d="M181 0h-91v520h91v-520zM127 575l-12 46c13 4 54 22 54 51c0 22 -19 34 -52 34c-31 0 -67 -12 -76 -16l-14 51c16 7 61 23 111 23c65 0 105 -27 105 -77c0 -71 -84 -104 -116 -112z" />
    <glyph glyph-name="uni1ECA.sc" horiz-adv-x="271" 
d="M181 0h-91v520h91v-520zM193 -157c0 -32 -26 -58 -58 -58s-58 26 -58 58c0 33 26 58 58 58s58 -26 58 -58z" />
    <glyph glyph-name="I.barred.sc" horiz-adv-x="351" 
d="M129 449h-87v71h267v-71h-88v-376h88v-73h-267v73h87v376z" />
    <glyph glyph-name="Igrave.barred.sc" horiz-adv-x="351" 
d="M129 449h-87v71h267v-71h-88v-376h88v-73h-267v73h87v376zM234 624l-38 -50l-149 102l47 62z" />
    <glyph glyph-name="Iacute.barred.sc" horiz-adv-x="351" 
d="M129 449h-87v71h267v-71h-88v-376h88v-73h-267v73h87v376zM303 676l-149 -102l-38 49l140 115z" />
    <glyph glyph-name="Icircumflex.barred.sc" horiz-adv-x="351" 
d="M129 449h-87v71h267v-71h-88v-376h88v-73h-267v73h87v376zM316 624l-37 -46l-104 80l-105 -80l-35 45l142 119z" />
    <glyph glyph-name="Itilde.barred.sc" horiz-adv-x="351" 
d="M129 449h-87v71h267v-71h-88v-376h88v-73h-267v73h87v376zM301 706l44 -35c-26 -50 -63 -78 -109 -78c-65 0 -85 55 -127 55c-22 0 -42 -16 -59 -47l-45 35c26 50 63 78 109 78c65 0 85 -54 127 -54c22 0 42 15 60 46z" />
    <glyph glyph-name="Idieresis.barred.sc" horiz-adv-x="351" 
d="M129 449h-87v71h267v-71h-88v-376h88v-73h-267v73h87v376zM325 654c0 -30 -24 -54 -54 -54s-54 24 -54 54s24 54 54 54s54 -24 54 -54zM133 654c0 -30 -24 -54 -54 -54s-54 24 -54 54s24 54 54 54s54 -24 54 -54z" />
    <glyph glyph-name="Imacron.barred.sc" horiz-adv-x="351" 
d="M129 449h-87v71h267v-71h-88v-376h88v-73h-267v73h87v376zM298 616h-245v68h245v-68z" />
    <glyph glyph-name="Ibreve.barred.sc" horiz-adv-x="351" 
d="M129 449h-87v71h267v-71h-88v-376h88v-73h-267v73h87v376zM239 718h62c0 -71 -39 -135 -127 -135s-123 65 -123 135h61c0 -37 21 -68 63 -68c39 0 64 25 64 68z" />
    <glyph glyph-name="Idotaccent.barred.sc" horiz-adv-x="351" 
d="M129 449h-87v71h267v-71h-88v-376h88v-73h-267v73h87v376zM233 658c0 -32 -26 -58 -58 -58s-58 25 -58 58c0 32 26 58 58 58s58 -26 58 -58z" />
    <glyph glyph-name="Iogonek.barred.sc" horiz-adv-x="351" 
d="M307 -139l28 -51c-33 -29 -72 -44 -113 -44c-68 0 -108 36 -108 90c0 56 38 114 87 144h-159v73h87v376h-87v71h267v-71h-88v-376h88v-70c-63 -22 -108 -82 -108 -128c0 -26 14 -40 39 -40c22 0 43 9 67 26z" />
    <glyph glyph-name="uni01CF.barred.sc" horiz-adv-x="351" 
d="M129 449h-87v71h267v-71h-88v-376h88v-73h-267v73h87v376zM316 696l-142 -119l-139 118l37 46l103 -80l105 80z" />
    <glyph glyph-name="uni1EC8.barred.sc" horiz-adv-x="351" 
d="M129 449h-87v71h267v-71h-88v-376h88v-73h-267v73h87v376zM167 575l-12 46c13 4 54 22 54 51c0 22 -19 34 -52 34c-31 0 -67 -12 -76 -16l-14 51c16 7 61 23 111 23c65 0 105 -27 105 -77c0 -71 -84 -104 -116 -112z" />
    <glyph glyph-name="uni1ECA.barred.sc" horiz-adv-x="351" 
d="M129 449h-87v71h267v-71h-88v-376h88v-73h-267v73h87v376zM233 -157c0 -32 -26 -58 -58 -58s-58 26 -58 58c0 33 26 58 58 58s58 -26 58 -58z" />
    <glyph glyph-name="IJ.sc" horiz-adv-x="591" 
d="M181 0h-91v520h91v-520zM501 520v-365c0 -109 -48 -162 -156 -162c-24 0 -48 3 -66 8v77c15 -5 38 -9 61 -9c46 0 69 20 69 88v363h92z" />
    <glyph glyph-name="IJ.sc.alt1" horiz-adv-x="549" 
d="M181 0h-91v520h91v-520zM338 -163l-41 54c53 29 71 64 71 133v496h91v-486c0 -88 -21 -150 -121 -197z" />
    <glyph glyph-name="IJ.barred.sc" horiz-adv-x="687" 
d="M129 449h-87v71h267v-71h-88v-376h88v-73h-267v73h87v376zM598 520v-365c0 -109 -48 -162 -156 -162c-24 0 -47 3 -66 8v77c15 -5 38 -9 61 -9c47 0 70 20 70 88v292h-131v71h222z" />
    <glyph glyph-name="J.sc" horiz-adv-x="337" 
d="M248 520v-365c0 -109 -48 -162 -156 -162c-24 0 -48 3 -66 8v77c15 -5 38 -9 61 -9c46 0 69 20 69 88v363h92z" />
    <glyph glyph-name="Jcircumflex.sc" horiz-adv-x="337" 
d="M248 520v-365c0 -109 -48 -162 -156 -162c-24 0 -48 3 -66 8v77c15 -5 38 -9 61 -9c46 0 69 20 69 88v363h92zM343 624l-37 -46l-104 80l-105 -80l-35 45l142 119z" />
    <glyph glyph-name="J.sc.alt1" horiz-adv-x="271" 
d="M60 -163l-41 54c53 29 71 64 71 133v496h91v-486c0 -88 -21 -150 -121 -197z" />
    <glyph glyph-name="Jcircumflex.sc.alt1" horiz-adv-x="271" 
d="M60 -163l-41 54c53 29 71 64 71 133v496h91v-486c0 -88 -21 -150 -121 -197zM278 624l-37 -46l-104 80l-105 -80l-35 45l142 119z" />
    <glyph glyph-name="J.barred.sc" horiz-adv-x="353" 
d="M264 520v-365c0 -109 -48 -162 -156 -162c-24 0 -47 3 -66 8v77c15 -5 38 -9 61 -9c47 0 70 20 70 88v292h-131v71h222z" />
    <glyph glyph-name="Jcircumflex.barred.sc" horiz-adv-x="353" 
d="M264 520v-365c0 -109 -48 -162 -156 -162c-24 0 -47 3 -66 8v77c15 -5 38 -9 61 -9c47 0 70 20 70 88v292h-131v71h222zM311 624l-37 -46l-104 80l-105 -80l-35 45l142 119z" />
    <glyph glyph-name="K.sc" horiz-adv-x="537" 
d="M513 0h-122l-210 251v-251h-91v520h91v-239l208 239h109l-222 -249z" />
    <glyph glyph-name="Kcommaaccent.sc" horiz-adv-x="537" 
d="M513 0h-122l-210 251v-251h-91v520h91v-239l208 239h109l-222 -249zM225 -240l-23 34c36 26 47 49 47 67c0 21 -12 24 -12 44c0 24 17 46 47 46c31 0 51 -25 51 -57c0 -40 -27 -90 -110 -134z" />
    <glyph glyph-name="uni01E8.sc" horiz-adv-x="537" 
d="M513 0h-122l-210 251v-251h-91v520h91v-239l208 239h109l-222 -249zM413 696l-142 -119l-139 118l37 46l103 -80l105 80z" />
    <glyph glyph-name="uni1E32.sc" horiz-adv-x="537" 
d="M513 0h-122l-210 251v-251h-91v520h91v-239l208 239h109l-222 -249zM328 -157c0 -32 -26 -58 -58 -58s-58 26 -58 58c0 33 26 58 58 58s58 -26 58 -58z" />
    <glyph glyph-name="uni1E34.sc" horiz-adv-x="537" 
d="M139 -187v68h265v-68h-265zM513 0h-122l-210 251v-251h-91v520h91v-239l208 239h109l-222 -249z" />
    <glyph glyph-name="L.sc" horiz-adv-x="390" 
d="M367 0h-277v520h91v-444h186v-76z" />
    <glyph glyph-name="Lacute.sc" horiz-adv-x="390" 
d="M367 0h-277v520h91v-444h186v-76zM308 676l-149 -102l-38 49l140 115z" />
    <glyph glyph-name="Lcaron.sc" horiz-adv-x="390" 
d="M367 0h-277v520h91v-444h186v-76zM359 614l-70 -177l-60 16l55 181z" />
    <glyph glyph-name="Lcommaaccent.sc" horiz-adv-x="390" 
d="M367 0h-277v520h91v-444h186v-76zM176 -240l-23 34c36 26 47 49 47 67c0 21 -12 24 -12 44c0 24 17 46 47 46c31 0 51 -25 51 -57c0 -40 -27 -90 -110 -134z" />
    <glyph glyph-name="uni1E36.sc" horiz-adv-x="390" 
d="M367 0h-277v520h91v-444h186v-76zM285 -157c0 -32 -26 -58 -58 -58s-58 26 -58 58c0 33 26 58 58 58s58 -26 58 -58z" />
    <glyph glyph-name="uni1E38.sc" horiz-adv-x="390" 
d="M367 0h-277v520h91v-444h186v-76zM344 616h-245v68h245v-68zM288 -157c0 -32 -26 -58 -58 -58s-58 26 -58 58c0 33 26 58 58 58s58 -26 58 -58z" />
    <glyph glyph-name="Lslash.sc" horiz-adv-x="398" 
d="M376 0h-278v258l-59 -27l-19 63l78 36v190h92v-148l84 39l18 -64l-102 -46v-225h186v-76z" />
    <glyph glyph-name="Ldot.sc" horiz-adv-x="422" 
d="M367 0h-277v520h91v-444h186v-76zM435 303c0 -35 -28 -64 -64 -64s-64 29 -64 64c0 36 28 65 64 65s64 -29 64 -65z" />
    <glyph glyph-name="M.sc" horiz-adv-x="821" 
d="M765 0h-95l-48 296c-8 51 -15 105 -19 142h-1c-5 -27 -17 -73 -29 -109l-121 -329h-90l-112 311c-13 39 -31 90 -40 127h-2c-3 -39 -10 -96 -16 -143l-44 -295h-92l88 520h125l112 -306c10 -29 22 -67 29 -97h1c8 30 19 67 30 97l111 306h125z" />
    <glyph glyph-name="uni1E40.sc" horiz-adv-x="821" 
d="M765 0h-95l-48 296c-8 51 -15 105 -19 142h-1c-5 -27 -17 -73 -29 -109l-121 -329h-90l-112 311c-13 39 -31 90 -40 127h-2c-3 -39 -10 -96 -16 -143l-44 -295h-92l88 520h125l112 -306c10 -29 22 -67 29 -97h1c8 30 19 67 30 97l111 306h125zM469 658
c0 -32 -26 -58 -58 -58s-58 25 -58 58c0 32 26 58 58 58s58 -26 58 -58z" />
    <glyph glyph-name="uni1E42.sc" horiz-adv-x="821" 
d="M765 0h-95l-48 296c-8 51 -15 105 -19 142h-1c-5 -27 -17 -73 -29 -109l-121 -329h-90l-112 311c-13 39 -31 90 -40 127h-2c-3 -39 -10 -96 -16 -143l-44 -295h-92l88 520h125l112 -306c10 -29 22 -67 29 -97h1c8 30 19 67 30 97l111 306h125zM467 -157
c0 -32 -26 -58 -58 -58s-58 26 -58 58c0 33 26 58 58 58s58 -26 58 -58z" />
    <glyph glyph-name="N.sc" horiz-adv-x="635" 
d="M545 0h-105l-193 286c-28 42 -58 91 -74 121h-1c3 -48 4 -113 4 -182l1 -225h-87v520h112l186 -276c28 -42 58 -91 74 -121h1c-3 48 -4 113 -4 182l-1 215h87v-520z" />
    <glyph glyph-name="Nacute.sc" horiz-adv-x="635" 
d="M545 0h-105l-193 286c-28 42 -58 91 -74 121h-1c3 -48 4 -113 4 -182l1 -225h-87v520h112l186 -276c28 -42 58 -91 74 -121h1c-3 48 -4 113 -4 182l-1 215h87v-520zM465 676l-149 -102l-38 49l140 115z" />
    <glyph glyph-name="Ncaron.sc" horiz-adv-x="635" 
d="M545 0h-105l-193 286c-28 42 -58 91 -74 121h-1c3 -48 4 -113 4 -182l1 -225h-87v520h112l186 -276c28 -42 58 -91 74 -121h1c-3 48 -4 113 -4 182l-1 215h87v-520zM475 696l-142 -119l-139 118l37 46l103 -80l105 80z" />
    <glyph glyph-name="Ntilde.sc" horiz-adv-x="635" 
d="M545 0h-105l-193 286c-28 42 -58 91 -74 121h-1c3 -48 4 -113 4 -182l1 -225h-87v520h112l186 -276c28 -42 58 -91 74 -121h1c-3 48 -4 113 -4 182l-1 215h87v-520zM450 706l44 -35c-26 -50 -63 -78 -109 -78c-65 0 -85 55 -127 55c-22 0 -42 -16 -59 -47l-45 35
c26 50 63 78 109 78c65 0 85 -54 127 -54c22 0 42 15 60 46z" />
    <glyph glyph-name="uni1E44.sc" horiz-adv-x="635" 
d="M545 0h-105l-193 286c-28 42 -58 91 -74 121h-1c3 -48 4 -113 4 -182l1 -225h-87v520h112l186 -276c28 -42 58 -91 74 -121h1c-3 48 -4 113 -4 182l-1 215h87v-520zM384 658c0 -32 -26 -58 -58 -58s-58 25 -58 58c0 32 26 58 58 58s58 -26 58 -58z" />
    <glyph glyph-name="uni1E46.sc" horiz-adv-x="635" 
d="M545 0h-105l-193 286c-28 42 -58 91 -74 121h-1c3 -48 4 -113 4 -182l1 -225h-87v520h112l186 -276c28 -42 58 -91 74 -121h1c-3 48 -4 113 -4 182l-1 215h87v-520zM372 -157c0 -32 -26 -58 -58 -58s-58 26 -58 58c0 33 26 58 58 58s58 -26 58 -58z" />
    <glyph glyph-name="Ncommaaccent.sc" horiz-adv-x="635" 
d="M545 0h-105l-193 286c-28 42 -58 91 -74 121h-1c3 -48 4 -113 4 -182l1 -225h-87v520h112l186 -276c28 -42 58 -91 74 -121h1c-3 48 -4 113 -4 182l-1 215h87v-520zM258 -240l-23 34c36 26 47 49 47 67c0 21 -12 24 -12 44c0 24 17 46 47 46c31 0 51 -25 51 -57
c0 -40 -27 -90 -110 -134z" />
    <glyph glyph-name="Eng.sc" horiz-adv-x="633" 
d="M543 520v-516c0 -126 -54 -190 -177 -215l-19 73c72 15 105 52 106 131l-224 320c-22 32 -40 62 -56 93h-1c3 -38 4 -90 4 -153l1 -253h-87v520h112l209 -302c18 -27 34 -51 51 -81c-3 62 -4 127 -4 172l-1 211h86z" />
    <glyph glyph-name="O.sc" horiz-adv-x="606" 
d="M561 268c0 -167 -107 -277 -267 -277c-159 0 -249 95 -249 261c0 167 107 277 267 277c159 0 249 -95 249 -261zM465 258c0 120 -57 195 -161 195c-95 0 -163 -68 -163 -191c0 -120 57 -194 161 -194c95 0 163 67 163 190z" />
    <glyph glyph-name="Ograve.sc" horiz-adv-x="606" 
d="M561 268c0 -167 -107 -277 -267 -277c-159 0 -249 95 -249 261c0 167 107 277 267 277c159 0 249 -95 249 -261zM465 258c0 120 -57 195 -161 195c-95 0 -163 -68 -163 -191c0 -120 57 -194 161 -194c95 0 163 67 163 190zM348 624l-38 -50l-149 102l47 62z" />
    <glyph glyph-name="Oacute.sc" horiz-adv-x="606" 
d="M561 268c0 -167 -107 -277 -267 -277c-159 0 -249 95 -249 261c0 167 107 277 267 277c159 0 249 -95 249 -261zM465 258c0 120 -57 195 -161 195c-95 0 -163 -68 -163 -191c0 -120 57 -194 161 -194c95 0 163 67 163 190zM443 676l-149 -102l-38 49l140 115z" />
    <glyph glyph-name="Ocircumflex.sc" horiz-adv-x="606" 
d="M561 268c0 -167 -107 -277 -267 -277c-159 0 -249 95 -249 261c0 167 107 277 267 277c159 0 249 -95 249 -261zM465 258c0 120 -57 195 -161 195c-95 0 -163 -68 -163 -191c0 -120 57 -194 161 -194c95 0 163 67 163 190zM448 624l-37 -46l-104 80l-105 -80l-35 45
l142 119z" />
    <glyph glyph-name="Otilde.sc" horiz-adv-x="606" 
d="M561 268c0 -167 -107 -277 -267 -277c-159 0 -249 95 -249 261c0 167 107 277 267 277c159 0 249 -95 249 -261zM465 258c0 120 -57 195 -161 195c-95 0 -163 -68 -163 -191c0 -120 57 -194 161 -194c95 0 163 67 163 190zM431 706l44 -35c-26 -50 -63 -78 -109 -78
c-65 0 -85 55 -127 55c-22 0 -42 -16 -59 -47l-45 35c26 50 63 78 109 78c65 0 85 -54 127 -54c22 0 42 15 60 46z" />
    <glyph glyph-name="Odieresis.sc" horiz-adv-x="606" 
d="M561 268c0 -167 -107 -277 -267 -277c-159 0 -249 95 -249 261c0 167 107 277 267 277c159 0 249 -95 249 -261zM465 258c0 120 -57 195 -161 195c-95 0 -163 -68 -163 -191c0 -120 57 -194 161 -194c95 0 163 67 163 190zM453 654c0 -30 -24 -54 -54 -54s-54 24 -54 54
s24 54 54 54s54 -24 54 -54zM261 654c0 -30 -24 -54 -54 -54s-54 24 -54 54s24 54 54 54s54 -24 54 -54z" />
    <glyph glyph-name="Omacron.sc" horiz-adv-x="606" 
d="M561 268c0 -167 -107 -277 -267 -277c-159 0 -249 95 -249 261c0 167 107 277 267 277c159 0 249 -95 249 -261zM465 258c0 120 -57 195 -161 195c-95 0 -163 -68 -163 -191c0 -120 57 -194 161 -194c95 0 163 67 163 190zM428 616h-245v68h245v-68z" />
    <glyph glyph-name="Obreve.sc" horiz-adv-x="606" 
d="M561 268c0 -167 -107 -277 -267 -277c-159 0 -249 95 -249 261c0 167 107 277 267 277c159 0 249 -95 249 -261zM465 258c0 120 -57 195 -161 195c-95 0 -163 -68 -163 -191c0 -120 57 -194 161 -194c95 0 163 67 163 190zM368 718h62c0 -71 -39 -135 -127 -135
s-123 65 -123 135h61c0 -37 21 -68 63 -68c39 0 64 25 64 68z" />
    <glyph glyph-name="Ohungarumlaut.sc" horiz-adv-x="606" 
d="M561 268c0 -167 -107 -277 -267 -277c-159 0 -249 95 -249 261c0 167 107 277 267 277c159 0 249 -95 249 -261zM465 258c0 120 -57 195 -161 195c-95 0 -163 -68 -163 -191c0 -120 57 -194 161 -194c95 0 163 67 163 190zM544 689l-141 -115l-42 41l131 126zM359 694
l-124 -120l-44 40l113 130z" />
    <glyph glyph-name="Ohorn.sc" horiz-adv-x="606" 
d="M497 666l78 19c12 -27 20 -63 20 -91c0 -79 -40 -122 -102 -131c39 -39 68 -102 68 -195c0 -167 -107 -277 -267 -277c-159 0 -249 95 -249 261c0 167 107 277 267 277c67 0 97 -18 136 -18c46 0 70 28 70 74c0 25 -9 56 -21 81zM465 258c0 120 -57 195 -161 195
c-95 0 -163 -68 -163 -191c0 -120 57 -194 161 -194c95 0 163 67 163 190z" />
    <glyph glyph-name="uni01D1.sc" horiz-adv-x="606" 
d="M561 268c0 -167 -107 -277 -267 -277c-159 0 -249 95 -249 261c0 167 107 277 267 277c159 0 249 -95 249 -261zM465 258c0 120 -57 195 -161 195c-95 0 -163 -68 -163 -191c0 -120 57 -194 161 -194c95 0 163 67 163 190zM444 696l-142 -119l-139 118l37 46l103 -80
l105 80z" />
    <glyph glyph-name="uni1ECC.sc" horiz-adv-x="606" 
d="M561 268c0 -167 -107 -277 -267 -277c-159 0 -249 95 -249 261c0 167 107 277 267 277c159 0 249 -95 249 -261zM465 258c0 120 -57 195 -161 195c-95 0 -163 -68 -163 -191c0 -120 57 -194 161 -194c95 0 163 67 163 190zM360 -160c0 -32 -26 -58 -58 -58s-58 26 -58 58
c0 33 26 58 58 58s58 -26 58 -58z" />
    <glyph glyph-name="uni1ECE.sc" horiz-adv-x="606" 
d="M561 268c0 -167 -107 -277 -267 -277c-159 0 -249 95 -249 261c0 167 107 277 267 277c159 0 249 -95 249 -261zM465 258c0 120 -57 195 -161 195c-95 0 -163 -68 -163 -191c0 -120 57 -194 161 -194c95 0 163 67 163 190zM294 575l-12 46c13 4 54 22 54 51
c0 22 -19 34 -52 34c-31 0 -67 -12 -76 -16l-14 51c16 7 61 23 111 23c65 0 105 -27 105 -77c0 -71 -84 -104 -116 -112z" />
    <glyph glyph-name="uni1ED0.sc" horiz-adv-x="606" 
d="M561 268c0 -167 -107 -277 -267 -277c-159 0 -249 95 -249 261c0 167 107 277 267 277c159 0 249 -95 249 -261zM465 258c0 120 -57 195 -161 195c-95 0 -163 -68 -163 -191c0 -120 57 -194 161 -194c95 0 163 67 163 190zM433 607l-33 -38l-98 69l-98 -69l-31 37
l130 106zM400 797l-178 -58l-19 45l169 74z" />
    <glyph glyph-name="uni1ED2.sc" horiz-adv-x="606" 
d="M561 268c0 -167 -107 -277 -267 -277c-159 0 -249 95 -249 261c0 167 107 277 267 277c159 0 249 -95 249 -261zM465 258c0 120 -57 195 -161 195c-95 0 -163 -68 -163 -191c0 -120 57 -194 161 -194c95 0 163 67 163 190zM433 607l-33 -38l-98 69l-98 -69l-31 37
l130 106zM367 739l-178 58l28 61l168 -74z" />
    <glyph glyph-name="uni1ED4.sc" horiz-adv-x="606" 
d="M561 268c0 -167 -107 -277 -267 -277c-159 0 -249 95 -249 261c0 167 107 277 267 277c159 0 249 -95 249 -261zM465 258c0 120 -57 195 -161 195c-95 0 -163 -68 -163 -191c0 -120 57 -194 161 -194c95 0 163 67 163 190zM433 607l-33 -38l-98 69l-98 -69l-31 37
l130 106zM373 708l-41 31c9 7 23 20 23 36c0 21 -16 33 -53 33c-33 0 -69 -13 -77 -17l-13 48c15 7 55 23 109 23c62 0 102 -27 102 -74c0 -38 -28 -66 -50 -80z" />
    <glyph glyph-name="uni1ED6.sc" horiz-adv-x="606" 
d="M561 268c0 -167 -107 -277 -267 -277c-159 0 -249 95 -249 261c0 167 107 277 267 277c159 0 249 -95 249 -261zM465 258c0 120 -57 195 -161 195c-95 0 -163 -68 -163 -191c0 -120 57 -194 161 -194c95 0 163 67 163 190zM432 607l-32 -38l-98 69l-99 -69l-30 37
l130 106zM408 843l45 -28c-20 -43 -59 -70 -95 -70c-53 0 -65 49 -98 49c-16 0 -32 -13 -47 -42l-45 28c20 43 58 70 94 70c54 0 65 -49 99 -49c16 0 32 13 47 42z" />
    <glyph glyph-name="uni1ED8.sc" horiz-adv-x="606" 
d="M561 268c0 -167 -107 -277 -267 -277c-159 0 -249 95 -249 261c0 167 107 277 267 277c159 0 249 -95 249 -261zM465 258c0 120 -57 195 -161 195c-95 0 -163 -68 -163 -191c0 -120 57 -194 161 -194c95 0 163 67 163 190zM444 624l-37 -46l-104 80l-105 -80l-35 45
l142 119zM360 -160c0 -32 -26 -58 -58 -58s-58 26 -58 58c0 33 26 58 58 58s58 -26 58 -58z" />
    <glyph glyph-name="uni1EDA.sc" horiz-adv-x="606" 
d="M497 666l78 19c12 -27 20 -63 20 -91c0 -79 -40 -122 -102 -131c39 -39 68 -102 68 -195c0 -167 -107 -277 -267 -277c-159 0 -249 95 -249 261c0 167 107 277 267 277c67 0 97 -18 136 -18c46 0 70 28 70 74c0 25 -9 56 -21 81zM465 258c0 120 -57 195 -161 195
c-95 0 -163 -68 -163 -191c0 -120 57 -194 161 -194c95 0 163 67 163 190zM431 676l-149 -102l-38 49l140 115z" />
    <glyph glyph-name="uni1EDC.sc" horiz-adv-x="606" 
d="M497 666l78 19c12 -27 20 -63 20 -91c0 -79 -40 -122 -102 -131c39 -39 68 -102 68 -195c0 -167 -107 -277 -267 -277c-159 0 -249 95 -249 261c0 167 107 277 267 277c67 0 97 -18 136 -18c46 0 70 28 70 74c0 25 -9 56 -21 81zM465 258c0 120 -57 195 -161 195
c-95 0 -163 -68 -163 -191c0 -120 57 -194 161 -194c95 0 163 67 163 190zM348 624l-38 -50l-149 102l47 62z" />
    <glyph glyph-name="uni1EDE.sc" horiz-adv-x="606" 
d="M497 666l78 19c12 -27 20 -63 20 -91c0 -79 -40 -122 -102 -131c39 -39 68 -102 68 -195c0 -167 -107 -277 -267 -277c-159 0 -249 95 -249 261c0 167 107 277 267 277c67 0 97 -18 136 -18c46 0 70 28 70 74c0 25 -9 56 -21 81zM465 258c0 120 -57 195 -161 195
c-95 0 -163 -68 -163 -191c0 -120 57 -194 161 -194c95 0 163 67 163 190zM294 575l-12 46c13 4 54 22 54 51c0 22 -19 34 -52 34c-31 0 -67 -12 -76 -16l-14 51c16 7 61 23 111 23c65 0 105 -27 105 -77c0 -71 -84 -104 -116 -112z" />
    <glyph glyph-name="uni1EE0.sc" horiz-adv-x="606" 
d="M497 666l78 19c12 -27 20 -63 20 -91c0 -79 -40 -122 -102 -131c39 -39 68 -102 68 -195c0 -167 -107 -277 -267 -277c-159 0 -249 95 -249 261c0 167 107 277 267 277c67 0 97 -18 136 -18c46 0 70 28 70 74c0 25 -9 56 -21 81zM465 258c0 120 -57 195 -161 195
c-95 0 -163 -68 -163 -191c0 -120 57 -194 161 -194c95 0 163 67 163 190zM416 706l44 -35c-26 -50 -63 -78 -109 -78c-65 0 -85 55 -127 55c-22 0 -42 -16 -59 -47l-45 35c26 50 63 78 109 78c65 0 85 -54 127 -54c22 0 42 15 60 46z" />
    <glyph glyph-name="uni1EE2.sc" horiz-adv-x="606" 
d="M497 666l78 19c12 -27 20 -63 20 -91c0 -79 -40 -122 -102 -131c39 -39 68 -102 68 -195c0 -167 -107 -277 -267 -277c-159 0 -249 95 -249 261c0 167 107 277 267 277c67 0 97 -18 136 -18c46 0 70 28 70 74c0 25 -9 56 -21 81zM465 258c0 120 -57 195 -161 195
c-95 0 -163 -68 -163 -191c0 -120 57 -194 161 -194c95 0 163 67 163 190zM360 -160c0 -32 -26 -58 -58 -58s-58 26 -58 58c0 33 26 58 58 58s58 -26 58 -58z" />
    <glyph glyph-name="Oslash.sc" horiz-adv-x="606" 
d="M452 611l60 -28l-50 -93c64 -44 99 -121 99 -222c0 -167 -107 -277 -267 -277c-33 0 -63 4 -90 13l-50 -95l-60 28l50 94c-65 43 -99 120 -99 221c0 167 107 277 267 277c32 0 63 -4 90 -13zM188 113l175 330c-19 8 -40 12 -60 12c-95 0 -164 -69 -164 -193
c0 -68 19 -118 49 -149zM418 408l-174 -330c17 -8 38 -12 59 -12c95 0 164 68 164 192c0 68 -20 119 -49 150z" />
    <glyph glyph-name="Oslashacute.sc" horiz-adv-x="606" 
d="M452 611l60 -28l-50 -93c64 -44 99 -121 99 -222c0 -167 -107 -277 -267 -277c-33 0 -63 4 -90 13l-50 -95l-60 28l50 94c-65 43 -99 120 -99 221c0 167 107 277 267 277c32 0 63 -4 90 -13zM188 113l175 330c-19 8 -40 12 -60 12c-95 0 -164 -69 -164 -193
c0 -68 19 -118 49 -149zM418 408l-174 -330c17 -8 38 -12 59 -12c95 0 164 68 164 192c0 68 -20 119 -49 150zM409 718l-140 -129l-44 43l129 139z" />
    <glyph glyph-name="OE.sc" horiz-adv-x="744" 
d="M677 0h-293c-28 -6 -57 -9 -90 -9c-159 0 -249 95 -249 261c0 167 107 277 267 277c29 0 56 -3 82 -9h283v-71h-211v-147h193v-69h-193v-160h211v-73zM375 78v365c-23 7 -48 10 -71 10c-95 0 -163 -68 -163 -191c0 -120 57 -194 161 -194c23 0 51 4 73 10z" />
    <glyph glyph-name="P.sc" horiz-adv-x="493" 
d="M181 0h-91v520c41 1 99 3 158 3c134 0 207 -63 207 -167c0 -111 -84 -183 -222 -183c-24 0 -52 2 -52 2v-175zM181 448v-200s31 -2 56 -2c83 0 122 39 122 103c0 61 -38 100 -121 100c-32 0 -57 -1 -57 -1z" />
    <glyph glyph-name="uni1E56.sc" horiz-adv-x="493" 
d="M181 0h-91v520c41 1 99 3 158 3c134 0 207 -63 207 -167c0 -111 -84 -183 -222 -183c-24 0 -52 2 -52 2v-175zM181 448v-200s31 -2 56 -2c83 0 122 39 122 103c0 61 -38 100 -121 100c-32 0 -57 -1 -57 -1zM301 658c0 -32 -26 -58 -58 -58s-58 25 -58 58
c0 32 26 58 58 58s58 -26 58 -58z" />
    <glyph glyph-name="Thorn.sc" horiz-adv-x="493" 
d="M181 0h-91v520h91v-78s32 1 67 1c134 0 207 -63 207 -166c0 -111 -84 -183 -222 -183c-24 0 -52 2 -52 2v-96zM181 368v-198s31 -3 56 -3c83 0 122 39 122 103c0 61 -38 100 -121 100c-29 0 -57 -2 -57 -2z" />
    <glyph glyph-name="Q.sc" horiz-adv-x="606" 
d="M625 10v-77c-157 -21 -172 58 -316 58h-15c-159 0 -249 95 -249 261c0 167 107 277 267 277c159 0 249 -95 249 -261c0 -73 -22 -145 -69 -192c-17 -16 -37 -31 -57 -38c58 3 98 -40 190 -28zM465 258c0 120 -57 195 -161 195c-95 0 -163 -68 -163 -191
c0 -120 57 -194 161 -194c95 0 163 67 163 190z" />
    <glyph glyph-name="Q.sc.alt0" horiz-adv-x="606" 
d="M648 -101v-80c-163 -23 -231 50 -369 34v80c158 16 214 -54 369 -34zM561 268c0 -167 -107 -277 -267 -277c-159 0 -249 95 -249 261c0 167 107 277 267 277c159 0 249 -95 249 -261zM465 258c0 120 -57 195 -161 195c-95 0 -163 -68 -163 -191c0 -120 57 -194 161 -194
c95 0 163 67 163 190z" />
    <glyph glyph-name="Q.sc.alt1" horiz-adv-x="606" 
d="M598 -36l-60 -52l-105 115c-38 -23 -86 -36 -139 -36c-159 0 -249 95 -249 261c0 167 107 277 267 277c159 0 249 -95 249 -261c0 -79 -24 -145 -66 -192zM363 222l70 -77c21 27 33 66 33 113c0 120 -58 196 -162 196c-95 0 -164 -69 -164 -192c0 -120 58 -195 162 -195
c29 0 56 8 78 23l-75 83z" />
    <glyph glyph-name="Q.sc.alt2" horiz-adv-x="606" 
d="M606 -30l-62 -55l-107 113c-40 -24 -88 -37 -143 -37c-159 0 -249 95 -249 261c0 167 107 277 267 277c159 0 249 -95 249 -261c0 -76 -22 -140 -61 -187zM465 258c0 120 -57 195 -161 195c-95 0 -163 -68 -163 -191c0 -120 57 -194 161 -194c95 0 163 67 163 190z" />
    <glyph glyph-name="R.sc" horiz-adv-x="512" 
d="M478 0h-112l-150 215h-35v-215h-91v520s74 3 155 3c119 0 198 -45 198 -148c0 -84 -60 -131 -133 -145c15 -17 30 -37 43 -56zM181 451v-171s30 -1 54 -1c73 0 112 34 112 88c0 49 -32 86 -111 86c-28 0 -55 -2 -55 -2z" />
    <glyph glyph-name="Racute.sc" horiz-adv-x="512" 
d="M478 0h-112l-150 215h-35v-215h-91v520s74 3 155 3c119 0 198 -45 198 -148c0 -84 -60 -131 -133 -145c15 -17 30 -37 43 -56zM181 451v-171s30 -1 54 -1c73 0 112 34 112 88c0 49 -32 86 -111 86c-28 0 -55 -2 -55 -2zM386 676l-149 -102l-38 49l140 115z" />
    <glyph glyph-name="Rcaron.sc" horiz-adv-x="512" 
d="M478 0h-112l-150 215h-35v-215h-91v520s74 3 155 3c119 0 198 -45 198 -148c0 -84 -60 -131 -133 -145c15 -17 30 -37 43 -56zM181 451v-171s30 -1 54 -1c73 0 112 34 112 88c0 49 -32 86 -111 86c-28 0 -55 -2 -55 -2zM388 696l-142 -119l-139 118l37 46l103 -80l105 80
z" />
    <glyph glyph-name="uni1E5A.sc" horiz-adv-x="512" 
d="M478 0h-112l-150 215h-35v-215h-91v520s74 3 155 3c119 0 198 -45 198 -148c0 -84 -60 -131 -133 -145c15 -17 30 -37 43 -56zM181 451v-171s30 -1 54 -1c73 0 112 34 112 88c0 49 -32 86 -111 86c-28 0 -55 -2 -55 -2zM305 -157c0 -32 -26 -58 -58 -58s-58 26 -58 58
c0 33 26 58 58 58s58 -26 58 -58z" />
    <glyph glyph-name="uni1E5C.sc" horiz-adv-x="512" 
d="M478 0h-112l-150 215h-35v-215h-91v520s74 3 155 3c119 0 198 -45 198 -148c0 -84 -60 -131 -133 -145c15 -17 30 -37 43 -56zM181 451v-171s30 -1 54 -1c73 0 112 34 112 88c0 49 -32 86 -111 86c-28 0 -55 -2 -55 -2zM374 616h-245v68h245v-68zM313 -157
c0 -32 -26 -58 -58 -58s-58 26 -58 58c0 33 26 58 58 58s58 -26 58 -58z" />
    <glyph glyph-name="Rcommaaccent.sc" horiz-adv-x="512" 
d="M478 0h-112l-150 215h-35v-215h-91v520s74 3 155 3c119 0 198 -45 198 -148c0 -84 -60 -131 -133 -145c15 -17 30 -37 43 -56zM181 451v-171s30 -1 54 -1c73 0 112 34 112 88c0 49 -32 86 -111 86c-28 0 -55 -2 -55 -2zM207 -240l-23 34c36 26 47 49 47 67
c0 21 -12 24 -12 44c0 24 17 46 47 46c31 0 51 -25 51 -57c0 -40 -27 -90 -110 -134z" />
    <glyph glyph-name="S.sc" horiz-adv-x="460" 
d="M368 519l-9 -76c-31 8 -72 14 -104 14c-75 0 -106 -25 -106 -70c0 -105 257 -65 257 -236c0 -88 -72 -160 -217 -160c-43 0 -96 7 -130 15l11 80c38 -13 84 -21 127 -21c80 0 111 33 111 78c0 106 -254 65 -254 237c0 82 64 149 205 149c33 0 79 -4 109 -10z" />
    <glyph glyph-name="Sacute.sc" horiz-adv-x="460" 
d="M368 519l-9 -76c-31 8 -72 14 -104 14c-75 0 -106 -25 -106 -70c0 -105 257 -65 257 -236c0 -88 -72 -160 -217 -160c-43 0 -96 7 -130 15l11 80c38 -13 84 -21 127 -21c80 0 111 33 111 78c0 106 -254 65 -254 237c0 82 64 149 205 149c33 0 79 -4 109 -10zM364 676
l-149 -102l-38 49l140 115z" />
    <glyph glyph-name="Scircumflex.sc" horiz-adv-x="460" 
d="M368 519l-9 -76c-31 8 -72 14 -104 14c-75 0 -106 -25 -106 -70c0 -105 257 -65 257 -236c0 -88 -72 -160 -217 -160c-43 0 -96 7 -130 15l11 80c38 -13 84 -21 127 -21c80 0 111 33 111 78c0 106 -254 65 -254 237c0 82 64 149 205 149c33 0 79 -4 109 -10zM371 624
l-37 -46l-104 80l-105 -80l-35 45l142 119z" />
    <glyph glyph-name="Scaron.sc" horiz-adv-x="460" 
d="M368 519l-9 -76c-31 8 -72 14 -104 14c-75 0 -106 -25 -106 -70c0 -105 257 -65 257 -236c0 -88 -72 -160 -217 -160c-43 0 -96 7 -130 15l11 80c38 -13 84 -21 127 -21c80 0 111 33 111 78c0 106 -254 65 -254 237c0 82 64 149 205 149c33 0 79 -4 109 -10zM368 696
l-142 -119l-139 118l37 46l103 -80l105 80z" />
    <glyph glyph-name="Scedilla.sc" horiz-adv-x="460" 
d="M368 519l-9 -76c-31 8 -72 14 -104 14c-75 0 -106 -25 -106 -70c0 -105 257 -65 257 -236c0 -88 -72 -160 -217 -160c-43 0 -96 7 -130 15l11 80c38 -13 84 -21 127 -21c80 0 111 33 111 78c0 106 -254 65 -254 237c0 82 64 149 205 149c33 0 79 -4 109 -10zM179 -70
l77 30c51 -67 35 -130 -21 -195h-73c52 65 64 107 17 165z" />
    <glyph glyph-name="Scommaaccent.sc" horiz-adv-x="460" 
d="M368 519l-9 -76c-31 8 -72 14 -104 14c-75 0 -106 -25 -106 -70c0 -105 257 -65 257 -236c0 -88 -72 -160 -217 -160c-43 0 -96 7 -130 15l11 80c38 -13 84 -21 127 -21c80 0 111 33 111 78c0 106 -254 65 -254 237c0 82 64 149 205 149c33 0 79 -4 109 -10zM170 -240
l-23 34c36 26 47 49 47 67c0 21 -12 24 -12 44c0 24 17 46 47 46c31 0 51 -25 51 -57c0 -40 -27 -90 -110 -134z" />
    <glyph glyph-name="uni1E60.sc" horiz-adv-x="460" 
d="M368 519l-9 -76c-31 8 -72 14 -104 14c-75 0 -106 -25 -106 -70c0 -105 257 -65 257 -236c0 -88 -72 -160 -217 -160c-43 0 -96 7 -130 15l11 80c38 -13 84 -21 127 -21c80 0 111 33 111 78c0 106 -254 65 -254 237c0 82 64 149 205 149c33 0 79 -4 109 -10zM289 661
c0 -32 -26 -58 -58 -58s-58 25 -58 58c0 32 26 58 58 58s58 -26 58 -58z" />
    <glyph glyph-name="uni1E62.sc" horiz-adv-x="460" 
d="M368 519l-9 -76c-31 8 -72 14 -104 14c-75 0 -106 -25 -106 -70c0 -105 257 -65 257 -236c0 -88 -72 -160 -217 -160c-43 0 -96 7 -130 15l11 80c38 -13 84 -21 127 -21c80 0 111 33 111 78c0 106 -254 65 -254 237c0 82 64 149 205 149c33 0 79 -4 109 -10zM288 -157
c0 -32 -26 -58 -58 -58s-58 26 -58 58c0 33 26 58 58 58s58 -26 58 -58z" />
    <glyph glyph-name="uni1E9E.sc" horiz-adv-x="638" 
d="M537 514v-57l-134 -159c109 -6 177 -59 177 -149c0 -80 -68 -158 -208 -158c-32 0 -71 4 -107 10l7 74c31 -7 66 -12 99 -12c76 0 112 37 112 82c0 53 -41 87 -140 87h-42v57l136 163c-33 4 -74 7 -110 7c-98 0 -146 -43 -146 -136v-323h-91v322c0 143 92 208 247 208
c61 0 132 -6 200 -16z" />
    <glyph glyph-name="T.sc" horiz-adv-x="431" 
d="M411 445h-150v-445h-92v445h-150v75h392v-75z" />
    <glyph glyph-name="Tcaron.sc" horiz-adv-x="431" 
d="M411 445h-150v-445h-92v445h-150v75h392v-75zM355 696l-142 -119l-139 118l37 46l103 -80l105 80z" />
    <glyph glyph-name="Tcommaaccent.sc" horiz-adv-x="431" 
d="M411 445h-150v-445h-92v445h-150v75h392v-75zM157 -240l-23 34c36 26 47 49 47 67c0 21 -12 24 -12 44c0 24 17 46 47 46c31 0 51 -25 51 -57c0 -40 -27 -90 -110 -134z" />
    <glyph glyph-name="uni0162.sc" horiz-adv-x="431" 
d="M411 445h-150v-445h-92v445h-150v75h392v-75zM167 -70l77 30c51 -67 35 -130 -21 -195h-73c52 65 64 107 17 165z" />
    <glyph glyph-name="uni1E6A.sc" horiz-adv-x="431" 
d="M411 445h-150v-445h-92v445h-150v75h392v-75zM273 658c0 -32 -26 -58 -58 -58s-58 25 -58 58c0 32 26 58 58 58s58 -26 58 -58z" />
    <glyph glyph-name="uni1E6C.sc" horiz-adv-x="431" 
d="M411 445h-150v-445h-92v445h-150v75h392v-75zM273 -157c0 -32 -26 -58 -58 -58s-58 26 -58 58c0 33 26 58 58 58s58 -26 58 -58z" />
    <glyph glyph-name="uni1E6E.sc" horiz-adv-x="431" 
d="M83 -187v68h266v-68h-266zM411 445h-150v-445h-92v445h-150v75h392v-75z" />
    <glyph glyph-name="Tbar.sc" horiz-adv-x="431" 
d="M411 445h-150v-153h99v-69h-99v-223h-92v223h-99v69h99v153h-150v75h392v-75z" />
    <glyph glyph-name="U.sc" horiz-adv-x="629" 
d="M540 520v-322c0 -111 -67 -206 -231 -206c-145 0 -220 68 -220 188v340h91v-324c0 -89 49 -129 135 -129c99 0 135 55 135 138v315h90z" />
    <glyph glyph-name="Ugrave.sc" horiz-adv-x="629" 
d="M540 520v-322c0 -111 -67 -206 -231 -206c-145 0 -220 68 -220 188v340h91v-324c0 -89 49 -129 135 -129c99 0 135 55 135 138v315h90zM352 624l-38 -50l-149 102l47 62z" />
    <glyph glyph-name="Uacute.sc" horiz-adv-x="629" 
d="M540 520v-322c0 -111 -67 -206 -231 -206c-145 0 -220 68 -220 188v340h91v-324c0 -89 49 -129 135 -129c99 0 135 55 135 138v315h90zM464 676l-149 -102l-38 49l140 115z" />
    <glyph glyph-name="Ucircumflex.sc" horiz-adv-x="629" 
d="M540 520v-322c0 -111 -67 -206 -231 -206c-145 0 -220 68 -220 188v340h91v-324c0 -89 49 -129 135 -129c99 0 135 55 135 138v315h90zM458 624l-37 -46l-104 80l-105 -80l-35 45l142 119z" />
    <glyph glyph-name="Utilde.sc" horiz-adv-x="629" 
d="M540 520v-322c0 -111 -67 -206 -231 -206c-145 0 -220 68 -220 188v340h91v-324c0 -89 49 -129 135 -129c99 0 135 55 135 138v315h90zM441 706l44 -35c-26 -50 -63 -78 -109 -78c-65 0 -85 55 -127 55c-22 0 -42 -16 -59 -47l-45 35c26 50 63 78 109 78
c65 0 85 -54 127 -54c22 0 42 15 60 46z" />
    <glyph glyph-name="Udieresis.sc" horiz-adv-x="629" 
d="M540 520v-322c0 -111 -67 -206 -231 -206c-145 0 -220 68 -220 188v340h91v-324c0 -89 49 -129 135 -129c99 0 135 55 135 138v315h90zM467 654c0 -30 -24 -54 -54 -54s-54 24 -54 54s24 54 54 54s54 -24 54 -54zM275 654c0 -30 -24 -54 -54 -54s-54 24 -54 54
s24 54 54 54s54 -24 54 -54z" />
    <glyph glyph-name="Umacron.sc" horiz-adv-x="629" 
d="M540 520v-322c0 -111 -67 -206 -231 -206c-145 0 -220 68 -220 188v340h91v-324c0 -89 49 -129 135 -129c99 0 135 55 135 138v315h90zM439 616h-245v68h245v-68z" />
    <glyph glyph-name="Ubreve.sc" horiz-adv-x="629" 
d="M540 520v-322c0 -111 -67 -206 -231 -206c-145 0 -220 68 -220 188v340h91v-324c0 -89 49 -129 135 -129c99 0 135 55 135 138v315h90zM378 718h62c0 -71 -39 -135 -127 -135s-123 65 -123 135h61c0 -37 21 -68 63 -68c39 0 64 25 64 68z" />
    <glyph glyph-name="Uring.sc" horiz-adv-x="629" 
d="M540 520v-322c0 -111 -67 -206 -231 -206c-145 0 -220 68 -220 188v340h91v-324c0 -89 49 -129 135 -129c99 0 135 55 135 138v315h90zM432 674c0 -64 -48 -112 -121 -112c-69 0 -111 35 -111 105c0 64 47 113 120 113c70 0 112 -35 112 -106zM366 670
c0 39 -18 58 -50 58c-27 0 -51 -18 -51 -57c0 -38 18 -58 50 -58c27 0 51 19 51 57z" />
    <glyph glyph-name="Uhungarumlaut.sc" horiz-adv-x="629" 
d="M540 520v-322c0 -111 -67 -206 -231 -206c-145 0 -220 68 -220 188v340h91v-324c0 -89 49 -129 135 -129c99 0 135 55 135 138v315h90zM542 689l-141 -115l-42 41l131 126zM357 694l-124 -120l-44 40l113 130z" />
    <glyph glyph-name="Uogonek.sc" horiz-adv-x="629" 
d="M540 520v-322c0 -62 -20 -111 -55 -146c-34 -34 -73 -55 -107 -89c-30 -29 -45 -58 -45 -88c0 -26 14 -40 40 -40c21 0 42 9 66 26l28 -51c-32 -29 -71 -44 -113 -44c-67 0 -107 35 -107 91c0 47 26 97 79 136c-7 -1 -16 -1 -23 -1c-128 0 -214 60 -214 188v340h91v-324
c0 -89 49 -129 135 -129c99 0 135 55 135 138v315h90z" />
    <glyph glyph-name="Uhorn.sc" horiz-adv-x="629" 
d="M450 520h39c48 0 63 25 63 65c0 25 -9 56 -21 81l78 20c12 -27 20 -64 20 -93c0 -78 -38 -112 -89 -126v-269c0 -111 -67 -206 -231 -206c-145 0 -220 68 -220 188v340h91v-324c0 -89 49 -129 135 -129c99 0 135 55 135 138v315z" />
    <glyph glyph-name="uni01D3.sc" horiz-adv-x="629" 
d="M540 520v-322c0 -111 -67 -206 -231 -206c-145 0 -220 68 -220 188v340h91v-324c0 -89 49 -129 135 -129c99 0 135 55 135 138v315h90zM456 696l-142 -119l-139 118l37 46l103 -80l105 80z" />
    <glyph glyph-name="uni01D5.sc" horiz-adv-x="629" 
d="M540 520v-322c0 -111 -67 -206 -231 -206c-145 0 -220 68 -220 188v340h91v-324c0 -89 49 -129 135 -129c99 0 135 55 135 138v315h90zM259 632c0 -27 -22 -49 -49 -49c-26 0 -48 22 -48 49s22 48 48 48c27 0 49 -21 49 -48zM468 632c0 -27 -22 -49 -49 -49
s-49 22 -49 49s22 48 49 48s49 -21 49 -48zM446 736h-262v59h262v-59z" />
    <glyph glyph-name="uni01D7.sc" horiz-adv-x="629" 
d="M540 520v-322c0 -111 -67 -206 -231 -206c-145 0 -220 68 -220 188v340h91v-324c0 -89 49 -129 135 -129c99 0 135 55 135 138v315h90zM259 632c0 -27 -22 -49 -49 -49c-26 0 -48 22 -48 49s22 48 48 48c27 0 49 -21 49 -48zM468 632c0 -27 -22 -49 -49 -49
s-49 22 -49 49s22 48 49 48s49 -21 49 -48zM463 788l-162 -73l-25 46l153 89z" />
    <glyph glyph-name="uni01D9.sc" horiz-adv-x="629" 
d="M540 520v-322c0 -111 -67 -206 -231 -206c-145 0 -220 68 -220 188v340h91v-324c0 -89 49 -129 135 -129c99 0 135 55 135 138v315h90zM468 632c0 -27 -22 -49 -49 -49s-49 22 -49 49s22 48 49 48s49 -21 49 -48zM259 632c0 -27 -22 -49 -49 -49c-26 0 -48 22 -48 49
s22 48 48 48c27 0 49 -21 49 -48zM173 807l26 43l117 -65l115 65l26 -42l-143 -97z" />
    <glyph glyph-name="uni01DB.sc" horiz-adv-x="629" 
d="M540 520v-322c0 -111 -67 -206 -231 -206c-145 0 -220 68 -220 188v340h91v-324c0 -89 49 -129 135 -129c99 0 135 55 135 138v315h90zM468 632c0 -27 -22 -49 -49 -49s-49 22 -49 49s22 48 49 48s49 -21 49 -48zM259 632c0 -27 -22 -49 -49 -49c-26 0 -48 22 -48 49
s22 48 48 48c27 0 49 -21 49 -48zM354 761l-26 -46l-162 73l35 62z" />
    <glyph glyph-name="uni1EE4.sc" horiz-adv-x="629" 
d="M540 520v-322c0 -111 -67 -206 -231 -206c-145 0 -220 68 -220 188v340h91v-324c0 -89 49 -129 135 -129c99 0 135 55 135 138v315h90zM372 -160c0 -32 -26 -58 -58 -58s-58 26 -58 58c0 33 26 58 58 58s58 -26 58 -58z" />
    <glyph glyph-name="uni1EE6.sc" horiz-adv-x="629" 
d="M540 520v-322c0 -111 -67 -206 -231 -206c-145 0 -220 68 -220 188v340h91v-324c0 -89 49 -129 135 -129c99 0 135 55 135 138v315h90zM306 575l-12 46c13 4 54 22 54 51c0 22 -19 34 -52 34c-31 0 -67 -12 -76 -16l-14 51c16 7 61 23 111 23c65 0 105 -27 105 -77
c0 -71 -84 -104 -116 -112z" />
    <glyph glyph-name="uni1EE8.sc" horiz-adv-x="629" 
d="M450 520h39c48 0 63 25 63 65c0 25 -9 56 -21 81l78 20c12 -27 20 -64 20 -93c0 -78 -38 -112 -89 -126v-269c0 -111 -67 -206 -231 -206c-145 0 -220 68 -220 188v340h91v-324c0 -89 49 -129 135 -129c99 0 135 55 135 138v315zM447 676l-149 -102l-38 49l140 115z" />
    <glyph glyph-name="uni1EEA.sc" horiz-adv-x="629" 
d="M450 520h39c48 0 63 25 63 65c0 25 -9 56 -21 81l78 20c12 -27 20 -64 20 -93c0 -78 -38 -112 -89 -126v-269c0 -111 -67 -206 -231 -206c-145 0 -220 68 -220 188v340h91v-324c0 -89 49 -129 135 -129c99 0 135 55 135 138v315zM352 624l-38 -50l-149 102l47 62z" />
    <glyph glyph-name="uni1EEC.sc" horiz-adv-x="629" 
d="M450 520h39c48 0 63 25 63 65c0 25 -9 56 -21 81l78 20c12 -27 20 -64 20 -93c0 -78 -38 -112 -89 -126v-269c0 -111 -67 -206 -231 -206c-145 0 -220 68 -220 188v340h91v-324c0 -89 49 -129 135 -129c99 0 135 55 135 138v315zM306 575l-12 46c13 4 54 22 54 51
c0 22 -19 34 -52 34c-31 0 -67 -12 -76 -16l-14 51c16 7 61 23 111 23c65 0 105 -27 105 -77c0 -71 -84 -104 -116 -112z" />
    <glyph glyph-name="uni1EEE.sc" horiz-adv-x="629" 
d="M450 520h39c48 0 63 25 63 65c0 25 -9 56 -21 81l78 20c12 -27 20 -64 20 -93c0 -78 -38 -112 -89 -126v-269c0 -111 -67 -206 -231 -206c-145 0 -220 68 -220 188v340h91v-324c0 -89 49 -129 135 -129c99 0 135 55 135 138v315zM418 706l44 -35
c-26 -50 -63 -78 -109 -78c-65 0 -85 55 -127 55c-22 0 -42 -16 -59 -47l-45 35c26 50 63 78 109 78c65 0 85 -54 127 -54c22 0 42 15 60 46z" />
    <glyph glyph-name="uni1EF0.sc" horiz-adv-x="629" 
d="M450 520h39c48 0 63 25 63 65c0 25 -9 56 -21 81l78 20c12 -27 20 -64 20 -93c0 -78 -38 -112 -89 -126v-269c0 -111 -67 -206 -231 -206c-145 0 -220 68 -220 188v340h91v-324c0 -89 49 -129 135 -129c99 0 135 55 135 138v315zM372 -160c0 -32 -26 -58 -58 -58
s-58 26 -58 58c0 33 26 58 58 58s58 -26 58 -58z" />
    <glyph glyph-name="V.sc" horiz-adv-x="535" 
d="M523 520l-204 -520h-108l-198 520h101l113 -306c17 -45 30 -87 41 -126h1c12 42 28 86 44 127l116 305h94z" />
    <glyph glyph-name="uni1E7E.sc" horiz-adv-x="535" 
d="M523 520l-204 -520h-108l-198 520h101l113 -306c17 -45 30 -87 41 -126h1c12 42 28 86 44 127l116 305h94zM325 -157c0 -32 -26 -58 -58 -58s-58 26 -58 58c0 33 26 58 58 58s58 -26 58 -58z" />
    <glyph glyph-name="W.sc" horiz-adv-x="866" 
d="M838 520l-158 -520h-119l-101 299c-9 29 -21 70 -31 108h-1c-9 -37 -19 -77 -31 -111l-98 -296h-113l-159 520h104l93 -317c12 -40 21 -76 28 -107h1c8 34 18 74 30 113l104 311h95l105 -309c11 -36 24 -80 32 -116h2c8 33 18 75 30 116l90 309h97z" />
    <glyph glyph-name="Wgrave.sc" horiz-adv-x="866" 
d="M838 520l-158 -520h-119l-101 299c-9 29 -21 70 -31 108h-1c-9 -37 -19 -77 -31 -111l-98 -296h-113l-159 520h104l93 -317c12 -40 21 -76 28 -107h1c8 34 18 74 30 113l104 311h95l105 -309c11 -36 24 -80 32 -116h2c8 33 18 75 30 116l90 309h97zM485 624l-38 -50
l-149 102l47 62z" />
    <glyph glyph-name="Wacute.sc" horiz-adv-x="866" 
d="M838 520l-158 -520h-119l-101 299c-9 29 -21 70 -31 108h-1c-9 -37 -19 -77 -31 -111l-98 -296h-113l-159 520h104l93 -317c12 -40 21 -76 28 -107h1c8 34 18 74 30 113l104 311h95l105 -309c11 -36 24 -80 32 -116h2c8 33 18 75 30 116l90 309h97zM561 676l-149 -102
l-38 49l140 115z" />
    <glyph glyph-name="Wcircumflex.sc" horiz-adv-x="866" 
d="M838 520l-158 -520h-119l-101 299c-9 29 -21 70 -31 108h-1c-9 -37 -19 -77 -31 -111l-98 -296h-113l-159 520h104l93 -317c12 -40 21 -76 28 -107h1c8 34 18 74 30 113l104 311h95l105 -309c11 -36 24 -80 32 -116h2c8 33 18 75 30 116l90 309h97zM577 624l-37 -46
l-104 80l-105 -80l-35 45l142 119z" />
    <glyph glyph-name="Wdieresis.sc" horiz-adv-x="866" 
d="M838 520l-158 -520h-119l-101 299c-9 29 -21 70 -31 108h-1c-9 -37 -19 -77 -31 -111l-98 -296h-113l-159 520h104l93 -317c12 -40 21 -76 28 -107h1c8 34 18 74 30 113l104 311h95l105 -309c11 -36 24 -80 32 -116h2c8 33 18 75 30 116l90 309h97zM587 654
c0 -30 -24 -54 -54 -54s-54 24 -54 54s24 54 54 54s54 -24 54 -54zM395 654c0 -30 -24 -54 -54 -54s-54 24 -54 54s24 54 54 54s54 -24 54 -54z" />
    <glyph glyph-name="X.sc" horiz-adv-x="578" 
d="M544 0h-120l-140 204l-142 -204h-110l198 263l-188 257h115l134 -192l136 192h105l-186 -252z" />
    <glyph glyph-name="Y.sc" horiz-adv-x="474" 
d="M469 520l-187 -331v-189h-91v188l-186 332h101l86 -153c16 -31 32 -63 47 -97h1c15 34 34 71 52 104l81 146h96z" />
    <glyph glyph-name="Yacute.sc" horiz-adv-x="474" 
d="M469 520l-187 -331v-189h-91v188l-186 332h101l86 -153c16 -31 32 -63 47 -97h1c15 34 34 71 52 104l81 146h96zM370 676l-149 -102l-38 49l140 115z" />
    <glyph glyph-name="Ycircumflex.sc" horiz-adv-x="474" 
d="M469 520l-187 -331v-189h-91v188l-186 332h101l86 -153c16 -31 32 -63 47 -97h1c15 34 34 71 52 104l81 146h96zM378 624l-37 -46l-104 80l-105 -80l-35 45l142 119z" />
    <glyph glyph-name="Ydieresis.sc" horiz-adv-x="474" 
d="M469 520l-187 -331v-189h-91v188l-186 332h101l86 -153c16 -31 32 -63 47 -97h1c15 34 34 71 52 104l81 146h96zM389 654c0 -30 -24 -54 -54 -54s-54 24 -54 54s24 54 54 54s54 -24 54 -54zM197 654c0 -30 -24 -54 -54 -54s-54 24 -54 54s24 54 54 54s54 -24 54 -54z" />
    <glyph glyph-name="Ygrave.sc" horiz-adv-x="474" 
d="M469 520l-187 -331v-189h-91v188l-186 332h101l86 -153c16 -31 32 -63 47 -97h1c15 34 34 71 52 104l81 146h96zM274 624l-38 -50l-149 102l47 62z" />
    <glyph glyph-name="uni1EF4.sc" horiz-adv-x="474" 
d="M469 520l-187 -331v-189h-91v188l-186 332h101l86 -153c16 -31 32 -63 47 -97h1c15 34 34 71 52 104l81 146h96zM294 -157c0 -32 -26 -58 -58 -58s-58 26 -58 58c0 33 26 58 58 58s58 -26 58 -58z" />
    <glyph glyph-name="uni1EF6.sc" horiz-adv-x="474" 
d="M469 520l-187 -331v-189h-91v188l-186 332h101l86 -153c16 -31 32 -63 47 -97h1c15 34 34 71 52 104l81 146h96zM228 575l-12 46c13 4 54 22 54 51c0 22 -19 34 -52 34c-31 0 -67 -12 -76 -16l-14 51c16 7 61 23 111 23c65 0 105 -27 105 -77c0 -71 -84 -104 -116 -112z
" />
    <glyph glyph-name="uni1EF8.sc" horiz-adv-x="474" 
d="M469 520l-187 -331v-189h-91v188l-186 332h101l86 -153c16 -31 32 -63 47 -97h1c15 34 34 71 52 104l81 146h96zM363 706l44 -35c-26 -50 -63 -78 -109 -78c-65 0 -85 55 -127 55c-22 0 -42 -16 -59 -47l-45 35c26 50 63 78 109 78c65 0 85 -54 127 -54c22 0 42 15 60 46
z" />
    <glyph glyph-name="Z.sc" horiz-adv-x="495" 
d="M437 0h-380v67l225 317c15 22 27 38 41 57c-25 -1 -62 -1 -112 -1h-146v80h368v-68l-234 -330c-10 -15 -20 -30 -29 -41c14 2 63 2 120 2h147v-83z" />
    <glyph glyph-name="Zacute.sc" horiz-adv-x="495" 
d="M437 0h-380v67l225 317c15 22 27 38 41 57c-25 -1 -62 -1 -112 -1h-146v80h368v-68l-234 -330c-10 -15 -20 -30 -29 -41c14 2 63 2 120 2h147v-83zM394 676l-149 -102l-38 49l140 115z" />
    <glyph glyph-name="Zcaron.sc" horiz-adv-x="495" 
d="M437 0h-380v67l225 317c15 22 27 38 41 57c-25 -1 -62 -1 -112 -1h-146v80h368v-68l-234 -330c-10 -15 -20 -30 -29 -41c14 2 63 2 120 2h147v-83zM389 696l-142 -119l-139 118l37 46l103 -80l105 80z" />
    <glyph glyph-name="Zdotaccent.sc" horiz-adv-x="495" 
d="M437 0h-380v67l225 317c15 22 27 38 41 57c-25 -1 -62 -1 -112 -1h-146v80h368v-68l-234 -330c-10 -15 -20 -30 -29 -41c14 2 63 2 120 2h147v-83zM308 658c0 -32 -26 -58 -58 -58s-58 25 -58 58c0 32 26 58 58 58s58 -26 58 -58z" />
    <glyph glyph-name="uni1E92.sc" horiz-adv-x="495" 
d="M437 0h-380v67l225 317c15 22 27 38 41 57c-25 -1 -62 -1 -112 -1h-146v80h368v-68l-234 -330c-10 -15 -20 -30 -29 -41c14 2 63 2 120 2h147v-83zM305 -157c0 -32 -26 -58 -58 -58s-58 26 -58 58c0 33 26 58 58 58s58 -26 58 -58z" />
    <glyph glyph-name="uni1E94.sc" horiz-adv-x="495" 
d="M115 -187v68h266v-68h-266zM437 0h-380v67l225 317c15 22 27 38 41 57c-25 -1 -62 -1 -112 -1h-146v80h368v-68l-234 -330c-10 -15 -20 -30 -29 -41c14 2 63 2 120 2h147v-83z" />
    <glyph glyph-name="LatinLowercase" unicode="&#xe020;" horiz-adv-x="1189" 
d="M1141 333h-86l-110 257c-10 24 -18 47 -27 77h-1c1 -49 3 -115 3 -204v-130h-58v402h90l107 -245c9 -22 19 -52 26 -76h2c-3 55 -4 151 -4 214v107h58v-402zM569 333h-68l-25 91h-135l-25 -91h-62l113 402h88zM502 -117l15 -48c-25 -12 -56 -20 -92 -20
c-108 0 -153 74 -153 198c0 123 50 214 163 214c28 0 56 -6 79 -15l-15 -51c-20 9 -41 13 -62 13c-69 0 -97 -65 -97 -154c0 -99 31 -152 96 -152c26 0 48 6 66 15zM796 684h-92v-351h-62v351h-91v51h245v-51zM224 -180h-176v402h63v-351h113v-51zM224 333h-176v402h63v-351
h113v-51zM464 472l-42 152c-5 20 -9 39 -13 60c-4 -20 -8 -39 -13 -58l-43 -154h111z" />
    <glyph glyph-name="a" unicode="a" horiz-adv-x="521" 
d="M438 0h-88c0 35 0 71 5 99h-2c-24 -61 -87 -108 -169 -108s-138 54 -138 134c0 107 109 171 299 171v27c0 75 -27 113 -105 113c-47 0 -105 -15 -151 -35l-16 70c53 21 116 35 177 35c140 0 185 -66 185 -173v-190c0 -47 1 -100 3 -143zM345 218v15
c-163 0 -210 -45 -210 -95c0 -43 30 -76 76 -76c80 0 134 80 134 156z" />
    <glyph glyph-name="agrave" unicode="&#xe0;" horiz-adv-x="521" 
d="M438 0h-88c0 35 0 71 5 99h-2c-24 -61 -87 -108 -169 -108s-138 54 -138 134c0 107 109 171 299 171v27c0 75 -27 113 -105 113c-47 0 -105 -15 -151 -35l-16 70c53 21 116 35 177 35c140 0 185 -66 185 -173v-190c0 -47 1 -100 3 -143zM345 218v15
c-163 0 -210 -45 -210 -95c0 -43 30 -76 76 -76c80 0 134 80 134 156zM312 612l-44 -43l-140 128l55 54z" />
    <glyph glyph-name="aacute" unicode="&#xe1;" horiz-adv-x="521" 
d="M438 0h-88c0 35 0 71 5 99h-2c-24 -61 -87 -108 -169 -108s-138 54 -138 134c0 107 109 171 299 171v27c0 75 -27 113 -105 113c-47 0 -105 -15 -151 -35l-16 70c53 21 116 35 177 35c140 0 185 -66 185 -173v-190c0 -47 1 -100 3 -143zM345 218v15
c-163 0 -210 -45 -210 -95c0 -43 30 -76 76 -76c80 0 134 80 134 156zM389 698l-140 -129l-44 43l129 139z" />
    <glyph glyph-name="acircumflex" unicode="&#xe2;" horiz-adv-x="521" 
d="M438 0h-88c0 35 0 71 5 99h-2c-24 -61 -87 -108 -169 -108s-138 54 -138 134c0 107 109 171 299 171v27c0 75 -27 113 -105 113c-47 0 -105 -15 -151 -35l-16 70c53 21 116 35 177 35c140 0 185 -66 185 -173v-190c0 -47 1 -100 3 -143zM345 218v15
c-163 0 -210 -45 -210 -95c0 -43 30 -76 76 -76c80 0 134 80 134 156zM398 614l-39 -44l-100 85l-102 -85l-37 43l140 131z" />
    <glyph glyph-name="atilde" unicode="&#xe3;" horiz-adv-x="521" 
d="M438 0h-88c0 35 0 71 5 99h-2c-24 -61 -87 -108 -169 -108s-138 54 -138 134c0 107 109 171 299 171v27c0 75 -27 113 -105 113c-47 0 -105 -15 -151 -35l-16 70c53 21 116 35 177 35c140 0 185 -66 185 -173v-190c0 -47 1 -100 3 -143zM345 218v15
c-163 0 -210 -45 -210 -95c0 -43 30 -76 76 -76c80 0 134 80 134 156zM381 706l45 -35c-26 -50 -63 -78 -109 -78c-65 0 -86 55 -128 55c-22 0 -42 -16 -59 -47l-45 35c26 50 63 78 109 78c65 0 86 -54 128 -54c22 0 42 15 59 46z" />
    <glyph glyph-name="adieresis" unicode="&#xe4;" horiz-adv-x="521" 
d="M438 0h-88c0 35 0 71 5 99h-2c-24 -61 -87 -108 -169 -108s-138 54 -138 134c0 107 109 171 299 171v27c0 75 -27 113 -105 113c-47 0 -105 -15 -151 -35l-16 70c53 21 116 35 177 35c140 0 185 -66 185 -173v-190c0 -47 1 -100 3 -143zM345 218v15
c-163 0 -210 -45 -210 -95c0 -43 30 -76 76 -76c80 0 134 80 134 156zM407 654c0 -30 -24 -54 -54 -54s-54 24 -54 54s24 54 54 54s54 -24 54 -54zM215 654c0 -30 -24 -54 -54 -54s-54 24 -54 54s24 54 54 54s54 -24 54 -54z" />
    <glyph glyph-name="amacron" unicode="&#x101;" horiz-adv-x="521" 
d="M438 0h-88c0 35 0 71 5 99h-2c-24 -61 -87 -108 -169 -108s-138 54 -138 134c0 107 109 171 299 171v27c0 75 -27 113 -105 113c-47 0 -105 -15 -151 -35l-16 70c53 21 116 35 177 35c140 0 185 -66 185 -173v-190c0 -47 1 -100 3 -143zM345 218v15
c-163 0 -210 -45 -210 -95c0 -43 30 -76 76 -76c80 0 134 80 134 156zM384 616h-252v68h252v-68z" />
    <glyph glyph-name="abreve" unicode="&#x103;" horiz-adv-x="521" 
d="M438 0h-88c0 35 0 71 5 99h-2c-24 -61 -87 -108 -169 -108s-138 54 -138 134c0 107 109 171 299 171v27c0 75 -27 113 -105 113c-47 0 -105 -15 -151 -35l-16 70c53 21 116 35 177 35c140 0 185 -66 185 -173v-190c0 -47 1 -100 3 -143zM345 218v15
c-163 0 -210 -45 -210 -95c0 -43 30 -76 76 -76c80 0 134 80 134 156zM324 718h62c0 -71 -39 -135 -127 -135s-123 65 -123 135h61c0 -37 21 -68 63 -68c39 0 64 25 64 68z" />
    <glyph glyph-name="aring" unicode="&#xe5;" horiz-adv-x="521" 
d="M438 0h-88c0 35 0 71 5 99h-2c-24 -61 -87 -108 -169 -108s-138 54 -138 134c0 107 109 171 299 171v27c0 75 -27 113 -105 113c-47 0 -105 -15 -151 -35l-16 70c53 21 116 35 177 35c140 0 185 -66 185 -173v-190c0 -47 1 -100 3 -143zM345 218v15
c-163 0 -210 -45 -210 -95c0 -43 30 -76 76 -76c80 0 134 80 134 156zM378 670c0 -64 -48 -113 -121 -113c-69 0 -111 35 -111 106c0 64 47 112 120 112c70 0 112 -35 112 -105zM312 666c0 38 -18 58 -50 58c-27 0 -51 -19 -51 -57c0 -39 18 -58 50 -58c27 0 51 18 51 57z
" />
    <glyph glyph-name="aringacute" unicode="&#x1fb;" horiz-adv-x="521" 
d="M438 0h-88c0 35 0 71 5 99h-2c-24 -61 -87 -108 -169 -108s-138 54 -138 134c0 107 109 171 299 171v27c0 75 -27 113 -105 113c-47 0 -105 -15 -151 -35l-16 70c53 21 116 35 177 35c140 0 185 -66 185 -173v-190c0 -47 1 -100 3 -143zM345 218v15
c-163 0 -210 -45 -210 -95c0 -43 30 -76 76 -76c80 0 134 80 134 156zM395 834l-186 -54l-17 46l178 70zM367 649c0 -60 -45 -105 -115 -105c-65 0 -105 33 -105 99c0 60 44 105 114 105c66 0 106 -33 106 -99zM306 646c0 36 -18 55 -49 55c-26 0 -49 -18 -49 -55
c0 -36 17 -55 48 -55c26 0 50 18 50 55z" />
    <glyph glyph-name="aogonek" unicode="&#x105;" horiz-adv-x="521" 
d="M463 -139l28 -51c-32 -29 -71 -44 -112 -44c-68 0 -108 35 -108 91c0 51 29 102 91 150c-5 29 -8 63 -6 89l-2 1c-27 -60 -89 -106 -170 -106c-82 0 -138 54 -138 134c0 107 109 171 299 171v27c0 75 -27 113 -105 113c-47 0 -105 -15 -151 -35l-16 70
c53 21 116 35 177 35c140 0 185 -66 185 -173v-157c0 -60 5 -124 14 -176c-71 -49 -92 -90 -92 -125c0 -26 15 -40 40 -40c22 0 43 9 66 26zM345 218v15c-163 0 -210 -45 -210 -95c0 -43 30 -76 76 -76c80 0 134 80 134 156z" />
    <glyph glyph-name="uni01CE" unicode="&#x1ce;" horiz-adv-x="521" 
d="M438 0h-88c0 35 0 71 5 99h-2c-24 -61 -87 -108 -169 -108s-138 54 -138 134c0 107 109 171 299 171v27c0 75 -27 113 -105 113c-47 0 -105 -15 -151 -35l-16 70c53 21 116 35 177 35c140 0 185 -66 185 -173v-190c0 -47 1 -100 3 -143zM345 218v15
c-163 0 -210 -45 -210 -95c0 -43 30 -76 76 -76c80 0 134 80 134 156zM396 701l-140 -131l-138 130l39 44l100 -85l101 85z" />
    <glyph glyph-name="uni1EA1" unicode="&#x1ea1;" horiz-adv-x="521" 
d="M438 0h-88c0 35 0 71 5 99h-2c-24 -61 -87 -108 -169 -108s-138 54 -138 134c0 107 109 171 299 171v27c0 75 -27 113 -105 113c-47 0 -105 -15 -151 -35l-16 70c53 21 116 35 177 35c140 0 185 -66 185 -173v-190c0 -47 1 -100 3 -143zM345 218v15
c-163 0 -210 -45 -210 -95c0 -43 30 -76 76 -76c80 0 134 80 134 156zM311 -157c0 -32 -26 -58 -58 -58s-58 26 -58 58c0 33 26 58 58 58s58 -26 58 -58z" />
    <glyph glyph-name="uni1EA3" unicode="&#x1ea3;" horiz-adv-x="521" 
d="M438 0h-88c0 35 0 71 5 99h-2c-24 -61 -87 -108 -169 -108s-138 54 -138 134c0 107 109 171 299 171v27c0 75 -27 113 -105 113c-47 0 -105 -15 -151 -35l-16 70c53 21 116 35 177 35c140 0 185 -66 185 -173v-190c0 -47 1 -100 3 -143zM345 218v15
c-163 0 -210 -45 -210 -95c0 -43 30 -76 76 -76c80 0 134 80 134 156zM253 557l-12 46c13 4 54 22 54 51c0 22 -19 34 -52 34c-31 0 -67 -12 -76 -16l-14 51c16 7 61 23 111 23c65 0 105 -27 105 -77c0 -71 -84 -104 -116 -112z" />
    <glyph glyph-name="uni1EA5" unicode="&#x1ea5;" horiz-adv-x="521" 
d="M438 0h-88c0 35 0 71 5 99h-2c-24 -61 -87 -108 -169 -108s-138 54 -138 134c0 107 109 171 299 171v27c0 75 -27 113 -105 113c-47 0 -105 -15 -151 -35l-16 70c53 21 116 35 177 35c140 0 185 -66 185 -173v-190c0 -47 1 -100 3 -143zM345 218v15
c-163 0 -210 -45 -210 -95c0 -43 30 -76 76 -76c80 0 134 80 134 156zM389 589l-33 -38l-98 69l-98 -69l-31 37l130 106zM356 779l-178 -58l-19 45l169 74z" />
    <glyph glyph-name="uni1EA7" unicode="&#x1ea7;" horiz-adv-x="521" 
d="M438 0h-88c0 35 0 71 5 99h-2c-24 -61 -87 -108 -169 -108s-138 54 -138 134c0 107 109 171 299 171v27c0 75 -27 113 -105 113c-47 0 -105 -15 -151 -35l-16 70c53 21 116 35 177 35c140 0 185 -66 185 -173v-190c0 -47 1 -100 3 -143zM345 218v15
c-163 0 -210 -45 -210 -95c0 -43 30 -76 76 -76c80 0 134 80 134 156zM389 589l-33 -38l-98 69l-98 -69l-31 37l130 106zM323 721l-178 58l28 61l168 -74z" />
    <glyph glyph-name="uni1EA9" unicode="&#x1ea9;" horiz-adv-x="521" 
d="M438 0h-88c0 35 0 71 5 99h-2c-24 -61 -87 -108 -169 -108s-138 54 -138 134c0 107 109 171 299 171v27c0 75 -27 113 -105 113c-47 0 -105 -15 -151 -35l-16 70c53 21 116 35 177 35c140 0 185 -66 185 -173v-190c0 -47 1 -100 3 -143zM345 218v15
c-163 0 -210 -45 -210 -95c0 -43 30 -76 76 -76c80 0 134 80 134 156zM389 589l-33 -38l-98 69l-98 -69l-31 37l130 106zM329 690l-41 31c9 7 23 20 23 36c0 21 -16 33 -53 33c-33 0 -69 -13 -77 -17l-13 48c15 7 55 23 109 23c62 0 102 -27 102 -74c0 -38 -28 -66 -50 -80z
" />
    <glyph glyph-name="uni1EAB" unicode="&#x1eab;" horiz-adv-x="521" 
d="M438 0h-88c0 35 0 71 5 99h-2c-24 -61 -87 -108 -169 -108s-138 54 -138 134c0 107 109 171 299 171v27c0 75 -27 113 -105 113c-47 0 -105 -15 -151 -35l-16 70c53 21 116 35 177 35c140 0 185 -66 185 -173v-190c0 -47 1 -100 3 -143zM345 218v15
c-163 0 -210 -45 -210 -95c0 -43 30 -76 76 -76c80 0 134 80 134 156zM388 589l-32 -38l-98 69l-99 -69l-30 37l130 106zM364 825l45 -28c-20 -43 -59 -70 -95 -70c-53 0 -65 49 -98 49c-16 0 -32 -13 -47 -42l-45 28c20 43 58 70 94 70c54 0 65 -49 99 -49
c16 0 32 13 47 42z" />
    <glyph glyph-name="uni1EAD" unicode="&#x1ead;" horiz-adv-x="521" 
d="M438 0h-88c0 35 0 71 5 99h-2c-24 -61 -87 -108 -169 -108s-138 54 -138 134c0 107 109 171 299 171v27c0 75 -27 113 -105 113c-47 0 -105 -15 -151 -35l-16 70c53 21 116 35 177 35c140 0 185 -66 185 -173v-190c0 -47 1 -100 3 -143zM345 218v15
c-163 0 -210 -45 -210 -95c0 -43 30 -76 76 -76c80 0 134 80 134 156zM311 -157c0 -32 -26 -58 -58 -58s-58 26 -58 58c0 33 26 58 58 58s58 -26 58 -58zM398 614l-39 -44l-100 85l-102 -85l-37 43l140 131z" />
    <glyph glyph-name="uni1EAF" unicode="&#x1eaf;" horiz-adv-x="521" 
d="M438 0h-88c0 35 0 71 5 99h-2c-24 -61 -87 -108 -169 -108s-138 54 -138 134c0 107 109 171 299 171v27c0 75 -27 113 -105 113c-47 0 -105 -15 -151 -35l-16 70c53 21 116 35 177 35c140 0 185 -66 185 -173v-190c0 -47 1 -100 3 -143zM345 218v15
c-163 0 -210 -45 -210 -95c0 -43 30 -76 76 -76c80 0 134 80 134 156zM323 675h59c0 -63 -38 -120 -123 -120c-86 0 -120 58 -120 120h58c0 -34 21 -63 63 -63c38 0 63 23 63 63zM382 779l-178 -58l-18 45l168 74z" />
    <glyph glyph-name="uni1EB1" unicode="&#x1eb1;" horiz-adv-x="521" 
d="M438 0h-88c0 35 0 71 5 99h-2c-24 -61 -87 -108 -169 -108s-138 54 -138 134c0 107 109 171 299 171v27c0 75 -27 113 -105 113c-47 0 -105 -15 -151 -35l-16 70c53 21 116 35 177 35c140 0 185 -66 185 -173v-190c0 -47 1 -100 3 -143zM345 218v15
c-163 0 -210 -45 -210 -95c0 -43 30 -76 76 -76c80 0 134 80 134 156zM323 675h59c0 -63 -38 -120 -123 -120c-86 0 -120 58 -120 120h58c0 -34 21 -63 63 -63c38 0 63 23 63 63zM317 721l-178 58l28 61l168 -74z" />
    <glyph glyph-name="uni1EB3" unicode="&#x1eb3;" horiz-adv-x="521" 
d="M438 0h-88c0 35 0 71 5 99h-2c-24 -61 -87 -108 -169 -108s-138 54 -138 134c0 107 109 171 299 171v27c0 75 -27 113 -105 113c-47 0 -105 -15 -151 -35l-16 70c53 21 116 35 177 35c140 0 185 -66 185 -173v-190c0 -47 1 -100 3 -143zM345 218v15
c-163 0 -210 -45 -210 -95c0 -43 30 -76 76 -76c80 0 134 80 134 156zM323 669h62c0 -64 -39 -122 -126 -122c-88 0 -123 59 -123 122h60c0 -34 22 -63 64 -63c39 0 63 23 63 63zM262 690l-11 41c13 3 49 19 49 45c0 20 -17 31 -47 31c-28 0 -58 -11 -67 -15l-12 44
c15 7 53 20 97 20c57 0 92 -24 92 -67c0 -63 -75 -92 -101 -99z" />
    <glyph glyph-name="uni1EB5" unicode="&#x1eb5;" horiz-adv-x="521" 
d="M438 0h-88c0 35 0 71 5 99h-2c-24 -61 -87 -108 -169 -108s-138 54 -138 134c0 107 109 171 299 171v27c0 75 -27 113 -105 113c-47 0 -105 -15 -151 -35l-16 70c53 21 116 35 177 35c140 0 185 -66 185 -173v-190c0 -47 1 -100 3 -143zM345 218v15
c-163 0 -210 -45 -210 -95c0 -43 30 -76 76 -76c80 0 134 80 134 156zM358 828l45 -28c-20 -43 -58 -70 -94 -70c-53 0 -65 49 -98 49c-17 0 -32 -13 -47 -42l-45 27c20 44 58 71 94 71c53 0 65 -49 98 -49c17 0 32 13 47 42zM322 675h60c0 -63 -38 -120 -123 -120
c-86 0 -120 58 -120 120h58c0 -34 21 -63 63 -63c38 0 62 23 62 63z" />
    <glyph glyph-name="uni1EB7" unicode="&#x1eb7;" horiz-adv-x="521" 
d="M438 0h-88c0 35 0 71 5 99h-2c-24 -61 -87 -108 -169 -108s-138 54 -138 134c0 107 109 171 299 171v27c0 75 -27 113 -105 113c-47 0 -105 -15 -151 -35l-16 70c53 21 116 35 177 35c140 0 185 -66 185 -173v-190c0 -47 1 -100 3 -143zM345 218v15
c-163 0 -210 -45 -210 -95c0 -43 30 -76 76 -76c80 0 134 80 134 156zM311 -157c0 -32 -26 -58 -58 -58s-58 26 -58 58c0 33 26 58 58 58s58 -26 58 -58zM324 718h62c0 -71 -39 -135 -127 -135s-123 65 -123 135h61c0 -37 21 -68 63 -68c39 0 64 25 64 68z" />
    <glyph glyph-name="a.alt" horiz-adv-x="558" 
d="M473 0h-87c0 28 2 72 8 101l-2 1c-27 -67 -88 -111 -166 -111c-117 0 -183 82 -183 233c0 175 98 281 262 281c60 0 117 -6 168 -14v-491zM384 258v165c-30 7 -59 10 -89 10c-94 0 -157 -57 -157 -200c0 -107 34 -168 109 -168c90 0 137 105 137 193z" />
    <glyph glyph-name="agrave.alt" horiz-adv-x="558" 
d="M473 0h-87c0 28 2 72 8 101l-2 1c-27 -67 -88 -111 -166 -111c-117 0 -183 82 -183 233c0 175 98 281 262 281c60 0 117 -6 168 -14v-491zM384 258v165c-30 7 -59 10 -89 10c-94 0 -157 -57 -157 -200c0 -107 34 -168 109 -168c90 0 137 105 137 193zM346 612l-44 -43
l-140 128l55 54z" />
    <glyph glyph-name="aacute.alt" horiz-adv-x="558" 
d="M473 0h-87c0 28 2 72 8 101l-2 1c-27 -67 -88 -111 -166 -111c-117 0 -183 82 -183 233c0 175 98 281 262 281c60 0 117 -6 168 -14v-491zM384 258v165c-30 7 -59 10 -89 10c-94 0 -157 -57 -157 -200c0 -107 34 -168 109 -168c90 0 137 105 137 193zM417 698l-140 -129
l-44 43l129 139z" />
    <glyph glyph-name="acircumflex.alt" horiz-adv-x="558" 
d="M473 0h-87c0 28 2 72 8 101l-2 1c-27 -67 -88 -111 -166 -111c-117 0 -183 82 -183 233c0 175 98 281 262 281c60 0 117 -6 168 -14v-491zM384 258v165c-30 7 -59 10 -89 10c-94 0 -157 -57 -157 -200c0 -107 34 -168 109 -168c90 0 137 105 137 193zM428 614l-39 -44
l-100 85l-102 -85l-37 43l140 131z" />
    <glyph glyph-name="atilde.alt" horiz-adv-x="558" 
d="M473 0h-87c0 28 2 72 8 101l-2 1c-27 -67 -88 -111 -166 -111c-117 0 -183 82 -183 233c0 175 98 281 262 281c60 0 117 -6 168 -14v-491zM384 258v165c-30 7 -59 10 -89 10c-94 0 -157 -57 -157 -200c0 -107 34 -168 109 -168c90 0 137 105 137 193zM415 706l45 -35
c-26 -50 -63 -78 -109 -78c-65 0 -86 55 -128 55c-22 0 -42 -16 -59 -47l-45 35c26 50 63 78 109 78c65 0 86 -54 128 -54c22 0 42 15 59 46z" />
    <glyph glyph-name="adieresis.alt" horiz-adv-x="558" 
d="M473 0h-87c0 28 2 72 8 101l-2 1c-27 -67 -88 -111 -166 -111c-117 0 -183 82 -183 233c0 175 98 281 262 281c60 0 117 -6 168 -14v-491zM384 258v165c-30 7 -59 10 -89 10c-94 0 -157 -57 -157 -200c0 -107 34 -168 109 -168c90 0 137 105 137 193zM440 654
c0 -30 -24 -54 -54 -54s-54 24 -54 54s24 54 54 54s54 -24 54 -54zM248 654c0 -30 -24 -54 -54 -54s-54 24 -54 54s24 54 54 54s54 -24 54 -54z" />
    <glyph glyph-name="amacron.alt" horiz-adv-x="558" 
d="M473 0h-87c0 28 2 72 8 101l-2 1c-27 -67 -88 -111 -166 -111c-117 0 -183 82 -183 233c0 175 98 281 262 281c60 0 117 -6 168 -14v-491zM384 258v165c-30 7 -59 10 -89 10c-94 0 -157 -57 -157 -200c0 -107 34 -168 109 -168c90 0 137 105 137 193zM416 616h-252v68
h252v-68z" />
    <glyph glyph-name="abreve.alt" horiz-adv-x="558" 
d="M473 0h-87c0 28 2 72 8 101l-2 1c-27 -67 -88 -111 -166 -111c-117 0 -183 82 -183 233c0 175 98 281 262 281c60 0 117 -6 168 -14v-491zM384 258v165c-30 7 -59 10 -89 10c-94 0 -157 -57 -157 -200c0 -107 34 -168 109 -168c90 0 137 105 137 193zM353 718h62
c0 -71 -39 -135 -127 -135s-123 65 -123 135h61c0 -37 21 -68 63 -68c39 0 64 25 64 68z" />
    <glyph glyph-name="aring.alt" horiz-adv-x="558" 
d="M473 0h-87c0 28 2 72 8 101l-2 1c-27 -67 -88 -111 -166 -111c-117 0 -183 82 -183 233c0 175 98 281 262 281c60 0 117 -6 168 -14v-491zM384 258v165c-30 7 -59 10 -89 10c-94 0 -157 -57 -157 -200c0 -107 34 -168 109 -168c90 0 137 105 137 193zM405 662
c0 -64 -48 -113 -121 -113c-69 0 -111 35 -111 106c0 64 47 112 120 112c70 0 112 -35 112 -105zM339 658c0 38 -18 58 -50 58c-27 0 -51 -19 -51 -57c0 -39 18 -58 50 -58c27 0 51 18 51 57z" />
    <glyph glyph-name="aringacute.alt" horiz-adv-x="558" 
d="M473 0h-87c0 28 2 72 8 101l-2 1c-27 -67 -88 -111 -166 -111c-117 0 -183 82 -183 233c0 175 98 281 262 281c60 0 117 -6 168 -14v-491zM384 258v165c-30 7 -59 10 -89 10c-94 0 -157 -57 -157 -200c0 -107 34 -168 109 -168c90 0 137 105 137 193zM429 834l-186 -54
l-17 46l178 70zM401 649c0 -60 -45 -105 -115 -105c-65 0 -105 33 -105 99c0 60 44 105 114 105c66 0 106 -33 106 -99zM340 646c0 36 -18 55 -49 55c-26 0 -49 -18 -49 -55c0 -36 17 -55 48 -55c26 0 50 18 50 55z" />
    <glyph glyph-name="aogonek.alt" horiz-adv-x="558" 
d="M473 491v-316c0 -58 3 -117 9 -175c-71 -49 -92 -90 -92 -125c0 -26 14 -40 40 -40c22 0 43 9 66 26l28 -51c-32 -29 -71 -44 -113 -44c-67 0 -107 35 -107 91c0 51 29 103 91 151c-4 26 -5 68 -2 94h-2c-27 -67 -87 -111 -165 -111c-117 0 -183 82 -183 233
c0 175 98 281 262 281c60 0 117 -6 168 -14zM384 258v165c-30 7 -59 10 -89 10c-94 0 -157 -57 -157 -200c0 -107 34 -168 109 -168c90 0 137 105 137 193z" />
    <glyph glyph-name="uni01CE.alt" horiz-adv-x="558" 
d="M473 0h-87c0 28 2 72 8 101l-2 1c-27 -67 -88 -111 -166 -111c-117 0 -183 82 -183 233c0 175 98 281 262 281c60 0 117 -6 168 -14v-491zM384 258v165c-30 7 -59 10 -89 10c-94 0 -157 -57 -157 -200c0 -107 34 -168 109 -168c90 0 137 105 137 193zM430 701l-140 -131
l-138 130l39 44l100 -85l101 85z" />
    <glyph glyph-name="uni1EA1.alt" horiz-adv-x="558" 
d="M473 0h-87c0 28 2 72 8 101l-2 1c-27 -67 -88 -111 -166 -111c-117 0 -183 82 -183 233c0 175 98 281 262 281c60 0 117 -6 168 -14v-491zM384 258v165c-30 7 -59 10 -89 10c-94 0 -157 -57 -157 -200c0 -107 34 -168 109 -168c90 0 137 105 137 193zM329 -157
c0 -32 -26 -58 -58 -58s-58 26 -58 58c0 33 26 58 58 58s58 -26 58 -58z" />
    <glyph glyph-name="uni1EA3.alt" horiz-adv-x="558" 
d="M473 0h-87c0 28 2 72 8 101l-2 1c-27 -67 -88 -111 -166 -111c-117 0 -183 82 -183 233c0 175 98 281 262 281c60 0 117 -6 168 -14v-491zM384 258v165c-30 7 -59 10 -89 10c-94 0 -157 -57 -157 -200c0 -107 34 -168 109 -168c90 0 137 105 137 193zM287 557l-12 46
c13 4 54 22 54 51c0 22 -19 34 -52 34c-31 0 -67 -12 -76 -16l-14 51c16 7 61 23 111 23c65 0 105 -27 105 -77c0 -71 -84 -104 -116 -112z" />
    <glyph glyph-name="uni1EA5.alt" horiz-adv-x="558" 
d="M473 0h-87c0 28 2 72 8 101l-2 1c-27 -67 -88 -111 -166 -111c-117 0 -183 82 -183 233c0 175 98 281 262 281c60 0 117 -6 168 -14v-491zM384 258v165c-30 7 -59 10 -89 10c-94 0 -157 -57 -157 -200c0 -107 34 -168 109 -168c90 0 137 105 137 193zM419 589l-33 -38
l-98 69l-98 -69l-31 37l130 106zM386 779l-178 -58l-19 45l169 74z" />
    <glyph glyph-name="uni1EA7.alt" horiz-adv-x="558" 
d="M473 0h-87c0 28 2 72 8 101l-2 1c-27 -67 -88 -111 -166 -111c-117 0 -183 82 -183 233c0 175 98 281 262 281c60 0 117 -6 168 -14v-491zM384 258v165c-30 7 -59 10 -89 10c-94 0 -157 -57 -157 -200c0 -107 34 -168 109 -168c90 0 137 105 137 193zM420 589l-33 -38
l-98 69l-98 -69l-31 37l130 106zM354 721l-178 58l28 61l168 -74z" />
    <glyph glyph-name="uni1EA9.alt" horiz-adv-x="558" 
d="M473 0h-87c0 28 2 72 8 101l-2 1c-27 -67 -88 -111 -166 -111c-117 0 -183 82 -183 233c0 175 98 281 262 281c60 0 117 -6 168 -14v-491zM384 258v165c-30 7 -59 10 -89 10c-94 0 -157 -57 -157 -200c0 -107 34 -168 109 -168c90 0 137 105 137 193zM420 589l-33 -38
l-98 69l-98 -69l-31 37l130 106zM360 690l-41 31c9 7 23 20 23 36c0 21 -16 33 -53 33c-33 0 -69 -13 -77 -17l-13 48c15 7 55 23 109 23c62 0 102 -27 102 -74c0 -38 -28 -66 -50 -80z" />
    <glyph glyph-name="uni1EAB.alt" horiz-adv-x="558" 
d="M473 0h-87c0 28 2 72 8 101l-2 1c-27 -67 -88 -111 -166 -111c-117 0 -183 82 -183 233c0 175 98 281 262 281c60 0 117 -6 168 -14v-491zM384 258v165c-30 7 -59 10 -89 10c-94 0 -157 -57 -157 -200c0 -107 34 -168 109 -168c90 0 137 105 137 193zM419 589l-32 -38
l-98 69l-99 -69l-30 37l130 106zM395 825l45 -28c-20 -43 -59 -70 -95 -70c-53 0 -65 49 -98 49c-16 0 -32 -13 -47 -42l-45 28c20 43 58 70 94 70c54 0 65 -49 99 -49c16 0 32 13 47 42z" />
    <glyph glyph-name="uni1EAD.alt" horiz-adv-x="558" 
d="M473 0h-87c0 28 2 72 8 101l-2 1c-27 -67 -88 -111 -166 -111c-117 0 -183 82 -183 233c0 175 98 281 262 281c60 0 117 -6 168 -14v-491zM384 258v165c-30 7 -59 10 -89 10c-94 0 -157 -57 -157 -200c0 -107 34 -168 109 -168c90 0 137 105 137 193zM329 -157
c0 -32 -26 -58 -58 -58s-58 26 -58 58c0 33 26 58 58 58s58 -26 58 -58zM428 614l-39 -44l-100 85l-102 -85l-37 43l140 131z" />
    <glyph glyph-name="uni1EAF.alt" horiz-adv-x="558" 
d="M473 0h-87c0 28 2 72 8 101l-2 1c-27 -67 -88 -111 -166 -111c-117 0 -183 82 -183 233c0 175 98 281 262 281c60 0 117 -6 168 -14v-491zM384 258v165c-30 7 -59 10 -89 10c-94 0 -157 -57 -157 -200c0 -107 34 -168 109 -168c90 0 137 105 137 193zM352 675h59
c0 -63 -38 -120 -123 -120c-86 0 -120 58 -120 120h58c0 -34 21 -63 63 -63c38 0 63 23 63 63zM411 779l-178 -58l-18 45l168 74z" />
    <glyph glyph-name="uni1EB1.alt" horiz-adv-x="558" 
d="M473 0h-87c0 28 2 72 8 101l-2 1c-27 -67 -88 -111 -166 -111c-117 0 -183 82 -183 233c0 175 98 281 262 281c60 0 117 -6 168 -14v-491zM384 258v165c-30 7 -59 10 -89 10c-94 0 -157 -57 -157 -200c0 -107 34 -168 109 -168c90 0 137 105 137 193zM352 675h59
c0 -63 -38 -120 -123 -120c-86 0 -120 58 -120 120h58c0 -34 21 -63 63 -63c38 0 63 23 63 63zM346 721l-178 58l28 61l168 -74z" />
    <glyph glyph-name="uni1EB3.alt" horiz-adv-x="558" 
d="M473 0h-87c0 28 2 72 8 101l-2 1c-27 -67 -88 -111 -166 -111c-117 0 -183 82 -183 233c0 175 98 281 262 281c60 0 117 -6 168 -14v-491zM384 258v165c-30 7 -59 10 -89 10c-94 0 -157 -57 -157 -200c0 -107 34 -168 109 -168c90 0 137 105 137 193zM352 669h62
c0 -64 -39 -122 -126 -122c-88 0 -123 59 -123 122h60c0 -34 22 -63 64 -63c39 0 63 23 63 63zM291 690l-11 41c13 3 49 19 49 45c0 20 -17 31 -47 31c-28 0 -58 -11 -67 -15l-12 44c15 7 53 20 97 20c57 0 92 -24 92 -67c0 -63 -75 -92 -101 -99z" />
    <glyph glyph-name="uni1EB5.alt" horiz-adv-x="558" 
d="M473 0h-87c0 28 2 72 8 101l-2 1c-27 -67 -88 -111 -166 -111c-117 0 -183 82 -183 233c0 175 98 281 262 281c60 0 117 -6 168 -14v-491zM384 258v165c-30 7 -59 10 -89 10c-94 0 -157 -57 -157 -200c0 -107 34 -168 109 -168c90 0 137 105 137 193zM386 828l45 -28
c-20 -43 -58 -70 -94 -70c-53 0 -65 49 -98 49c-17 0 -32 -13 -47 -42l-45 27c20 44 58 71 94 71c53 0 65 -49 98 -49c17 0 32 13 47 42zM350 675h60c0 -63 -38 -120 -123 -120c-86 0 -120 58 -120 120h58c0 -34 21 -63 63 -63c38 0 62 23 62 63z" />
    <glyph glyph-name="uni1EB7.alt" horiz-adv-x="558" 
d="M473 0h-87c0 28 2 72 8 101l-2 1c-27 -67 -88 -111 -166 -111c-117 0 -183 82 -183 233c0 175 98 281 262 281c60 0 117 -6 168 -14v-491zM384 258v165c-30 7 -59 10 -89 10c-94 0 -157 -57 -157 -200c0 -107 34 -168 109 -168c90 0 137 105 137 193zM329 -157
c0 -32 -26 -58 -58 -58s-58 26 -58 58c0 33 26 58 58 58s58 -26 58 -58zM353 718h62c0 -71 -39 -135 -127 -135s-123 65 -123 135h61c0 -37 21 -68 63 -68c39 0 64 25 64 68z" />
    <glyph glyph-name="ae" unicode="&#xe6;" horiz-adv-x="807" 
d="M733 90l12 -69c-54 -19 -112 -30 -170 -30c-116 0 -175 49 -199 112h-1c-33 -61 -95 -112 -183 -112c-91 0 -146 54 -146 134c0 107 109 171 299 171v27c0 75 -27 113 -105 113c-47 0 -105 -15 -151 -35l-16 70c53 21 116 35 177 35c75 0 129 -23 154 -77h1
c30 44 86 77 159 77c139 0 197 -93 197 -204c0 -32 -3 -60 -3 -60h-325c-1 -122 49 -179 153 -179c49 0 98 9 147 27zM435 305h235c2 86 -42 133 -111 133c-65 0 -114 -47 -124 -133zM345 218v15c-163 0 -210 -45 -210 -95c0 -43 30 -76 76 -76c80 0 134 80 134 156z" />
    <glyph glyph-name="aeacute" unicode="&#x1fd;" horiz-adv-x="807" 
d="M733 90l12 -69c-54 -19 -112 -30 -170 -30c-116 0 -175 49 -199 112h-1c-33 -61 -95 -112 -183 -112c-91 0 -146 54 -146 134c0 107 109 171 299 171v27c0 75 -27 113 -105 113c-47 0 -105 -15 -151 -35l-16 70c53 21 116 35 177 35c75 0 129 -23 154 -77h1
c30 44 86 77 159 77c139 0 197 -93 197 -204c0 -32 -3 -60 -3 -60h-325c-1 -122 49 -179 153 -179c49 0 98 9 147 27zM435 305h235c2 86 -42 133 -111 133c-65 0 -114 -47 -124 -133zM345 218v15c-163 0 -210 -45 -210 -95c0 -43 30 -76 76 -76c80 0 134 80 134 156z
M559 698l-140 -129l-44 43l129 139z" />
    <glyph glyph-name="b" unicode="b" horiz-adv-x="558" 
d="M175 730v-241c0 -29 -3 -68 -9 -93l2 -1c27 70 89 111 164 111c117 0 183 -82 183 -234c0 -174 -99 -279 -259 -279c-92 0 -171 20 -171 20v717h90zM175 241v-164s39 -13 88 -13c94 0 158 57 158 200c0 107 -35 168 -110 168c-90 0 -136 -105 -136 -191z" />
    <glyph glyph-name="uni1E03" unicode="&#x1e03;" horiz-adv-x="558" 
d="M175 730v-241c0 -29 -3 -68 -9 -93l2 -1c27 70 89 111 164 111c117 0 183 -82 183 -234c0 -174 -99 -279 -259 -279c-92 0 -171 20 -171 20v717h90zM175 241v-164s39 -13 88 -13c94 0 158 57 158 200c0 107 -35 168 -110 168c-90 0 -136 -105 -136 -191zM188 854
c0 -32 -26 -58 -58 -58s-58 26 -58 58s26 58 58 58s58 -25 58 -58z" />
    <glyph glyph-name="uni1E07" unicode="&#x1e07;" horiz-adv-x="558" 
d="M143 -187v68h266v-68h-266zM175 730v-241c0 -29 -3 -68 -9 -93l2 -1c27 70 89 111 164 111c117 0 183 -82 183 -234c0 -174 -99 -279 -259 -279c-92 0 -171 20 -171 20v717h90zM175 241v-164s39 -13 88 -13c94 0 158 57 158 200c0 107 -35 168 -110 168
c-90 0 -136 -105 -136 -191z" />
    <glyph glyph-name="c" unicode="c" horiz-adv-x="435" 
d="M393 94l14 -75c-42 -17 -94 -27 -148 -27c-119 0 -218 57 -218 240c0 175 95 273 240 273c41 0 85 -8 124 -21l-17 -77c-32 12 -72 22 -113 22c-90 0 -139 -76 -139 -185c0 -97 31 -174 141 -174c42 0 80 8 116 24z" />
    <glyph glyph-name="cacute" unicode="&#x107;" horiz-adv-x="435" 
d="M393 94l14 -75c-42 -17 -94 -27 -148 -27c-119 0 -218 57 -218 240c0 175 95 273 240 273c41 0 85 -8 124 -21l-17 -77c-32 12 -72 22 -113 22c-90 0 -139 -76 -139 -185c0 -97 31 -174 141 -174c42 0 80 8 116 24zM384 698l-140 -129l-44 43l129 139z" />
    <glyph glyph-name="ccircumflex" unicode="&#x109;" horiz-adv-x="435" 
d="M393 94l14 -75c-42 -17 -94 -27 -148 -27c-119 0 -218 57 -218 240c0 175 95 273 240 273c41 0 85 -8 124 -21l-17 -77c-32 12 -72 22 -113 22c-90 0 -139 -76 -139 -185c0 -97 31 -174 141 -174c42 0 80 8 116 24zM398 614l-39 -44l-100 85l-102 -85l-37 43l140 131z
" />
    <glyph glyph-name="ccaron" unicode="&#x10d;" horiz-adv-x="435" 
d="M393 94l14 -75c-42 -17 -94 -27 -148 -27c-119 0 -218 57 -218 240c0 175 95 273 240 273c41 0 85 -8 124 -21l-17 -77c-32 12 -72 22 -113 22c-90 0 -139 -76 -139 -185c0 -97 31 -174 141 -174c42 0 80 8 116 24zM402 701l-140 -131l-138 130l39 44l100 -85l101 85z
" />
    <glyph glyph-name="cdotaccent" unicode="&#x10b;" horiz-adv-x="435" 
d="M393 94l14 -75c-42 -17 -94 -27 -148 -27c-119 0 -218 57 -218 240c0 175 95 273 240 273c41 0 85 -8 124 -21l-17 -77c-32 12 -72 22 -113 22c-90 0 -139 -76 -139 -185c0 -97 31 -174 141 -174c42 0 80 8 116 24zM318 654c0 -32 -26 -58 -58 -58s-58 25 -58 58
c0 32 26 58 58 58s58 -26 58 -58z" />
    <glyph glyph-name="ccedilla" unicode="&#xe7;" horiz-adv-x="435" 
d="M393 94l14 -75c-42 -17 -94 -27 -148 -27c-119 0 -218 57 -218 240c0 175 95 273 240 273c41 0 85 -8 124 -21l-17 -77c-32 12 -72 22 -113 22c-90 0 -139 -76 -139 -185c0 -97 31 -174 141 -174c42 0 80 8 116 24zM197 -70l77 30c51 -67 35 -130 -21 -195h-73
c52 65 64 107 17 165z" />
    <glyph glyph-name="c_h" horiz-adv-x="1003" 
d="M918 0h-90v320c0 70 -19 112 -84 112c-82 0 -142 -84 -142 -194v-238h-90v664s-16 1 -31 1c-89 0 -162 -28 -162 -92c0 -44 30 -72 78 -87l-17 -77c-30 12 -70 20 -105 20c-90 0 -139 -76 -139 -185c0 -97 31 -174 136 -174c37 0 80 8 113 23l14 -75
c-41 -17 -94 -26 -145 -26c-114 0 -213 57 -213 240c0 147 70 268 235 269c-29 15 -44 46 -44 77c0 89 96 158 268 158c52 0 102 -6 102 -6v-236c0 -32 -2 -72 -8 -99l2 -1c29 68 90 112 173 112c114 0 149 -71 149 -159v-347z" />
    <glyph glyph-name="c_k" horiz-adv-x="921" 
d="M512 0v664s-16 1 -31 1c-89 0 -162 -28 -162 -92c0 -44 30 -72 78 -87l-17 -77c-30 12 -70 20 -105 20c-90 0 -139 -76 -139 -185c0 -97 31 -174 136 -174c37 0 80 8 113 23l14 -75c-41 -17 -94 -26 -145 -26c-114 0 -213 57 -213 240c0 147 70 268 235 269
c-29 15 -44 46 -44 77c0 89 96 158 268 158c52 0 102 -6 102 -6v-451l175 218h110l-191 -227l206 -270h-116l-184 256v-256h-90z" />
    <glyph glyph-name="c_t" horiz-adv-x="805" 
d="M766 76l7 -73c-29 -7 -67 -11 -98 -11c-102 0 -134 42 -134 151v284h-89v70h89v12c0 95 -54 156 -132 156c-64 0 -92 -41 -92 -87c0 -43 22 -76 80 -92l-16 -77c-32 12 -66 20 -106 20c-90 0 -139 -76 -139 -185c0 -97 31 -174 141 -174c42 0 82 8 116 24l14 -75
c-42 -17 -97 -27 -148 -27c-119 0 -218 57 -218 240c0 149 73 269 233 267c-30 18 -45 48 -45 85c0 75 60 152 187 152c122 0 215 -71 215 -223v-16h138v-70h-138v-262c0 -75 15 -97 68 -97c24 0 48 4 67 8z" />
    <glyph glyph-name="c_t.alt1" horiz-adv-x="805" 
d="M766 76l7 -73c-29 -7 -67 -11 -98 -11c-102 0 -134 42 -134 151v284h-93v70h93v130c-31 18 -82 39 -140 39c-68 0 -101 -38 -101 -87c0 -51 36 -77 93 -95l-16 -76c-30 12 -61 21 -102 21c-90 0 -139 -76 -139 -185c0 -97 31 -174 141 -174c42 0 82 8 116 24l14 -75
c-41 -17 -97 -27 -148 -27c-119 0 -218 57 -218 240c0 157 78 263 219 267c-32 16 -45 52 -45 85c0 82 66 152 191 152c88 0 170 -29 225 -62v-177h138v-70h-138v-262c0 -75 15 -97 68 -97c24 0 48 4 67 8z" />
    <glyph glyph-name="ccedilla_t" horiz-adv-x="805" 
d="M766 76l7 -73c-29 -7 -67 -11 -98 -11c-102 0 -134 42 -134 151v284h-89v70h89v12c0 95 -54 156 -132 156c-64 0 -92 -41 -92 -87c0 -43 22 -76 80 -92l-16 -77c-32 12 -66 20 -106 20c-90 0 -139 -76 -139 -185c0 -97 31 -174 141 -174c42 0 82 8 116 24l14 -75
c-42 -17 -97 -27 -148 -27c-119 0 -218 57 -218 240c0 149 73 269 233 267c-30 18 -45 48 -45 85c0 75 60 152 187 152c122 0 215 -71 215 -223v-16h138v-70h-138v-262c0 -75 15 -97 68 -97c24 0 48 4 67 8zM197 -70l77 30c51 -67 35 -130 -21 -195h-73c52 65 64 107 17 165
z" />
    <glyph glyph-name="ccedilla_t.alt1" horiz-adv-x="805" 
d="M766 76l7 -73c-29 -7 -67 -11 -98 -11c-102 0 -134 42 -134 151v284h-93v70h93v130c-31 18 -82 39 -140 39c-68 0 -101 -38 -101 -87c0 -51 36 -77 93 -95l-16 -76c-30 12 -61 21 -102 21c-90 0 -139 -76 -139 -185c0 -97 31 -174 141 -174c42 0 82 8 116 24l14 -75
c-41 -17 -97 -27 -148 -27c-119 0 -218 57 -218 240c0 157 78 263 219 267c-32 16 -45 52 -45 85c0 82 66 152 191 152c88 0 170 -29 225 -62v-177h138v-70h-138v-262c0 -75 15 -97 68 -97c24 0 48 4 67 8zM197 -70l77 30c51 -67 35 -130 -21 -195h-73c52 65 64 107 17 165z
" />
    <glyph glyph-name="d" unicode="d" horiz-adv-x="558" 
d="M473 0h-87c0 28 2 72 8 101l-2 1c-27 -67 -88 -111 -166 -111c-123 0 -183 89 -183 234c0 172 97 279 258 279c26 0 52 -1 83 -5v231h89v-730zM384 262v160c-31 7 -60 11 -89 11c-94 0 -157 -57 -157 -200c0 -107 34 -168 109 -168c85 0 137 94 137 197z" />
    <glyph glyph-name="dcaron" unicode="&#x10f;" horiz-adv-x="589" 
d="M473 0h-87c0 28 2 72 8 101l-2 1c-27 -67 -88 -111 -166 -111c-123 0 -183 89 -183 234c0 172 97 279 258 279c26 0 52 -1 83 -5v231h89v-730zM384 262v160c-31 7 -60 11 -89 11c-94 0 -157 -57 -157 -200c0 -107 34 -168 109 -168c85 0 137 94 137 197zM652 742
l-70 -177l-60 16l55 181z" />
    <glyph glyph-name="uni1E0B" unicode="&#x1e0b;" horiz-adv-x="558" 
d="M473 0h-87c0 28 2 72 8 101l-2 1c-27 -67 -88 -111 -166 -111c-123 0 -183 89 -183 234c0 172 97 279 258 279c26 0 52 -1 83 -5v231h89v-730zM384 262v160c-31 7 -60 11 -89 11c-94 0 -157 -57 -157 -200c0 -107 34 -168 109 -168c85 0 137 94 137 197zM486 854
c0 -32 -26 -58 -58 -58s-58 26 -58 58s26 58 58 58s58 -25 58 -58z" />
    <glyph glyph-name="uni1E0D" unicode="&#x1e0d;" horiz-adv-x="558" 
d="M473 0h-87c0 28 2 72 8 101l-2 1c-27 -67 -88 -111 -166 -111c-123 0 -183 89 -183 234c0 172 97 279 258 279c26 0 52 -1 83 -5v231h89v-730zM384 262v160c-31 7 -60 11 -89 11c-94 0 -157 -57 -157 -200c0 -107 34 -168 109 -168c85 0 137 94 137 197zM346 -157
c0 -32 -26 -58 -58 -58s-58 26 -58 58c0 33 26 58 58 58s58 -26 58 -58z" />
    <glyph glyph-name="uni1E0F" unicode="&#x1e0f;" horiz-adv-x="558" 
d="M147 -187v68h266v-68h-266zM473 0h-87c0 28 2 72 8 101l-2 1c-27 -67 -88 -111 -166 -111c-123 0 -183 89 -183 234c0 172 97 279 258 279c26 0 52 -1 83 -5v231h89v-730zM384 262v160c-31 7 -60 11 -89 11c-94 0 -157 -57 -157 -200c0 -107 34 -168 109 -168
c85 0 137 94 137 197z" />
    <glyph glyph-name="eth" unicode="&#xf0;" horiz-adv-x="546" 
d="M463 673l-97 -42c86 -104 137 -227 137 -358c0 -191 -104 -282 -237 -282c-135 0 -226 81 -226 253c0 148 91 261 235 261c42 0 85 -13 105 -45c-11 21 -24 41 -30 51c-16 28 -36 56 -64 86l-102 -46l-38 47l94 42c-23 21 -50 42 -81 66l90 38c26 -21 51 -43 75 -68
l100 44zM410 261c0 103 -46 170 -138 170c-72 0 -139 -56 -139 -180c0 -118 54 -184 143 -184c74 0 134 56 134 194z" />
    <glyph glyph-name="dcroat" unicode="&#x111;" horiz-adv-x="558" 
d="M544 591h-71v-591h-87c0 28 2 72 8 101l-2 1c-27 -67 -88 -111 -166 -111c-123 0 -183 89 -183 234c0 174 99 279 257 279c27 0 53 -2 84 -5v92h-117v61h117v78h89v-78h71v-61zM384 257v165c-31 7 -60 11 -89 11c-94 0 -157 -57 -157 -200c0 -107 34 -168 109 -168
c91 0 137 105 137 192z" />
    <glyph glyph-name="e" unicode="e" horiz-adv-x="508" 
d="M434 90l12 -69c-54 -19 -112 -30 -170 -30c-153 0 -235 80 -235 255c0 148 83 260 224 260c139 0 197 -93 197 -205c0 -31 -3 -59 -3 -59h-325c-2 -122 48 -179 153 -179c49 0 98 9 147 27zM135 305h235c2 86 -41 133 -111 133c-65 0 -114 -47 -124 -133z" />
    <glyph glyph-name="egrave" unicode="&#xe8;" horiz-adv-x="508" 
d="M434 90l12 -69c-54 -19 -112 -30 -170 -30c-153 0 -235 80 -235 255c0 148 83 260 224 260c139 0 197 -93 197 -205c0 -31 -3 -59 -3 -59h-325c-2 -122 48 -179 153 -179c49 0 98 9 147 27zM135 305h235c2 86 -41 133 -111 133c-65 0 -114 -47 -124 -133zM314 612
l-44 -43l-140 128l55 54z" />
    <glyph glyph-name="eacute" unicode="&#xe9;" horiz-adv-x="508" 
d="M434 90l12 -69c-54 -19 -112 -30 -170 -30c-153 0 -235 80 -235 255c0 148 83 260 224 260c139 0 197 -93 197 -205c0 -31 -3 -59 -3 -59h-325c-2 -122 48 -179 153 -179c49 0 98 9 147 27zM135 305h235c2 86 -41 133 -111 133c-65 0 -114 -47 -124 -133zM392 698
l-140 -129l-44 43l129 139z" />
    <glyph glyph-name="ecircumflex" unicode="&#xea;" horiz-adv-x="508" 
d="M434 90l12 -69c-54 -19 -112 -30 -170 -30c-153 0 -235 80 -235 255c0 148 83 260 224 260c139 0 197 -93 197 -205c0 -31 -3 -59 -3 -59h-325c-2 -122 48 -179 153 -179c49 0 98 9 147 27zM135 305h235c2 86 -41 133 -111 133c-65 0 -114 -47 -124 -133zM401 614
l-39 -44l-100 85l-102 -85l-37 43l140 131z" />
    <glyph glyph-name="ecaron" unicode="&#x11b;" horiz-adv-x="508" 
d="M434 90l12 -69c-54 -19 -112 -30 -170 -30c-153 0 -235 80 -235 255c0 148 83 260 224 260c139 0 197 -93 197 -205c0 -31 -3 -59 -3 -59h-325c-2 -122 48 -179 153 -179c49 0 98 9 147 27zM135 305h235c2 86 -41 133 -111 133c-65 0 -114 -47 -124 -133zM400 701
l-140 -131l-138 130l39 44l100 -85l101 85z" />
    <glyph glyph-name="edieresis" unicode="&#xeb;" horiz-adv-x="508" 
d="M434 90l12 -69c-54 -19 -112 -30 -170 -30c-153 0 -235 80 -235 255c0 148 83 260 224 260c139 0 197 -93 197 -205c0 -31 -3 -59 -3 -59h-325c-2 -122 48 -179 153 -179c49 0 98 9 147 27zM135 305h235c2 86 -41 133 -111 133c-65 0 -114 -47 -124 -133zM412 654
c0 -30 -24 -54 -54 -54s-54 24 -54 54s24 54 54 54s54 -24 54 -54zM220 654c0 -30 -24 -54 -54 -54s-54 24 -54 54s24 54 54 54s54 -24 54 -54z" />
    <glyph glyph-name="emacron" unicode="&#x113;" horiz-adv-x="508" 
d="M434 90l12 -69c-54 -19 -112 -30 -170 -30c-153 0 -235 80 -235 255c0 148 83 260 224 260c139 0 197 -93 197 -205c0 -31 -3 -59 -3 -59h-325c-2 -122 48 -179 153 -179c49 0 98 9 147 27zM135 305h235c2 86 -41 133 -111 133c-65 0 -114 -47 -124 -133zM384 616h-252
v68h252v-68z" />
    <glyph glyph-name="ebreve" unicode="&#x115;" horiz-adv-x="508" 
d="M434 90l12 -69c-54 -19 -112 -30 -170 -30c-153 0 -235 80 -235 255c0 148 83 260 224 260c139 0 197 -93 197 -205c0 -31 -3 -59 -3 -59h-325c-2 -122 48 -179 153 -179c49 0 98 9 147 27zM135 305h235c2 86 -41 133 -111 133c-65 0 -114 -47 -124 -133zM321 718h62
c0 -71 -39 -135 -127 -135s-123 65 -123 135h61c0 -37 21 -68 63 -68c39 0 64 25 64 68z" />
    <glyph glyph-name="edotaccent" unicode="&#x117;" horiz-adv-x="508" 
d="M434 90l12 -69c-54 -19 -112 -30 -170 -30c-153 0 -235 80 -235 255c0 148 83 260 224 260c139 0 197 -93 197 -205c0 -31 -3 -59 -3 -59h-325c-2 -122 48 -179 153 -179c49 0 98 9 147 27zM135 305h235c2 86 -41 133 -111 133c-65 0 -114 -47 -124 -133zM320 657
c0 -32 -26 -58 -58 -58s-58 25 -58 58c0 32 26 58 58 58s58 -26 58 -58z" />
    <glyph glyph-name="eogonek" unicode="&#x119;" horiz-adv-x="508" 
d="M434 90l12 -68c-69 -24 -137 -88 -137 -147c0 -26 15 -40 40 -40c22 0 43 9 66 26l28 -51c-32 -29 -71 -44 -112 -44c-68 0 -108 35 -108 91c0 46 26 98 77 137c-10 -1 -26 -2 -35 -2c-129 0 -224 69 -224 254c0 148 83 260 224 260c139 0 197 -93 197 -205
c0 -28 -3 -59 -3 -59h-325c-2 -122 48 -179 153 -179c49 0 98 9 147 27zM135 305h235c2 86 -41 133 -111 133c-65 0 -114 -47 -124 -133z" />
    <glyph glyph-name="uni1EB9" unicode="&#x1eb9;" horiz-adv-x="508" 
d="M434 90l12 -69c-54 -19 -112 -30 -170 -30c-153 0 -235 80 -235 255c0 148 83 260 224 260c139 0 197 -93 197 -205c0 -31 -3 -59 -3 -59h-325c-2 -122 48 -179 153 -179c49 0 98 9 147 27zM135 305h235c2 86 -41 133 -111 133c-65 0 -114 -47 -124 -133zM323 -160
c0 -32 -26 -58 -58 -58s-58 26 -58 58c0 33 26 58 58 58s58 -26 58 -58z" />
    <glyph glyph-name="uni1EBB" unicode="&#x1ebb;" horiz-adv-x="508" 
d="M434 90l12 -69c-54 -19 -112 -30 -170 -30c-153 0 -235 80 -235 255c0 148 83 260 224 260c139 0 197 -93 197 -205c0 -31 -3 -59 -3 -59h-325c-2 -122 48 -179 153 -179c49 0 98 9 147 27zM135 305h235c2 86 -41 133 -111 133c-65 0 -114 -47 -124 -133zM266 557l-12 46
c13 4 54 22 54 51c0 22 -19 34 -52 34c-31 0 -67 -12 -76 -16l-14 51c16 7 61 23 111 23c65 0 105 -27 105 -77c0 -71 -84 -104 -116 -112z" />
    <glyph glyph-name="uni1EBD" unicode="&#x1ebd;" horiz-adv-x="508" 
d="M434 90l12 -69c-54 -19 -112 -30 -170 -30c-153 0 -235 80 -235 255c0 148 83 260 224 260c139 0 197 -93 197 -205c0 -31 -3 -59 -3 -59h-325c-2 -122 48 -179 153 -179c49 0 98 9 147 27zM135 305h235c2 86 -41 133 -111 133c-65 0 -114 -47 -124 -133zM390 706l45 -35
c-26 -50 -63 -78 -109 -78c-65 0 -86 55 -128 55c-22 0 -42 -16 -59 -47l-45 35c26 50 63 78 109 78c65 0 86 -54 128 -54c22 0 42 15 59 46z" />
    <glyph glyph-name="uni1EBF" unicode="&#x1ebf;" horiz-adv-x="508" 
d="M434 90l12 -69c-54 -19 -112 -30 -170 -30c-153 0 -235 80 -235 255c0 148 83 260 224 260c139 0 197 -93 197 -205c0 -31 -3 -59 -3 -59h-325c-2 -122 48 -179 153 -179c49 0 98 9 147 27zM135 305h235c2 86 -41 133 -111 133c-65 0 -114 -47 -124 -133zM393 589
l-33 -38l-98 69l-98 -69l-31 37l130 106zM360 779l-178 -58l-19 45l169 74z" />
    <glyph glyph-name="uni1EC1" unicode="&#x1ec1;" horiz-adv-x="508" 
d="M434 90l12 -69c-54 -19 -112 -30 -170 -30c-153 0 -235 80 -235 255c0 148 83 260 224 260c139 0 197 -93 197 -205c0 -31 -3 -59 -3 -59h-325c-2 -122 48 -179 153 -179c49 0 98 9 147 27zM135 305h235c2 86 -41 133 -111 133c-65 0 -114 -47 -124 -133zM393 589
l-33 -38l-98 69l-98 -69l-31 37l130 106zM327 721l-178 58l28 61l168 -74z" />
    <glyph glyph-name="uni1EC3" unicode="&#x1ec3;" horiz-adv-x="508" 
d="M434 90l12 -69c-54 -19 -112 -30 -170 -30c-153 0 -235 80 -235 255c0 148 83 260 224 260c139 0 197 -93 197 -205c0 -31 -3 -59 -3 -59h-325c-2 -122 48 -179 153 -179c49 0 98 9 147 27zM135 305h235c2 86 -41 133 -111 133c-65 0 -114 -47 -124 -133zM393 589
l-33 -38l-98 69l-98 -69l-31 37l130 106zM333 690l-41 31c9 7 23 20 23 36c0 21 -16 33 -53 33c-33 0 -69 -13 -77 -17l-13 48c15 7 55 23 109 23c62 0 102 -27 102 -74c0 -38 -28 -66 -50 -80z" />
    <glyph glyph-name="uni1EC5" unicode="&#x1ec5;" horiz-adv-x="508" 
d="M434 90l12 -69c-54 -19 -112 -30 -170 -30c-153 0 -235 80 -235 255c0 148 83 260 224 260c139 0 197 -93 197 -205c0 -31 -3 -59 -3 -59h-325c-2 -122 48 -179 153 -179c49 0 98 9 147 27zM135 305h235c2 86 -41 133 -111 133c-65 0 -114 -47 -124 -133zM392 589
l-32 -38l-98 69l-99 -69l-30 37l130 106zM368 825l45 -28c-20 -43 -59 -70 -95 -70c-53 0 -65 49 -98 49c-16 0 -32 -13 -47 -42l-45 28c20 43 58 70 94 70c54 0 65 -49 99 -49c16 0 32 13 47 42z" />
    <glyph glyph-name="uni1EC7" unicode="&#x1ec7;" horiz-adv-x="508" 
d="M434 90l12 -69c-54 -19 -112 -30 -170 -30c-153 0 -235 80 -235 255c0 148 83 260 224 260c139 0 197 -93 197 -205c0 -31 -3 -59 -3 -59h-325c-2 -122 48 -179 153 -179c49 0 98 9 147 27zM135 305h235c2 86 -41 133 -111 133c-65 0 -114 -47 -124 -133zM323 -160
c0 -32 -26 -58 -58 -58s-58 26 -58 58c0 33 26 58 58 58s58 -26 58 -58zM401 614l-39 -44l-100 85l-102 -85l-37 43l140 131z" />
    <glyph glyph-name="uni0259" unicode="&#x259;" horiz-adv-x="502" 
d="M45 286h323c-6 100 -60 150 -156 150c-48 0 -97 -9 -139 -28l-16 67c50 20 110 31 168 31c151 0 237 -80 237 -254c0 -157 -81 -261 -224 -261c-138 0 -197 96 -197 229c0 22 1 44 4 66zM369 222h-237v-17c0 -99 44 -144 113 -144c81 0 124 69 124 161z" />
    <glyph glyph-name="f" unicode="f" horiz-adv-x="350" 
d="M337 497v-70h-138v-427h-90v427h-102v70h102v31c0 143 72 208 193 208c40 0 80 -8 80 -8l-8 -76s-37 11 -74 11c-70 0 -101 -40 -101 -129v-37h138z" />
    <glyph glyph-name="uni1E1F" unicode="&#x1e1f;" horiz-adv-x="350" 
d="M337 497v-70h-138v-427h-90v427h-102v70h102v31c0 143 72 208 193 208c40 0 80 -8 80 -8l-8 -76s-37 11 -74 11c-70 0 -101 -40 -101 -129v-37h138zM310 854c0 -32 -26 -58 -58 -58s-58 26 -58 58s26 58 58 58s58 -25 58 -58z" />
    <glyph glyph-name="ff" unicode="&#xfb00;" horiz-adv-x="652" 
d="M502 0h-90v427h-213v-427h-90v427h-102v70h102v25c0 110 54 206 216 206c52 0 111 -13 157 -27c32 23 73 35 123 35c39 0 79 -8 79 -8l-7 -76s-38 11 -75 11c-69 0 -100 -40 -100 -129v-37h138v-70h-138v-427zM412 497v31c0 43 7 78 21 105c-35 13 -77 21 -115 21
c-81 0 -119 -43 -119 -123v-34h213z" />
    <glyph glyph-name="f_f.alt1" horiz-adv-x="656" 
d="M505 0h-90v427h-216v-427h-90v427h-102v70h102v30c0 136 70 200 186 200c31 0 60 -4 60 -4l-7 -75s-26 6 -56 6c-64 0 -93 -40 -93 -122v-35h216v31c0 143 72 208 193 208c40 0 80 -8 80 -8l-8 -76s-37 11 -74 11c-70 0 -101 -40 -101 -129v-37h138v-70h-138v-427z" />
    <glyph glyph-name="f_f_f.alt1" horiz-adv-x="962" 
d="M811 0h-90v427h-216v-427h-90v427h-216v-427h-90v427h-102v70h102v21c0 136 70 201 186 201c31 0 60 -4 60 -4l-7 -75s-26 6 -56 6c-64 0 -93 -40 -93 -122v-27h216v30c0 136 70 200 186 200c31 0 60 -4 60 -4l-7 -75s-26 6 -56 6c-64 0 -93 -40 -93 -122v-35h216v31
c0 143 72 208 193 208c40 0 80 -8 80 -8l-8 -76s-37 11 -74 11c-70 0 -101 -40 -101 -129v-37h138v-70h-138v-427z" />
    <glyph glyph-name="ffi" unicode="&#xfb03;" horiz-adv-x="891" 
d="M808 0h-90v427h-216v-427h-90v427h-213v-427h-90v427h-102v70h102v25c0 110 54 206 216 206c52 0 117 -13 167 -31c36 25 83 40 149 40c53 0 105 -8 146 -19l-18 -75c-41 12 -89 20 -135 20c-91 0 -132 -50 -132 -134v-32h306v-497zM412 497v21c0 38 6 79 25 113
c-38 15 -80 23 -119 23c-81 0 -119 -43 -119 -123v-34h213z" />
    <glyph glyph-name="f_f_i.alt1" horiz-adv-x="896" 
d="M826 653c0 -32 -26 -57 -58 -57s-58 25 -58 57s26 57 58 57s58 -25 58 -57zM811 0h-90v427h-216v-427h-90v427h-216v-427h-90v427h-102v70h102v30c0 136 70 200 186 200c31 0 60 -4 60 -4l-7 -75s-26 6 -56 6c-64 0 -93 -40 -93 -122v-35h216v38c0 136 70 201 184 201
c32 0 60 -4 60 -4l-6 -75s-27 6 -56 6c-63 0 -92 -40 -92 -122v-44h306v-497z" />
    <glyph glyph-name="f_f_iogonek.alt1" horiz-adv-x="896" 
d="M826 653c0 -32 -26 -57 -58 -57s-58 25 -58 57s26 57 58 57s58 -25 58 -57zM843 -139l28 -51c-32 -29 -71 -44 -113 -44c-67 0 -107 35 -107 91c0 50 25 96 70 145v425h-216v-427h-90v427h-216v-427h-90v427h-102v70h102v30c0 136 70 200 186 200c31 0 60 -4 60 -4
l-7 -75s-26 6 -56 6c-64 0 -93 -40 -93 -122v-35h216v38c0 136 70 201 184 201c32 0 60 -4 60 -4l-6 -75s-27 6 -56 6c-63 0 -92 -40 -92 -122v-44h306v-497c-57 -50 -74 -94 -74 -125c0 -26 14 -40 40 -40c21 0 42 9 66 26z" />
    <glyph glyph-name="f_f_dotlessi.2" horiz-adv-x="896" 
d="M811 0h-90v427h-216v-427h-90v427h-216v-427h-90v427h-102v70h102v30c0 136 70 200 186 200c31 0 60 -4 60 -4l-7 -75s-26 6 -56 6c-64 0 -93 -40 -93 -122v-35h216v53c0 121 56 186 152 186c28 0 52 -4 52 -4l-8 -76s-21 7 -43 7c-47 0 -63 -42 -63 -106v-60h306v-497z
" />
    <glyph glyph-name="f_f_j.alt1" horiz-adv-x="896" 
d="M826 653c0 -32 -26 -57 -58 -57s-58 25 -58 57s26 57 58 57s58 -25 58 -57zM811 497v-552c0 -133 -41 -199 -172 -199c-21 0 -48 3 -68 9l8 79c18 -7 41 -12 63 -12c62 0 79 26 79 115v490h-216v-427h-90v427h-216v-427h-90v427h-102v70h102v30c0 136 70 200 186 200
c31 0 60 -4 60 -4l-7 -75s-26 6 -56 6c-64 0 -93 -40 -93 -122v-35h216v38c0 136 70 201 184 201c32 0 60 -4 60 -4l-6 -75s-27 6 -56 6c-63 0 -92 -40 -92 -122v-44h306z" />
    <glyph glyph-name="ffl" unicode="&#xfb04;" horiz-adv-x="891" 
d="M808 0h-90v656s-46 8 -93 8c-84 0 -123 -37 -123 -128v-39h127v-70h-127v-427h-90v427h-213v-427h-90v427h-102v70h102v25c0 110 54 205 216 205c52 0 113 -12 162 -28c34 24 82 37 149 37c81 0 172 -13 172 -13v-723zM412 497v35c0 47 10 79 21 101
c-35 13 -77 21 -115 21c-81 0 -119 -43 -119 -123v-34h213z" />
    <glyph glyph-name="f_f_l.alt" horiz-adv-x="942" 
d="M923 73v-72s-35 -9 -72 -9c-97 0 -133 42 -133 141v523s-46 8 -93 8c-84 0 -123 -37 -123 -128v-39h127v-70h-127v-427h-90v427h-213v-427h-90v427h-102v70h102v25c0 110 54 205 216 205c52 0 113 -12 162 -28c34 24 82 37 149 37c81 0 172 -13 172 -13v-576
c0 -56 17 -80 64 -80c25 0 51 6 51 6zM412 497v35c0 47 10 79 21 101c-35 13 -77 21 -115 21c-81 0 -119 -43 -119 -123v-34h213z" />
    <glyph glyph-name="fi" unicode="&#xfb01;" horiz-adv-x="590" 
d="M505 0h-90v427h-216v-427h-90v427h-102v70h102v21c0 136 72 219 229 219c53 0 105 -8 146 -19l-17 -75c-41 12 -89 20 -136 20c-90 0 -132 -50 -132 -134v-32h306v-497z" />
    </font>
</defs>
</svg>
